<svg xmlns="http://www.w3.org/2000/svg" viewBox="0 0 85.33 82.97"><defs><style>.cls-1{fill:#040000;}</style></defs><g id="图层_2" data-name="图层 2"><g id="图层_1-2" data-name="图层 1"><path class="cls-1" d="M41.41,3.77l.76-.29a2.81,2.81,0,0,1,3.45,1.37c1.92,3.79,2.16,7.85,1.87,12.51A60.41,60.41,0,0,1,52.7,5.28a10.82,10.82,0,0,1,3-3.05C56.78,1.68,57.05.05,58.55,0c.94.61,2.21.22,3.09,1C64.41,3.16,64.13,5.84,63,8.73c-1.93,5.09-4.36,10-5.52,15.4a13.2,13.2,0,0,0-.59,3.54c2.73-1.44,4.68-3.46,6.83-5.23,4.84-4,9.82-7.75,16.7-6.67,4,2.68,4.17,6,.31,9.36-4.61,4-9.45,7.72-14.11,11.65-.55.46-1.33.72-1.51,1.83,3.1-.47,6.15-.59,9.18-1a13.34,13.34,0,0,1,8.88,2.22c1.31.79,2.4,1.84,2.07,3.63C83.51,47.58,80,49,75.9,49.58c-5.5.64-11.05.66-16.52,1.49-1,.16-2.54-.39-2.9,1s1.07,1.77,1.87,2.49c.36.33.78.59,1.16.92C63.62,60.38,68,65.08,71.4,70.61a8.62,8.62,0,0,1,.68,5.82c-2.49,3.47-5.35,4.09-8.8,1.85A26.32,26.32,0,0,1,58.22,74c-3.47-4.09-5.94-8.83-8.77-13.45-.44,4.45-.32,8.84-.33,13.24a15.34,15.34,0,0,1-1.38,6.07c-.92,2-2.12,3.7-4.78,2.93C39.43,79,39.43,74,38.29,69.39c-.24-3.09,0-6.19-.16-9.68a67.32,67.32,0,0,0-8.92,11.65c-2.28,3.1-3.72,6.92-7.45,8.81a7.22,7.22,0,0,1-7.32-.36,4.94,4.94,0,0,1-1.34-3.69,20.5,20.5,0,0,1,.58-2.67,5.78,5.78,0,0,1,1-1.87,20,20,0,0,0,2.84-4.87c3.16-5.68,9-8.65,13-12.8-6,2.13-12.7,3.41-19.21,5.33-1.71.11-3.33.88-5.09.72a2.64,2.64,0,0,1-1.51-.85C2.43,58-.36,57.4,0,53.93a15.36,15.36,0,0,1,4.63-4.45,5.11,5.11,0,0,1,1.61-1.39c5-1.87,10.17-3.18,16-4.87-4.34-2.49-7.68-5.29-11.84-6.74a9.08,9.08,0,0,1-3.93-2.06A8,8,0,0,1,4.8,31.13c0-1.36-.07-2.72-.1-4.08L6.24,25c2.77-1.74,5.52-.69,8.28,0,5.31,1.43,9.93,4.24,14.54,7.55,1-2.44.25-4.39-.55-6.27-1.74-4.1-3.67-8.13-5.33-12.26-1.19-3-1.68-6.19.79-8.69,1.26-1.28,6,1.53,7.92,4.43,2.08,3.15,3,6.79,4.28,10.27A11.06,11.06,0,0,0,38.28,24c0-4-.06-8,0-12A12.21,12.21,0,0,1,41.41,3.77Z"/></g></g></svg>