<svg width="116" height="103" viewBox="0 0 116 103" fill="none" xmlns="http://www.w3.org/2000/svg">
<path d="M58.1991 4.1284L59.2249 3.79683C61.0199 3.25578 62.9664 4.04269 63.7704 5.63449C66.1751 10.4245 66.3275 15.4858 65.7482 21.2732C67.645 16.0914 70.1427 11.1183 73.197 6.44232C74.2967 4.9717 75.7 3.7207 77.3248 2.76266C78.7881 2.11988 79.2156 0.10201 81.2186 0.0975952C82.4473 0.892858 84.1575 0.45649 85.2992 1.46099C88.905 4.25547 88.4208 7.5795 86.7941 11.1321C84.0094 17.3914 80.5651 23.4075 78.7947 30.0822C78.2712 31.4965 77.9572 32.9709 77.8615 34.4645C81.5626 32.7778 84.2472 30.3394 87.1883 28.2197C93.8098 23.4288 100.608 18.9544 109.741 20.5634C114.966 24.0523 115.055 28.19 109.768 32.2223C103.453 37.0221 96.843 41.4645 90.4645 46.1752C89.7118 46.7264 88.6606 47.0199 88.3747 48.3942C92.5293 47.9288 96.6027 47.8969 100.662 47.5035C104.849 47.2129 109.013 48.3125 112.415 50.6081C114.13 51.6416 115.541 52.9901 115.027 55.2047C112.549 60.2648 107.808 61.8965 102.315 62.4603C94.9517 63.0447 87.5475 62.8558 80.2166 63.6778C78.876 63.8384 76.8444 63.0947 76.3068 64.8105C75.7692 66.5262 77.661 67.0542 78.6984 67.9809C79.165 68.4054 79.7145 68.7451 80.2078 69.1704C85.488 75.426 91.1365 81.4431 95.4435 88.4553C96.5688 90.7311 96.8046 93.3025 96.1102 95.7235C92.6454 99.9454 88.8047 100.607 84.2951 97.6865C81.8635 96.112 79.655 94.257 77.7221 92.1658C73.2623 86.9428 70.1632 80.9494 66.579 75.0916C65.8082 80.612 65.787 86.0792 65.5919 91.5539C65.4516 94.161 64.7397 96.7135 63.5004 99.0539C62.1906 101.507 60.5196 103.576 57.0031 102.516C52.4508 97.6636 52.6573 91.4419 51.3271 85.6616C51.1345 81.8074 51.5827 77.9591 51.5134 73.6102C46.8463 77.893 42.695 82.6388 39.1335 87.7631C35.9641 91.5327 33.8854 96.2306 28.8317 98.4387C25.6812 99.8664 21.9482 99.5869 19.0821 97.7087C17.8729 96.4381 17.2811 94.7575 17.447 93.0655C17.6627 91.9484 17.958 90.8459 18.331 89.7654C18.6461 88.928 19.1245 88.1522 19.7422 87.4771C21.3666 85.6792 22.7097 83.6758 23.7317 81.5266C28.1816 74.5805 36.0945 71.1098 41.6016 66.0999C33.51 68.5192 24.5197 69.8538 15.7564 71.9921C13.4708 72.0631 11.2781 72.9588 8.93694 72.6919C8.16141 72.5383 7.46411 72.1452 6.95778 71.5761C3.96224 70.107 0.265307 69.2529 0.888845 64.9489C2.58035 62.7646 4.7477 60.9384 7.24881 59.59C7.8503 58.896 8.60158 58.3279 9.45385 57.9224C16.2008 55.7882 23.1514 54.3572 30.9981 52.4789C25.3116 49.2133 20.9719 45.6005 15.4826 43.636C13.5493 43.1428 11.7772 42.21 10.3253 40.9212C9.29018 39.7061 8.57386 38.2822 8.23342 36.763C8.28962 35.0707 8.25239 33.3757 8.26855 31.6823L10.4075 29.1907C14.1744 27.1322 17.7994 28.5448 21.4526 29.5097C28.4767 31.4937 34.5235 35.1682 40.5362 39.4646C41.971 36.467 41.0511 34.0116 40.0615 31.6414C37.9098 26.4726 35.5018 21.3836 33.458 16.1805C31.9945 12.4017 31.4726 8.41334 34.8707 5.39765C36.6043 3.85346 42.8112 7.53265 45.2526 11.2152C47.8971 15.215 48.974 19.7798 50.5377 24.1594C51.0434 25.9849 51.9456 27.6939 53.1883 29.1807C53.3535 24.2034 53.4387 19.2237 53.684 14.2487C53.7873 10.4688 55.3971 6.86059 58.1991 4.1284Z" fill="#F2D17F"/>
</svg>
