<svg xmlns="http://www.w3.org/2000/svg" viewBox="0 0 40.38 49.37"><defs><style>.cls-1{fill:#ce4b70;}.cls-2{fill:#c76689;}.cls-3{fill:#c06789;}.cls-4{fill:#deb0c6;}.cls-5{fill:#f1ccdd;}.cls-6{fill:#f5d2e4;}.cls-7{fill:#dd9fb9;}.cls-8{fill:#e7b1c8;}</style></defs><title>资源 2</title><g id="图层_2" data-name="图层 2"><g id="图层_1-2" data-name="图层 1"><path class="cls-1" d="M30.05,5.06,34,10.28C36.56,15,35.22,20.07,35.2,25a15,15,0,0,1-2.55,5.9c-2.52,1.34-3.27-.11-3.44-2.27-.12-1.69.9-3.16,1.17-4.78-4.6,2.67-4.6,2.67-3.4,7.68.49,2.07-3.07,6.81-5,6.42-2.53-.5-.71-2.28-.92-3.67C19.83,40.78,12.24,41.46,9.83,47c-.55,1.24-3.2.72-3-.64.66-4.63-3.38-9.23,0-13.78a21.8,21.8,0,0,1,2.7-5.63,10.06,10.06,0,0,0,3.65-5.44A42.48,42.48,0,0,1,19.7,10.62a7.72,7.72,0,0,1,3.36-1.1,2.73,2.73,0,0,1,1.31.38c.95.67,1.88,1.63,2.24-.54C27,7.34,27.15,5.09,30.05,5.06Z"/><path class="cls-2" d="M34,25.77Q34,18,34,10.28c6.85,6,8.35,12.34,3.76,19.82a41.39,41.39,0,0,1-22.9,18.27c-9,2.9-13.81-.51-14.51-10C0,33.8-.7,29.06,2,24.78c.12.11.32.19.36.33.48,1.5.29,14.55-.22,16,1.33-3.4,1.39-3.41.55-7-.52-2.2-1-4.28,1.7-5.43,2.58.26,2.27,3,3.72,4.27-.48,2.12-3.85,4-.37,6.53.69.5.21,2.5.38,3.79s-1.91,2.77.18,3.37.59-2,1.74-2.79c1.37-.93,1.6-2.94,3.95-3.24,2-.26,3.52-1.87,4.4-4.2a8.61,8.61,0,0,1,5-5.35c1,2.67-1.44,4-2.13,6.05,4.41-2.69,4.11-2.61,2.69-7.79-.56-2.05,1.63-4.62,3.18-5.37,1.84-.89,2.32-2.65,4-3.76,1.79,2.1.73,4-.06,5.91-.7,1.72-2.33,3.72.86,4.78,1.18,3.36-2.32,4.15-3.81,7.05,4.67-6.12,10.06-11,8.39-19C35.44,21.24,38,24.68,34,25.77Z"/><path class="cls-3" d="M14,21.86c-.38,2.5-.95,4.84-4.09,5.16-2.08-.35-1.43-1.85-1.08-3,.78-2.46,1.28-5,2.76-7.61-1.37.91-1.69,2.62-3.25,2.79-1.94-1.5-2.07-3.68-1.76-5.74.25-1.64-.78-1.92-1.66-2.54,0-2.62,1.53-4.62,2.73-6.76a2.86,2.86,0,0,1,.65-.74c1-.81,1.66-2.34,3.19-2,6.12,1.52,14-6.27,18.55,3.56-1.23,1.44-2.89,2.61-2.09,5,.44,1.32.14,2.69-1.69,2.86C24,13.13,24,11.59,24,10c-.22-.35-.32-1-.76-.93-.59.09-.33.63-.22,1-.81,1-2,.84-3.1.92C15.82,13.47,14.87,17.64,14,21.86Z"/><path class="cls-1" d="M4.93,11l4.9-.64C6.29,13.32,8.24,16.24,8,19c.1,3.65-.21,7.18-2.89,10-2.22.94-2,2.49-1.47,4.49a11.64,11.64,0,0,1-1.31,9.17C2.18,36.29.5,30.59,2,24.78A46.42,46.42,0,0,1,4.93,11Z"/><path class="cls-4" d="M5.14,29C6,25.66,6.05,22,8,19c1.56-2,2.4-4.6,5.62-5.8-.84,5-4.27,8.94-3.73,13.83L8.06,33C5.47,32.87,5.64,30.7,5.14,29Z"/><path class="cls-5" d="M34,25.77c2.57-2.94.33-6.69,1.57-9.89,7.4,5.26-1,18.67-10,23.85,1.89-3.38,5.57-5.08,6.38-8.79Z"/><path class="cls-6" d="M14,21.86c-1.49-4.79,1.87-8.11,3.78-11.78.63-1.21,1.45.53,2.17,1Q17,16.45,14,21.86Z"/><path class="cls-7" d="M23.06,10.13c-.85-.47-3.08.25-2.3-1.45.52-1.13,2.91-2.27,4.35-1.23C26.79,8.65,24.12,9,24,10A6.38,6.38,0,0,0,23.06,10.13Z"/><path class="cls-8" d="M11.65,13.05c.52-4.17,2.18-5.74,4.42-6.8.12-.06.88.66.82.86C16.19,9.47,13.79,10.15,11.65,13.05Z"/><path class="cls-7" d="M17.92,5.41c3-3.16,3.43-3.26,8.48-1.71A41.09,41.09,0,0,0,17.92,5.41Z"/></g></g></svg>