<svg xmlns="http://www.w3.org/2000/svg" viewBox="0 0 57.38 56.61"><defs><style>.cls-1{fill:#ecd49b;}.cls-2{fill:#f2e6c0;}.cls-3{fill:#efe4c0;}</style></defs><title>资源 5</title><g id="图层_2" data-name="图层 2"><g id="图层_1-2" data-name="图层 1"><path class="cls-1" d="M47.89,11.55c-.87-.93-1.75-1.56-3-.63h0c-1.82,2-4.15,4.57-6.5,2-1.79-1.95.14-4.86,1.69-7,.17-.23.57-.32.82-.53,2.47-2.14,1.61-3.53-1-4.52C38.83.49,37.73-.4,36.59.2A16.16,16.16,0,0,1,25,1.36a5,5,0,0,0-3.83.76C16.14,6.4,8.68,7.06,4.91,13.18,4.24,14.27,3,15.51,1.65,15a1.7,1.7,0,0,1-.33-.2A16.72,16.72,0,0,1,0,16.43v4.21c0,9.47-.07,18.92,1.9,28.25a14.88,14.88,0,0,1,.94,1.16c5.91,7,6.12,7.06,11.39-.36,1.28-1.81,2.16-2.27,3.6-.16,1.21,1.76,2.86,2.87,5.07,1.38,1.49.67,4.55-1.65,4.42,1.92s1.61,2.7,3.73,2.2c4.44-1,8.3-3.26,12.38-5.1,5.21-2.36,7.05-6.28,8.46-11Q59.39,23.84,47.89,11.55Z"/><path class="cls-2" d="M51.9,38.91c.28-4.1,2.7-7.81,2-12.1s-.87-8.87-5.43-11c-2.26-1.07.21-5.2-3.57-4.84.85-1.4,1.65-2.83,2.58-4.18,1.66-2.41,3.36-2.79,4.37.4.57,1.81,2.31,2.26,3.25,3.57,1.76,2.45,3.66,4.76.8,7.75-1.57,1.64-.93,3.62-.51,5.61,1.07,5-.71,9.69-2.15,14.36C53.16,38.7,52.36,38.75,51.9,38.91Z"/><path class="cls-3" d="M1.91,48.89c.16,0,.37,0,.49.08C4.77,50.78,7.15,54.06,9.49,54c2.91,0,2.73-4.83,4.86-6.93,1.45-1.42,2.86-3.73,3.7.48.49,2.48,2.41,3.43,4.86,3.32-5.62,6.92-11.46,7.47-20.91,2Z"/><path class="cls-2" d="M44.91,10.92c0,1.9-1.38,2.95-2.63,4-1.9,1.6-3.93.2-5.53-.47s-1-2.69-.1-3.92c1.41-2,.59-5.1,4-6.29C43,3.37,40.47,2,39.9.9,41.28,1,43,.25,43.7,2.23c.55,1.64-.43,2.78-1.53,3.89-.69.69-2.63,1.07-1.37,2.52C41.81,9.79,42.35,12.35,44.91,10.92Z"/></g></g></svg>