<svg xmlns="http://www.w3.org/2000/svg" viewBox="0 0 40.07 40.73"><defs><style>.cls-1{fill:#90c097;}.cls-2{fill:#c4dbc8;}.cls-3{fill:#70a87a;}.cls-4{fill:#d9f1d9;}.cls-5{fill:#c5e8ca;}</style></defs><title>资源 1</title><g id="图层_2" data-name="图层 2"><g id="图层_1-2" data-name="图层 1"><path class="cls-1" d="M.1,27.77c-.43-3.75.59-7.33,1.23-11A26.14,26.14,0,0,1,18.92.5c11.19-3.31,23.78,10.38,20.67,22C38.22,27.59,36.4,32.65,31,35.16c-2.29-.14-4,1.29-5.91,2.2A25.54,25.54,0,0,1,11,39.86C4.89,38,2.36,33,.1,27.77Z"/><path class="cls-2" d="M11,39.86c6.3-1.41,12.87-1.89,18.18-6.34,1.54-1.29,1.68.56,1.87,1.64C27.76,39.71,17.4,42.14,11,39.86Z"/><path class="cls-3" d="M16,34.76c-3.1-1.74-5-3.65-1.56-7,1.34-1.3,2.07-2.85-.36-4.25-2.27-1.32-.45-3.22-.2-4.86-1-2.85-.49-5.21,2.27-6.81.83.48,1,3.88,2.7.4,3.52-7,3-6.06,9.28-1.43,7,5.15.79,9.27.16,13.53-.41,2.75-3.8,5-4.56,8.29,0,.22-1.23.18-1.88.26C19.91,33.6,18.67,36.47,16,34.76Z"/><path class="cls-4" d="M16.14,11.88c-.76,2.27-1.51,4.54-2.27,6.81-2.48.37-2.31,3.42-4.33,4.21C8.76,17.79,12.18,12,16.14,11.88Z"/><path class="cls-5" d="M16,34.76c2.23.28,3.4-2.83,5.85-1.83-2.18,4-2.18,4-9.36,4.38C12.62,34.94,15.55,36.49,16,34.76Z"/></g></g></svg>