<svg width="42" height="60" viewBox="0 0 42 60" fill="none" xmlns="http://www.w3.org/2000/svg">
<g clip-path="url(#clip0_1284_7681)">
<path d="M28.7916 35.6692L26.8755 37.6564C21.9959 41.9112 21.2806 49.3507 15.3281 52.994C13.827 54.1354 12.0337 54.8317 10.1539 55.0029C8.27406 55.1741 6.38392 54.8134 4.70032 53.9622C3.90101 53.62 3.18743 53.1058 2.61068 52.4564C2.03392 51.807 1.60825 51.0385 1.36413 50.2058C1.12 49.3732 1.06346 48.4971 1.19856 47.6401C1.33366 46.7831 1.65704 45.9666 2.14558 45.2488C7.3828 30.5482 14.766 17.2233 26.7989 7.03224C29.5835 6.21696 32.2405 2.31887 35.2295 5.86027C36.6765 7.58162 37.5579 9.70491 37.7544 11.9425C37.9509 14.1801 37.4529 16.4239 36.3281 18.3698C33.2113 23.8475 31.5762 29.9112 28.7916 35.6692Z" fill="#45A3CF"/>
<path d="M28.7917 35.6692C28.7917 28.0259 34.3866 21.8858 34.7953 14.166C35.1275 7.72017 33.8245 4.56094 26.7734 7.05775L30.6566 2.85393C33.007 0.30616 35.5362 -1.17155 38.8829 1.09597C40.1951 1.98178 41.1866 3.26507 41.7111 4.75617C42.2355 6.24728 42.2651 7.86709 41.7953 9.37622C39.8537 19.2871 33.2114 26.9049 28.7917 35.6692Z" fill="#83C6E1"/>
<path d="M2.12076 45.249C4.34339 54.1153 8.81419 55.1344 16.0697 49.7841C20.7193 46.3446 19.7229 38.3955 26.8762 37.5293C25.3157 44.2997 21.6925 50.4227 16.504 55.058C13.1828 57.9624 10.3726 62.1662 5.28864 58.5994C0.204699 55.0325 -2.01793 50.9561 2.12076 45.249Z" fill="#83C6E1"/>
</g>
<defs>
<clipPath id="clip0_1284_7681">
<rect width="42" height="60" fill="white"/>
</clipPath>
</defs>
</svg>
