<svg width="51" height="66" viewBox="0 0 51 66" fill="none" xmlns="http://www.w3.org/2000/svg">
<path d="M10.0978 30.8064C13.531 26.8712 16.1454 22.2827 17.7862 17.3123C22.2199 12.9003 26.6023 8.48823 31.1385 4.231C38.8269 -3.0192 46.2591 -0.748676 48.54 9.39128C45.9772 10.7846 44.7726 8.17861 42.8761 7.61098C34.9058 6.1403 31.241 12.5391 26.7048 16.8995C23.5525 19.9183 21.7586 24.2271 19.0164 27.7877C15.3626 32.6556 12.1383 37.8356 9.38017 43.2685C6.96053 47.3454 6.11236 52.175 6.99675 56.8401C12.1224 61.4843 18.4525 60.5297 24.2189 54.1309C31.4973 46.0293 36.3153 36.3537 41.1078 26.704C42.3892 24.3045 43.7988 22.0082 44.9008 19.557C46.6435 16.3835 45.2852 12.0746 48.4887 9.44288C50.0221 11.3804 50.9073 13.7565 51.0178 16.2313C51.1283 18.7061 50.4583 21.1527 49.1038 23.2208C42.0817 33.722 39.237 46.4421 30.754 56.4788C26.967 61.1007 21.6544 64.1963 15.7872 65.1997C11.1485 66.1286 5.7666 67.0832 2.56309 62.4132C1.09745 60.0999 0.251619 57.444 0.107905 54.7041C-0.035809 51.9641 0.527492 49.2333 1.74299 46.7775C4.23928 41.3058 7.02829 35.9743 10.0978 30.8064Z" fill="#FBF6F5"/>
<path d="M8.12445 42.2369C10.6873 36.6896 12.635 30.8069 17.7094 26.7561C22.0405 23.2213 24.7571 18.2932 28.7295 14.3714C30.7028 12.4363 32.1124 12.0235 34.2908 13.2878C37.5199 16.9 38.2119 20.6928 35.2134 24.7952C29.1139 24.4082 28.3451 30.5231 24.9621 33.4129C23.0657 35.2706 20.5028 36.638 20.0672 39.7858C19.9292 41.4114 19.4205 42.9831 18.5807 44.3785C18.0682 45.0493 16.7611 44.9461 16.7355 46.1846C17.3169 45.8906 17.9266 45.6572 18.5551 45.4879C19.37 45.5947 20.1177 45.9986 20.6566 46.6232C21.8433 48.502 22.5883 50.6287 22.835 52.8413C22.8934 53.4169 22.8294 53.9984 22.6473 54.5471C22.4652 55.0959 22.1691 55.5993 21.7788 56.024C21.3885 56.4487 20.9129 56.7848 20.3836 57.0101C19.8543 57.2354 19.2834 57.3447 18.7089 57.3308C15.695 56.7289 12.6485 56.3068 9.58526 56.0665C4.28023 51.9641 6.76616 47.036 8.12445 42.2369Z" fill="#DD383F"/>
<path d="M17.9406 55.9889C18.4478 56.0136 18.9547 55.9334 19.4299 55.7533C19.9052 55.5731 20.3387 55.2968 20.7038 54.9414C21.0688 54.5859 21.3576 54.159 21.5523 53.6868C21.7471 53.2146 21.8437 52.7073 21.8361 52.1961C26.6798 43.6816 30.524 34.4963 37.8024 27.5557C38.5158 26.9834 39.3745 26.6243 40.2807 26.5194C41.1869 26.4145 42.1042 26.5679 42.928 26.9623C39.1156 37.6818 33.3439 47.5881 25.9109 56.1695C19.0682 64.0647 8.89384 64.7098 4.33203 57.795C7.53555 55.8857 11.1235 58.9819 14.327 57.0726C15.5059 56.7629 16.8386 56.7629 17.9406 55.9889Z" fill="#E1646A"/>
<path d="M42.9268 26.9619L38.8263 28.7422C35.8791 25.8009 37.1605 22.3177 38.4419 19.1441C40.7741 13.2098 37.5962 12.7712 33.1113 13.442C26.8836 16.6414 24.3464 24.1496 17.7344 26.8845C21.7404 18.6008 27.7945 11.4929 35.3153 6.24341C38.4419 4.05029 41.2098 2.57961 44.4389 5.80478C47.0017 10.707 48.8726 15.6867 46.5917 21.2856L42.9268 26.9619Z" fill="#DD3941"/>
<path d="M16.0948 58.0781C12.0968 61.2775 8.2013 59.8068 4.33145 57.7943C3.79168 55.092 3.85179 52.3029 4.5075 49.6267C5.16321 46.9504 6.3983 44.4531 8.12441 42.3135C8.99577 47.0093 5.97165 52.8146 11.9943 56.0398C12.8025 55.9204 13.6277 56.0514 14.3601 56.4155C15.0926 56.7796 15.6976 57.3595 16.0948 58.0781Z" fill="#DD3C48"/>
<path d="M46.5922 21.2601C47.4379 15.8934 45.1314 10.9396 44.4395 5.7793L48.54 9.4431C48.2837 13.5197 50.5902 18.0608 46.5922 21.2601Z" fill="#EB9695"/>
<path d="M33.1119 13.4419C34.8034 10.1651 37.6481 8.28161 40.8004 10.2941C44.3883 12.4872 42.3893 15.9188 40.9798 18.6796C39.3641 21.7741 38.6113 25.2514 38.8014 28.7421C31.6511 35.4763 30.4978 46.6483 21.733 52.1956C19.3496 50.7507 19.7597 48.2996 19.5546 46.0549C18.8883 43.3199 21.323 42.5975 22.6813 41.1784C24.3753 39.4767 25.4498 37.2496 25.731 34.8571C26.1204 33.6662 26.7484 32.5685 27.5762 31.6319C29.3702 29.9032 30.3697 27.5295 32.0612 25.6976C32.3943 25.4653 32.7531 25.2589 33.1119 25.0525C36.828 21.1565 34.8034 17.2863 33.1119 13.4419Z" fill="#DC2B35"/>
<path d="M27.3464 34.6767C27.0132 37.7213 28.7047 41.7979 23.5534 42.4171C20.9906 42.2623 19.4786 40.224 17.7871 38.5727C17.7871 34.7541 21.0931 34.1607 23.5534 32.7674C24.2956 32.7291 25.0349 32.8848 25.6996 33.2193C26.3643 33.5539 26.9316 34.056 27.3464 34.6767Z" fill="#DD3241"/>
<path d="M27.3457 34.6764C26.5972 34.7677 25.8385 34.6354 25.1641 34.2959C24.4896 33.9564 23.9293 33.4247 23.5527 32.767C24.8798 29.9041 26.431 27.1518 28.1914 24.5364C29.5753 22.7561 32.01 20.0986 33.1889 25.0524C31.0105 27.1681 30.6261 30.2127 29.3447 32.7928L27.3457 34.6764Z" fill="#DE3B4B"/>
<path d="M17.7853 38.7014C19.0309 38.6241 20.2676 38.9575 21.3081 39.6512C22.3485 40.3449 23.1362 41.3611 23.5516 42.5458L19.5793 46.0548L17.9391 46.2096C17.4265 45.7968 17.2471 45.4097 17.4009 44.9711C17.5547 44.5325 17.734 44.3519 17.8878 44.3519L17.7853 38.7014Z" fill="#DC5E67"/>
<path d="M17.7596 44.3524C17.7596 44.9717 17.7596 45.5909 17.7596 46.2101C17.5033 47.7324 17.3752 49.6675 15.1968 49.1515C14.6716 48.8596 14.2276 48.4397 13.9052 47.9304C13.5829 47.421 13.3925 46.8385 13.3516 46.2359C13.6847 43.2946 16.2219 44.7911 17.7596 44.3524Z" fill="#DD3C48"/>
<path d="M16.0946 58.0782C14.4801 57.846 12.8655 57.6396 11.9941 55.9625C13.9931 48.4543 15.9152 55.8335 17.863 55.9625L16.0946 58.0782Z" fill="#D82C37"/>
<path d="M29.2939 32.7414C29.1145 29.4388 29.6527 26.4975 33.1381 25.001C33.0921 26.4944 32.7245 27.96 32.0608 29.2964C31.397 30.6329 30.453 31.8083 29.2939 32.7414Z" fill="#DD3241"/>
</svg>
