<svg xmlns="http://www.w3.org/2000/svg" viewBox="0 0 32.73 31.3"><defs><style>.cls-1{fill:#fcde06;}.cls-2{fill:#f6b01e;}.cls-3{fill:#fdc40f;}</style></defs><title>资源 10</title><g id="图层_2" data-name="图层 2"><g id="图层_1-2" data-name="图层 1"><path class="cls-1" d="M3.84,28.52C.19,26.12-.86,22.73.7,18.78,4.47,9.24,11.34,3,21.27.37,25-.62,28.18.32,30.12,4c2.1,4.1.12,7.73-2,10.82C23.62,21.55,17.9,27,9.62,29,7.61,29.48,5.69,29.63,3.84,28.52Z"/><path class="cls-2" d="M3.84,28.52C15.94,30,31.7,14.55,30.12,4c2.55,1.68,2.93,4.13,2.42,6.9-1.59,8.74-13,19.39-21.9,20.3C8,31.48,5.35,31.34,3.84,28.52Z"/><path class="cls-3" d="M26.41,8.11c.41,3.41-1.7,6-3.65,8.53A24.86,24.86,0,0,1,9.91,25.11c-4.48,1.33-7.8-1.85-6.52-6.36C5.12,12.67,13.67,4.14,21,3.05,25,2.45,26.42,3.8,26.41,8.11Z"/></g></g></svg>