<svg xmlns="http://www.w3.org/2000/svg" viewBox="0 0 31.85 22.7"><defs><style>.cls-1{fill:#fdc40f;}.cls-2{fill:#fcdc07;}.cls-3{fill:#f0b222;}</style></defs><title>资源 11</title><g id="图层_2" data-name="图层 2"><g id="图层_1-2" data-name="图层 1"><path class="cls-1" d="M6.93,3.23c6.22-3.29,12.6-4.56,19.3-1.45.35,1.56,2.06,2,2.72,3.35,1.31,2.69.53,6.44-2.55,9.09-5.61,4.8-12.16,6.32-19.2,4C1,16.21-.09,10.14,4.7,5.59,5.48,4.85,6.76,4.56,6.93,3.23Z"/><path class="cls-2" d="M6.93,3.23c.43.1,1.14,0,1,.69-.09.38-.68.65-1.07.93-2.71,2-5.26,4.4-4.1,8,1,3.28,4.07,4.92,7.46,5.26,5.46.56,10.59-.46,14.93-4.06,4.51-3.74,4.68-6.78.74-11.13-.63-.69-.52-1,.36-1.16,1.69,1.39,4.5,1.58,4.77,4.49.8,6.08-.85,9.58-6.23,12-5.12,2.29-10.38,4-16.2,2.66C5.38,20.17,2.77,18.85,1,16-1.32,10.45.26,7,6.93,3.23Z"/><path class="cls-3" d="M1,16c7.87,7,17.77,4.49,25.19.33,3.72-2.08,5.41-5.68,4.8-10.1,1.64,5.24,1,8.17-2.9,11.21-6.25,4.82-13.33,6.45-21,4.28C4.26,21,1.5,19.59,1,16Z"/></g></g></svg>