<svg xmlns="http://www.w3.org/2000/svg" viewBox="0 0 43.01 35.77"><defs><style>.cls-1{fill:#f9ad1a;}.cls-2{fill:#fcdd0a;}.cls-3{fill:#ec9d22;}</style></defs><title>资源 2</title><g id="图层_2" data-name="图层 2"><g id="图层_1-2" data-name="图层 1"><path class="cls-1" d="M41.88,23.58c-2.28,8.06-7.17,11.85-15.63,12.16C18.75,36,12,34,6.35,28.94-.87,22.49-1.8,16.4,2.89,7.71c6.81-6.65,22-6.08,30.84.58C38.87,12.18,42.47,16.71,41.88,23.58Z"/><path class="cls-2" d="M41.88,23.58c-1.15-2.69-1.1-5.72-2.71-8.32C32.57,4.58,14.45,0,4.13,7.84c-.47.36-.87.37-1.24-.13C4.35,4,7.54,2.32,11,1.16c9.93-3.38,23,.87,29,9.46C42.75,14.56,44.16,18.84,41.88,23.58Z"/><path class="cls-3" d="M17.22,7.08c7.75.61,14.55,3.21,18.93,10.41,3.08,5.07,1.78,10.94-3.52,13.68-7.76,4-15.15,2.15-22.17-2.12A16.61,16.61,0,0,1,3.74,21.3c-1.9-4.38.06-10.25,4.31-12.15A21.56,21.56,0,0,1,17.22,7.08Z"/></g></g></svg>