<svg xmlns="http://www.w3.org/2000/svg" viewBox="0 0 36.08 25.64"><defs><style>.cls-1{fill:#fbb205;}.cls-2{fill:#faca06;}</style></defs><title>资源 4</title><g id="图层_2" data-name="图层 2"><g id="图层_1-2" data-name="图层 1"><path class="cls-1" d="M33.43.65c3.57,4.24,3.66,4.4-.5,7.85a118,118,0,0,1-25.52,16c-4.32,2-4.78,1.72-6.9-2.82,2.5-2.74,6.24-3.24,9.25-5.11,7.57-4.71,15.48-8.87,22-15.06A2.79,2.79,0,0,1,33.43.65Z"/><path class="cls-2" d="M33.43.65C27.75,7.71,19.67,11.5,12.21,16.08,8.53,18.34,4.86,20.75.51,21.63-.83,20,.82,19.35,1.58,18.71A119.92,119.92,0,0,1,30.8.57C31.57.24,32.6-.57,33.43.65Z"/></g></g></svg>