<svg xmlns="http://www.w3.org/2000/svg" viewBox="0 0 37.96 38.49"><defs><style>.cls-1{fill:#f9ac1a;}.cls-2{fill:#fbdd0a;}.cls-3{fill:#ec9d22;}</style></defs><title>资源 6</title><g id="图层_2" data-name="图层 2"><g id="图层_1-2" data-name="图层 1"><path class="cls-1" d="M3.34,5.9C11.5-2.85,24.19-1.75,31.56,8.4c1.95,2.7,4,5.3,5.13,8.56,3,8.77.8,14.76-7.26,19.61-13.36,3.16-29-12.69-27.19-26A21.89,21.89,0,0,1,3.34,5.9Z"/><path class="cls-2" d="M3.34,5.9c.42,4.57-.7,9.16,1,13.75,3.36,8.85,12.82,16,22.27,16.28,1,0,2-.21,2.78.64-2.9,2.3-6.29,2.11-9.59,1.6C9.21,36.53-.43,24.64,0,13.87.14,10.82.9,8,3.34,5.9Z"/><path class="cls-3" d="M16,2.94C26,3,36.4,14.54,35.4,24.49a9.48,9.48,0,0,1-12.17,8.2C13.89,29.82,8.17,23.46,6.36,13.82,5.27,8,9.94,2.94,16,2.94Z"/></g></g></svg>