<svg xmlns="http://www.w3.org/2000/svg" viewBox="0 0 24.96 13.34"><defs><style>.cls-1{fill:#fcc90f;}.cls-2{fill:#f3b020;}</style></defs><title>资源 7</title><g id="图层_2" data-name="图层 2"><g id="图层_1-2" data-name="图层 1"><path class="cls-1" d="M1.18,1.18A2.67,2.67,0,0,1,3.75,0,32.36,32.36,0,0,1,23.6,7c1.23,1,1.95,2.29.74,3.86-.72,1.27-1.94,1.45-3.22,1.38A35.88,35.88,0,0,1,3.27,6.44C1.3,5.16.11,3.64,1.18,1.18Z"/><path class="cls-2" d="M1.18,1.18C1,3.11,1.81,4.28,3.45,5.42c5.69,3.94,12.14,5.32,18.8,6.12.67.08,1.4-.43,2.09-.66-.19,2-1.72,2.33-3.21,2.41A26.4,26.4,0,0,1,1.84,6.91C-.11,5.24-.78,3.34,1.18,1.18Z"/></g></g></svg>