<svg xmlns="http://www.w3.org/2000/svg" viewBox="0 0 33.1 9.36"><defs><style>.cls-1{fill:#fbb306;}.cls-2{fill:#f7c90c;}</style></defs><title>资源 8</title><g id="图层_2" data-name="图层 2"><g id="图层_1-2" data-name="图层 1"><path class="cls-1" d="M.81,1C6.87-.79,13,.24,19.08.84c4.47.45,9.15.39,13.22,2.88.72,4.69.61,4.88-3.79,4.11C20.07,6.36,11.64,5.07,3,5.48-.7,5.66.71,2.93.81,1Z"/><path class="cls-2" d="M.81,1C.64,3.61,1,4.69,4.4,4.4c8.15-.68,16.34.54,24.27,2.41,3.77.9,4-.23,3.63-3.09,1.57,4.11.94,5.46-3,5.59A114,114,0,0,1,3,6.92C-.87,6.14-.27,3.66.81,1Z"/></g></g></svg>