<svg xmlns="http://www.w3.org/2000/svg" viewBox="0 0 51.71 55.02"><defs><style>.cls-1{fill:#e4e4e4;}</style></defs><title>资源 1</title><g id="图层_2" data-name="图层 2"><g id="图层_1-2" data-name="图层 1"><path d="M13.4,0C23.5-.34,32.92,2.72,42.54,5.19,53.12,7.91,54.3,9.65,47.35,18c-6.67,8-10.13,17.83-16.45,26a64.81,64.81,0,0,0-6.47,9,3.38,3.38,0,0,1-3.63,2c-1.93-.3-1.93-1.84-2.32-3.31C15.06,38.7,12.41,25.5,7,13.13c-1.3-3-2.7-5.88-5.79-7.45C-.74,4.7.25,3.11.28,1.76.32,0,1.66,0,3,0,6.43,0,9.92,0,13.4,0Z"/><path class="cls-1" d="M45.65,11.63c-4.08,5.6-8.52,10.88-11.57,17.15A72.61,72.61,0,0,1,22.41,46.11C18.85,32,15.72,18.15,9,5.46,21.79,4.08,33.48,7.9,45.65,11.63Z"/></g></g></svg>