<svg xmlns="http://www.w3.org/2000/svg" viewBox="0 0 46.53 61.04"><defs><style>.cls-1{fill:#e4e4e4;}</style></defs><title>资源 2</title><g id="图层_2" data-name="图层 2"><g id="图层_1-2" data-name="图层 1"><path d="M35.44,61c-10-.93-20.07-1.78-30.09-2.8C.61,57.76-1,54.92.65,50.4c2.06-5.49,6.2-9.79,8.74-15C14.59,24.67,19.85,14,20.45,1.86c.1-2.06,1-2.12,2.63-1.56a12.44,12.44,0,0,1,6.53,5.25c5,7.61,7.33,16.22,9,24.94a100.06,100.06,0,0,0,6.3,20.43c3.31,7.85,1.9,9.76-6.8,9.92H35.46Z"/><path class="cls-1" d="M25.13,8.18c9.34,15,7.59,32.67,16.36,47.2-7,.73-13.14-.25-19.3-.62-4.71-.29-9.39-1.08-14.1-1.34-3-.16-3-1.27-1.65-3.3a139.16,139.16,0,0,0,11.29-20A109.34,109.34,0,0,0,25.13,8.18Z"/></g></g></svg>