<svg xmlns="http://www.w3.org/2000/svg" viewBox="0 0 44.11 55.05"><defs><style>.cls-1{fill:#e4e4e4;}</style></defs><title>资源 3</title><g id="图层_2" data-name="图层 2"><g id="图层_1-2" data-name="图层 1"><path d="M44.11,37.69c0,5.58-.88,9.71-.26,14,.38,2.62-2,4-4.91,3.12a36.33,36.33,0,0,1-8.65-4.23C21.08,44.65,12.1,38.45,4.86,30.17-2,22.34-1.86,22,6.93,17.37c10-5.23,19.26-11.7,29.63-16.21C41.51-1,42.77-.39,43.11,5,43.82,16.36,43.06,27.75,44.11,37.69Z"/><path class="cls-1" d="M38,48.82c-8.75-4.27-16.19-10.18-23.49-16.29a44.67,44.67,0,0,1-6.94-7.21c-.72-.94-1.38-1.71.28-2.57,9.46-4.87,18.3-10.86,27.89-15.52,1.85-.9,2.42-.53,2.37,1.44-.35,13,1.3,25.91.27,38.87A8.63,8.63,0,0,1,38,48.82Z"/></g></g></svg>