<svg width="101" height="96" viewBox="0 0 101 96" fill="none" xmlns="http://www.w3.org/2000/svg">
<path d="M36.9499 24.3378C36.9986 19.6554 36.8848 15.4851 37.1644 11.3498C37.4946 6.51295 38.0678 0.558067 44.7308 0.476705C51.3937 0.395382 51.7322 6.92252 52.0664 11.3749C52.6356 19.1006 52.059 26.9376 51.9473 35.2896C57.1533 31.4455 57.8415 25.7521 59.8501 21.0514C61.4505 16.4901 64.7503 12.5997 69.1637 10.0708C71.9024 8.60258 73.8974 4.21601 78.0985 7.95802C81.4796 10.6166 82.1572 15.1952 79.6725 18.5932C75.6793 24.6642 71.2047 30.462 66.1273 37.5349C74.2604 36.2938 78.9427 31.1162 85.0647 29.2678C88.6813 28.18 93.4237 25.8234 95.5372 29.6604C98.4042 33.9994 97.1311 39.6474 92.6269 42.571C89.1841 44.7387 85.3556 46.4129 80.9246 48.7106C86.6795 50.078 91.8694 52.9821 95.8445 57.0592C99.734 61.5115 102.755 66.4759 98.387 71.6668C94.4445 76.3849 88.8279 75.8275 83.3008 73.5782C77.7736 71.3288 71.6422 69.0035 64.8707 66.3621C66.7251 73.5375 70.9045 78.7038 70.8465 85.1238C70.8811 89.2726 70.8161 93.5454 66.0034 94.7945C61.6307 95.9322 57.9736 93.3781 55.0554 90.3405C50.0552 84.9125 50.4392 77.4922 46.3291 70.1279C43.9862 76.9391 41.9899 82.6045 39.9925 88.2458C38.7461 91.7384 36.5042 93.8654 32.0914 93.3395C27.6786 92.8137 27.0588 89.7222 26.6042 86.8423C25.0471 77.9437 28.5429 69.887 32.417 60.8282C26.95 61.3998 23.7834 64.5956 20.1192 66.4572C16.3452 68.8354 11.9525 70.242 7.39356 70.5323C1.3001 70.4737 -1.08275 68.4072 1.17186 62.6606C3.13137 56.4864 8.57133 51.7826 15.3745 50.3801L33.8406 46.6892C30.3434 42.8992 25.8367 42.642 22.2528 41.2677C17.6876 39.5406 13.1029 37.9831 9.82515 34.451C6.54741 30.919 3.44663 27.2361 6.44523 23.105C9.341 18.8918 15.0213 17.1035 20.1031 18.8052C25.5792 20.4289 30.9624 22.3454 36.9499 24.3378Z" fill="#AEBFA0"/>
</svg>
