<svg xmlns="http://www.w3.org/2000/svg" viewBox="0 0 24.29 68.8"><defs><style>.cls-1{fill:#b7e944;fill-rule:evenodd;}.cls-2{fill:none;stroke:#040000;stroke-opacity:0.5;}</style></defs><g id="图层_2" data-name="图层 2"><g id="图层_1-2" data-name="图层 1"><path class="cls-1" d="M12.9,4.87c-.32.34-1.33,0-1.65,1-1,2.35-.59,6.69-2.56,8.71-2.3,3-1,1.69-1.28,4.69,0,0-1,3.69-1.28,4.69a9,9,0,0,0-1.28,4c-.31,1.67-2.29,3.7-2.93,5.71-.32,1,.37,3,.05,4C1.66,39.4,0,41.75,0,43.09c-.29,3.68,1.43,7.33,1.81,11,0,1.34-1,2.35-.63,3.35C2.62,62.75,9.39,70,14,68.62c7.65-2.43,7.85-13.45,8.8-17.13.65-1.35,1.31-2,1.3-2.69.61-4.68-.76-7.34-1.47-10.67a6.76,6.76,0,0,1,.64-2.67c-.36-1.67-1.71-3-2.06-4,0-1.33.64-2.67.62-4,0-.67-1.35-1.32-1.7-2.32-.35-1.66.6-5.34.25-6.34s-1.69-1.65-2-2.65c0-.66-.74-6-.42-6.34,0-.66,1.65-1.68.62-4,0,0-2,.69-2.34-.3.64-2.68,1.63-3,.28-4.35C13.48-2.48,14.22,3.52,12.9,4.87Z"/><path class="cls-2" d="M11.71,6.08V6a.65.65,0,0,1,.19-.29.78.78,0,0,1,.29-.14l.21,0h.05l.2,0a1.17,1.17,0,0,0,.6-.3,2.61,2.61,0,0,0,.52-.86,9.77,9.77,0,0,0,.31-1l.18-.84c.09-.43.17-.83.28-1.2a2.44,2.44,0,0,1,.26-.63C14.9.51,15,.5,15,.5h0s.1,0,.32.13a4.83,4.83,0,0,1,.87.84v0l0,0a1.75,1.75,0,0,1,.49.66.75.75,0,0,1,0,.51c0,.19-.13.39-.23.66l-.14.36a15.15,15.15,0,0,0-.52,1.68l0,.14,0,.14a1.23,1.23,0,0,0,.83.78,2.42,2.42,0,0,0,1,.08,5.88,5.88,0,0,0,.69-.11,2.35,2.35,0,0,1-.08,1.81,4.54,4.54,0,0,1-.34.62L17.79,9c-.07.12-.15.25-.21.37a1.15,1.15,0,0,0-.09.33.41.41,0,0,0,0,.16,2.43,2.43,0,0,0,0,.3c0,.2,0,.46,0,.74,0,.58.09,1.31.16,2s.12,1.21.18,1.73l0,.34c.06.62.11,1,.11,1.18v.08l0,.08A4.16,4.16,0,0,0,19,17.8l0,0A3.39,3.39,0,0,1,20,19a1.46,1.46,0,0,1,.05.35,4.74,4.74,0,0,1,0,.63c0,.46-.09,1-.16,1.56l0,.16c-.08.63-.15,1.29-.19,1.9a7.08,7.08,0,0,0,.07,1.69v.06a4,4,0,0,0,1.06,1.44l0,0a5.65,5.65,0,0,1,.45.48c.12.15.12.2.12.21a7.4,7.4,0,0,1-.3,1.88v0a8.38,8.38,0,0,0-.32,2.1v.08l0,.08a4.93,4.93,0,0,0,.47.91l.34.54.27.39a6.65,6.65,0,0,1,.92,1.92.36.36,0,0,1,0,.09c-.06.16-.15.38-.23.65a6.46,6.46,0,0,0-.34,2v.1c.19.88.42,1.69.64,2.5a18.11,18.11,0,0,1,.83,8v.07a1.81,1.81,0,0,1-.33.84l-.18.29c-.21.36-.48.8-.74,1.34l0,0v0c-.18.69-.34,1.63-.51,2.7-.06.39-.13.81-.2,1.23a38,38,0,0,1-1.18,5.08c-1.1,3.47-3,6.63-6.58,7.77a5,5,0,0,1-3.42-.39,13.47,13.47,0,0,1-3.72-2.57,18.35,18.35,0,0,1-5-7.88v0h0a1.78,1.78,0,0,1,.18-1.21l.06-.14a5.15,5.15,0,0,0,.41-1.84v0a34.5,34.5,0,0,0-.9-4.48l-.27-1.08a17.09,17.09,0,0,1-.64-5.34v-.05a3.14,3.14,0,0,1,.22-1c.15-.41.36-.86.58-1.35l.11-.24a12.66,12.66,0,0,0,1-2.66,3.32,3.32,0,0,0,.1-1.05c0-.36-.06-.75-.11-1.12h0c0-.38-.09-.73-.11-1a2.48,2.48,0,0,1,.06-.74A12.73,12.73,0,0,1,3.87,31.1l.06-.1a9.13,9.13,0,0,0,1.41-2.9c.08-.4.12-.69.15-.93v-.05a3.45,3.45,0,0,1,.11-.62,13.51,13.51,0,0,1,1-2.3l0,0v0c.17-.52.49-1.71.77-2.75.14-.52.27-1,.36-1.38,0-.18.09-.33.11-.43l0-.12v0h0l-.48-.13.49.13v-.08a7.13,7.13,0,0,0,0-1.69c0-.16,0-.29-.07-.39V17.2a1.61,1.61,0,0,1,0-.25.93.93,0,0,1,.19-.5,18.1,18.1,0,0,1,1.08-1.52,8.44,8.44,0,0,0,1.77-4.48L11,9.26v0c.06-.41.11-.8.18-1.18A9.61,9.61,0,0,1,11.71,6.08Z"/><path class="cls-1" d="M12.9,4.87c-.32.34-1.33,0-1.65,1-1,2.35-.59,6.69-2.56,8.71-2.3,3-1,1.69-1.28,4.69,0,0-1,3.69-1.28,4.69a9,9,0,0,0-1.28,4c-.31,1.67-2.29,3.7-2.93,5.71-.32,1,.37,3,.05,4C1.66,39.4,0,41.75,0,43.09c-.29,3.68,1.43,7.33,1.81,11,0,1.34-1,2.35-.63,3.35C2.62,62.75,9.39,70,14,68.62c7.65-2.43,7.85-13.45,8.8-17.13.65-1.35,1.31-2,1.3-2.69.61-4.68-.76-7.34-1.47-10.67a6.76,6.76,0,0,1,.64-2.67c-.36-1.67-1.71-3-2.06-4,0-1.33.64-2.67.62-4,0-.67-1.35-1.32-1.7-2.32-.35-1.66.6-5.34.25-6.34s-1.69-1.65-2-2.65c0-.66-.74-6-.42-6.34,0-.66,1.65-1.68.62-4,0,0-2,.69-2.34-.3.64-2.68,1.63-3,.28-4.35C13.48-2.48,14.22,3.52,12.9,4.87Z"/><path class="cls-2" d="M11.71,6.08V6a.65.65,0,0,1,.19-.29.78.78,0,0,1,.29-.14l.21,0h.05l.2,0a1.17,1.17,0,0,0,.6-.3,2.61,2.61,0,0,0,.52-.86,9.77,9.77,0,0,0,.31-1l.18-.84c.09-.43.17-.83.28-1.2a2.44,2.44,0,0,1,.26-.63C14.9.51,15,.5,15,.5h0s.1,0,.32.13a4.83,4.83,0,0,1,.87.84v0l0,0a1.75,1.75,0,0,1,.49.66.75.75,0,0,1,0,.51c0,.19-.13.39-.23.66l-.14.36a15.15,15.15,0,0,0-.52,1.68l0,.14,0,.14a1.23,1.23,0,0,0,.83.78,2.42,2.42,0,0,0,1,.08,5.88,5.88,0,0,0,.69-.11,2.35,2.35,0,0,1-.08,1.81,4.54,4.54,0,0,1-.34.62L17.79,9c-.07.12-.15.25-.21.37a1.15,1.15,0,0,0-.09.33.41.41,0,0,0,0,.16,2.43,2.43,0,0,0,0,.3c0,.2,0,.46,0,.74,0,.58.09,1.31.16,2s.12,1.21.18,1.73l0,.34c.06.62.11,1,.11,1.18v.08l0,.08A4.16,4.16,0,0,0,19,17.8l0,0A3.39,3.39,0,0,1,20,19a1.46,1.46,0,0,1,.05.35,4.74,4.74,0,0,1,0,.63c0,.46-.09,1-.16,1.56l0,.16c-.08.63-.15,1.29-.19,1.9a7.08,7.08,0,0,0,.07,1.69v.06a4,4,0,0,0,1.06,1.44l0,0a5.65,5.65,0,0,1,.45.48c.12.15.12.2.12.21a7.4,7.4,0,0,1-.3,1.88v0a8.38,8.38,0,0,0-.32,2.1v.08l0,.08a4.93,4.93,0,0,0,.47.91l.34.54.27.39a6.65,6.65,0,0,1,.92,1.92.36.36,0,0,1,0,.09c-.06.16-.15.38-.23.65a6.46,6.46,0,0,0-.34,2v.1c.19.88.42,1.69.64,2.5a18.11,18.11,0,0,1,.83,8v.07a1.81,1.81,0,0,1-.33.84l-.18.29c-.21.36-.48.8-.74,1.34l0,0v0c-.18.69-.34,1.63-.51,2.7-.06.39-.13.81-.2,1.23a38,38,0,0,1-1.18,5.08c-1.1,3.47-3,6.63-6.58,7.77a5,5,0,0,1-3.42-.39,13.47,13.47,0,0,1-3.72-2.57,18.35,18.35,0,0,1-5-7.88v0h0a1.78,1.78,0,0,1,.18-1.21l.06-.14a5.15,5.15,0,0,0,.41-1.84v0a34.5,34.5,0,0,0-.9-4.48l-.27-1.08a17.09,17.09,0,0,1-.64-5.34v-.05a3.14,3.14,0,0,1,.22-1c.15-.41.36-.86.58-1.35l.11-.24a12.66,12.66,0,0,0,1-2.66,3.32,3.32,0,0,0,.1-1.05c0-.36-.06-.75-.11-1.12h0c0-.38-.09-.73-.11-1a2.48,2.48,0,0,1,.06-.74A12.73,12.73,0,0,1,3.87,31.1l.06-.1a9.13,9.13,0,0,0,1.41-2.9c.08-.4.12-.69.15-.93v-.05a3.45,3.45,0,0,1,.11-.62,13.51,13.51,0,0,1,1-2.3l0,0v0c.17-.52.49-1.71.77-2.75.14-.52.27-1,.36-1.38,0-.18.09-.33.11-.43l0-.12v0h0l-.48-.13.49.13v-.08a7.13,7.13,0,0,0,0-1.69c0-.16,0-.29-.07-.39V17.2a1.61,1.61,0,0,1,0-.25.93.93,0,0,1,.19-.5,18.1,18.1,0,0,1,1.08-1.52,8.44,8.44,0,0,0,1.77-4.48L11,9.26v0c.06-.41.11-.8.18-1.18A9.61,9.61,0,0,1,11.71,6.08Z"/></g></g></svg>