<svg xmlns="http://www.w3.org/2000/svg" viewBox="0 0 112.84 109.7"><defs><style>.cls-1{fill:#87a790;}.cls-2{fill:#82a28b;}.cls-3{fill:#73957f;}.cls-4{fill:#5b7c64;}.cls-5{fill:#769880;}.cls-6{fill:#799982;}.cls-7{fill:#8faf98;}.cls-8{fill:#53755e;}.cls-9{fill:#6b8d75;}.cls-10{fill:#fefefe;}.cls-11{fill:#7e9f88;}.cls-12{fill:#97b6a0;}.cls-13{fill:#76967f;}.cls-14{fill:#9ab9a3;}.cls-15{fill:#8fae99;}.cls-16{fill:#3c5e47;}</style></defs><title>资源 1238</title><g id="图层_2" data-name="图层 2"><g id="图层_1-2" data-name="图层 1"><path class="cls-1" d="M67.9,109.7h-7c-10.65-.84-21.32-1.43-31.89-3-2-.68-1.82-3-3.22-4.15-.66-.54-.64-2.11-.16-2.18,2.89-.37,3.84-4.61,8.55-3.16-2.66-1.42-3.73-2.69-3.59-4.63a2.05,2.05,0,0,1,1.58-1.36C37.56,92,42.41,94.52,47.59,96c1.94,2.08,4.46,1.3,6.82,1.32a1.9,1.9,0,0,1,1,.82c1.35,4,5,2.13,7.39,2.3A11,11,0,0,0,70.62,98c4-2.09,8.67-1.5,12.78-3.37,7.29-3.32,13.79-7.61,19-13.69.85-1,1.64-2.07,3.1-2.25a5.43,5.43,0,0,1,3.6,2.33c-1.18,7.13-6.51,11.61-11.2,16.28-2.57,2.56-4.06,6.65-8.43,7.18-6.69-2.87-12.53-1.33-17.88,3.24C70.55,108.59,68.59,108,67.9,109.7Z"/><path class="cls-2" d="M112.84,70.12l-.88.17c-1.32.22-2.67,2.36-3.94-.08-.62-8-.78-16-3.62-23.78-3.63-10-8.32-19-17.5-25C85.24,17.27,89.35,17,91.46,15c-2.89.39-4.85-.4-5.95-2.95A2.46,2.46,0,0,0,83,10.93c-4.65.18-5.12-2.44-4.07-6C91.8,7.66,100.62,15.21,106,27.12c2.84,6.26,4.1,13,6.83,19.26Z"/><path class="cls-3" d="M89.1,104.08c-4.43,3.65-9.94,3.79-15.24,4.65-1.34.22-3-.8-4,1h-2c-.35-.9-1-2.39.31-2.44,4-.13,6.3-2.94,9.22-4.85C81.75,99.57,85.3,102.84,89.1,104.08Z"/><path class="cls-4" d="M1.11,78,0,77.05v-2a3.19,3.19,0,0,1,4,0c2,.15,3.91.44,5.37,2,.86.91,2.27,1.64,1.5,3.23-.65,1.35-1.95,1.63-3.33,1.64C4.56,82,2.82,80,1.11,78Z"/><path class="cls-2" d="M18.91,20.61C28.2,8.42,41.34,3.37,55.93,1c2.34,1.9,4.67,2.25,7,0l2.93,0c.4,1.6-1,2.67-1.08,4,6.42-3.91,10-2.69,11.41,4,.14,1.13-2.5,2,0,3.49,1.47.87,3.19,2.64,1.08,4.76-4.32-.28-8.37-1.81-12.69-2.27-14.3-1.52-26.2,4.55-38,11.17-1.58.88-2.86,2.27-4.69,2.75-2.86-.2-2.14-2.63-2.71-4.26A22.35,22.35,0,0,1,18.91,20.61Z"/><path class="cls-5" d="M1.11,78c2.94,1,5.38,4.38,9.28,2.07-1.53-2.67-4.15-3.59-6.39-5A1.77,1.77,0,0,0,4.85,73C2.08,58.68,6.19,45.48,11.47,32.45a.89.89,0,0,1,1.16.16c1.85,2,3.13-1.09,4.82-.55a1.66,1.66,0,0,1,1,.94c.4,1.78-.47,3.22-1.4,4.57-6.28,9.1-9.4,18.72-5.1,29.61a4.68,4.68,0,0,1,.13,1.46c-1.1,5.72,3,9.53,5.28,14A52.85,52.85,0,0,0,22.67,89c2.18,2.23,2.64,5.92,4.19,8.87.89,1.67-2.07,2-3.4,2.69s-2.83,1.62-3.75-.5a8.89,8.89,0,0,0-4.57-4.27C10.93,89.5,4.6,84.86,1.11,78Z"/><path class="cls-6" d="M77.9,16.6c-1.26-2.28-2-5.09-6.7-4.22l4.67-3.62a4,4,0,0,1,2.07-4.28l1,.4c1.07,2.3-.14,7.05,5.31,4.68.63-.27,2.39.74,2.81,1.57.84,1.65.49,5.23,3.27,1,.18-.28,2.72.67,2.39,2.35-.25,1.25,0,4-1.8,3.34-3.25-1.21-2.89,1.51-4,2.65C82.44,22.44,79.9,20.12,77.9,16.6Z"/><path class="cls-7" d="M77.94,4.48c.17,1.83-1.35,2.87-2.07,4.28-2.57-.15-.58-2-1.13-2.95-.76-1.27-1.55-3-2.47-.18-.34,1.06-1,1-1.31.49C67.72,1,66.08,7,63.4,6.92,63,4.58,64.22,2.72,65.85,1,70.22,1,74.48,1.36,77.94,4.48Z"/><path class="cls-8" d="M18,32.53l-1,0c-1.59-1.16-3.18.39-4.76,0l-.36,0-.36,0A19.7,19.7,0,0,1,16,24.61,3.26,3.26,0,0,1,20,24.53c1.66,1-.62,2.94.91,4C21.43,30.93,19.85,31.84,18,32.53Z"/><path class="cls-7" d="M62.92,1c-.11,2.71-2.4,3-4.24,3.34C56.1,4.82,57.19,1.86,55.93,1,58.25-1.22,60.59,1,62.92,1Z"/><path class="cls-9" d="M20,24.53,16,24.61l2.94-4C20.39,21.6,19.85,23.17,20,24.53Z"/><path class="cls-10" d="M18,32.53l3-4c10.75-7.59,22.17-13.65,35.58-15,7.35-.72,14.44.66,21.37,3,2.85,1.62,5.28,4.16,9,3.91,12,5.94,15.73,17.38,19.71,28.74,2.51,7.16,2.67,14.44,2.11,21.83.58,3.18-.22,5.84-3,7.79C99,87.82,90.07,93.51,79.56,97.2c-2.88,1-6-.09-8.66,1.61a24.56,24.56,0,0,1-16-1h0c-2.26-.88-4.79.29-7-.87A96,96,0,0,1,32,91.83c-1.5-.48-3.19-.4-4.49-1.47-3.59-3.2-7.07-6.52-10.39-10C15,76.62,12.22,73.24,11.07,69c-2.93-8.61-3.39-17,.84-25.51C13.78,39.73,17.42,37,18,32.53Z"/><path class="cls-11" d="M18,80l10.18,9.68c.63,1.34.7,3.17,2.84,3.18.54.77,1.09,2.2,1.6,2.19,1.21,0,2.59-1.21,2.39,1.28-.1,1.18-.13,2.4-1.37,2.93-1.93.83-1.18-2.12-2.74-2-.58,1.52,1.65,6.28-3.32,2.92a1.34,1.34,0,0,0-1.21.4c-.38.53-.53,1.27.39,1.55,2,.59,2,1.83,1.27,3.4-7.5.88-9.47-5.36-12.84-9.79,2.35-1.4,4,1,4.42,1.92,2,4.11,4.42.35,7,1.33-1.16-3.3-5.42-4.73-3.36-8.43-2.4-.77-3.61-2.77-5.12-4.56A4.35,4.35,0,0,1,17,83C16.22,81.66,15.74,80.41,18,80Z"/><path class="cls-12" d="M54.94,97.8c5.38-.58,10.64.58,16,1a12.76,12.76,0,0,1-10.42,2.78c-1.94-.27-4.12-1.3-6.19.89Z"/><path class="cls-13" d="M105.74,78.87l3-7.79c1.21.25,1.7-2.42,3.26-.79.26,4-1.68,7.28-3.3,10.68A3.09,3.09,0,0,1,105.74,78.87Z"/><path class="cls-14" d="M31,92.89c-.59,1-1,2.07-2.51.94-1.67-1.3-1.3-2.66-.33-4.12L32,91.83Z"/><path class="cls-12" d="M47.91,96.93c2.35.25,4.86-.76,7,.88C52.39,99.13,49.91,99.91,47.91,96.93Z"/><path class="cls-15" d="M18,80c-1.16.72-.93,1.89-1,3a6.61,6.61,0,0,1-4-6.08c-.14-2.47-.41-4.53-4-2.18.84-2.37,1.43-4,2-5.73A63.21,63.21,0,0,1,18,80Z"/><path class="cls-16" d="M12.19,32.48c1.59-.64,3.18-4.62,4.76,0-1.33,1-1.64,3.5-4,2.83C11.48,34.9,12,33.56,12.19,32.48Z"/></g></g></svg>