<svg xmlns="http://www.w3.org/2000/svg" viewBox="0 0 94.97 98.91"><defs><style>.cls-1{fill:#7e9e88;}.cls-2{fill:#8aaa94;}.cls-3{fill:#74947e;}.cls-4{fill:#c6d7cc;}.cls-5{fill:#7d9d87;}.cls-6{fill:#75967f;}.cls-7{fill:#71917b;}.cls-8{fill:#83a38d;}.cls-9{fill:#89a994;}.cls-10{fill:#81a18c;}.cls-11{fill:#7a9a85;}.cls-12{fill:#799a84;}.cls-13{fill:#698974;}.cls-14{fill:#4e7059;}.cls-15{fill:#6f907a;}.cls-16{fill:#64826d;}.cls-17{fill:#8caa95;}.cls-18{fill:#fefefe;}.cls-19{fill:#90ae99;}.cls-20{fill:#90af99;}.cls-21{fill:#91b09b;}</style></defs><title>资源 1247</title><g id="图层_2" data-name="图层 2"><g id="图层_1-2" data-name="图层 1"><path class="cls-1" d="M58.47,97c-.5,1.45-2.68.28-3,2h-1c-1.31-1.68-2.63-3.45-3.95,0H40.61c-1.41-1.62-3.4-1.75-5.27-1.88-9.26-.65-17.05-4.5-23.66-10.81-2.22-2.12-5.69-2.75-6.89-6,5.14-1.82,6-1.49,9.17,3.77-1.86-4.28-1.85-4.31,3-4-1.36-1.81-4.82-.77-4.79-4.19,0-2-1.4-4.06-.24-6.21s1.84-5.38,4.87-1.59a32.69,32.69,0,0,1,3.33,6C25.9,86.82,35.59,92.94,49.67,92.7a42.63,42.63,0,0,1,5.42-.18C57.07,93.35,57.78,95.14,58.47,97Z"/><path class="cls-2" d="M95,59.35l-1.11,1c-1.73,1.59-3.62,1.39-5.38.19s-.74-3.06-.37-4.49c.73-2.8.52-4.66-2.86-5.25a2.54,2.54,0,0,1-2.17-3.61c.61-2,2-1.92,3.48-1.43C90.07,46.89,90,43,91.89,42a3.25,3.25,0,0,1,1.21-.66c1.18,1.19.71,2.75.92,4.16,1.26,4.23-.44,8.67,1,12.89Z"/><path class="cls-3" d="M50.49,98.91c.81-1.19-2.1-3.69,1.36-3.92,3.08-.2,2.5,2.1,2.59,3.92Z"/><path class="cls-4" d="M95,58.36c-2-4.17-.55-8.6-1-12.89a5,5,0,0,0,1,0Z"/><path class="cls-5" d="M92.93,42.61c-.43,1.29-3.27,1-2.05,3.74.29.67-3.19.35-4.86.9-.59.19-1.31-2-2,.06-.45,1.34-.23,2.15,1.33,2.38.8.11,1.54.61,2.33.68,2.53.23,4,.14,2,3.64-2.54,4.4-1,6.2,4.16,6.32A31.38,31.38,0,0,1,89,75.18a1.2,1.2,0,0,1-1.21.31c-1.61-.65-3.71-.94-2.39-3.59.74-1.49,0-3.25.54-4.36-2.42-.26-4.25,3.7-7.4,1.09a68.62,68.62,0,0,0-.85-29.26c-1-4-3.5-7.46-4-11.59-1.3-4.84,1.74-8.86,2.56-13.31a2.38,2.38,0,0,1,2.05-1.81L80.12,14c.85,1.35,1.48,2.78,2.47,4.1,1.67,2.24,0,4.51-3.15,4.55.22.86,1,.94,1.54,1.32a7.55,7.55,0,0,0,2.17,1.11c3,1,4.16,3,3.14,6.07-.42,1.26-1,2.75.63,3.42C90.57,36.09,91.61,39.42,92.93,42.61Z"/><path class="cls-6" d="M78.29,12.66c-.24,4.16-4.74,7.35-2.77,12.09.18.42-.76,1.29-1.18,2-4.08-1.92-4.86-6.73-8.4-9.34S59.73,11.53,55.7,9.78C54.54,9.27,53.26,8.65,53.22,7c2.45-3.46,6.45-3.7,10-4.82C69.62,3.73,75.07,6.58,78.29,12.66Z"/><path class="cls-7" d="M12.93,70.26c-.62,3.53.4,5,3.58,6.79,1.34.73,2.61,2.58,1.68,4.15-1.53,2.56-2.75-1.36-4.39-.56a5.19,5.19,0,0,0,0,.88c.15,1.71,3.63,1.78,2.12,4.27a1.94,1.94,0,0,1-1.08.68c-1.15-1.22-2.74-1.94-3.21-3.91-1-4.06-4.53-1.52-6.8-2.34-3-2.36-3.53-5.76-3.66-9.19C.93,66.15,1,61.25,1,56.36c2.59-.64,2.85,3.93,5.76,2.59-2,4.3,4.39,6.32,2.93,10.59C9.62,69.8,12.07,68.84,12.93,70.26Z"/><path class="cls-8" d="M2.2,34.67C4.8,23.32,11.74,14.73,19.83,6.86c1.31,1.34-.49,3.44,1.16,4.7,1.85,2.64,1.44,4.79-1.2,6.72-1.24.91-1.89,1.74-.9,3.93,1.86,4.12-3.12,8.37-9,8.16C7.13,30,6.4,32,5.71,34,4.93,36.3,3.84,37,2.2,34.67Z"/><path class="cls-9" d="M92.93,42.61c-1-.72-4.67,1.57-2.5-2.79,1.08-2.19-2.68-3.47-4.2-3.94-3.1-1-2.38-1.93-1.41-4.08C86,29.25,87,26.22,82,26.35c-1.69,0-2.16-2.63-4.39-2.56-.75,0-.21-1.8.37-2.51,1.86-2.33,1.8,1.62,3.51.76.31-1.6,1.95-3.53-1.27-4.9-1.38-.59.09-2.07-.12-3.14,8.11,7.3,11.22,17,13,27.31C93,41.74,93,42.18,92.93,42.61Z"/><path class="cls-10" d="M7,59.35c-3.26,1.54-4.13-1.69-6-3A28.1,28.1,0,0,1,1,41.52c3.4-1.61,3.87,2.69,6.28,3.1,2.19,1.58,3.8,3.54,4.06,6.36-.36,1.21-1.68,2-1.59,3.4C9.71,56.53,12,60,7,59.35Z"/><path class="cls-11" d="M7.06,45.51c-3.55,1-2.83-4.53-6.08-4,.2-2.32-.1-4.73,1.22-6.85,3.63,2.16,2.92-2.47,3-2.71.49-3.48,2.35-3.38,4.82-2.28,1.84.91,1.29,2.19.55,3.5a3.72,3.72,0,0,0-1.3,4.08,10.33,10.33,0,0,1,.29,6.09C9,44.42,7.89,44.8,7.06,45.51Z"/><path class="cls-12" d="M19.88,11.89c-3.57-1.64.81-3.36-.05-5,4-3.72,8.77-4.22,13.86-3.77.6,1.73,2.14,2.72,3.2,4.08-.37,1.74-1.8,1.9-3.17,2.18-2.77-1.16-5.17.57-7.41,1.49A17.67,17.67,0,0,1,19.88,11.89Z"/><path class="cls-13" d="M36.79,7c-2.42-.21-5-.29-3.1-3.92,3.66-.87,7-2.93,10.91-2.91,1.48.67,4.13,0,4,2.54-.11,2.24-2.17,3-4.2,3.37a11.63,11.63,0,0,0-3.29.84C39.68,7.48,38.25,8.27,36.79,7Z"/><path class="cls-14" d="M63.25,2.2c-2.76,2.78-6.77,3-10,4.88A1.77,1.77,0,0,1,51.86,7c-2-1.82-3.66-3.66-.36-5.8C55.59-.57,59.39,1.22,63.25,2.2Z"/><path class="cls-15" d="M51.5,1.21c-1.91,2.27-.36,3.91,1,5.6-4.21,2.72-8.13,1.76-11.9-1,.84-1,2-.91,3.12-.87,1.73.06,3.52-.33,4-2C48.38.5,45.27,1.55,44.6.18,47.06-.56,49.14,1.23,51.5,1.21Z"/><path class="cls-3" d="M79,69.17l9.24-4.68c-3.12,2.34,1.09,6.43-2.24,8.79-.87.62,2.69-.28,2.08,1.86a3.08,3.08,0,0,1-1,1,10.12,10.12,0,0,0-5.15,5C81,82.87,80,84.6,78.1,85.47c-2.29.71-4.39,1.93-6.94,1.94-3.06,0-3.19,2.67-3.78,4.82A21.84,21.84,0,0,1,58.47,97c-2.56-.11-1.94-2.67-3-3.91,1.52-3.66,5.36-4.64,8.14-6.74C69.16,82.1,74.51,77.91,76.91,71,77.22,70.09,77.73,69.16,79,69.17Z"/><path class="cls-16" d="M67.38,92.23c-1.29-4.21.33-6.58,4.43-6.07,2.31.29,4-2,6.35-1.09a.75.75,0,0,1,.33.76c-.06.27-.13.41-.22.41Z"/><path class="cls-5" d="M78.27,86.24c0-.39-.07-.78-.11-1.17,3-3.26,3.27-9,8.91-9.89,1.64,3.33-2.53,4.39-2.72,7C82.37,83.61,80.71,85.51,78.27,86.24Z"/><path class="cls-17" d="M84.35,82.18c-1.49-3.27,3.12-4.16,2.72-7l1,0,1,0C88.3,78.06,87.19,80.7,84.35,82.18Z"/><path class="cls-18" d="M79,69.17C75.4,81.35,65.28,87.06,55.44,93.05c-10.67,4-31.73-3.26-35.76-16.9-.82-2.77-2.54-5.28-3.84-7.9-1.93-3.75-3.2-7.66-2.81-12,.78-6.53.6-13.15,1.78-19.64C16.56,28.51,21.21,21.8,25.68,15A14.45,14.45,0,0,1,33.6,8.86c.73-1.19,2.64-.35,3.19-1.85A6.72,6.72,0,0,0,40.6,5.84c4,0,7.85,1.66,11.9,1a.92.92,0,0,0,.77.27A44.65,44.65,0,0,1,74.34,26.71c4.73,10.13,7.4,20.67,6.69,32A36.4,36.4,0,0,1,79,69.17Z"/><path class="cls-19" d="M14,56.63l1.83,11.62c-3.52-3-1.49,2-2.91,2C10.87,69.53,10,72,8.14,72.08a2.73,2.73,0,0,1,.53-3.48c.88-1,.65-2.39,0-2.42C.34,65.74,6.9,61.76,7,59.35c4.61-.08.72-3.53,2-5,1.52-.69,3.31-.74,4.5-2.19C15,53.66,14.41,55.15,14,56.63Z"/><path class="cls-20" d="M33.6,8.86C24.86,15.93,19.9,25.48,16,35.75l-.64-.13c-1.78-1.06-4.21-.92-5.44-3a2.42,2.42,0,0,0,0-3c5,1.15,6.07-3.57,8.67-6,.17-.16,0-1-.28-1.28-1.68-1.87-1.76-4.23.64-5.28,3.56-1.57,2.17-3.25.88-5.25,2.93-2,7-1.64,9.53-3.73C31.8,6.21,32.36,7.84,33.6,8.86Z"/><path class="cls-21" d="M14,56.63l-.22-3.9C12.57,56.62,10.68,55,9,54.4c-1.32-2.31-.4-3.13,2-3,1.38-2.19-1.52-4-.62-6.09,1.7-2.58.66-6.19,3.27-8.47.69-.61,1-1.64,2.21-1.34l.25.22Q15,46.19,14,56.63Z"/><path class="cls-19" d="M11,45.51c-1.15,2,4.31,4,0,5.92L7.06,45.51A1.71,1.71,0,0,1,9,43.56C10,43.86,10.35,44.81,11,45.51Z"/><path class="cls-8" d="M11,45.51a1.78,1.78,0,0,1-2-1.95c-1-2.78-.09-5.85-1.86-8.65-.87-1.38,2.59-.52,2.84-2.26a5.15,5.15,0,0,1,5.84,2.88C12.54,38.06,12.84,42.32,11,45.51Z"/></g></g></svg>