<svg xmlns="http://www.w3.org/2000/svg" viewBox="0 0 132.69 126.09"><defs><style>.cls-1{fill:#83a48e;}.cls-2{fill:#80a089;}.cls-3{fill:#74957e;}.cls-4{fill:#70927b;}.cls-5{fill:#8dad96;}.cls-6{fill:#3c5d46;}.cls-7{fill:#92b09a;}.cls-8{fill:#789983;}.cls-9{fill:#42624c;}.cls-10{fill:#93b19c;}.cls-11{fill:#fefefe;}.cls-12{fill:#91b09b;}.cls-13{fill:#92b29b;}.cls-14{fill:#98b6a0;}</style></defs><title>资源 1248</title><g id="图层_2" data-name="图层 2"><g id="图层_1-2" data-name="图层 1"><path class="cls-1" d="M73.19,125.05a10,10,0,0,1-9.39-.24c-3-1.68-6.44-1.38-9.55-1.64C36,121.61,23.6,111.44,14.4,96.57,4.8,81.06.79,63.63,0,45.66c-.35-8.34,3.4-16.3,7.39-23.75.84-1.58,2.35-2.13,3.82-2.93,9.17-5,19.41-7.76,27.56-15.15C43,0,50,.93,55.81.25,60.2-.27,64.7.18,69.15.21a5,5,0,0,1,.26,2.94c-.18,1.29-.32,2.61-1.51,3.45C61.53,8.21,55,8.76,48.53,9.76a3.58,3.58,0,0,1-1.9-.2c-2.74-1.52-4.28-.42-5.15,2.29-4.78,2.5-9.73,4.64-14.19,7.82A27.13,27.13,0,0,0,15.87,38.53c-.22,1.47-.23,3-1.63,4-1.69.44-1.94,1.52-2.19,3.24-.51,3.47-2.91,4.45-5.53,2.66.62,2.2,2,4.07,2.06,6.37a5.24,5.24,0,0,0,2.76,4.89c2.78,1.65,2.19,3.36-.44,4.69-.49.24-2.37,0-.08.85,1.93.75,2.49,3.31,2.55,5.14.12,4,2.07,6.52,5.16,8.52,1.67,3.41,2.95,7,4.31,10.53,3.28,8.49,8.56,15.59,14.61,22.21,4.12,4.5,9.56,5.49,15.2,6,4.43.39,8.83-.42,13.26-.42C68.9,119.25,72.7,120.6,73.19,125.05Z"/><path class="cls-2" d="M112.79,12a54,54,0,0,1,14.1,20.7c-2.57,3.25.38,6.67-.29,10-.52,4.56.6,8.94,1.73,13.24,1.48,5.64-.11,11.45,1.35,17-1,13.44-6.27,24.72-16.63,33.36-2.1,1.76-1.69,5-4.34,6.29-3,1-6,1.44-9,.33-1.92-.45-2.7-1.6-1.57-4.35-3.83,4.52-8.87,4.45-12.89,6.58a2.36,2.36,0,0,1-3.45-1.74c4.59-4.29,10.38-6.81,15.29-10.69,8.79-7,16.74-14.52,21.35-25,1.57-3.57,1.7-7.33,1.45-11.24-.76-12.26-3.06-24-9.52-34.7a6.17,6.17,0,0,1-.94-3.32c2.72-3.94,4.56-.23,6.73.78.64.3.49,1.84,1.64,1.19s.36-1.56.07-2.48a24.85,24.85,0,0,0-5.11-8.36c-1.14-1.37-2.52-2.63-2.42-4.66C110.77,13.66,110.64,11.87,112.79,12Z"/><path class="cls-3" d="M110.82,15c2.25,2.11,2.29,6.34,6.39,6.72.31,0,.89.9.79,1.1-1.82,3.67,1.88,5.08,3.17,7.46-2.5.94-4.82,3.18-6.82-.61-.82-1.56-2.36-2.9-4.51-1.68-2.09.37-2.8-1.46-3.72-2.62-4.18-5.27-8.54-10.3-14.52-13.63a2.86,2.86,0,0,1-1.82-2.68c2.47-1.25,2.47-1.25,9.85.24,0-.81-1-1.25-.75-2.13,3-1.27,5.94-3.44,8.89,0C109.13,9.68,110.83,12,110.82,15Z"/><path class="cls-4" d="M81.85,113.79c1.51.73,2.94,1,4.46-.17,3.31-2.63,8.35-1.83,11.12-5.63.6-.83,1.41-.55,2.09.08,1,.93.7,1.27-.4,2.06-1.75,1.27-.23,1.61.89,1.86-.15,1.64.31,3.29-.1,4.92-9.16,1.86-17.7,5.82-26.72,8.14q-3.5-3.52-7-7C70.82,114.34,76.11,113.23,81.85,113.79Z"/><path class="cls-5" d="M129.68,73C125.7,71.85,128,69,128,66.8c.15-6.35-1.66-12.44-2.47-18.67a12,12,0,0,1,.1-5.16c3.2-1.7,2.53,2.41,4.28,2.9C133.24,54.94,134.06,64,129.68,73Z"/><path class="cls-6" d="M98.88,7.18l3.43,1.9c-1.63,2.58-3.65,1.85-5.53.93a9.32,9.32,0,0,0-7-.79c-3.2.61-5.15-1.47-7.16-3.41-.23-1.92.36-3.12,2.53-2.93C90.08,3.2,94.17,6.18,98.88,7.18Z"/><path class="cls-7" d="M129.94,45.87c-2.5.65-2-3.23-4.28-2.9,0-1.16.45-2.78-.13-3.4-2.94-3.1-2.61-5.27,1.36-6.85C128.82,36.89,130.34,41.15,129.94,45.87Z"/><path class="cls-8" d="M85.16,2.88C84,3.58,83,4.41,83.09,5.94a1.49,1.49,0,0,1-1.3.32C77.23,4.9,71.94,6,68.18,2l1-1.81C74.52.91,80.06.57,85.16,2.88Z"/><path class="cls-9" d="M99.91,116.91c-1-1.66-2.83-3.34.09-4.92l8.71.64C106.13,114.78,103.66,117.19,99.91,116.91Z"/><path class="cls-10" d="M110.82,15c-1.68-2.33-3.51-4.6-3-7.79a13.08,13.08,0,0,1,5,4.8Z"/><path class="cls-11" d="M82.05,6.05l1-.11,6.7,3.28c8.54,4.25,14.29,11.52,20,18.78,1.91,3.67,4,7.26,5.69,11,4.58,10.19,5.46,21.11,5.66,32.07.09,5.28-2.15,9.89-5.25,14.15a92.48,92.48,0,0,1-34.09,28.55L66.21,118c-2.12.25-4.24.45-6.35.76C43.92,121.15,34,112.62,26.64,99.88a93.27,93.27,0,0,1-9-20.93,16.47,16.47,0,0,1-2.78-6.24c-1.29-5.1-1.67-10.34-3.17-15.45A18.43,18.43,0,0,1,13.75,42c.76-3.19,1.36-6.43,2.32-9.55C19.27,22,27.73,17,36.81,12.77c1.48-.7,3.06-1.18,4.59-1.77a9.14,9.14,0,0,1,6.11-1.85C54.22,7,61.2,6.53,68.16,6,72.81,3.83,77.43,5.23,82.05,6.05Z"/><path class="cls-12" d="M13.75,42C10.2,54.86,15.79,66.7,17.64,79c-1.29-.7-2.62-1.34-3.87-2.1s-4.42-.55-1-3.58c1.51-1.35-1.33-5.07-2.36-7.57C9.83,64.41,9.13,67.89,7.41,67c-.43-2.18,1-2.78,2.65-3.35.88-.3,2.14-.59,2.14-1.77s-1-1.17-2.11-1.3C7.83,60.3,7.25,58,7.34,56.46c.19-3.09-.39-5.56-2.63-7.73a2.26,2.26,0,0,1-.25-2.19c.66-.79,1.51.54,2.11.39C8,46.59,6.94,50.56,9,48.25c.94-1,3.06-1.42,1.9-3.88C9.15,40.63,12.52,42.51,13.75,42Z"/><path class="cls-13" d="M82.05,6.05,68.16,6c0-1.32,0-2.63,0-3.94,4.32.87,8.4,3.08,13,2.42C81.41,4.41,81.77,5.49,82.05,6.05Z"/><path class="cls-14" d="M47.51,9.15A10.2,10.2,0,0,1,41.4,11C41.69,6.79,43.16,6.34,47.51,9.15Z"/></g></g></svg>