<svg xmlns="http://www.w3.org/2000/svg" viewBox="0 0 130.85 130.64"><defs><style>.cls-1{fill:#86a68f;}.cls-2{fill:#80a089;}.cls-3{fill:#85a68f;}.cls-4{fill:#8aaa93;}.cls-5{fill:#86a791;}.cls-6{fill:#7d9d88;}.cls-7{fill:#7fa089;}.cls-8{fill:#6a8c77;}.cls-9{fill:#52745d;}.cls-10{fill:#779983;}.cls-11{fill:#8daa95;}.cls-12{fill:#7f9f89;}.cls-13{fill:#789982;}.cls-14{fill:#88a891;}.cls-15{fill:#fefefe;}.cls-16{fill:#769880;}.cls-17{fill:#70907a;}.cls-18{fill:#8ead98;}</style></defs><title>资源 1249</title><g id="图层_2" data-name="图层 2"><g id="图层_1-2" data-name="图层 1"><path class="cls-1" d="M2.87,79.29C1.69,78.44,1.76,76.47,0,76.13V58.29c3.34-6.72,4.31-14.38,8.35-20.84,2.24-3.59,4.3-7.28,6.44-10.93.74-.94,2.76.44,2.95-1.89a3.66,3.66,0,0,1,3.48-2.95c4.1-.27,2.89-2.1,1.48-4.15C27.84,13.22,34.42,11.44,40,7.87c2.1,1.12,1,2.38.14,3.61s-2.69,1.91-3.23,3.66c2.68-1.79,8-.36,11.32,3a2.7,2.7,0,0,1,0,1.41c-2.12,3.08-5.55,4.61-8.38,6.83a98.16,98.16,0,0,0-24.8,28.57c-3.14,5.51-3.73,11.89-4.78,18-.27,1.61.08,3.31-.78,4.83-2.14,1.69-2.72-1-3.88-1.4C7.39,79.76,5.13,79.52,2.87,79.29Z"/><path class="cls-2" d="M130.85,67.21c-2.2,9.7-10.08,16.89-11.81,26.89a21,21,0,0,1-6,11.06,2.46,2.46,0,0,1-.92-1c-1.1-4.68-5.39-6.52-8.51-9.41a4,4,0,0,1,.92-3.22c5.56-6.92,8.55-15,10.65-23.46a6.73,6.73,0,0,1,2.09-3.81,3.16,3.16,0,0,1,2.81-.08c2.27.63,1.21-.09.89-1.4-.43-1.83,1.25-2.89,3-3.11s3.34-1.22,5-1.91a2.06,2.06,0,0,1,1.95.53Z"/><path class="cls-3" d="M59.93,130.64c-7.82-3.22-16-5.53-23.17-10.32-1.08-.73-2.4-1.14-2.94-2.48a3.81,3.81,0,0,1,2.46-3.6c1.41-.28,2.56.41,3.73,1,10,5.32,20.25,6.7,30.94,2.11a20.69,20.69,0,0,1,4.77-1.31,4.29,4.29,0,0,1,3.48,1c1.06,1,1.35,2.18,1.06,4,3.69-1.44,7.59-.69,11.08-2.39a2.6,2.6,0,0,1,3.47,1c-6.58,5.81-14.89,8-22.89,10.92Z"/><path class="cls-4" d="M130.85,58.29h-2a2.91,2.91,0,0,1-1.15-1.64c-1-2.3,1-4,1.66-6.33.11-.12-.91.15-.36.52.21.14.12.23-.06.46a2.13,2.13,0,0,1-2.24.65c-.88-1.75-2.35-3.2-3.15-4.88-1.1-2.31.87-5.05-.16-7.59-1.49-3.91-1.49-3.91.66-5,4.76,3,4.4,8.68,6.77,12.93Z"/><path class="cls-5" d="M40.72,7.64C50.61,2,60.9-1.55,72.59.67c3,.57,6.25.25,9.38.33.46.2,1.08.46,1.12.89.31,2.71,4.46,6,8,5.58,4.07-.44,7.27-.12,8.5,4.5.47,1.79,2.54,1.25,3.72,2.09s2.75,1.58,2.6,3.31a2.86,2.86,0,0,1-3,2.71c-4.57-.92-8.2-4.14-12.8-5-7.48-1.45-15-1-22.58-1.34-1.46-.06-2.94.32-4.41,0-2,0-4.6-3.69-6,.82-2.72,2-5.17,4.6-9,4.23l-.18-.26c-.78-3.12-.52-5.15,3-7.06,1.85-1,3.32-3.95,5.43-5.82,1.44-1.27,3-.72,4.16-1.71-3-.79-5.2.92-7.67,2C49,7.63,45.12,9.68,40.72,7.64Z"/><path class="cls-6" d="M103.86,19.69c3.31-4-.66-5.19-2.8-5.18-2.45,0-2.76-.61-2.73-2.48A3.66,3.66,0,0,0,93,8.5c-3.43,1.8-5.59-.35-7.48-1.71-2.25-1.6-4.19-2-6.66-1C79,3.27,84.32,4.78,82,1c1.44.25,3,.19,4.31.78,4.6,2.13,9.8-1.28,14.41,2C107.9,8.94,115,14.15,120,21.56c-2.06,2.12-3.84.23-5.76-.47-1.34,1.25.07,3.18-1.13,4.42A10.43,10.43,0,0,1,103.86,19.69Z"/><path class="cls-7" d="M40.72,7.64c5-.43,9.9-1.08,14-4.16C57,1.77,60.2,3.79,62.21,1.4c0,0,.95.38,1,.7a1.42,1.42,0,0,1-.47,1.25c-2.54,1.7-5.11,3.37-7.76,4.9-.39.23-1.82-.19-1.64.3,1.7,4.7-2.11,4.34-4.64,5.57-1.33.65.74,3.13-.85,4.42-2.84-2.13-2.84-2.13-6.42-.62-.4-1.26.48-3-1.73-3.91.08,5.29-2.72,3.15-5.19,2.24C34.84,12.32,41,12.44,40,7.87A.86.86,0,0,1,40.72,7.64Z"/><path class="cls-8" d="M112.86,25.61a11.84,11.84,0,0,0-.27-2.4c-.42-1.39-1.43-3,0-4,1.88-1.33,2.73.24,3.71,1.71.81,1.21,2.4.65,3.68.66a2.24,2.24,0,0,1,.91,2c-.77,1.67.09,3.61-.92,5.24-1.52,1-2.82,2.26-4.52,3C113.26,30.3,112.69,28.11,112.86,25.61Z"/><path class="cls-9" d="M115.75,31.73c.24-2.49,1.73-3.38,4.1-3.15,1.52-.13,2.26.88,2.92,2,.44,1.29.87,2.59,1.31,3.88-2.22,2,.67,3.27.71,4.94-.89,1.1-2.76,2.05-3.15.84-1.07-3.29-4.8-3.31-6.27-5.87A2.34,2.34,0,0,1,115.75,31.73Z"/><path class="cls-10" d="M22.7,17.53c2,.3,3.49,1,3,3.44-.38,2-1.73,1.33-3.1,1.44-3.16.26-5,2-4.11,5.44l-3.73-1.33C15.39,21.76,19.78,20.28,22.7,17.53Z"/><path class="cls-11" d="M122.77,30.58l-2.92-2c0-1.74-2-3.92,1.09-5C122.47,25.68,122,28.29,122.77,30.58Z"/><path class="cls-12" d="M94.81,119.72c-3.61-.6-6.7,1.59-10.26,1.84-5,.36-5,.91-5.62-3.77a4.44,4.44,0,0,1,3.91-2.54c4.07,0,5.43-2.85,6.67-5.91,2.94-3.55,5.84-7.16,10.34-8.93,1.18.27,1.88,1.16,1.32,2.12-1.15,2-.7,4.08-1,6,3.06-2.71,3.09-2.72,2.7-7.8a1.6,1.6,0,0,1,.88-1.57,2.38,2.38,0,0,1,3.19.18c1.74,1.78,4,2.89,5.86,4.47.06.45.11.9.17,1.34-1.12,3.62-4.49,5.1-7.17,7.14C102.32,115,98.5,117.26,94.81,119.72Z"/><path class="cls-13" d="M2.87,79.29C3.23,77.76,4.94,79,5.61,78c-.55-1.36-2.76-.57-2.89-2.25,0-.27.63-.73,1-.88,1.67-.59,2.2,1,3.19,1.74.66.48,1.28,1,1.92,1.52,1.52,1,1.82,2.69,2.2,4.25,2.2,9.12,7.46,16.26,14.46,22.3,1.59,1.37,3.58,2.45,3.77,4.89-1.29,2.67-2.91,1.62-4.87.67-6.07-2.94-10.8-7.42-15.19-12.35C4.67,92.52,5.21,85.42,2.87,79.29Z"/><path class="cls-14" d="M9.25,97.89c.91.3,2.06-1.2,2.83.69C14.7,105,22,106,26.42,110.35c.78.76,1.8-.39,2.73-.58,2.49-1,3.44.57,4.15,2.5-1.39,3.73-4.29.21-6.24,1.27C18.65,111.1,13.47,105,9.25,97.89Z"/><path class="cls-13" d="M27.06,113.54c1.58-3.6,4.35,1.21,6.14-.86,1.47-.16,2.62.16,2.87,1.84-.61,1.2-1,2.56-2.25,3.32C31.55,116.43,28.88,115.65,27.06,113.54Z"/><path class="cls-15" d="M36.07,114.52l-2.87-1.84a6,6,0,0,0-4.05-2.91c-3.4-3.24-7-6.28-10.15-9.77A40.3,40.3,0,0,1,8.88,78.13,53.32,53.32,0,0,1,22.42,42,128.89,128.89,0,0,1,48.07,18.8l9.17-4.89c1.25-1.6,2.95-1.48,4.69-1.21,9.35-.52,18.67-.61,27.95,1,5.18.9,9.32,4,14,6l9,5.92c1.8,1.65,1.83,4.12,2.89,6.12.11.9.23,1.8.35,2.7,3.94,6,3.54,12.83,3.81,19.53-.9,2.91-.37,6-1.09,8.93a3.62,3.62,0,0,1-.94,1.35c-1.82,3-2.24,6.55-3,9.88C113,82,108,88.27,104,95c-.33,2.71-1.45,4.87-4.22,5.86-3.61,2.75-6.24,6.63-10.34,8.81-3.51,4.11-8.63,5.27-13.37,7.12C62.3,123.62,49,122.74,36.07,114.52Z"/><path class="cls-16" d="M117.88,64.24l.17-1c.94-2.92,4.76-5.62.66-8.91.36-6.78-1.66-13.27-2.61-19.89,2.06,1.22,4.66,1.59,5.4,4.59.5,2,2.19,0,3.29.38,1.1,1.64,0,3.16-.25,4.72-.53,2.76-.2,4.69,3.4,3.31,0,1.6-2.51,2.19-1.09,3.94.19,2.84.19,2.84-2.33,4.48.81.39,1.41-.31,2.11-.29a3.66,3.66,0,0,1,2.22.76l0,2c-1.07,3.75-6.12.82-7.39,4.24.8,1.29,1.84-.73,2.63.36,0,1.08-1,1.5-1.62,2.18C120.54,67.25,119.38,64.78,117.88,64.24Z"/><path class="cls-17" d="M99.77,100.86,104,95a9.47,9.47,0,0,1,8.84,8.82c-4.12,1.37-5.06-4.46-9.4-4.29.55,2.1,4,2.14,2.33,4.81s-3.65,5-6.64,6.14c-.7.28-2-.64-1.29-1.19,2.81-2.08-.55-6,2.64-7.78Z"/><path class="cls-18" d="M76.06,116.79a87.94,87.94,0,0,1,13.38-7.12c.6.23,1.71.41,1.74.69.13,1.5-5.9,6.51-7.29,5.94-2.22-.91-3.06,1.88-5,1.49Z"/><path class="cls-2" d="M128.85,56.32a13,13,0,0,0-5.25.65c1.24-1.93,3.31-3.16,3.25-5.6.85-.39,2.13-1.32,2.48-1.06,1,.78.63,2.08-.1,2.95A2.43,2.43,0,0,0,128.85,56.32Z"/><path class="cls-7" d="M61.93,12.7c-1.37,1.15-3,1.11-4.69,1.21C58.22,9.92,58.22,9.92,61.93,12.7Z"/><path class="cls-2" d="M118.71,54.32c3.09.21,4.35,3,2.48,5.86a19,19,0,0,1-3.14,3C118.33,60.26,117.51,57.22,118.71,54.32Z"/></g></g></svg>