<svg xmlns="http://www.w3.org/2000/svg" viewBox="0 0 123.84 140.56"><defs><style>.cls-1{fill:#7e9e88;}.cls-2{fill:#7c9d87;}.cls-3{fill:#8bab94;}.cls-4{fill:#7a9b85;}.cls-5{fill:#89a892;}.cls-6{fill:#73947e;}.cls-7{fill:#51725b;}.cls-8{fill:#8daa95;}.cls-9{fill:#89a993;}.cls-10{fill:#779882;}.cls-11{fill:#80a08a;}.cls-12{fill:#fefefe;}.cls-13{fill:#88a892;}.cls-14{fill:#7b9c85;}.cls-15{fill:#96b5a0;}.cls-16{fill:#95b39f;}.cls-17{fill:#769580;}</style></defs><title>资源 1250</title><g id="图层_2" data-name="图层 2"><g id="图层_1-2" data-name="图层 1"><path class="cls-1" d="M123.84,73.59c-2.06,3-1.6,6.54-2.56,9.77-4.68,15.65-14.1,28-27.17,37.66-4.3,3.17-8,7.2-13.09,9.41-1.42.61-2,3.08-3,4.7a1.69,1.69,0,0,1-1.93.28c-1.53-2.72-.67-5,1.58-6.76,1.78-1.37,2.87-2.91,2.79-5.19,3.47-4.06,8.47-6.25,12.16-10.14,12.36-13,18-27.66,13.11-45.72-1.7-6.3-3.56-12.26-7.11-17.75-1.5-2.32-3.2-4.66-3.66-7.52C96.34,38,105.87,35,108,38.6c1.25,2.15,3,4.51,3.6,6.74,1,3.63,3.68,5.27,6,7.45.78,1.9,1.57,3.79,1.33,5.91-4.75.56-4.83.7-2.19,4.8.36.56.9,1.14.67,1.76-2,5.33.57,6.35,5.19,5.61.44-.07.88.39,1.24.74Z"/><path class="cls-2" d="M1.16,74.6C.26,69.34,3.66,63.77,0,58.72V46.81A104.88,104.88,0,0,1,10.13,24c1.49-.44,2.41-1.25,1.94-3a6.58,6.58,0,0,1,2.85-3.16,3,3,0,0,1,1.17,1.73c2.09,4.12-1.59,6.31-3.4,9.13.83-.77.83-2.2,2.34-2.14s1.91,1.13,2.27,2.23A14,14,0,0,1,18,33.15a12,12,0,0,1-2.23,6c-1.69,1.65-3.72,2.88-3.55,5.91.1,1.72-.67,4.25-3.7,2.48-.45-.26-.53-.13-.57.09.68.11-.95,1.46.86,1.25,3-.36,5,2.12,3.19,4.05-3.16,3.44-.38,5.77.28,8.57a2.51,2.51,0,0,1,0,1.36c-1.28,1.8-.18,4.74-2.91,5.9a1.19,1.19,0,0,0-.32,1.75c2.39,3.58.29,7.76,1.57,11.53.46,1.35.47,3.21-1.34,3.8A7.87,7.87,0,0,1,3,85.49a3.14,3.14,0,0,1-1.27-4.33C2.87,78.72,2.22,76.71,1.16,74.6Z"/><path class="cls-3" d="M123.84,71.61c-1,0-2,0-3,.14-1.46.17-4.12,2.41-3.91,1,.36-2.45-4.6-4.12-.73-6.61,1-.61.67-1.74-.63-2.15-2.77-.87-3.15-2.88-1.87-5,1.38-2.29,3.35-1.94,5.18-.27,2.45,2.92,1.21,7.63,4.91,9.93Z"/><path class="cls-4" d="M50.89,1.32C60-1.87,68,1.15,75.56,5.79a56.93,56.93,0,0,1,12.58,11c-1.45,2.46-3.12,4.68-2.12,8,.64,2.11-.78,4-3.16,4.71a4.75,4.75,0,0,1-4.3-4.32,2.5,2.5,0,0,1,2.31-1.68c-2.07-.58-2.52-3.15-4-3.77s-3-.94-4.17-2.15c-1-1.05-2.28-1.82-3.49-3-.45,1.49,1.17,3.18-.81,4a5.58,5.58,0,0,1-3.79-.74c-6.08-2.94-12.27-5.52-19.21-5.59A3.12,3.12,0,0,1,42.82,11C43.66,6.23,47.94,4.32,50.89,1.32Z"/><path class="cls-5" d="M83.07,28.91c1.39-1.73,2.81-3.15,1.5-5.9-1.51-3.15,1-4.91,3.57-6.23l-.09.11c.36,4.42,4.28,5.23,7.22,7a18.66,18.66,0,0,1,10.45,7.62c4.42,6.84,9.6,13.25,11.88,21.26-2.37-.75-4.38-2.94-7.61-1.36,3.06-4,1.22-7.17-2-8.16-5.3-1.63-.53-2.55-.14-3.76-7.48-1.83-9.91-1.3-12.14,2.62-3.79-1-5.59-3.57-6-7.28.5-.46,1.29-1,1.77-.63,3.5,2.32,4.67-.5,6.44-2.94-1.67,0-3.17.89-4.37-1.22-2.44-4.28-3.08-4.16-6.42-.33a3,3,0,0,1-2.64,1.06C83.62,30.45,82.42,30.37,83.07,28.91Z"/><path class="cls-6" d="M15,20l-.06-2.15c4.23-4.72,9.78-7.38,15.51-9.75C33.6,6.83,36.8,5.6,40,4.33c1,1.55-.19,2.39-1.13,3.17a8,8,0,0,0-2.7,4.43c-3.31,2.32-7.39,3-10.83,5.09a14.17,14.17,0,0,0-5,3.1C18.65,21.61,16.73,22.67,15,20Z"/><path class="cls-7" d="M36,11.15c-1.72-1.32-.25-2.08.47-3.08,1-1.4,3.27-1.63,3.49-3.74a16.11,16.11,0,0,1,10.9-3c-1.75,3.8-4.88,6.35-8,8.88C40.73,11.66,38.51,12.33,36,11.15Z"/><path class="cls-4" d="M95.27,23.91,89.7,22.36c-3.49-.95-2.37-3.27-1.66-5.47Z"/><path class="cls-6" d="M12.07,21.05c1.57.17,1.91.84,1.23,2.31-.83,1.81-1.92,1.39-3.17.66A4.7,4.7,0,0,1,12.07,21.05Z"/><path class="cls-8" d="M75.9,135.09l2.1,0c-2.09,4.33-6.64,3.59-10.21,4.82a21.69,21.69,0,0,1-3.91.61.58.58,0,0,1,0-.53c.17-4.37,1.23-5.65,4.77-4.63C71.28,136.15,73.5,134.88,75.9,135.09Z"/><path class="cls-9" d="M1.16,74.6c1.55,2,5.58,3.45,1.32,6.72-.86.67-.58,2.1.46,3,1.89,1.7,4.1.12,6.15.63.79.2,1-1.25.56-1.94C7.21,79.17,11.49,74,7.15,70.51A.51.51,0,0,1,7.1,70c1.63-2.45,3.29-4.89,4.94-7.34a2.46,2.46,0,0,1,1,1.68c-.07,10.75,4.29,20.55,6.65,30.77-.36,2.55-2.69,5.68,2,6.77a1.86,1.86,0,0,1,.85,1c.07,1.9-.64,3.81.94,5.6,1.87,2.13-.65,3.51-1.3,5.2a2.66,2.66,0,0,0,.73,3.06,28.5,28.5,0,0,1,2.36-3c1.69-.4,1.14-3.63,3.72-2.93a3,3,0,0,1,1.54,2c.78,2.52,1.25,5-.23,7.48-.61,1.32-.75,3-3.34,3.08,2.24,1.57,7.23,1.5,3.06,5.51-9.43-4.69-16.41-11.89-21.77-20.78.94-1.71,1.31-3.66,2.08-5.42.93-2.14.43-2.89-1.86-3.19s-3.23-.93-1.26-3.41c1.37-1.74-1.36-5.25,2-6.82-2.61-.24-3.47,3.08-6,3C.08,86.74,1.25,80.6,1.16,74.6Z"/><path class="cls-10" d="M75.9,135.09c-1.86.65-2.85,3.15-5.72,1.77s-5.53-.52-6.26,3.17a24.73,24.73,0,0,1-11.07-3.82A2.33,2.33,0,0,1,54,133c1.75-1,2-1.29,1.49-3.26a1.76,1.76,0,0,1,.74-1.12c3-1.25,6.49-.72,9.31-2.61a60.29,60.29,0,0,1,15.3-2c.18,1.41.88,3-.85,3.93C77.13,129.5,76.4,132.22,75.9,135.09Z"/><path class="cls-11" d="M64.92,127.2c-2.63,2.34-5.9,1.72-9,1.93-2.84,3.29-5.77,5.11-10.12,2-2.88-2.06-6-.68-8.83.86l-7-3c-.51-1,2.76-3.58-1.59-3-3.05.36-1.13-3.73-3.46-5,2.24,1.6,3.83,1.42,5-.77,1,.12,1.91.6,2.92.17,4.32-1.83,6.13.55,7.34,4.68.37-2.58,1.73-3.54,3.91-3.38a2.69,2.69,0,0,1,2.11,1.45c.29.44-.42,2,1.12,1.09a5.25,5.25,0,0,1,2.74-.89C54.91,125,60.19,125.07,64.92,127.2Z"/><path class="cls-2" d="M3.11,92.43c2.2-3.07,4.89-5.08,9.31-4.37-.88,2.33-4.55,1.47-4.24,4.23.22,2,1.43,3.9-1.11,5.51-.53.34,1.17,1.31,1.88.85,1.47-.94,2.35-.82,3.08.78.56,1.24,1.15,2.32-.24,3.48-1.68,1.42.08,5.17-3.58,5.32C6.41,103,3.39,98.15,3.11,92.43Z"/><path class="cls-10" d="M37,132c3-3.84,6.44-3.89,10.23-1.3,2.33,1.6,4.46,1.92,6.27-.76.58-.85,1-2.37,2.45-.8h0c-1.16,3.4-2.84,6.08-7.17,5A16.92,16.92,0,0,0,37,132Z"/><path class="cls-11" d="M48.76,134.17c3.37-.3,5.3-2.62,7.17-5a28.56,28.56,0,0,0,1.2,3.16c.62,1.26,2,2.58-.11,3.57-2.89,1.39-.84-1.5-1.5-1.84-2.34-1.16-1.68,1.56-2.67,2.18C51.4,135.71,49.87,135.35,48.76,134.17Z"/><path class="cls-12" d="M45.87,123.3,44,122c-5.61-1.38-10.63-3.66-13.75-8.85l-1.45-1.86a12.54,12.54,0,0,1-6.8-9h0c-2.09-1.45-2.47-3.74-3-6-3.82-10.92-7.64-21.84-7-33.68,0-.33-.09-.66-.14-1-.78-7.82-.27-15.48,2.9-22.8a17.31,17.31,0,0,0,2.15-6c1.35-6.24,2.64-12.5,8.13-16.75,3.08-2.89,7.4-3.1,11-5,2.22-.65,4.43-1.43,6.81-1,9.33.61,17.78,4,26,8,3.78,1.56,7.81,2.75,9.79,6.85l4.4,3.84a1.57,1.57,0,0,0,1.48,1.14C87,31,89.14,32.16,89.74,35c1.89,2.47,3.5,5.17,6,7.16,3,5.12,7,9.93,8.74,15.44,5.51,17.1,7.1,34.06-4.93,49.73-5.22,6.8-11.7,12-18.68,16.72-4.93,3-10.77,1.42-15.94,3.18-5.62.57-10.75-1.34-15.91-3.09C48.07,123.46,46.7,124.41,45.87,123.3Z"/><path class="cls-9" d="M14.8,38.9C13.62,46.47,12.32,54,11.9,61.7c-1-.07-2.63-.6-2.17-1.34C11.59,57.3,8.14,57,7.29,55c1.69-1,5.43-.83,3.94-4.15-1.62-3.62-3.78,1-5.84.08-.47-1.46,3.73-2.76.26-4.39a3.21,3.21,0,0,1,.53-1.7c.58-.69,1.17-.09,1.6.36.67.71,1.28,1.48,2.12,2.47C12.33,45,9.81,39.75,14.8,38.9Z"/><path class="cls-13" d="M25.08,16.13c-3.6,5.15-5.17,11.28-8.13,16.75-.71-1.75.2-4-1.77-5.5-1.89.49-.81,4.88-4.21,3.29-.38-4.16,6.71-5.58,4-10.63,2.1,1.27,3.75.64,5.08-1.22A6.32,6.32,0,0,1,25.08,16.13Z"/><path class="cls-13" d="M78.67,25.07l-9.79-6.85a7.28,7.28,0,0,0-1-2.12c-1-1-1.26-2.08-.22-3s2.11-.38,2.74.81c.91,1.71,3.13,1.86,4.08,3.84,1.24,2.59,3-.4,4.48-.43,1.22,1.19-1.95,2.54.71,3.87C82.06,22.4,81.91,24.49,78.67,25.07Z"/><path class="cls-14" d="M89.74,35l-5.19-4.92c.78-.16,1.84-.07,2-1.11.22-2.21,1.32-4.23,3.49-3.57s5.4.88,5,4.52c-.2,1.66.84.87,1.39.75,1.35-.29,1.72-2.52,3.93-1.81-.34,3.18-3.73,4.91-4,8.11-.05.69-1.49,0-2-.43C92.88,35.48,91.54,34.65,89.74,35Z"/><path class="cls-15" d="M30.23,113.17c4.19,3.55,9.16,5.91,13.75,8.85-2.78.77-3.67,2.26-1.4,4.79-3.44.67-3.41-1.82-4.08-3.5-1.06-2.7-3-3.76-5.23-1.76-2.48,2.17-2.54-.16-3.35-1.32C30.81,117.91,29,115.47,30.23,113.17Z"/><path class="cls-16" d="M22,102.34l6.8,9c-1.78.17-1.42,2.38-2.81,2.91-1.81.43-3.89,2.35-5-.9.95-1.84,3.86-3.3.31-5.73C19.05,106.07,22.17,104.19,22,102.34Z"/><path class="cls-16" d="M19,96.37a13.3,13.3,0,0,1,3,6c-3.08,2-4.13-1.22-5.2-2.52C15.22,97.93,18.54,97.77,19,96.37Z"/><path class="cls-17" d="M21,113.32c1.43,1.59,3.33.68,5,.9-.53,1.84-3,2.8-2.31,5.34C21.88,117.7,19.66,116.26,21,113.32Z"/><path class="cls-15" d="M45.87,123.3a2.79,2.79,0,0,1,3.14.81,13.88,13.88,0,0,1-1.66,1.68c-.89.61-2,1.48-2.86.1S45.53,124.24,45.87,123.3Z"/></g></g></svg>