<svg xmlns="http://www.w3.org/2000/svg" viewBox="0 0 94.84 102.64"><defs><style>.cls-1{fill:#7c9c87;}.cls-2{fill:#82a28d;}.cls-3{fill:#7b9a85;}.cls-4{fill:#73917d;}.cls-5{fill:#fefefe;}.cls-6{fill:#84a48f;}.cls-7{fill:#73937c;}.cls-8{fill:#89a793;}.cls-9{fill:#668771;}.cls-10{fill:#4f7059;}.cls-11{fill:#779983;}.cls-12{fill:#72937d;}.cls-13{fill:#83a48f;}.cls-14{fill:#8fac98;}.cls-15{fill:#5f8169;}.cls-16{fill:#9bb8a5;}.cls-17{fill:#92ae9b;}</style></defs><title>资源 1251</title><g id="图层_2" data-name="图层 2"><g id="图层_1-2" data-name="图层 1"><path class="cls-1" d="M51.91,102.64h-19c-2.75-.85-5.69-.68-8.43-1.52-1.5-.45-3.31-.53-4-2.36.26-5.47.49-5.67,5.85-6.07,2-.14,3.91-.31,5.87-.46,5.82,3.82,11.91,2.89,18.11,1.09C61.76,90,71.79,84.82,77.75,73.88c1-1.91,1.93-4.32,4.68-4.54-.07,0,.19-.14.19-.14a1.55,1.55,0,0,0-.12-.37c.11-5.15,1.85-10,1.91-15.15a31.5,31.5,0,0,0-4.49-16.9C76.59,31.13,72,26.28,69.36,20.21c.64-3.21,3.2-3.7,6.38-4-3.84-3.58-2.28-6.81.19-10,1.91-1,3.54-.42,5,.87C84.66,10.41,88,14,90.2,18.55,88.33,24,91.75,28.42,93.3,33.2a174.42,174.42,0,0,0,1.54,25.93V71C92,82.13,84,88.9,74.53,94.41A24.36,24.36,0,0,0,69.18,98c-3.48,3.54-7.8,4.16-12.44,4.2C55.13,102.19,53.43,101.65,51.91,102.64Z"/><path class="cls-2" d="M0,30.45c2.21-4.08,3-8.91,6.83-12.12a19.91,19.91,0,0,0,10-6.82c3.62-4.3,6.38-4.06,9.52.64.14,2.15-1.41,3.21-2.85,4.34A11.4,11.4,0,0,0,14.2,29.77c.57,3.18,1.15,6.46.57,9.76-.83,7.16.05,14.32-.07,21.48a3.79,3.79,0,0,1-1.87,1.79c-4.1-.08-6.39-2.58-8-5.91-1.68-2.8.47-5.7-.29-8.52a3.44,3.44,0,0,1-.43-1.08c-1.54-3.7-.56-7.89-2.46-11.54A8.88,8.88,0,0,0,0,33.42Z"/><path class="cls-3" d="M5.91,56.16l6,6c.12,2.5,2.08,4,3.25,6A2.91,2.91,0,0,1,15,69.47c-3.36,3.44.57,5.45,1.59,8,1.52,3.65-.46,7-1.15,10.38-.4,2-2.62,2.17-4.46.91A36.66,36.66,0,0,1,1.88,74.41C1.36,72.91,1.59,71.07,0,70V61.1c1.18-.75.9-2,1-3.08C1.41,54.26,3.19,54,5.91,56.16Z"/><path class="cls-4" d="M5.91,56.16C4,57,1.63,57,2.4,60.49,3,63,1,61.37,0,61.1v-3A25.27,25.27,0,0,0,0,47.26V33.42a6.74,6.74,0,0,1,6,7.34c-.09,1.82-1.32,4.06,1.83,4.6.86.93.2,1.92.11,2.89C7,50.81,7.42,53.73,5.91,56.16Z"/><path class="cls-3" d="M0,47.26A14.11,14.11,0,0,1,0,58.14Z"/><path class="cls-5" d="M14.2,69A3.54,3.54,0,0,0,14,68c-1.67-2.11-2.54-4.34-1.06-6.92-2.39-7.46-.41-15.07-.82-22.59,1.22-7,.52-14.6,6.24-20.32a35.09,35.09,0,0,1,3.89-3.43l3.11-2.87a4,4,0,0,1,.49-1.54c2.74-6,8.55-4.63,13.42-5.56C44.69,3.31,49.53,6.07,54.63,7c5.08.54,8.84,3.77,13,6.25,2.41,1.46,3.8,3.43,3.23,6.37A82.16,82.16,0,0,1,84.2,39.45c4.54,10,3.28,20.32-.49,30.41l0,0a29.82,29.82,0,0,0-3.23,4.3C74.2,86.71,63.06,92.47,50.24,96c-1.42.39-3,.34-4.34.89a12.44,12.44,0,0,1-13.78-2.21c-8.37-2-13.65-7.05-15.25-15.6C16.16,75.65,12.15,73.1,14.2,69Z"/><path class="cls-6" d="M18,78.89A42.68,42.68,0,0,0,32.12,94.65c-3.45.81-7.74-1.08-10.17,3.06-4.06-2.48-8-5.08-11-8.91.91-.31,2.43-.8,2.2-1.54-1.06-3.54,2-6.14,1.87-9.4C16.56,76.68,17.23,78,18,78.89Z"/><path class="cls-7" d="M70.82,19.6l-4-4.84c-1.42-3,.73-4,2.74-5.55C71.22,8,73.17,7.93,74.8,7l1.13.53c-.1,2.89-1.74,6.8,4,5.65,1.06-.21,2.78.55,2,1.94-1.16,2.17-2.26,5.18-5.47,4.64C74.57,19.39,72.76,18.86,70.82,19.6Z"/><path class="cls-8" d="M88.05,19.51c2.46,4,6.17,7.57,3.86,12.94C89.75,28.39,86.29,24.71,88.05,19.51Z"/><path class="cls-9" d="M83.71,69.86a21.41,21.41,0,0,1,2.4,0c.87.06,1.64.51,1.56,1.45a2.2,2.2,0,0,1-1,1.52c-1.47.82-1.37-.7-1.85-1.37-.36-.52-.78-1-1.17-1.5Z"/><path class="cls-10" d="M74.8,7c-1.13,2.43-1.93,5.09-5.5,5.1-1.42,0-2,1.52-2.46,2.7A72.7,72.7,0,0,0,54.75,8.94c-1.28-1.78-1.37-3.39.66-4.72A2.76,2.76,0,0,1,58,4.61a4.48,4.48,0,0,0,3.78-.9c2.89-1.24,5.23,1.85,8.07,1C71.92,4.61,72.86,6.86,74.8,7Z"/><path class="cls-11" d="M25.88,11.45a.67.67,0,0,1-.55.45c-2.7-1.87-5-1.34-6.77,1.28-2,2.95-5.11,4.58-7.73,6.81s-3.26.28-4-1.66C10.4,11.87,16.64,8.75,23,5.75,25.8,6.72,27.46,8.28,25.88,11.45Z"/><path class="cls-12" d="M56,4.86a7.17,7.17,0,0,0-1.23,4.08c-5.3-.56-10.42-2.37-15.82-2.25-.76-.74-2.49-.24-2.49-1.94s1.68-1.26,2.49-1.91c3.54-1.53,7.29-.88,11-1.09C52.22,2.2,56-.11,56,4.86Z"/><path class="cls-13" d="M38.93,2.84c-1.71,1.28-1.41,2.56,0,3.85-4.68.69-9.41,1.25-13,4.76-1-1.88-2.74-3.4-2.91-5.7C28,3.28,33.42,2.81,38.93,2.84Z"/><path class="cls-14" d="M56,4.86C54.2,3.35,51.29,4,49.89,1.75,54.43-2.39,56,1.74,58,4.61Z"/><path class="cls-15" d="M69.89,4.73C68.3,6,68.1,8.61,65.09,9.46c2-4-.48-5-3.27-5.75C64.82,1.59,67.33,3.39,69.89,4.73Z"/><path class="cls-16" d="M22.22,14.77A54.55,54.55,0,0,0,12.09,38.52C11.81,32.6,10.9,26.47,14,21.11,15.75,18.16,18,15,22.22,14.77Z"/><path class="cls-17" d="M12.91,61.11,14,68c-2.51-1.36-6.94-2.07-2-5.92C12.26,61.77,12.59,61.44,12.91,61.11Z"/><path class="cls-3" d="M7.94,48.25c-1.87-.9-.8-1.9-.11-2.89,1,.57,2.35,1,2.19,2.34C9.89,48.76,8.69,48.21,7.94,48.25Z"/><path class="cls-17" d="M18,78.89l-3-1C14,76.47,13,75,11.79,73.69,8.63,70.09,10.7,69.2,14.2,69A47.56,47.56,0,0,1,18,78.89Z"/></g></g></svg>