<svg xmlns="http://www.w3.org/2000/svg" viewBox="0 0 115.77 117.88"><defs><style>.cls-1{fill:#7d9e89;}.cls-2{fill:#84a590;}.cls-3{fill:#91b09b;}.cls-4{fill:#82a38d;}.cls-5{fill:#7b9b85;}.cls-6{fill:#83a38d;}.cls-7{fill:#6e907a;}.cls-8{fill:#83a28d;}.cls-9{fill:#3e5f47;}.cls-10{fill:#95b39f;}.cls-11{fill:#fefefe;}.cls-12{fill:#8aa994;}.cls-13{fill:#8faf9a;}.cls-14{fill:#93b19d;}.cls-15{fill:#91b09c;}.cls-16{fill:#9cb8a5;}.cls-17{fill:#8dad98;}.cls-18{fill:#8ead98;}</style></defs><title>资源 1239</title><g id="图层_2" data-name="图层 2"><g id="图层_1-2" data-name="图层 1"><path class="cls-1" d="M64.15.87A3.16,3.16,0,0,1,64.28,0h5C74,1.6,79.38,1.47,83.57,4.84c2.29,1.66,1.43,4,1,6.2,0,.58,1.17,0,.51,0-.19,0-.21-.11-.13-.4a9.31,9.31,0,0,1,2.68-4.44c4.26-1.21,7.71-.38,9.84,3.84,1.16,3.09-2.75,3.71-3,6.09,1.48-1,3.1-1.59,3.79.68.63,2.07,2.5,3.57,2.74,5.63.35,2.85,2.21,2.78,4.21,2.83a2.84,2.84,0,0,1,2.29,3.18c-1,2.81-3.68.19-5.4,1.94,1.35,1.17,2.57,2.54,2.34,4.71s1.62,2,3.07,2.21c2.52.28,2.94,1.77,2.1,3.84-.68,1.67-1.31,3.37-2.14,5-1.24,2.37-3.06,4.27-5.85,2.41-1.58-1-3.06,1.32-4.34-.33-2.48-2.12-3.57-5.1-4.57-8C89,29.19,81,21.42,72.72,13.92a16.77,16.77,0,0,0-7.93-3.74c-1.92-.41-3.93-.68-4.9-2.76C59.36,4,64.35,4.11,64.15.87Z"/><path class="cls-2" d="M107,28.56q4.41,7,8.81,14v3c-1.08,1.67-.41,3.52-.53,5.28-.34,5-.78,5.43-5.51,4.26a21.56,21.56,0,0,1-2.84-.85c-2.77-.88-5.82.17-8.52-1.21a3.74,3.74,0,0,1-.59-5.44c1.68.29,3.28-1.11,5.19.6,1.22,1.09,3-.83,3.58-2.39a18.23,18.23,0,0,1,1.78-4.46c1.17-1.73,2.74-4.21-1.79-2.54-.58.21-5.11,0-3.35-3.83,1.61-3.54-2.63-3-3.48-4.85C101.81,28.23,104.31,28.06,107,28.56Z"/><path class="cls-3" d="M107.86,53.5l.46.17c5.22,2.21,6.62-.41,6.45-5.08,0-1.11-.17-2.29,1-3V58.44c-2,.32-1.33,1.67-1.33,3,0,5.74.12,11.52-2.69,16.82-5.38.16-6.13-.93-3.85-5.72.55-1.16,1.41-2.1-.55-2.84a1.67,1.67,0,0,1-.58-2.2c2.74-3.94.75-7.3-1-10.84C105,54.92,104.65,52.89,107.86,53.5Z"/><path class="cls-4" d="M54.34,117.71a100,100,0,0,1-15.28-.29c-11-1-17.19-8.17-23-16.58-8.24-12-13.54-25-15.28-39.41.43-2.14.07-4.73,3.09-5.4a6.06,6.06,0,0,1,3.27.82c3.1,2.42,4.27,6.58,7.79,8.62a4.29,4.29,0,0,1,.44,1.29c-.78,2.57-2.81,5.48,1.82,6.54a11.27,11.27,0,0,1,2.08,6.64c-2.91,1-1.95,3.52-1.33,5,1.44,3.42.6,7.85,4.75,10.21,1.48.84,2.71,1.67,4.42,1.55a1.56,1.56,0,0,1,1,.81c1.39,1.91-2.27,3.88.11,5.8,3.56,2.86,6.13,7.43,11.74,6.63a2.51,2.51,0,0,1,1,.14c2.72,1.3,5.38,2.78,8.55,2.63C50.31,115.18,54.16,114.68,54.34,117.71Z"/><path class="cls-5" d="M107.86,53.5c-4,2,0,5.44.19,5.54,4.44,2.06.2,4.91.67,7.23.09.44-1.9,1.32-1,2.68,1.15,1.65,1.94-1.68,3.21-.18-.42,3.13-6.88,6.92.77,9.48-.35,1.32-.69,2.64-1,4-.83,1.59-2.84,2.75-1.83,5-1.26,3.13-1.44,7-5.69,8-1.87,0-4-.77-4.64,2.14-.27,1.14-1.7,1.55-2.89,1.2-2.36-.68-3.26-2.5-3.38-4.82.94-4.52,3.12-8.6,4.65-12.91a40.41,40.41,0,0,0,1.65-22.69c-.41-1.86-1.18-3.84.3-5.65C101.87,52.92,105.06,51.49,107.86,53.5Z"/><path class="cls-6" d="M6.81,57.45l-2.92-1c-1.29-.22-3,1.18-3.8-1C1.46,40.58,5.06,26.63,17,16.38c1.44-1.23,1.64-2.63,2.1-4.2C20.06,9,21.59,6.43,25.66,8c-.4,2.4,3.84,3.57,1.72,6.44-.89,2.82-3.55,4.22-5.53,5.83-3.06,2.49-2.83,5.28-2.58,8.41a2.49,2.49,0,0,1-.46,1.28,17.42,17.42,0,0,1-4.21,1.2c-.5-.47-.61.9-.41.27.07-.22.17-.16.42,0,2.21,1.27,2.57,3.13,1,4.88-2.91,3.15-2.35,6.56-1.3,10.11a2.65,2.65,0,0,1-.31,1.3c-.51.41-1.66.46-1.66.72C12.36,52.59,8.53,54.38,6.81,57.45Z"/><path class="cls-7" d="M26.63,13.89c1.07-1.7.11-2.82-1.24-3.55-2.18-1.16.33-1.59.27-2.39,7.64-4,15.48-7.32,24.41-6.76,2.09.13,4.2,0,6.31,0-.35,1.6-.53,3,1.51,3.8,1,.39,2.68,1.08.84,2.63a12.81,12.81,0,0,1-6.5.4c-4.65-2.32-8.1.39-11.61,2.82a8.38,8.38,0,0,1-4.2,1.32c-2.27,0-4.35.18-6.06,2.15C29.3,15.54,27.54,16.74,26.63,13.89Z"/><path class="cls-8" d="M54.34,117.71c-.88-2.24-5.09-.39-4.87-4a3.6,3.6,0,0,1,2.69-1c9.8-.11,18.78-3.12,27.35-7.65a5.37,5.37,0,0,1,1.9-.52c1.4.18,2.66.53,2.65,2.33C75.15,113.2,66,118.88,54.34,117.71Z"/><path class="cls-8" d="M93,94.1c2.92,5.21,2.92,5.21,7-1.28,1.31.46,1.31,2.79,3.19,2.41a28.64,28.64,0,0,1-9,5.88,2.16,2.16,0,0,1-1.87.28c-2.73-1.1-.89,1.14-1.29,1.75L90,103.9c-1.61-.33-3.4.74-4.89-.62C86.14,98.85,89,96,93,94.1Z"/><path class="cls-9" d="M59.38,6.78c-.65-.91-1.66-.87-2.61-1A3.23,3.23,0,0,1,53.9,3.52c-.5-1.89,2-1.14,2.48-2.32C59,2.3,61.55.75,64.15.87c1.59.53,2,1,.65,2.61s-3.91,1.17-4.49,3.46A.56.56,0,0,1,59.38,6.78Z"/><path class="cls-5" d="M85.09,103c1.64.25,3.48-.65,4.89.88-1.53,1.86-3.8,2.26-5.92,3l-2-1.79C82.55,103.59,83.25,102.47,85.09,103Z"/><path class="cls-10" d="M.09,55.47c1,1.29,2.89-.71,3.8,1-2.37.83-.6,4.21-3.07,5C-.46,59.57.16,57.48.09,55.47Z"/><path class="cls-5" d="M91.07,103.14c-.27-1-2.28-1.29-.73-3,2.18-2.39,2.35,1.75,3.89,1A4.43,4.43,0,0,1,91.07,103.14Z"/><path class="cls-3" d="M108.89,87.22c-4.9-3.68,1.84-3.11,1.83-5A8.3,8.3,0,0,1,108.89,87.22Z"/><path class="cls-11" d="M85.09,103l-3,2c-10.14,5.68-20.69,9.82-32.64,8.67l-9.91-2.82c-6.55-2.4-9.17-8.18-11.92-13.86h0c-5.74-4.12-7.68-10.27-9-16.77l-2-7c-2.34-1.85-1.15-4.68-1.91-7l0,0c-3.32-6.12-4-12.38-1.05-18.84a1.42,1.42,0,0,0,.08-1C13.1,40.27,15.92,35,18.66,29.69a.94.94,0,0,0,.23-.73c-.09-4.08,2.9-6.52,5.16-9.23a25.6,25.6,0,0,1,12.73-8.67L40.52,10A25.36,25.36,0,0,1,51.45,7l7.93-.2a1.06,1.06,0,0,0,.93.16c.37.3.69.77,1.11.89C78.67,12.72,87.87,25.52,94.3,41.11a69.91,69.91,0,0,0,3.48,6.49c.07,1.7.06,3.43,1.11,4.9,1.52,7.89,3.58,15.8,1,23.81C98,82.37,96.11,88.49,93,94.1Z"/><path class="cls-12" d="M96.91,11c4.51,3.8,6.23,9.16,8.14,14.42-2.11,2.72-4.94.72-4.87-.69.14-3-2.42-4.18-3-6.5-.19-.77.83-2.12-.9-2.24S95.94,18,94.7,18.34C91.44,14.65,95.27,13.16,96.91,11Z"/><path class="cls-13" d="M83.09,5.94c1.34.19,2.83-.35,4,.84,1.93,1.93-2,3.92,0,5.85-1.71.54-2.32-.3-3.26-1.74C82.71,9.16,85.49,7.18,83.09,5.94Z"/><path class="cls-14" d="M18.68,80.29c3,5.56,5,11.73,9,16.77-1.18.2-1.94,2.39-3.37,1-2.84-2.72-7.14-4.85-6.81-9.34.16-2.11-3.49-3.88-.39-5.94,0,0-.16-.26-.22-.42-.47-1.33-3.85.23-2.7-2.27S17.08,81.45,18.68,80.29Z"/><path class="cls-10" d="M13.7,47.53a56,56,0,0,0,1.05,18.84c-4.29-1.51-5.49-5.76-7.94-8.92-.22-.74-.8-1.52-.12-2.24,2.05-2.17,4.89-3.75,4.46-7.56C11.06,46.84,12.81,47.72,13.7,47.53Z"/><path class="cls-15" d="M27.64,97.06c4.11,4.51,6.92,10.13,11.92,13.86-4,.48-7.21-.53-9.2-4.28a6.34,6.34,0,0,0-.54-.81C28.48,104.11,27.23,99.11,27.64,97.06Z"/><path class="cls-16" d="M14.77,66.35a15.39,15.39,0,0,1,1.91,7c-1.26-.12-2.9,1.36-3.69-.77-.56-1.5-1.06-3,.91-4.08C14.42,68.19,14.5,67.08,14.77,66.35Z"/><path class="cls-17" d="M36.78,11.06C29.47,15.68,22.85,21,18.89,29c-.85-1.42-2-1.9-1-4.64,1.75-4.95,6.52-6.46,8.73-10.43.71.88,2,1.31,2.4.36C30.66,10.59,33.65,10.78,36.78,11.06Z"/><path class="cls-17" d="M18.66,29.69q-2.44,8.43-4.88,16.87c-2.61-3.22-2.76-7.11-.17-9.76,3.83-3.94,1.42-4.62-2-5.71C14.2,31.52,15.76,27.7,18.66,29.69Z"/><path class="cls-18" d="M51.45,7c-3.46,1.65-7,3-10.93,3C44.38,6.05,48.56,4.9,51.45,7Z"/></g></g></svg>