<svg xmlns="http://www.w3.org/2000/svg" viewBox="0 0 131.85 133.04"><defs><style>.cls-1{fill:#7a9b85;}.cls-2{fill:#779882;}.cls-3{fill:#8faf99;}.cls-4{fill:#759580;}.cls-5{fill:#8dab96;}.cls-6{fill:#7b9c86;}.cls-7{fill:#80a18b;}.cls-8{fill:#94b29e;}.cls-9{fill:#8ba995;}.cls-10{fill:#84a38d;}.cls-11{fill:#75957f;}.cls-12{fill:#36563e;}.cls-13{fill:#7e9f88;}.cls-14{fill:#7d9e86;}.cls-15{fill:#a5c0ae;}.cls-16{fill:#fefefe;}.cls-17{fill:#91b09b;}.cls-18{fill:#93b19c;}.cls-19{fill:#8eac96;}.cls-20{fill:#8fae99;}.cls-21{fill:#74947e;}</style></defs><title>资源 1240</title><g id="图层_2" data-name="图层 2"><g id="图层_1-2" data-name="图层 1"><path class="cls-1" d="M131.85,72.38c-1.93,2.68-1.39,5.93-1.75,8.87-1.37,11.34-3.49,22.23-11.51,31.21-2.1,2.35-2.22,6.15-4.69,8.53-3.36,1.57-5,5.1-8,7-3.87,1.24-7.71,2.66-11.9,1.66.21-3.06.67-5.92,4.74-5.94.14,0,.21-.09-.06-.38a3,3,0,0,1-1.07-2.13c1-1.89.43-5.59,4.58-3.76,1.47.65,1.42-.78,1.88-1.55.94-1.61.1-3.66,1.35-5.18,1.06-1.38,2.29-2.45,4.2-2.28,5,1,5.87.19,6.81-6.25,7.38-7.21,6.62-17.07,8.61-26,.53-1.73.74-3.58,1.62-5.19,1.43-2.6,3.16-3.37,5.23-.57Z"/><path class="cls-2" d="M45,4.05C50.9,1.93,57.2,2,63.33,1c1.24-.2,2.68.36,3.6-1h4c1,1.35,1.32,2.8-.12,4-1.07.85-1.73,1.52-.64,2.75s2.1,1.23,3.56.69c4.07-1.49,7.69-.57,10.79,2.44a5.83,5.83,0,0,1-1.25,4c-5.54,2.25-10.69-.89-15.89-1.69-2.93-.44-3.34.54-4.43,2.05a2.41,2.41,0,0,1-2,.12c-2.24-2-4.32-2.71-6.85-.14-1.69,1.71-4,2.07-5.27-.65C47.94,11.7,46.15,12,45,11.86c-4.12-.55-3.68-2.38-1.89-4.91C43.78,6,44.05,4.83,45,4.05Z"/><path class="cls-3" d="M83.93,9.88c-.69-1.6-1.76-1.67-3.2-.91-.94.49-2.08,1.35-2.79-.45-.86-2.18-1.94-1.62-3.28-.3a3.32,3.32,0,0,1-5.46-.45c-1-1.42-3.35-4,1.2-4.64,1-.15.41-2,.52-3.13h1c4,3.26,8.67,2.83,13.38,3.06,3.87.19,7.69,1.37,11.53,2.11.26,5.19,3.89,4.06,7.09,3.72,2.5.14,5,.4,7.08,1.94-.18,1.06-1.07,2.23.4,3a4.64,4.64,0,0,1,2.47,2.3c.53,1.46,2.32,2.95.94,4.47s-3-.05-4.37-.8c-2.73-1.51-5.38-3-8.73-3-1.56,0-3.57-.44-4.6-1.59C93.55,11.22,88.59,11,83.93,9.88Z"/><path class="cls-4" d="M0,66.43,2.87,56.38c1.11,1,2.91.39,3.88,1.71,1.81,4.24,0,8.76,1.27,13.17s3.34,8.56,4.57,13c.7,2.15-2.93,2.43-2,4.68a10.87,10.87,0,0,1,0,3.73,1.84,1.84,0,0,1-.82.92c-1.2.21-2.31,1-3.62.59C3.35,88.47,2.21,82.22,0,76.35Z"/><path class="cls-5" d="M131.85,70.4c-2.44-1.55-3.8-1-4.55,1.89-.35,1.36,0,3-1.31,4.08-2.19-2.26-1.48-5-1.15-7.59a2.35,2.35,0,0,1,2.43-1.85c2.46-.07,1.15-1.6,1-2.68,0-.8.07-1.62,1.06-1.83.8-.18,1.06.52,1.43,1,.23.73.08,1.68,1.07,2Z"/><path class="cls-6" d="M6.11,94.16c1.06-1.34,2.23-2.23,3.92-.93a25.86,25.86,0,0,1,15,13.3c.37.74.62,2.12,1,2.17,7,.75,9.55,11.09,18.16,8.08.92-.32,2.31-.62,2.77.34,2,4.17,6.46,4.28,9.75,6.3,2.47,2.57,3.33-.88,5-1.34,2.21-1.47,3.4.15,4.67,1.51.74,2.87,2.76,5.83-.64,8.39l-.43,0-.4-.15c-1.39-1.79-3.18-1.46-5-.94l-13-3c-2.46-1.45-5.43-.88-8-2A72.31,72.31,0,0,1,6.11,94.16Z"/><path class="cls-7" d="M65.76,132c1-2.66.7-5.34.16-8,.91-2.67,3.16-3.52,5-1.83,4.39,4.09,8.62,1,12.93.39,3.75-.83,7-2.89,10.52-4.23,2.86-1.09,3.05-.84,3.55,2.64,1.25,2,3.07,3.94,1.31,6.55-2.23-.45.54-2.9-1.31-2.94-1.16,0-2.13,1.17-2.49,2.61A10.38,10.38,0,0,1,94,129.67c-7.54,1.82-15,4-22.94,3.21C69.24,132.71,67.34,133.3,65.76,132Z"/><path class="cls-8" d="M105.86,128c1.58-3.58,3.44-6.85,8-7C111.86,124.05,110.46,127.84,105.86,128Z"/><path class="cls-9" d="M38.93,126c3-.49,6.16-2,8,2C44.11,127.92,41.18,128.33,38.93,126Z"/><path class="cls-7" d="M59.92,130.93c2.32-3.1,4-2.82,5,.94C63.14,132.16,61.41,132.16,59.92,130.93Z"/><path class="cls-10" d="M45,4.05c.74,2.59-1.7,4-3,7.67,3.19-4,5.55,2.85,7.68-1.73,2.33,1.58-1.93,3.28.57,4.27,2,.79,3.08-1.07,4.49-2.12,2.56-1.92,4.95-2,6.21,1.59-.85,1.71-2.52,2-4.14,2.34C42.9,19,30.15,24,20.7,35.19a6.46,6.46,0,0,1-3.29,2.13,22.84,22.84,0,0,0-4.81,1c-2.55.69-4.35,1.56-3.43,4.72.38,1.28-.39,2.57-.76,3.83-1,3.41-2.49,3.6-4.46.66.94-10,6.7-17.72,12.77-25C22,16.28,28.06,10.4,36,7.13c3.75,3.62,4.72-.89,6.75-2.28A2.29,2.29,0,0,1,45,4.05Z"/><path class="cls-11" d="M4,47.58c4.92,2.49,4-2.76,4-3.9,0-1.94-1.68-4.71.76-5.34,2.77-.71,5.4-3.5,8.69-1.55a78.67,78.67,0,0,1-11,19c-1.1-2-2.56,1.68-3.69-.21C1,52.58,3.09,50.18,4,47.58Z"/><path class="cls-2" d="M42.78,4.85c.21,3.48-3.52,4-5.09,6.19-.45.62.89-3.43-1.66-3.91Z"/><path class="cls-12" d="M2.72,55.57c2.78.16,1.13-2.42,2-3.41,1.61.8,1.07,2.32,1.41,3.51a1.23,1.23,0,0,1-.26,1.78c-.65.58-1.41,1.73-1.94,1.64-1.43-.24-.51-1.84-1.07-2.71Q2.81,56,2.72,55.57Z"/><path class="cls-13" d="M83.93,9.88c1.45-1,5.51.23,6.69.18,5.37-.23,7.22,7,13.64,5.51,2.87-.68,6.55,2.92,9.87,4.8-1.27-1.95-.66-4.64-4-5.66-2.32-.71-1.79-3,.85-3.88,7,2.16,10.72,7.41,11.58,14.08.89,6.87,4.54,12.89,5.14,19.74-1.62,2-.29,6.89-5.42,5.45-3.23-3.82-4.76-8.62-7.62-12.67-6.46-9.16-14.12-16.56-25.6-19-2.24-.48-4.62-.76-6.44-2.44a1.73,1.73,0,0,1,.27-2.08A6.68,6.68,0,0,1,83.93,9.88Z"/><path class="cls-14" d="M122.49,49.68c1-.37,2.84.68,2.65-1.74-.13-1.69,1.34-2.48,2.58-3.29,1.88,6.12,3.65,12.26,3.06,18.78-1.1-.52-2-.66-1.92,1-1.13,2.47-2.44.75-3.7.15A18.73,18.73,0,0,1,122.49,49.68Z"/><path class="cls-15" d="M103.92,8.89c-1.68,1.87-3.27,2.53-6,1.24-3.06-1.46-.76-3.34-1.12-5A23.47,23.47,0,0,1,103.92,8.89Z"/><path class="cls-16" d="M122.49,49.68c1.46,4.86.7,10.25,3.55,14.79,0,1,0,2-.11,3l.06,9c-.66,4.89-1.44,9.76-2,14.66-.56,5.15-3.81,8.64-7.11,12.15a10,10,0,0,1-7.07,5.75l-3.91,2.31c-1.76,2.6-4.25,3.75-7.36,4.3-8,1.42-15.69,5.07-24.15,3.77C64.29,118,53.89,118,44.24,114A68.75,68.75,0,0,1,16,93c-1.83-2.33-3.45-4.84-3.81-7.91C6.69,76.61,5.55,67.2,5.88,57.45c.09-.59.18-1.19.26-1.78,3.5-6.45,6.37-13.27,11.28-18.88C28.54,22.8,44,17,61,13.73l2,.19c6.86-1.55,13.43,0,20,1.78,7.4,1.57,14.83,2.92,20.92,8.06C112.29,30.87,118.79,39.26,122.49,49.68Z"/><path class="cls-17" d="M73.93,118c11.28.59,21.68-2.93,32-6.8a15.24,15.24,0,0,0-.31,2.84c.34,4.5-.34,5.23-4.46,3.77-3.59-1.28-.61,3.73-3.26,3.08-.25-2.12-.78-2.61-3.18-1.63-3.49,1.42-6.45,4.7-10.8,3.67-2.22.63-4.55,0-6.82.73a4.39,4.39,0,0,1-4.88-1.58C71,120.33,73.12,119.32,73.93,118Z"/><path class="cls-18" d="M109.84,108.93l7.07-5.75c1.85,3.33-1.44,4.91-2.71,7.09C114.06,110.52,110.63,111.65,109.84,108.93Z"/><path class="cls-19" d="M82.94,15.7,63,13.92c-1.28-1.89-.17-2.44,1.38-3.57,1.75-1.28,1.89-.95,2,.78,4.77-.58,9.08,2.92,13.75,1.8,1.67-.4,1.89.67,2.8,1Z"/><path class="cls-20" d="M73.93,118c-1,4.48,0,5.32,5.4,4.25,1.62-.33,3.26-.85,4.59.68-.13,1.39-.92,1.91-2.29,1.92-4.2,0-4.2,0-6.57,2.72-2.56-2.34-4-7.83-9.14-3.65-1.39-.09-2-3.14-4-1-2.47,1.28-4.3.14-5.84-1.37-.48-.76-.85.32-.32-.09,0,0,.14.09.34.34.49.61,1.21,1.13.81,2.08-3.62-1.52-8.66-.19-10.48-5.65-.23-.68-4.77-.29-7.33-.63-2.84-.38-6.64,1.46-6.24-4,.07-.84-2.08-2.78-2.66-2.58-5.57,1.88-4.94-4-7.52-5.58-2.39-1.49-.12-8-6-5.36.14-4.53-5.09-3.94-6.64-6.86h0c1.59-1.34.68-2.67,0-4-3.86-3.74,1.55-2.73,2.16-4.17,3.19,4.77,6.24,9.57,10.53,13.59C34.79,109.92,48.9,116.25,65.53,117,68.34,117.15,71.13,117.69,73.93,118Z"/><path class="cls-6" d="M10,89.21l3.45,2.45c-.8,1.76-2.58.56-3.45,1.56C9.94,91.88,9,90.55,10,89.21Z"/><path class="cls-21" d="M125.93,67.42c-1.17-1-.91-2,.11-3,.94-.32,1.89,1.16,2.82,0,1,.84,2.26,2.26,1.43,3.08A3.36,3.36,0,0,1,125.93,67.42Z"/><path class="cls-7" d="M56.92,123.91c-1-1.26-2.6-2-3.12-3.81,3.32-.54,4.83,3.78,8.13,2.85-1.28,1.28-2.38,3.25-3.9,3.65S56.3,125.27,56.92,123.91Z"/><path class="cls-20" d="M47.22,123.85c1.77,1,3.47,0,4.37,1.64.16.27-.59,1.51-1,1.53C48.92,127.15,48.24,125.83,47.22,123.85Z"/></g></g></svg>