<svg xmlns="http://www.w3.org/2000/svg" viewBox="0 0 141.89 155.55"><defs><style>.cls-1{fill:#7f9f89;}.cls-2{fill:#71917b;}.cls-3{fill:#8cac95;}.cls-4{fill:#7fa088;}.cls-5{fill:#7f9f88;}.cls-6{fill:#788f7f;}.cls-7{fill:#789982;}.cls-8{fill:#88a790;}.cls-9{fill:#8cab94;}.cls-10{fill:#75957e;}.cls-11{fill:#7e9e86;}.cls-12{fill:#81a08a;}.cls-13{fill:#83a38c;}.cls-14{fill:#5c7d63;}.cls-15{fill:#8bab93;}.cls-16{fill:#5e8068;}.cls-17{fill:#fefefe;}.cls-18{fill:#4b6d52;}</style></defs><title>资源 1241</title><g id="图层_2" data-name="图层 2"><g id="图层_1-2" data-name="图层 1"><path class="cls-1" d="M141.89,80.38c-3.31.76-2.82,3.37-3,5.84-2.3,27.62-14.44,49.31-38.67,63.53-5.15,3-11.24,3.31-16.87,5-3-1.18-6.14-.22-9.21-.44-1.14-.08-2.25-.24-1.65-1.51.9-1.89,1.69-4.72,3.58-5,3.17-.57,5.64-1.17,6.52-4.67.17-.65,1.35-.62,1.74-.17,2.5,2.88,4.82,0,7.19-.2,2.87-.21,4.82-4.66,8.43-1.95-.9-2.84,3.88-3,2.81-5.88a3.47,3.47,0,0,1,0-2.42c3.52-3.73,7.88-6.46,11.74-9.8,12.07-10.46,18.16-23.56,18.24-39.54,0-2.92-.68-6,1-8.72A1.9,1.9,0,0,1,135,74c2.25.44,1,3.74,1.94,3.63,2.15-.24,3.77-.22,4.94,1.77Z"/><path class="cls-2" d="M141.89,79.39c-.75-.3-1.51-.9-2.25-.86-2.68.14-5.36.52-4.43-3.68a11.75,11.75,0,0,0-1.3-.42c-2.67-1.33-2.44-4.15-3.15-6.42-1.83-5.84-5.09-11.11-6.71-17,.08-1.77.59-3.55,2.65-3.41s3.69,1.85,3.65,3.51c-.09,3.4,2.11,4.35,4.4,5.52,3.7,4.1,3.13,9.72,5.05,14.47.71,1.76.79,3.78,2.09,5.33Z"/><path class="cls-3" d="M103.19,133c-.23,2,1.87,2.52,2.51,4-.82,1.62-2.43.62-3.53,1.15-1.44.71-2.45,1.26.21,1.55.92.1.39,1,0,1.48-.76,1-1.78,1.75-2.91.78-2-1.71-3.08-1-4.8.68-2.46,2.48-6.52,1.46-9.52,3.46-1,.7,1-2.79-1.87-2.67-.12,3.71-1.52,6-6.29,5.08-1.48-.3-1.9,3.45-4.22,4.3,3.54,2.07,7.58-1.28,10.53,1.89-10.66.24-21.31,1.62-32,.22-1.62-.21-3.32.13-4.69-1.07a37,37,0,0,1,5.62-8.36c-2.75,2.29-4.12.51-5.48-1.6-.86-1.33-1.69-3.48-3.41-3-1.33.41-3.27,1.57-2.73,4,.31,1.41-.91,1.6-1.91,1.36-1.77-.42-3.48-1.85-2.52-3.44,1.7-2.83,2.3-6.44,5.35-8.43,4.32.54,7.72,3.51,12,4.31a76.65,76.65,0,0,0,44.48-4.63C99.7,133.43,101.25,132.24,103.19,133Z"/><path class="cls-4" d="M66.53.08A46.28,46.28,0,0,1,86.54,4a141.73,141.73,0,0,1,24.8,13.84,24.25,24.25,0,0,1,7.56,9c-1.35,1.67-2.55,3.5-5.2,1.72-.32-.21-1.38,2.58-3.24,1.19-2.3-1.71-3.78-4.06-2.59-6.72,1.1-2.44-1.56-1.46-1.49-2.69-1.07,2.65,3.47,6.09-1.51,7.9-1.78.06-3.12-.92-4.42-1.93C92.39,20,83.28,16.05,73.55,13.38,72.22,7.58,67.32,9.63,63.7,9c-1.67-.3-4,.64-4.24-2s2-2.63,3.78-2.66C66.2,4.24,65.5,1.52,66.53.08Z"/><path class="cls-5" d="M40.69,135c-.56,2.48-.64,4.87-3,6.92s.26,3,2.38,3.89c-4.37-4.46,2-3.92,2.65-6.19.43-1.44,2.86.48,3.87,1.61s1.4,2.61,2.19,3.87c.47.76,1.33,1.12,2,.38s-2.1-3,1.06-2.23c2,.46,1.42,2.81,1.93,4.18s-1.24,1.39-2.47,1c-.35-.12-.85.17-1.28.27,2.3,4-3,3-3.43,5.2a67.65,67.65,0,0,1-26.85-18.65c-1-1.85-.84-3.38,1.2-4.39,3.2.4,7.61-1.38,8,5.38,2.1-5.74,5.89-2.26,8.91-2.77A2.41,2.41,0,0,1,40.69,135Z"/><path class="cls-6" d="M.32,99.15q-.15-29-.32-58c0-2.87,3.22-3.39,3.86-5.72,5.11-3,9.05-1.41,10,4.13C3.3,52.79,3.09,68,5.36,83.71a19.7,19.7,0,0,1,.53,3.4c.82,4.22-2.25,7.42-3,11.25C2.7,99.26,1.38,99.52.32,99.15Z"/><path class="cls-7" d="M105.17,27.77c.12-1.18,2.56-2.2.92-3.29-3-2-1.2-3.9-.39-6.35,1.3,1.62,2.72,2.79,5.72,2.15-5.13,4.25-2.53,6.72.43,9.43,1.3-1.78-2.07-2.7-.65-3.6s2.6-.15,3.66,1.78c.94,1.73,2.34-1.69,4-1.14.85,1.45,2.81,2.08,2.94,4-.13.81-1,1-1.39,1.53.93-.38,1.78.2,2.68.24a43.27,43.27,0,0,1,9.18,18.14,43,43,0,0,0,2.44,5.91c-1.31,0-2.63,0-3.93-.12-1.72-.2-3-.8-1.53-2.8s-.28-2.9-1.22-4.12c-2.28-3-2.66-.82-3.11,1.16-2.11,0-2.61-1.86-3.36-3.2-3.84-6.86-8.58-12.88-15.15-17.34C105.66,29.66,104.84,29,105.17,27.77Z"/><path class="cls-8" d="M66.53.08c1,3.58.65,6.13-4.13,5.38-.95-.15-2.64-.65-2.24,1.43.34,1.7,1.4.75,2.49.76,2.6,0,5.15.51,7.85.2,3.67-.42,2.81,2.66,2.94,4.81-5.38,1.59-10.89,1.2-16.38,1-3.67-.38-7.44-.61-10.16-3.58-1.69-1.84-3.32-3.86-.3-6C53.09,2,59.51-.47,66.53.08Z"/><path class="cls-9" d="M46.6,4.08a6.5,6.5,0,0,0,6.28,7.81c1.3,0,2.66-.36,3.68.83-6,3.46-12.62,5.1-19.29,6.61-1.55-2.27-3.11-4.42-6.35-2.49-1.62.95-2.34-.1-2.75-1.51-.36-1.24-1.11-2.31-1.48-3.54C33,8.28,39.45,5.31,46.6,4.08Z"/><path class="cls-10" d="M21.82,131c-1.89.8-2,2.45-2,4.17-6.79-8-12.55-16.5-14.62-27,4-3.35,4.37-3.41,7,.44A4.85,4.85,0,0,0,16,111.06a2.84,2.84,0,0,1,.58,1.21c-1.87,4.53.39,7.44,3.87,9.87C18.61,125.46,23.37,127.77,21.82,131Z"/><path class="cls-11" d="M26.69,11.79c2.82.27,2,2.83,3,4.75,1.79-2.45,4.68-2.24,6.86-1.84s-.19,2.78.22,4.27a2.26,2.26,0,0,1-1.54,2.26c-5.12,2.3-10.13,4.84-15.4,6.81-3-2.4-2.81-6.53-5.08-9.32a4.56,4.56,0,0,1,3-2.29c6,1.39,6.43,1.19,7.09-3.6Z"/><path class="cls-12" d="M15.62,111.21c-2,2.9-3.51.2-3.78-.87-1.16-4.62-3.76-3.61-6.67-2.16a42.47,42.47,0,0,0-4.85-9c.11-1,4.14-.51,1-2.71-.21-.15-.09-1.26,0-1.27,4.34-.58,2.33-4.81,4-6.9,2,.39,2.33,2.22,2.83,3.67,2,5.75,3.88,11.5,7.36,16.58C16,109.28,16.47,110.25,15.62,111.21Z"/><path class="cls-13" d="M13.86,38.45c-2.86-2.58-5.89-4.61-10-3A17.26,17.26,0,0,1,9.71,24.71a1.09,1.09,0,0,1,1.23-.26c1.21,1.08,1.58,2.74,2.64,3.92,1.07,1.91,3.68,1.84,4.78,3.71C18.25,35.19,18.34,38.45,13.86,38.45Z"/><path class="cls-14" d="M10.75,24.78l-1-.07c.59-2.92,3-4.33,5-6,4.4,1.37,3.26,5.91,5,8.8a5.63,5.63,0,0,1-1.88,4.2c-2.14-.21-4.44-.16-5.06-3,.7-.78,2.37-.86,2-2.4C14.26,24,11.81,26.12,10.75,24.78Z"/><path class="cls-15" d="M24.81,12.83c.84,1.26,3.28,2.11.72,4.12-2.86,2.25-5.39,2.6-7.8-.52C19.66,14.39,22.52,14.18,24.81,12.83Z"/><path class="cls-16" d="M123.13,32.56c-2,.15-4.33,2.25-5.94-1.09,1.62-.87,3.38.76,4.65-.68Z"/><path class="cls-17" d="M17.9,31.72c-.46-1.89.46-3.16,1.88-4.2,5-4.09,11.64-5.1,17-8.55,6.53-2.29,12.85-5.24,19.78-6.25,5.63.28,11.25-1.23,16.88-.06,12.24,1.54,21.9,8.5,31.73,15.11,9.08,5.51,14.6,14.09,19.79,23,3.37,7.75,6.8,15.49,9,23.7.47,10.29,0,20.31-4.26,30.06-5.16,11.71-14,19.77-24.11,26.77-.81.55-1.57,1.18-2.35,1.77-20.55,9.75-41.31,12.58-62.5,2l-2.9-1.38c-4.22-.27-6-4.09-9-6.13-2-1.36-3.71-3.15-5.75-4.51-3.73-2.78-5.68-6.69-7-11a1,1,0,0,0-.36-.75c-4.95-7-7.29-15.12-10.37-22.94C1.42,76,1.79,63.79,5.62,51.56a27.66,27.66,0,0,1,8.24-13.11C16.84,37.19,17.24,34.38,17.9,31.72Z"/><path class="cls-9" d="M23.74,122.35l14.05,11.26c-.24.84-.43,2.65-1.49,1.68-3.78-3.45-5.65-.29-8.27,2.41.27-4.54-1.07-7-5.66-5.45a10.07,10.07,0,0,1-.55-1.21,3.82,3.82,0,0,0-1.39-2.94c-2-1.85-2.28-3.81-.58-6C21.2,121.26,22.4,123,23.74,122.35Z"/><path class="cls-12" d="M23.74,122.35c-1.47,2.76-2.6.05-3.89-.24-1.91-.85-5.94.37-4.09-4.18-4.78-2.17.26-4,.22-6C19,115.12,20.05,119.71,23.74,122.35Z"/><path class="cls-18" d="M10.75,24.78c1.14-.41,2.4-1.34,3.41-1.12a3.29,3.29,0,0,1,2.46,4.09c-.5,2.33-2.22,1.74-3.78,1C11,28,10.81,26.44,10.75,24.78Z"/></g></g></svg>