<svg xmlns="http://www.w3.org/2000/svg" viewBox="0 0 279.83 241.76"><defs><style>.cls-1{fill:#74957f;}.cls-2{fill:#81a189;}.cls-3{fill:#84a58e;}.cls-4{fill:#75957e;}.cls-5{fill:#89a792;}.cls-6{fill:#e3eae5;}.cls-7{fill:#b7c7b0;}.cls-8{fill:#86a68f;}.cls-9{fill:#82a18c;}.cls-10{fill:#82a189;}.cls-11{fill:#7f9f89;}.cls-12{fill:#81a18c;}.cls-13{fill:#7c9d85;}.cls-14{fill:#88a78f;}.cls-15{fill:#779882;}.cls-16{fill:#81a18b;}.cls-17{fill:#8cac94;}.cls-18{fill:#89a790;}.cls-19{fill:#89aa93;}.cls-20{fill:#799983;}.cls-21{fill:#82a38d;}.cls-22{fill:#81a28c;}.cls-23{fill:#7a9b83;}.cls-24{fill:#89a992;}.cls-25{fill:#789681;}.cls-26{fill:#7a9985;}.cls-27{fill:#85a58e;}.cls-28{fill:#83a18c;}.cls-29{fill:#7e9e88;}.cls-30{fill:#678974;}.cls-31{fill:#86a58e;}.cls-32{fill:#89a893;}.cls-33{fill:#87a791;}.cls-34{fill:#93b29b;}.cls-35{fill:#6d8d77;}.cls-36{fill:#90ae98;}.cls-37{fill:#8aae98;}.cls-38{fill:#96b8a1;}.cls-39{fill:#8dac95;}.cls-40{fill:#87a890;}.cls-41{fill:#87a490;}.cls-42{fill:#86a691;}.cls-43{fill:#99b9a2;}.cls-44{fill:#89aa91;}.cls-45{fill:#8eab97;}.cls-46{fill:#7d9d86;}.cls-47{fill:#9bb8a2;}.cls-48{fill:#7e9e87;}.cls-49{fill:#8aaa94;}.cls-50{fill:#8bab96;}.cls-51{fill:#8ba994;}.cls-52{fill:#8ca994;}.cls-53{fill:#91b099;}.cls-54{fill:#8eae98;}.cls-55{fill:#83a38e;}.cls-56{fill:#86a590;}.cls-57{fill:#7c9d88;}.cls-58{fill:#86a690;}.cls-59{fill:#799a84;}.cls-60{fill:#85a689;}.cls-61{fill:#91af9a;}.cls-62{fill:#8cac95;}.cls-63{fill:#7e9e8b;}.cls-64{fill:#92b3a0;}.cls-65{fill:#7e9f88;}.cls-66{fill:#7a9a84;}.cls-67{fill:#71937d;}.cls-68{fill:#8fad99;}.cls-69{fill:#89a895;}.cls-70{fill:#7a9984;}.cls-71{fill:#9eb7a2;}.cls-72{fill:#90b099;}.cls-73{fill:#8eaa97;}.cls-74{fill:#7a9982;}.cls-75{fill:#80a18b;}.cls-76{fill:#82a38b;}.cls-77{fill:#7a9a82;}.cls-78{fill:#7f9f88;}.cls-79{fill:#89a891;}.cls-80{fill:#8cac96;}.cls-81{fill:#809f88;}.cls-82{fill:#82a188;}.cls-83{fill:#8aaa93;}.cls-84{fill:#7c9d86;}.cls-85{fill:#7e9e89;}.cls-86{fill:#81a18a;}.cls-87{fill:#88a992;}.cls-88{fill:#7b9a84;}.cls-89{fill:#8fae98;}.cls-90{fill:#819e8a;}.cls-91{fill:#83a58e;}.cls-92{fill:#82a185;}.cls-93{fill:#799b85;}.cls-94{fill:#8fad96;}.cls-95{fill:#8bab92;}.cls-96{fill:#9ebea8;}.cls-97{fill:#86a28d;}.cls-98{fill:#779980;}.cls-99{fill:#91ad97;}.cls-100{fill:#7c9f86;}.cls-101{fill:#a7c3ae;}.cls-102{fill:#99b59f;}.cls-103{fill:#7b9982;}.cls-104{fill:#7c9c86;}.cls-105{fill:#8aab93;}.cls-106{fill:#81a28b;}.cls-107{fill:#779681;}.cls-108{fill:#789981;}.cls-109{fill:#8baa92;}.cls-110{fill:#80a087;}.cls-111{fill:#7ea48d;}.cls-112{fill:#7b9c85;}.cls-113{fill:#98b69f;}.cls-114{fill:#8bab94;}.cls-115{fill:#70917a;}.cls-116{fill:#7e9c86;}.cls-117{fill:#90af98;}.cls-118{fill:#95b69d;}.cls-119{fill:#96b39d;}.cls-120{fill:#688b71;}.cls-121{fill:#7c9b84;}.cls-122{fill:#9abba3;}.cls-123{fill:#6c8c75;}.cls-124{fill:#86a88d;}.cls-125{fill:#7e9d87;}.cls-126{fill:#7b9b82;}.cls-127{fill:#8eab95;}.cls-128{fill:#83a28d;}.cls-129{fill:#70927b;}.cls-130{fill:#73957d;}.cls-131{fill:#7b9c87;}.cls-132{fill:#93ae9d;}.cls-133{fill:#74967f;}.cls-134{fill:#79957f;}.cls-135{fill:#658772;}.cls-136{fill:#678873;}.cls-137{fill:#74957e;}.cls-138{fill:#84a48d;}.cls-139{fill:#8eae97;}.cls-140{fill:#62846b;}.cls-141{fill:#7d9d85;}.cls-142{fill:#6c8d78;}.cls-143{fill:#7a9a83;}.cls-144{fill:#fefefe;}.cls-145{fill:#7b9c84;}.cls-146{fill:#8aa58c;}.cls-147{fill:#76947d;}.cls-148{fill:#6a8d75;}.cls-149{fill:#769680;}.cls-150{fill:#87a790;}.cls-151{fill:#6d8f76;}.cls-152{fill:#6f8e72;}.cls-153{fill:#80a08a;}.cls-154{fill:#6d8e79;}.cls-155{fill:#648570;}.cls-156{fill:#7c9e85;}.cls-157{fill:#8aaa95;}.cls-158{fill:#80a18a;}.cls-159{fill:#809f87;}.cls-160{fill:#547961;}.cls-161{fill:#678875;}.cls-162{fill:#71917a;}.cls-163{fill:#85a792;}.cls-164{fill:#5f806a;}.cls-165{fill:#799882;}.cls-166{fill:#6f907b;}.cls-167{fill:#72927a;}.cls-168{fill:#84a58d;}.cls-169{fill:#709379;}.cls-170{fill:#8cad95;}.cls-171{fill:#89a990;}.cls-172{fill:#799982;}.cls-173{fill:#95b69f;}.cls-174{fill:#64816b;}.cls-175{fill:#608570;}.cls-176{fill:#5e7e69;}.cls-177{fill:#8fab93;}.cls-178{fill:#81a28d;}.cls-179{fill:#8dad96;}.cls-180{fill:#97b69e;}.cls-181{fill:#6c8c76;}.cls-182{fill:#7d9e86;}.cls-183{fill:#8eac96;}.cls-184{fill:#7fa28a;}.cls-185{fill:#6e8e76;}.cls-186{fill:#74937b;}.cls-187{fill:#8cad94;}.cls-188{fill:#7e9d86;}.cls-189{fill:#7c9c82;}.cls-190{fill:#99b7a0;}.cls-191{fill:#88a892;}.cls-192{fill:#638671;}.cls-193{fill:#61836d;}.cls-194{fill:#67876f;}.cls-195{fill:#91b39a;}.cls-196{fill:#71937a;}.cls-197{fill:#8ea992;}.cls-198{fill:#88a890;}.cls-199{fill:#6a8f7b;}.cls-200{fill:#76967e;}.cls-201{fill:#7b9b85;}.cls-202{fill:#7f9f87;}.cls-203{fill:#6f9079;}.cls-204{fill:#86a78f;}.cls-205{fill:#8ba891;}.cls-206{fill:#8daa95;}.cls-207{fill:#71927d;}.cls-208{fill:#83a28c;}.cls-209{fill:#85a68e;}.cls-210{fill:#789b81;}.cls-211{fill:#7e9f86;}.cls-212{fill:#7d9f88;}.cls-213{fill:#73947c;}.cls-214{fill:#779981;}.cls-215{fill:#82a28b;}.cls-216{fill:#8bab93;}.cls-217{fill:#87a58d;}.cls-218{fill:#97b29c;}.cls-219{fill:#86a88f;}.cls-220{fill:#6e8e77;}.cls-221{fill:#84a48b;}.cls-222{fill:#84a38b;}.cls-223{fill:#678870;}.cls-224{fill:#8fac94;}.cls-225{fill:#88a88f;}.cls-226{fill:#809f89;}.cls-227{fill:#8cab93;}.cls-228{fill:#75947e;}.cls-229{fill:#93af9a;}.cls-230{fill:#8ead98;}.cls-231{fill:#71937b;}.cls-232{fill:#85a68f;}.cls-233{fill:#8aa893;}.cls-234{fill:#83a48b;}.cls-235{fill:#90ad98;}.cls-236{fill:#74947d;}.cls-237{fill:#89a991;}.cls-238{fill:#85a28e;}.cls-239{fill:#72947c;}.cls-240{fill:#73927e;}.cls-241{fill:#78977f;}.cls-242{fill:#799a82;}.cls-243{fill:#6e8f77;}.cls-244{fill:#6c8d75;}.cls-245{fill:#6d8e78;}.cls-246{fill:#7d9e87;}.cls-247{fill:#74957d;}.cls-248{fill:#87a690;}.cls-249{fill:#74977e;}.cls-250{fill:#8cac93;}.cls-251{fill:#8caa95;}.cls-252{fill:#81a289;}.cls-253{fill:#7c9f87;}.cls-254{fill:#8dab94;}.cls-255{fill:#7e9f89;}.cls-256{fill:#7c9d87;}.cls-257{fill:#83a48f;}.cls-258{fill:#769980;}.cls-259{fill:#7a9c85;}.cls-260{fill:#7a9d85;}.cls-261{fill:#6b8d75;}.cls-262{fill:#8baa95;}.cls-263{fill:#779781;}.cls-264{fill:#82a38c;}.cls-265{fill:#789982;}.cls-266{fill:#81a089;}.cls-267{fill:#71947d;}.cls-268{fill:#85a78f;}.cls-269{fill:#8eb097;}.cls-270{fill:#77967f;}.cls-271{fill:#70917c;}.cls-272{fill:#70927a;}.cls-273{fill:#7a9b85;}.cls-274{fill:#83a48d;}.cls-275{fill:#74957c;}.cls-276{fill:#779984;}.cls-277{fill:#6b8b75;}.cls-278{fill:#7f9e86;}.cls-279{fill:#658672;}.cls-280{fill:#7f9f86;}.cls-281{fill:#779982;}.cls-282{fill:#74947e;}.cls-283{fill:#799a83;}.cls-284{fill:#92b29b;}.cls-285{fill:#73947e;}.cls-286{fill:#6f8f7a;}.cls-287{fill:#87a891;}.cls-288{fill:#8baa94;}.cls-289{fill:#82a48d;}.cls-290{fill:#98b8a0;}.cls-291{fill:#8cae97;}.cls-292{fill:#95b49c;}.cls-293{fill:#799b83;}.cls-294{fill:#93b19d;}.cls-295{fill:#85a58c;}.cls-296{fill:#a7c7b2;}.cls-297{fill:#7e9f87;}.cls-298{fill:#6e9279;}.cls-299{fill:#698874;}.cls-300{fill:#7f9f8a;}.cls-301{fill:#67896f;}.cls-302{fill:#6c8d77;}.cls-303{fill:#7fa18b;}.cls-304{fill:#a1beaa;}.cls-305{fill:#81a38a;}.cls-306{fill:#678771;}.cls-307{fill:#7b9a87;}.cls-308{fill:#6d8f7a;}.cls-309{fill:#75957f;}.cls-310{fill:#789984;}.cls-311{fill:#88aa92;}.cls-312{fill:#8cae96;}.cls-313{fill:#72947a;}.cls-314{fill:#75967f;}.cls-315{fill:#90ae99;}.cls-316{fill:#688973;}.cls-317{fill:#547761;}.cls-318{fill:#83a38f;}.cls-319{fill:#678874;}.cls-320{fill:#5b7d65;}.cls-321{fill:#7b9e85;}.cls-322{fill:#96b19b;}.cls-323{fill:#6d9278;}.cls-324{fill:#77987f;}.cls-325{fill:#88a990;}.cls-326{fill:#7c9c85;}.cls-327{fill:#fdfdfc;}.cls-328{fill:#90af9a;}.cls-329{fill:#8fae99;}.cls-330{fill:#87a68f;}.cls-331{fill:#8dad97;}.cls-332{fill:#95b39e;}.cls-333{fill:#86a68d;}.cls-334{fill:#91b19a;}.cls-335{fill:#98b39d;}.cls-336{fill:#6e8f76;}.cls-337{fill:#8eac95;}.cls-338{fill:#8aa891;}.cls-339{fill:#8ead95;}.cls-340{fill:#809e86;}.cls-341{fill:#86a68e;}.cls-342{fill:#85a58f;}.cls-343{fill:#97b59f;}.cls-344{fill:#7d9d87;}.cls-345{fill:#82a48c;}.cls-346{fill:#91af9c;}.cls-347{fill:#7e9c89;}.cls-348{fill:#99b5a3;}.cls-349{fill:#476952;}.cls-350{fill:#7a9b86;}.cls-351{fill:#7b9983;}.cls-352{fill:#94b19b;}.cls-353{fill:#99b5a0;}.cls-354{fill:#86a78e;}.cls-355{fill:#789c82;}.cls-356{fill:#9ebaa2;}.cls-357{fill:#88a58e;}.cls-358{fill:#88a28c;}.cls-359{fill:#71927a;}.cls-360{fill:#94af9c;}.cls-361{fill:#96af98;}.cls-362{fill:#8cac92;}.cls-363{fill:#86a791;}.cls-364{fill:#94ae9f;}.cls-365{fill:#a5c6ad;}.cls-366{fill:#92ae9b;}.cls-367{fill:#86a692;}.cls-368{fill:#7a9b80;}.cls-369{fill:#87a78f;}.cls-370{fill:#9ab8a1;}.cls-371{fill:#93b19a;}.cls-372{fill:#76947b;}.cls-373{fill:#94b39c;}.cls-374{fill:#99b8a2;}.cls-375{fill:#96b5a0;}.cls-376{fill:#809c87;}.cls-377{fill:#99b8a3;}.cls-378{fill:#95ae97;}.cls-379{fill:#96b49f;}.cls-380{fill:#486d53;}.cls-381{fill:#709079;}.cls-382{fill:#a8c6af;}.cls-383{fill:#779881;}.cls-384{fill:#73937e;}.cls-385{fill:#7b9b83;}.cls-386{fill:#72907d;}.cls-387{fill:#75967e;}.cls-388{fill:#779880;}.cls-389{fill:#86a790;}.cls-390{fill:#7d9e85;}.cls-391{fill:#90b098;}.cls-392{fill:#7ea087;}.cls-393{fill:#81a28a;}.cls-394{fill:#85a58d;}.cls-395{fill:#789783;}.cls-396{fill:#87a68e;}.cls-397{fill:#6f8f79;}.cls-398{fill:#74947c;}.cls-399{fill:#a1c3aa;}.cls-400{fill:#85a691;}.cls-401{fill:#92b29c;}.cls-402{fill:#789882;}.cls-403{fill:#8cad98;}.cls-404{fill:#9bb69f;}.cls-405{fill:#76977e;}.cls-406{fill:#769780;}.cls-407{fill:#96b59c;}.cls-408{fill:#8dae98;}.cls-409{fill:#87a993;}.cls-410{fill:#83a38d;}.cls-411{fill:#6d8d76;}.cls-412{fill:#90b198;}.cls-413{fill:#76977f;}.cls-414{fill:#80a089;}.cls-415{fill:#84a48e;}.cls-416{fill:#80a188;}.cls-417{fill:#77987e;}.cls-418{fill:#87a894;}.cls-419{fill:#78987f;}.cls-420{fill:#759780;}.cls-421{fill:#7f9e88;}.cls-422{fill:#94b39f;}.cls-423{fill:#76977d;}</style></defs><title>资源 1242</title><g id="图层_2" data-name="图层 2"><g id="图层_1-2" data-name="图层 1"><path class="cls-1" d="M0,120.42c1.78-1.61.94-4.13,2.08-6,.78-.86,1.61-1.6,2.91-1.22,1.25,1.55.36,3.31.5,5a6.21,6.21,0,0,1-1,2.06c-.22.57-.66-.27-.21.2s.34-.42.69-.42a3.24,3.24,0,0,1,1.19-.12,7.5,7.5,0,0,1,3,1.13c.65,1.31,2.6.45,3.18,1.88a9.79,9.79,0,0,1-.14,2.7,7.65,7.65,0,0,1-.25,1.35c-.34.9-.76,1.71-1.93,1.59-1.18-.71-1.05-2.2-2.14-4.14.1.38-.28,1.4.33,1.15.18-.08.38.4.37.76a2.1,2.1,0,0,1-.44,1.32,3.4,3.4,0,0,1-2.65.49A12.28,12.28,0,0,1,2.28,127c-.41-1.45-1.63,0-2.28-.63Z"/><path class="cls-2" d="M147.91,0c3.75,2.13,8.18,1.26,12.09,2.69.54,1.22,1.88,1.69,2.61,2.74a1.36,1.36,0,0,1,.09,1.77,32,32,0,0,1-5.46,2.11,3.51,3.51,0,0,1-1.81-.81,5.18,5.18,0,0,0-4.73-1.56,4.51,4.51,0,0,1-2-.56,5.61,5.61,0,0,1-2-3c-.32-1.16-.77-2.34.23-3.42Z"/><path class="cls-3" d="M0,126.39c.67-.16,1.34-1.12,2,0,4.13,4.91,4.14,5.26.1,7.71a4.73,4.73,0,0,1-1.28.44l-.45.08L0,134.36Z"/><path class="cls-4" d="M146.91,0l1,3c-1,.73-.43,2.18-1.35,3a3.18,3.18,0,0,1-1.17.7,3,3,0,0,1-2.59-.49c-.89-1.39,0-2.44.66-3.55.21-.57.43-1.15.69-1.71a7.77,7.77,0,0,1,.79-.93Z"/><path class="cls-5" d="M144.9,1V3c-1.8,1-3.71.18-5.56.36-1.19-.05-2.4.37-3.55-.22a1.44,1.44,0,0,1,.14-2c.72-.28,1.78,0,2-1.15h2C141.4,1.23,143.41-.18,144.9,1Z"/><path class="cls-6" d="M279,121.36a2.26,2.26,0,0,1,.82.06v7l-1.1-.06a4.15,4.15,0,0,1-1.15-3.12C277.61,123.76,277.64,122.31,279,121.36Z"/><path class="cls-7" d="M144.9,1c-1.67-.27-3.6.73-5-1h5A4.58,4.58,0,0,1,144.9,1Z"/><path class="cls-8" d="M187.81,230.68c-3.13,1.81-6.14,3.87-9.9,4.2-2.39,0-4.15-1.65-6.22-2.48-1-2.91-3.89-5-3.5-8.49a5.47,5.47,0,0,1,0-1.4,5.34,5.34,0,0,1,1.32-2.56,4.79,4.79,0,0,1,4.31-.9,3.76,3.76,0,0,1,2.86,3.17,5.24,5.24,0,0,1-.09,1.37c-.65,1.37-.19,2.27,1.24,2.73,1.34,1.07,2.59.79,3.8-.23a4.63,4.63,0,0,1,3.19-.92C187.64,226.05,187.68,228.39,187.81,230.68Z"/><path class="cls-9" d="M6.75,145.42,6,144.33a3.09,3.09,0,0,1,.71-3.18c.78-.66,2.12-.58,2.43-1.84,0-.57.08-1.14.13-1.7.13-1-.47-1.79-.63-2.7a1.39,1.39,0,0,1,1.92-1.15c0-.31-.25-.4-.6-.53-.8-.29-1.31-.81-1-1.77,1.73-1.49,3.54-2.31,5.65-.69,1.33,4.94,1.07,10,1.07,15a2.57,2.57,0,0,1-1.85,1.41,4.72,4.72,0,0,1-2.18-.11A43.31,43.31,0,0,0,6.75,145.42Z"/><path class="cls-10" d="M166.89,237.63A41.51,41.51,0,0,1,157,239.1c-1.6-.94-3.14-1.95-3.42-4a2.93,2.93,0,0,1,1.1-1.65,5.56,5.56,0,0,0,2.49-2.75,1.92,1.92,0,0,1,1.43-1.05c1.07,1.18,2.14-.84,3.21,0,1.29.85,1.77,2.39,2.87,3.4a24,24,0,0,1,2.61,2.82A1.52,1.52,0,0,1,166.89,237.63Z"/><path class="cls-11" d="M275.93,138.48a2.09,2.09,0,0,1-.15.85c-1,1.38-1.83,2.93-2.89,4.31a2.38,2.38,0,0,1-1.92.11c-1.57-.79-1.93-3.42-4.4-2.87a5.4,5.4,0,0,1-1.33-.12c-3.89-2.29-3.89-2.29,0-6.33,1.13-.59,2.46-.31,3.63-.79,1.33-.17,2.58,1.51,3.95.13a3.69,3.69,0,0,1,1.36.13,3.27,3.27,0,0,1,2.09,1.77A5,5,0,0,1,275.93,138.48Z"/><path class="cls-12" d="M37.88,195.27,33,188c-1.47-1.57,1-2.31.77-3.62.85-1.52,2.3.22,3.28-.62a10.07,10.07,0,0,1,3.67-.12c1.92.83,2.32,2.72,3.1,4.35.46,1.53,1.58,3.13-.4,4.44-1.73.38-2.6-.92-3.65-1.86-.41-.38-1.08-.44-1.26,0-.34.75,1.09.22.95,1A3.27,3.27,0,0,1,37.88,195.27Z"/><path class="cls-13" d="M271,152.3c-.23,1,0,2.26-1.18,2.92-1.55.9-3,1.93-5,1.75-2.49-1.79-1.65,2-3.12,1.88a4.36,4.36,0,0,1-2.85.17,2.82,2.82,0,0,1-1.63-1.42,4.3,4.3,0,0,1-.25-2.13,7.73,7.73,0,0,1,2.44-4c1.11-.62,2.37-.4,3.55-.67,1.51.23,2.77-.64,4.17-.93A5,5,0,0,1,271,152.3Z"/><path class="cls-14" d="M200,218.22c-2.19,4.19-4.89,7.9-9.37,10-1.06-.19-1.28-1-1.41-1.89-1.33-4,2.16-5.19,4.2-7.25,1.28-.61,1.69-2.16,3-2.75a3.71,3.71,0,0,1,3.66.48A1.11,1.11,0,0,1,200,218.22Z"/><path class="cls-15" d="M18.74,166.32a9.06,9.06,0,0,1-2.83-4.88,2.36,2.36,0,0,1,.57-3.27,2.15,2.15,0,0,1,1.31-.27c.25-.1.34.79.57.19.13-.34-.23-.88-.22-1.36a2.41,2.41,0,0,1,1-1.83c4.76,1.86,5.79,5.94,6.24,10.38a4,4,0,0,1-2.63,1.9A4.84,4.84,0,0,1,18.74,166.32Z"/><path class="cls-16" d="M135.91,240.89l-.37.12-.4,0c-1.91.7-3.53.54-4.5-1.52a2.67,2.67,0,0,1,0-1.43c2.36-1.41,1.64-3.32.86-5.25a4,4,0,0,1,1.42-3.25,3.32,3.32,0,0,1,2.9-.19c1.55,1.78,2.16,2,4.46,1.55a3.53,3.53,0,0,1,1,4C138.68,236.19,138.16,239.31,135.91,240.89Z"/><path class="cls-17" d="M135.91,240.89c1.5-2.15.23-6.58,5-6,1.21-1.06,2.57-.61,3.91-.42a4.41,4.41,0,0,1,1.68,1.11c1.07,1.38,2.27,2.68,2.63,4.48-3,1.35-6.11.79-9.21.65-.36-1.19-.66-.24-1,0Z"/><path class="cls-18" d="M189.89,225.92c.23.76.47,1.51.7,2.26-.07,1.78-1.47,2.09-2.78,2.5-2.49-.67-.47-4.1-2.95-4.78-.83-.94-2.14-1.37-2.76-2.55a3.62,3.62,0,0,1-.59-1.86c.45-1.67,3.51-2.73,1.16-5.05,1.21-1.91,3-2.35,5.06-1.86a2.44,2.44,0,0,1,.85,1.15,3.54,3.54,0,0,1-.13,2.11c-.8,1.73-2.28,3.46.06,5.17C187.67,224.6,188,225.61,189.89,225.92Z"/><path class="cls-19" d="M242.9,195.11a7.36,7.36,0,0,1-3.06,2.87,10.26,10.26,0,0,0-5.26-1.23,2.76,2.76,0,0,1-2.08-2.44c-.89-4.51,2.71-4.3,5.37-5.09a10.42,10.42,0,0,1,1.89-.61,4.43,4.43,0,0,1,1.31,0,6.15,6.15,0,0,1,2.93,1.31,2.06,2.06,0,0,1-.71,2.29,1.93,1.93,0,0,0-.47,2.24C242.85,194.69,242.87,194.9,242.9,195.11Z"/><path class="cls-20" d="M53,208.88l-3-2.14a5.68,5.68,0,0,0-2.67-3.29c-2.4-1.49-2.86-3.33-1.1-5.62a3.88,3.88,0,0,1,2.35-1.22c1.52.18,3-.14,4.56.06,1.45.63,3,1.17,2.77,3.24-.86.86-2.55.88-2.61,2.55C52.68,204.57,55.87,206.9,53,208.88Z"/><path class="cls-21" d="M47,198.06c-2,2.8-.18,4.59,2.08,5.2,2.9.78,1.71,2,1,3.48-4.52-2.72-8.88-5.61-11.3-10.55a2.39,2.39,0,0,1,1.37-1.63C43.23,194.15,45,196.23,47,198.06Z"/><path class="cls-3" d="M29.82,183.5c-2.33-2.52-4.67-5-5.86-8.33a1.59,1.59,0,0,1,1-.51c1,.06,1.7.87,2.62,1.13a3.34,3.34,0,0,0,2.14-.44,3.63,3.63,0,0,1,1.81-.56c2.78,1.31,5.18,2.94,5.57,6.34a2.49,2.49,0,0,1-2.78,1.56,3.52,3.52,0,0,1-1.61-1c-.36-.29-.67-.8-1.24-.28-.26.49-.49,1-.77,1.43A1.94,1.94,0,0,1,29.82,183.5Z"/><path class="cls-22" d="M261.84,158.23c.73-1.08.81-3.2,3.05-1.94a6.42,6.42,0,0,1,3.15,4l-2,4c-1.08,1-2.47.61-3.73.82a5.47,5.47,0,0,1-2.43.44,2.56,2.56,0,0,1-1.35-1.24,7.56,7.56,0,0,1-.14-3.69,1.7,1.7,0,0,1,.91-.84C260.31,159.55,261.35,159.35,261.84,158.23Z"/><path class="cls-23" d="M61,213.88l-1.08-.54a4.19,4.19,0,0,1-.75-2.17c-.25-2.91,4-2.73,3.87-5.53,3.31-1,5.65.35,7.52,2.94.46,1.81-.46,2.94-1.92,3.81a11.66,11.66,0,0,1-3.42,1.08,4,4,0,0,1-1.34-.12A2.31,2.31,0,0,0,61,213.88Z"/><path class="cls-24" d="M242.85,192.07c.34-.66.67-1.32,1-2-.85-1.17.2-3-1.32-3.93a2,2,0,0,1,.23-1.35,5.26,5.26,0,0,1,3.26-1.5,4.46,4.46,0,0,1,3.4,1.42c.86,1.05,1.41,2.15.46,3.45a34.47,34.47,0,0,1-7,6.93l-.17-.22C242.17,193.92,242,193,242.85,192.07Z"/><path class="cls-25" d="M27,177.15l-2-2c-1.31-.64-1.61-2.21-2.77-3l-1.2-2a8.44,8.44,0,0,1,2.73-1.88,5.26,5.26,0,0,1,2.64-.88c3.66,1.17,4.48,4.12,4.73,7.44L30,176.17A3.79,3.79,0,0,0,27,177.15Z"/><path class="cls-26" d="M17,158.22l-1.08,3.22a4.5,4.5,0,0,1-2-3.09c-.26-2.4-.61-4.75-3.14-6L10,151.29c0-1.72-1.65-3.79,1-5h2c1.9.91,1.56,4,4.17,4.21A2.27,2.27,0,0,1,18.36,152C18.28,154.14,17.33,156.11,17,158.22Z"/><path class="cls-27" d="M271,152.3c-1.78.16-2.71-1.44-4.13-2a3.21,3.21,0,0,1-2.51-2.24c-.31-1.6.84-2.61,1.53-3.82,1.5-2.18,3.18-1.66,4.9-.31a2.29,2.29,0,0,1,.77,1.12c-.09,1.55-.68,3.25,1.21,4.25C272.24,150.35,272.09,151.61,271,152.3Z"/><path class="cls-28" d="M99.61,234.05c-3.89-.58-6.94-3.22-10.63-4.3-.44-.92,0-1.59.59-2.25a3.08,3.08,0,0,1,2.21-1,12.28,12.28,0,0,1,1.71.58c1.35.42,2.92-.28,4.15.77,1.12,1.89,3.52,2.93,3.67,5.47C100.94,234.07,100.43,234.45,99.61,234.05Z"/><path class="cls-29" d="M113.77,238.2a2,2,0,0,1-.84-.4c-2.22-2-5.49-2.19-7.71-4.23a3,3,0,0,1-1-2.49c1.21-2.56,3.5-2.32,5.75-2.17a27.56,27.56,0,0,0,4,3.3,6.32,6.32,0,0,1,1.27,2.24,3.31,3.31,0,0,1,.12,1.25,5.81,5.81,0,0,1-.69,1.74A2,2,0,0,1,113.77,238.2Z"/><path class="cls-30" d="M60,211l-.1,2.39c-3-.4-5-2.34-6.85-4.46,1.35-2.54-1.74-4.4-1.05-6.83a2,2,0,0,1,2-.47,6.48,6.48,0,0,1,2.64,3.18c.77,1.33.39,3.37,2.42,4C59.78,209.27,59.38,210.31,60,211Z"/><path class="cls-8" d="M214.93,213.12c-1.47,1.06-3.2.87-4.87,1-4.45.17-2.54-2.48-2-4.51,2.49-1.54,5-4.56,7.36.2a3.65,3.65,0,0,1,.24,2.09A5,5,0,0,1,214.93,213.12Z"/><path class="cls-31" d="M234.85,196.06c2-.23,4.37-1.42,5,1.92l-6,6a1.94,1.94,0,0,1-1.48-1.1,3.47,3.47,0,0,1-.08-1.89c.22-.81.5-1.6.77-2.39A5.08,5.08,0,0,1,234.85,196.06Z"/><path class="cls-32" d="M249.88,188.18l-1-3.07c.1-1.3.76-2.47.87-3.77a3.79,3.79,0,0,1,1.13-2.47c2.1-.12,4.24-1.1,6.26.34C255.42,182.78,252.52,185.37,249.88,188.18Z"/><path class="cls-33" d="M230.86,206a20.37,20.37,0,0,1-7,4,2.75,2.75,0,0,1-2.3-2.18,3.37,3.37,0,0,1,1.51-2.1c1.09-1.09,1.92-2.56,3.75-2.62a5.19,5.19,0,0,1,2.1.32C229.91,204,231.28,204.35,230.86,206Z"/><path class="cls-34" d="M260.68,174.1l-1.57,2.14a6.19,6.19,0,0,1-3.05,1.1c-1.4,0-2.73-.23-3.55-1.56-.49-2.31,1.28-3.2,2.73-4.3a4.9,4.9,0,0,1,3.59-1C260.78,171,260.48,172.69,260.68,174.1Z"/><path class="cls-1" d="M9,135.34c1.25.21,2.51.4,1,2-.71.65-1.15,1.3-.06,2,1.45,4.3-1.78,1.65-3,2-1.72,1.3-2.59-.3-3.7-1.07l-.38-.91a6.21,6.21,0,0,1,1.61-2.68C5.63,135,7.18,134.72,9,135.34Z"/><path class="cls-35" d="M73.84,222a2.92,2.92,0,0,1-3-2c.1-.19.2-.37.29-.56a32.32,32.32,0,0,0,2.47-2.88A3.58,3.58,0,0,1,76,215.36a4.58,4.58,0,0,1,2.6,1,2.73,2.73,0,0,1,1,2.55,5.82,5.82,0,0,1-1.47,3.17C76.7,220,75.25,222.83,73.84,222Z"/><path class="cls-36" d="M171.89,231.88c2.3.43,4.12,1.79,6,3a15.92,15.92,0,0,1-8,1.94c-1.28-1.82-.3-3.35.64-4.89A1,1,0,0,1,171.89,231.88Z"/><path class="cls-37" d="M221.88,208a3.39,3.39,0,0,1,2,2,18.14,18.14,0,0,1-8.93,3.15c0-.37,0-.74-.05-1.12,1.08-.52.58-1.58.82-2.4a5.46,5.46,0,0,1,3.07-2A6.6,6.6,0,0,1,221.88,208Z"/><path class="cls-38" d="M208.87,209c1,1.56-2.73,4.21,1.19,5.09-1.21.93-2.67.92-4.09,1a3.45,3.45,0,0,1-2.26-.93,2,2,0,0,1-.2-1.2c.34-1,1.14-1.69,1.4-2.7,0-2.09-.89-4.91,3.08-3.67C208.75,207.23,209.38,207.91,208.87,209Z"/><path class="cls-39" d="M105.94,232.89c2.16,1.87,5.94,1.46,7,4.91a11.64,11.64,0,0,1-8.07-1.72C103.94,234.59,104.52,233.6,105.94,232.89Z"/><path class="cls-40" d="M105.94,232.89l-1.08,3.19a9.77,9.77,0,0,1-5.25-2l1.33-1.16c.65-1-.19-2.46,1-3.3a2.13,2.13,0,0,1,3,1.3A2.06,2.06,0,0,0,105.94,232.89Z"/><path class="cls-41" d="M170.92,231.92c-.34,1.64-.68,3.27-1,4.9a4,4,0,0,1-3,.81v-1.77C165.81,231.31,166.39,230.74,170.92,231.92Z"/><path class="cls-42" d="M5,137.31a3.45,3.45,0,0,1-2.14,2.05,6.91,6.91,0,0,1-2.07-4.82l.32-.39c1.56-2,3-1.42,4.3.25A3.76,3.76,0,0,1,5,137.31Z"/><path class="cls-43" d="M278.79,125.39l-.06,2.93-.85,1c.47,1.56-.7,1.56-1.67,1.75-2-.27-2.62-2-3.44-3.47a1.41,1.41,0,0,1,.75-1.72c1.36-.14,2-1.42,3.2-1.91C277.81,123.86,278.28,124.65,278.79,125.39Z"/><path class="cls-44" d="M260.68,174.1c-.6-1-1.21-1.94-1.82-2.91-.63-.53-1.43-.92-1.48-1.9.16-1.21-.47-2.59.82-3.54a2.33,2.33,0,0,1,1.89.23c1.5.62.51,3.48,3,3.26C262.89,171.16,261.72,172.6,260.68,174.1Z"/><path class="cls-45" d="M268,160.29c-1.94-.64-2.35-2.47-3.15-4,1.77.3,2.86-2.51,4.89-1.07Z"/><path class="cls-46" d="M230.86,206l-2-2c-1-1.17-.48-2.24.19-3.3,3-2.13,2.61,1.42,3.81,2.3l1,.95Z"/><path class="cls-47" d="M275.72,130.4a2.24,2.24,0,0,0,2.16-1.09c1.59,3.53-.89,6.2-1.95,9.17,0-1,0-2,0-3C274.61,133.84,274.23,132.16,275.72,130.4Z"/><path class="cls-48" d="M153.91,234.88c.52,1.77,3.22,2,3.07,4.22-1.93,1.06-4,.83-6.07.68a.9.9,0,0,1,0-1.18c1.45-.31,2.89-.63,1.27-2.49a2.67,2.67,0,0,1,.51-1.24A1.12,1.12,0,0,1,153.91,234.88Z"/><path class="cls-49" d="M11,146.3c-1.4,1.45,0,3.47-1,5-1.08-2-2.15-3.92-3.23-5.87C8.12,145.92,10.27,142.71,11,146.3Z"/><path class="cls-50" d="M10.77,152.38c4.62.12,4.43,2.76,3.14,6Q12.34,155.37,10.77,152.38Z"/><path class="cls-51" d="M272.73,149.29c-4.2.37-2.87-1.89-1.89-4a2.16,2.16,0,0,1,3.14,0A6.25,6.25,0,0,1,272.73,149.29Z"/><path class="cls-52" d="M64,213h1c1.82-.28,2.18,1.13,2.72,2.33a2.73,2.73,0,0,1-.83,2.93,5.69,5.69,0,0,1-4-3.13C62.4,214,63,213.38,64,213Z"/><path class="cls-53" d="M121,240.74c-1.1.09-2.26.45-3.11-.64a1.82,1.82,0,0,1-.34-1.95c.66-.92,1.63-.71,2.55-.73,1.38,0,2.71-.61,4.12-.5a2.78,2.78,0,0,1,1.9.92C125.77,241.21,122.63,239.67,121,240.74Z"/><path class="cls-54" d="M257.11,179.21c-2.09.06-4.2,1.65-6.27-.07a.75.75,0,0,1-1.22-.31c1.11-4.27,4.1-1.4,6.28-1.64a2.58,2.58,0,0,1,2,1Z"/><path class="cls-55" d="M66.87,218.22,67,215a2.41,2.41,0,0,1,1.14-2.3,1.73,1.73,0,0,1,1.56,1.08,23.32,23.32,0,0,0,1.68,4.93,1.48,1.48,0,0,1-.27,1.24l-.2,0A5.93,5.93,0,0,1,66.87,218.22Z"/><path class="cls-56" d="M263.05,169.24c-3,1-2.73-1.4-3.2-3-.26-.22-.35-.44-.27-.67s.17-.33.26-.33l2-1c.91.41,2.13.42,2.37,1.74a2.61,2.61,0,0,0-.21,2.26Z"/><path class="cls-57" d="M203.93,213c0,.32,0,.63,0,.94a2.46,2.46,0,0,1-1,2L200,218.22c0-.42-.05-.84-.08-1.26a4.81,4.81,0,0,1,1.06-5.35C202.35,211.2,203.73,210.86,203.93,213Z"/><path class="cls-58" d="M23.94,169.28c-.72,1.09-1.86.86-2.91.91l-2.29-3.87,4.13-.1A4.61,4.61,0,0,1,23.94,169.28Z"/><path class="cls-59" d="M150.91,238.85v.93l-1.77.25c-1.88-.75-2.37-2.6-3.27-4.12a2.48,2.48,0,0,1,2.66-.71,4.76,4.76,0,0,1,2.66,2.35A1.27,1.27,0,0,1,150.91,238.85Z"/><path class="cls-60" d="M121,240.74c1.37-1.44,3.82-1,4.94-2.88a1.46,1.46,0,0,1,1.3-.18,2.2,2.2,0,0,1,1.12,1.67,2.23,2.23,0,0,1-.6,1.25,4,4,0,0,1-4,.35Z"/><path class="cls-61" d="M84.85,226.94,82,226a1,1,0,0,1-.36-.74c0-.29,0-.43.11-.43,1.2-1.39,2.41-2.8,4.55-1.64a2.14,2.14,0,0,1,1.06,1.64,3.68,3.68,0,0,1-1.22,2.39A1.1,1.1,0,0,1,84.85,226.94Z"/><path class="cls-62" d="M64,213l-1.07,2.12L61,213.88c.15-1-.25-2.43,1.31-2.69C63.53,211,63.83,212,64,213Z"/><path class="cls-63" d="M73.84,222c1.34-.91,2.66-2.24,4.07-.09.93-.36,1.21.19,1.32,1a2.42,2.42,0,0,1-1.39,1.46Z"/><path class="cls-64" d="M34,185.08c.78,1.34-1.45,1.72-1,3-1.07-1.51-2.13-3-3.19-4.54a3.55,3.55,0,0,1,.28-.63,2.4,2.4,0,0,1,1.91-.38C33.36,182.83,33.22,184.28,34,185.08Z"/><path class="cls-65" d="M117.89,237.86c0,.74,0,1.49,0,2.24-1.36-.65-3.74.89-4.1-1.9.06-.45.11-.89.17-1.34C115.59,235.87,116.85,236.43,117.89,237.86Z"/><path class="cls-66" d="M274,145.36l-3.14,0c0-.33,0-.66,0-1a.61.61,0,0,1-.24-.69c.09-.22.17-.33.26-.33l2.06,0c.5-.66.91-1.5,2-1C274.86,143.41,275,144.56,274,145.36Z"/><path class="cls-21" d="M84.85,226.94l1.1,0c1.71-1.17,3.06-.92,4,1l-1,1.84C87.35,229.18,85.73,228.61,84.85,226.94Z"/><path class="cls-67" d="M40,195.07l-1.21,1.12c-.3-.31-.59-.62-.89-.92L39,191.09C42.56,191.62,41.36,193.32,40,195.07Z"/><path class="cls-68" d="M123.7,241l4.24-1.1c1-.8,1.73-.52,2.34.48a1.47,1.47,0,0,1-.36,1.31C127.82,241.65,125.66,242.16,123.7,241Z"/><path class="cls-49" d="M3.28,140.27,7,141.34l-1,3Z"/><path class="cls-69" d="M77.84,224.34l1.1-1.42a1.16,1.16,0,0,1,1.11-.4,4.25,4.25,0,0,1,2.15,1.28.88.88,0,0,1-.24,1.1v1C80.33,226,79.12,225.1,77.84,224.34Z"/><path class="cls-70" d="M263.8,166.25l-2-2c1.4-1,2.78.46,4.18.05-.44.94-.89,1.89-1.33,2.84C263.78,167.44,263.6,167,263.8,166.25Z"/><path class="cls-71" d="M274.89,142.31l-2,1c-.47-2.35,1.16-3.18,2.88-3.94A2.7,2.7,0,0,1,274.89,142.31Z"/><path class="cls-72" d="M129.92,241.64v-.79c.59-.55.19-1.59,1-2,1.11,1.28,2.36,2.29,4.2,2.13C133.52,242.06,131.68,241.59,129.92,241.64Z"/><path class="cls-73" d="M257.89,178.16l-2.06,0a1.36,1.36,0,0,1,0-2l3.26.09Z"/><path class="cls-8" d="M202.88,216a2,2,0,0,1,1-2A2.11,2.11,0,0,1,206,215.1,3.41,3.41,0,0,1,202.88,216Z"/><path class="cls-74" d="M139,240.71c.12-1.22.37-2.35,1.89-2.45.19,0,.61.54.58.58-.46.64-1,1.24-1.49,1.84Z"/><path class="cls-75" d="M22.23,172.15c1.84.16,2,1.83,2.77,3l-1,0Z"/><path class="cls-43" d="M263.8,166.25l.89.86-.69,1.11c-.72-.17-1.77,0-1.66-1.14C262.38,166.75,263.29,166.52,263.8,166.25Z"/><path class="cls-76" d="M68,24a45.08,45.08,0,0,1,10.94-5.16c1.69,1.8-.39,2.84-.77,4.25-.75,2.74.82,2.18,2.36,1.34a2.21,2.21,0,0,1,2.73,1.3,7.77,7.77,0,0,0,1,3c.67,1.44,1.65,2.83.57,4.48a3.45,3.45,0,0,1-2.76.47,3.87,3.87,0,0,1-1.76-1.05,4.31,4.31,0,0,0-3-1.61c-.56.55.2.88.24,1.33a2.84,2.84,0,0,1-.47,2.56,3.29,3.29,0,0,1-2,.87A3.76,3.76,0,0,1,73,35.28a3.83,3.83,0,0,1-1.12-1.76c-.29-1.91-2.27-1.83-3.36-2.8a4.47,4.47,0,0,1-.68-1.93C67.76,27.19,67.36,25.59,68,24Z"/><path class="cls-77" d="M116.73,5.61a44.29,44.29,0,0,1,15-3.73c2.5-1.36,2.85,1.56,4.37,2.17a3.07,3.07,0,0,1,1,.88,2.92,2.92,0,0,1-.79,2.55c-1.68,2.66-6.15,1.65-7,5.34a1.72,1.72,0,0,1-1.21.5c-1.76-.78-3.32-2.2-5.48-1.66a3.79,3.79,0,0,1-1.26-.57C120.07,9.06,116.71,8.76,116.73,5.61Z"/><path class="cls-78" d="M116.73,5.61c1.52,2,4.77,2.28,5.19,5.32a2.74,2.74,0,0,1-.88,1.72c-2,.67-1.38,3.44-3.32,4.16a6.17,6.17,0,0,1-2.42.53c-1-.36-2,.2-2.94.06a1.93,1.93,0,0,1-1-.82,4.6,4.6,0,0,1,.49-3.89c.56-1.1,2.09-2.1.38-3.46a2.73,2.73,0,0,1,.6-2.48C114,5.72,115.44,6,116.73,5.61Z"/><path class="cls-79" d="M35.9,46.62C37.72,45,39.39,43.19,42,42.75c1.42.38,3,0,4.32.88a4.39,4.39,0,0,1,1.18,3c-.43,2.2,1.6,4,1.17,6.17A2.48,2.48,0,0,1,48,54c-2.66.69-3.48-2.37-5.64-2.7-.85-2.87-1.59.88-2.41,0A2.75,2.75,0,0,1,38.66,51C37.63,49.58,35.5,48.9,35.9,46.62Z"/><path class="cls-59" d="M3.05,107.48l.16-2a4.11,4.11,0,0,1,2.31-1.26c2.61-.37,5.2-1,7.88-.71,2.3,2.17,2.77,4.55.83,7.21a3.79,3.79,0,0,1-2.08.7c-2.57,0-4.3-2-6.63-2.6A4.41,4.41,0,0,1,3.05,107.48Z"/><path class="cls-80" d="M18.17,64.72c1.9-2.39,3.23-5.24,5.73-7.16,1.36,1.26,3.75,1.59,3.77,4.07-1.1,1.52,1,2.7.46,4.17-1.68,1.42-3.88.52-5.71,1.28a3.35,3.35,0,0,1-1.3,0A6.54,6.54,0,0,1,18.17,64.72Z"/><path class="cls-22" d="M7.3,89.54l2.41-7c1.67-1.94,3.21-1,4.73.2a2.08,2.08,0,0,1,.79,1.73c-1.77.18-1.06,1.2-.71,2.1a13.9,13.9,0,0,1-.68,3.21,8.71,8.71,0,0,1-4.56,2.09C8.11,91.53,8,90.33,7.3,89.54Z"/><path class="cls-81" d="M50.89,36.64c.21-2.41,2.82-2.43,4-3.92,2.54-.21,4.58-2.08,7.16-2.17a3.61,3.61,0,0,1,1.82,2.14c.36,1.39.86,2.77.31,4.23a2.3,2.3,0,0,1-2,.46c-1.26-.3-2.4-2-3.84-.33A5.09,5.09,0,0,1,56,38.21c-.88.06-1.87-.9-2.65.27a2.69,2.69,0,0,1-2.62-.54A1.15,1.15,0,0,1,50.89,36.64Z"/><path class="cls-82" d="M81,24.88c-.83,1.12-1.08,3.65-3.25,1.95-1.39-1.09-2.32-3.07-.73-4.7,1-1,2.41-1.5,2-3.28a10.88,10.88,0,0,1,6-3,1.87,1.87,0,0,1,.46,1.92,4.73,4.73,0,0,1-.75,1.13C82.44,20.29,82.48,23.06,81,24.88Z"/><path class="cls-83" d="M63,32.83l-1-2c-1.36-1-2.74,1.69-4.09,0C60.63,27.65,64.5,26.09,68,24a7.88,7.88,0,0,1,1,4.85.8.8,0,0,1-.92.32c-.39-.17-.84-.53-1,.27a6.75,6.75,0,0,1-.13,1.09,6.46,6.46,0,0,1-1.25,2.8C64.49,34.52,63.69,33.91,63,32.83Z"/><path class="cls-84" d="M35.9,46.62c.87,1.5,3.31,1.83,3.08,4.14,1.13,1.56,1,3.94,3.14,4.83a2.17,2.17,0,0,1-.9,2.49,3.53,3.53,0,0,1-2.06.45,7.4,7.4,0,0,1-3.61-1.93,2.41,2.41,0,0,1-.89-1.72c.37-1.45-.64-2.54-1-3.79a5.4,5.4,0,0,1,.39-3.2Z"/><path class="cls-85" d="M4.18,101.55c.41-2.07.63-4.19,1.86-6,.75-.68.23-2.54,2.07-2.21,2.76,2.3,2.87,5.29,2.25,8.48a4.17,4.17,0,0,1-4,1.59A2.71,2.71,0,0,1,4.18,101.55Z"/><path class="cls-86" d="M89,14a4.16,4.16,0,0,1,3-.95,8.2,8.2,0,0,1,2.27,2.46c.08.22.15.44.22.66a4.84,4.84,0,0,1,0,1.37c-.54,1.66-.36,3.9-3.06,3.87-1.46-.91-2.88-.53-4.29.15a3.57,3.57,0,0,1-1.34-.11c-2.2-1.74.37-2.57.72-3.83C87.48,16.55,87.82,15,89,14Z"/><path class="cls-27" d="M11.4,77.77,12,76.64a5.86,5.86,0,0,1,2.81-.32c1.73,1.08.94-1.36,1.89-1.36a5,5,0,0,1,2.71-1.72c1.39.2,2.65.56,2.82,2.26-.83,1.1-2,2-1.89,3.62a2.76,2.76,0,0,1-2,1.53C16.86,81,15.48,81.71,14,82,11.45,81.59,12.11,79.27,11.4,77.77Z"/><path class="cls-87" d="M17,75.65c-.53.61-.56,2.19-2,1-1.4-.47-1.4-1.77-1.73-2.88a5.33,5.33,0,0,1,2.44-3.19c1.18-.62.83-2.79,2.74-2.67a3.38,3.38,0,0,1,1.36.31,2.17,2.17,0,0,1,.78,1.12,3.42,3.42,0,0,1-.12,1.35,4.73,4.73,0,0,1-1.24,1.53C17.61,72.79,17.85,74.57,17,75.65Z"/><path class="cls-79" d="M50.89,36.64l.11,1.2a3.93,3.93,0,0,0,1.77,2.29,2.56,2.56,0,0,1,.73,1.08A2,2,0,0,1,53,43.07c-1.84.85-3.42-1-5.23-.49a2.33,2.33,0,0,1-2.47-2.69A8.8,8.8,0,0,1,50.89,36.64Z"/><path class="cls-88" d="M3.05,107.48H6a2.76,2.76,0,0,1,.66,1.76c-.29,1.44.43,3-.52,4.37A.84.84,0,0,1,5,113.46l-2.92,1A14,14,0,0,1,3.05,107.48Z"/><path class="cls-89" d="M25,56.61a18.76,18.76,0,0,1,4.89-5l.53.41c.94,1.5-1.53,3.67,1,4.87A3.25,3.25,0,0,1,28.92,60C28.11,58.3,24,60.39,25,56.61Z"/><path class="cls-90" d="M112.85,6.75l.08,3.17a2,2,0,0,1-2,1.45c-1.57-.66-2.83,1.46-4.44.47-.88-1.16-1.75-2.33-.51-3.78Z"/><path class="cls-91" d="M99.71,10.62a6.63,6.63,0,0,1,4.15-1.76c2.08-.12,1.59,1.53,1.85,2.67-.4,1.73-.81,3.46-2.86,4-2.79.16-2-2.43-2.87-3.73A3.23,3.23,0,0,1,99.71,10.62Z"/><path class="cls-92" d="M92.72,12.8a16.31,16.31,0,0,1,7-2.18c.09.15.19.29.29.43a1.69,1.69,0,0,1,.3,1.89,7.6,7.6,0,0,1-2.73,2c-1.17.45-2.1,1.78-3.63,1h0A7.47,7.47,0,0,1,92.72,12.8Z"/><path class="cls-93" d="M25,56.61c.21,2.48,4.12.22,4,3.1,1.24-.42,1.91.2,2.35,1.26a1.41,1.41,0,0,1-.72,1.28A3,3,0,0,1,27,61.7c0-2.18-3.94-1.38-3.11-4.14Z"/><path class="cls-94" d="M89,14c-.2,1.55.61,3.62-2,3.93a1.33,1.33,0,0,1-2-.05l0-2A6.56,6.56,0,0,1,89,14Z"/><path class="cls-95" d="M45.28,39.89c.79.8,1.23,2.07,2.7,1.91a.86.86,0,0,1,.32.69c0,.27,0,.4-.1.41a2.58,2.58,0,0,1-2.23.89c-1.44,0-3.22,1.4-4-1Z"/><path class="cls-96" d="M57.88,30.83c1.36.42,2.73-1.78,4.09,0-2.2,1.3-4.22,3.26-7.13,1.86A3.21,3.21,0,0,1,57.88,30.83Z"/><path class="cls-97" d="M34,47.89a2.52,2.52,0,0,1,0,2.86c.58,1.57-.48,2.08-1.65,2.52a2.11,2.11,0,0,1-2.22-1.42l-.28-.2C31.13,50.27,32.19,48.65,34,47.89Z"/><path class="cls-98" d="M11.4,77.77c1.73.7,1.19,2.92,2.59,3.84a1.34,1.34,0,0,1,0,2c-1.32-.75-2.5-2.08-4.27-1Q10.55,80.15,11.4,77.77Z"/><path class="cls-89" d="M8,93.55,6,95.54l1.26-6A1.86,1.86,0,0,1,9,91.6c.93.48,1.54,1.09.87,2.2A1.49,1.49,0,0,1,8,93.55Z"/><path class="cls-99" d="M135.88,5c-2.29.18-1.8-3.33-4.14-3.08,1.27-1,2.73-.86,4.19-.73V3A1.28,1.28,0,0,1,135.88,5Z"/><path class="cls-88" d="M4.18,101.55l1.82,1a2.17,2.17,0,0,1,0,3H3.21C3.54,104.18,3.86,102.87,4.18,101.55Z"/><path class="cls-100" d="M20,68.67H19a2.38,2.38,0,0,1-1.24-3.27,1,1,0,0,1,.38-.68,2.89,2.89,0,0,1,2.82,2C21.55,67.78,20.87,68.28,20,68.67Z"/><path class="cls-101" d="M104.89,12c0-1.17.16-2.36-1-3.12a2.12,2.12,0,0,1,2.12-.8c.31,1.3.61,2.59.91,3.88a1.56,1.56,0,0,1-1.24,1.3C105,13.08,104.46,12.81,104.89,12Z"/><path class="cls-102" d="M17.79,65.4c.41,1.09.82,2.18,1.24,3.27-1.6-.22-2,1.64-3.33,1.9C16.38,68.84,16.44,66.86,17.79,65.4Z"/><path class="cls-98" d="M13.26,73.76,15,76.64a2.67,2.67,0,0,1-3,0C12.43,75.68,12.85,74.72,13.26,73.76Z"/><path class="cls-103" d="M92.72,12.8c1.31.69,1.21,1.93,1.22,3.12a3,3,0,0,1-2-2.87A1.15,1.15,0,0,1,92.72,12.8Z"/><path class="cls-104" d="M262.84,72.66c3,3.86,4.62,8.35,6.06,12.92a4.7,4.7,0,0,0,.4,4.94,2.87,2.87,0,0,1,0,2c-3.3,2.58-4.62.15-5.92-2.32-.37-.73-1.1-1.47-.94-2.24,1-4.48-1.82-3.55-4.33-3.07-2.64-2.38-2.75-5.37-2.14-8.55a5.3,5.3,0,0,1,3.16-3,4.29,4.29,0,0,1,1.33-.2A3.24,3.24,0,0,0,262.84,72.66Z"/><path class="cls-105" d="M179.91,5.24a34.49,34.49,0,0,1,9,2.65c0,.23,0,.45,0,.67-.57,1.59-1.6,1.76-3,1-1.59-.78-1.4.46-1.47,1.37-.5,1.92,0,3.87-.21,5.8a5.72,5.72,0,0,1-1.92,1.87c-1.36.9-2.69,1.84-4.41,1.88a2.72,2.72,0,0,1-1.26-.53,3.38,3.38,0,0,1-.51-2.56c.12-.74.32-1.5-.28-2.16a4.45,4.45,0,0,1-.72-.9c-.48-.88-1.15-1.63-1.63-2.51a1.94,1.94,0,0,1,.31-1.8,6.3,6.3,0,0,1,3.67-.59,1.6,1.6,0,0,1,.81.68c.31.54.61.48.9-.08.14-.36.29-.68.43-1C180.13,7.8,179.37,6.47,179.91,5.24Z"/><path class="cls-19" d="M188.94,7.89a4.25,4.25,0,0,1,3.06,1c.07.78.52,1.47.55,2.26,0,1.33,1.22,2,1.67,3.06,0,2.44-3.7,4.06-1.5,7a2.91,2.91,0,0,1-.7,1.95c-1.91.93-3.67.1-5.45-.46-1.45-.88-1.42-2.62-2.27-3.86a2.84,2.84,0,0,1,.06-1.95,7.4,7.4,0,0,1,.5-2.63c1.33-2,4.4-2.86,3.88-6Z"/><path class="cls-106" d="M177.89,10c-1.32,0-2.64,1-4,0l-.56-.26a9.66,9.66,0,0,0-3-2.08,9.85,9.85,0,0,0-3.77-.48,23.57,23.57,0,0,1-3.14.14L162.9,7l-1-1c-.61-1.27.15-2.06,1-2.82,5.05.34,10.1.58,15,2a3.48,3.48,0,0,1,1,2.8A2.88,2.88,0,0,1,177.89,10Z"/><path class="cls-107" d="M233.92,34.79l3,3c-.09,1.46,2,2.94,0,4.39-.51.89,0,1.44.66,2a2,2,0,0,1,.61,1.13,2.09,2.09,0,0,1-1.66,1.89A8.63,8.63,0,0,1,231,43.34c-.55-1.8-3.14-2.93-1.84-5.36,1.5-.42.11-1.61.6-2.3a3.27,3.27,0,0,1,1.06-.74A3.68,3.68,0,0,1,233.92,34.79Z"/><path class="cls-108" d="M211,17.84l.88,1c1.85,1.56,3.94,3,3.7,5.84a2,2,0,0,1-1.34,1.55,6,6,0,0,1-3.34-.82c-1-.72-1.88-1.72-3.2-2a6.18,6.18,0,0,1-2.53-1.81,3.2,3.2,0,0,1-.88-1.67,2.88,2.88,0,0,1,.3-1.26,6,6,0,0,1,.91-1C207.39,15.79,209.18,17.48,211,17.84Z"/><path class="cls-11" d="M247.61,48.79l1.32,1.82c.44.83.11,1.73.29,2.57.18.37.33.75.49,1.12.51,1.26.65,2.45-.71,3.32a3.44,3.44,0,0,1-2.55.58,13.82,13.82,0,0,1-5.32-6.2,4.35,4.35,0,0,1,1.73-4.33,1.77,1.77,0,0,1,1.28,0C245.15,48.47,246.64,47.86,247.61,48.79Z"/><path class="cls-109" d="M276.77,112.46l.22,1.76c.42.8,0,1.27-.64,1.69-1.71.58-3.94-.91-5.26,1.31-1.19.58-2.28.73-3-.75a3.23,3.23,0,0,1,1-3.81c2.77-1.27.87-4.39,2.43-6.14a1.42,1.42,0,0,1,1.28-.14C275.19,107.75,276.24,109.94,276.77,112.46Z"/><path class="cls-110" d="M235.86,41.79c2.09-.9,0-2.88,1-4l7.95,8c.68,1.17.7,2-1,2h0c-1.27-.82-2.83.17-4.1-.65-.91-.56-1.24-1.58-1.89-2.35h0C236.8,44.05,235.78,43.29,235.86,41.79Z"/><path class="cls-111" d="M272.84,106.51l-1,0a1.26,1.26,0,0,1-1.17.4c-1.7-.64-2.58-1.65-1.64-3.51.47-.92.81-1.9,1.21-2.86.26-.56.58-1.09.84-1.64,1-.9-.67-3.14,1.71-3.32,1.31,2.88,2.69,5.73,3.06,8.92l-.36.5a14.14,14.14,0,0,1-2.07,1.35Z"/><path class="cls-112" d="M222,25.81l2.8,2.18a1.54,1.54,0,0,1-.25,1.71,3,3,0,0,1-1,.68c-.95.24-1.81.94-2.89.68a2.47,2.47,0,0,0-2.72.12c-1.44.22-2.89,0-4.33.14a1.75,1.75,0,0,1-1.1-.65c-.56-1.64.62-2.44,1.63-3.32a13.83,13.83,0,0,1,2.74-1.87C218.61,25.35,220.36,25,222,25.81Z"/><path class="cls-113" d="M275.83,115.45l1.16-1.23c3.28,1.65,1,4.85,2,7.14-.07,1.34-.15,2.69-.22,4l-1.93-1a6.31,6.31,0,0,1-2.06-2.65,5.12,5.12,0,0,1,1-6.31Z"/><path class="cls-114" d="M196.94,10.77c3.48.32,6.29,2.1,9,4.1-.12.19-.24.37-.35.56a4.61,4.61,0,0,1-3,1.18c-1.75-.28-3.62.48-5.28-.6a4,4,0,0,1-1.22-4A2.3,2.3,0,0,1,196.94,10.77Z"/><path class="cls-115" d="M254.86,58.71c.37.59.73,1.18,1.09,1.78a4.06,4.06,0,0,1,.29,2.68c-.33.42-1.1.73-1.22.43-1.33-3.32-1.17,1.5-2,.36a3.54,3.54,0,0,1-3.33-1,4,4,0,0,1-.66-1.32,4.65,4.65,0,0,1,.29-2.94,3.35,3.35,0,0,1,1.61-1.5C252.6,56.7,253.62,58,254.86,58.71Z"/><path class="cls-116" d="M223.87,29.85l1-1.86c2.42,1.53,5,2.8,7,5,.61,1.21-.12,2-.87,2.79l-1.07.06C226.19,35.5,225.87,31.83,223.87,29.85Z"/><path class="cls-112" d="M214.87,24.86c-.09-2.45-2-4-3-6,3.71,1.23,6.63,3.73,9.65,6.06-1.65,1.2-3.55.3-5.31.65A2.12,2.12,0,0,1,214.87,24.86Z"/><path class="cls-117" d="M276.77,112.46c-2.15-1.43-2.91-3.77-3.93-5.95v0c.82-.73,2.14-.73,2.69-1.84l.34-.15C277.15,107,278.51,109.57,276.77,112.46Z"/><path class="cls-118" d="M272.81,95.56c-1,1.16,1,3.06-1,4a4.79,4.79,0,0,1-3.45-1.59,2.74,2.74,0,0,1-.82-2.36,13.6,13.6,0,0,1,1.63-2c.78-.68,1.39-1.8,2.73-1.06A3.92,3.92,0,0,1,272.81,95.56Z"/><path class="cls-119" d="M268.83,90.58c-3.17-1.71-3.18-3.38.07-5,1.56,1.29,1.9,3.21,2.58,5C270.61,91.53,269.72,90.74,268.83,90.58Z"/><path class="cls-120" d="M260.83,73.67l-1,0c-3.18-.25-2.52-2.7-2.73-4.67a6.37,6.37,0,0,1,0-1.38,2.72,2.72,0,0,1,.65-1.2,1.42,1.42,0,0,1,1.84.33l1.3,2.73C261.41,70.87,261.92,72.29,260.83,73.67Z"/><path class="cls-11" d="M254.86,58.71l-4-1c-.89-1.22-.76-2.94-2-4v0c-.08-1.76.8-1.63,1.94-1Z"/><path class="cls-114" d="M211,17.84c-1.71.3-3.76-1-5.1,1.06-1.8-1.11-2.33-2.33-.31-3.75l.34-.28A11.36,11.36,0,0,1,211,17.84Z"/><path class="cls-121" d="M177.89,8c0-.94,0-1.88,0-2.82l2,.11c.55,1.58,3.05,3.16,0,4.71C178.93,9.57,180,7.21,177.89,8Z"/><path class="cls-21" d="M243.86,47.77a2,2,0,0,0,1-2,6.4,6.4,0,0,1,2.77,3C246.24,48.9,244.07,52,243.86,47.77Z"/><path class="cls-122" d="M268.83,90.58c.86-1.2,1.77.23,2.66,0,.14.66.28,1.32.43,2a3.41,3.41,0,0,0-2.07,2c-1.81.1-1.67-.79-1-2C268.84,91.9,268.83,91.24,268.83,90.58Z"/><path class="cls-123" d="M260.83,73.67c0-1.4.07-2.81.1-4.22.63,1.07,1.27,2.14,1.91,3.21-.13.87.32,2.07-.75,2.44S261,74.37,260.83,73.67Z"/><path class="cls-124" d="M196.94,10.77l-.05,1.17a3.44,3.44,0,0,1-2.63.21,3.65,3.65,0,0,1-2.37-1.2c-.14-.7-1.1-1.44.11-2.06A11,11,0,0,1,196.94,10.77Z"/><path class="cls-125" d="M259.63,66.72l-1.78,0a4.16,4.16,0,0,1-1.93-2.37l-.06-.62.09-3.19A21.22,21.22,0,0,1,259.63,66.72Z"/><path class="cls-108" d="M215.86,24.89h5.68l.49.92a6,6,0,0,1-5.17.07C215.93,26.15,215.62,25.79,215.86,24.89Z"/><path class="cls-126" d="M162.89,3.15,161.9,6A2.92,2.92,0,0,1,160,2.69Z"/><path class="cls-127" d="M230.93,35.76,231.8,33a3.46,3.46,0,0,1,2.12,1.82Z"/><path class="cls-128" d="M250.78,52.77a2,2,0,0,0-1.94,1c-3.41-1.13.72-2.06.09-3.12Z"/><path class="cls-129" d="M5,113.46H6c1.38-1.34-.32-2.65,0-4v-2c2.2.61,3.61,2.8,6,3a3.4,3.4,0,0,1,.79,3.41A12.06,12.06,0,0,1,11,117a5.57,5.57,0,0,1-2,1.91,2.42,2.42,0,0,1-1.94-.07c-.36-1.89-1.53.42-2.1-.39C3.59,116.76,4.84,115.11,5,113.46Z"/><path class="cls-130" d="M5,134.38a3.31,3.31,0,0,0-3.82-.23C5,132,3,129.12,2,126.39c1.1,0,2.28-.17,3,1,1.06,1.72,2.75.43,4.08.85,2.75,1.78-.81,2.74-.55,4.2a1.86,1.86,0,0,1-.39,1.22A4.78,4.78,0,0,1,5,134.38Z"/><path class="cls-131" d="M8,132.36c-.33-1.49,2.33-2.24,1-4l.49-.38.49.38a2,2,0,0,0,1-2c1.5-.53,1.87.79,2.59,1.54.41.78,1,1.55.23,2.43-1.31,1.36-3.57.41-4.8,2A.61.61,0,0,1,8,132.36Z"/><path class="cls-132" d="M11,125.35a2,2,0,0,1,1-1.93c1-1,2-2,3.47-.7.91,2.1,1.2,4.11-.76,5.83C12.88,128.18,12.71,125.89,11,125.35Z"/><path class="cls-28" d="M14.91,122.4l-2.9,1c-.3-1.69-3.23.53-3-2a2.52,2.52,0,0,1,1-.81,21.32,21.32,0,0,1,3.24-.81,1.86,1.86,0,0,1,2.12,1.35A1.64,1.64,0,0,1,14.91,122.4Z"/><path class="cls-133" d="M10,121.41l-1,0c-1.11-.07-2.32.16-3-1s.23-1.54,1-2H9a2,2,0,0,1,1.56,1.86A1.67,1.67,0,0,1,10,121.41Z"/><path class="cls-131" d="M9,128.38c-1.55.5-3.46,2.49-4-1l3,0c.93-.24,1.33,0,1,1Z"/><path class="cls-134" d="M11,125.35c2.07-.15,3.11.74,2.92,2.87-.11.48-.36.57-.74.25-.73-.7-1.47-1.39-2.21-2.08Z"/><path class="cls-135" d="M7,118.43c-.34.66-.67,1.33-1,2l-1,0c-.34.4-.67.41-1,0a2,2,0,0,1,1-2C5.66,119.05,6.35,115.06,7,118.43Z"/><path class="cls-129" d="M4,120.41l1,0c-.64.76-.44,2.26-1.93,2.25-.18,0-.51-.45-.51-.69C2.58,121.09,3.3,120.74,4,120.41Z"/><path class="cls-136" d="M9,128.38l-1-1,.45-2.18A3.83,3.83,0,0,1,10,128.38Z"/><path class="cls-104" d="M148.84,6l2.06,0c.87.83,1.66,1.69,1.22,3A5.56,5.56,0,0,1,149,10.49a5.27,5.27,0,0,1-1.43,0c-1.39-.32-2.89-.38-3.94-1.56-.83-2.23,1.24-2.21,2.32-3h0A5,5,0,0,1,148.84,6Z"/><path class="cls-137" d="M156.93,9c1.43-2.31,3.74-2.06,6-2h0c.75,1.48.11,2.72-.64,4a2.4,2.4,0,0,1-1.29.51,7.81,7.81,0,0,1-4-1.18A1.1,1.1,0,0,1,156.93,9Z"/><path class="cls-138" d="M151.89,8.93l-1-3c2.26-.82,4-.36,5,2a3.27,3.27,0,0,1-2.84,1.58A2,2,0,0,1,151.89,8.93Z"/><path class="cls-139" d="M152.91,9l3-1,1,1c0,.33,0,.66,0,1a3,3,0,0,1-2.1,1.38,2.47,2.47,0,0,1-2.18-1.22A1,1,0,0,1,152.91,9Z"/><path class="cls-140" d="M148.84,6a2.52,2.52,0,0,1-2.92,0c1-.74-.4-3.09,2-2.94Z"/><path class="cls-141" d="M138.9,2c2.12-.39,4,.65,6,1-.58,1-2.15,1.45-2,3A2.09,2.09,0,0,1,141,7.55a2.87,2.87,0,0,1-1.29-.33,6.55,6.55,0,0,1-2.2-2.5C137,3.31,138,2.68,138.9,2Z"/><path class="cls-142" d="M140.88,7l2-1h3c-.63,1-2.16,1.43-2,3a1.58,1.58,0,0,1-1.24.32C141.69,8.79,140.44,8.53,140.88,7Z"/><path class="cls-143" d="M138.9,2l-1,3a.65.65,0,0,1-1,0l-1,0c0-.66,0-1.31,0-2Z"/><path class="cls-144" d="M13.2,128.47a1,1,0,0,0,.74-.25c1.53-1.74.78-3.86,1-5.82a1.09,1.09,0,0,0,.23-.79c.46-.85-.11-1.72,0-2.58a8.21,8.21,0,0,1,.26-1.31c.82-3,1.52-6.06,2.26-9.1a9.79,9.79,0,0,1,.58-1.91A15.83,15.83,0,0,1,19.2,105a16.46,16.46,0,0,0,1.14-3.63c.61-1.85,1.18-3.71,1.82-5.55.3-.8.6-1.6.88-2.41a28.75,28.75,0,0,1,1.26-3,23.59,23.59,0,0,1,1.25-2.32,37.4,37.4,0,0,0,3.65-6.54q.6-1.21,1.29-2.37c1.81-2.5,2.62-5.63,4.9-7.84,2.23-2.61,5.43-4.09,7.71-6.62a10.83,10.83,0,0,1,1-.89c3.23-2.71,6.8-5,10.05-7.65A10.16,10.16,0,0,1,56.56,54a33.43,33.43,0,0,0,4.92-2.93c1.06-.73,2.18-1.38,3.18-2.2,2.29-1.77,4.6-3.5,6.76-5.43a17.65,17.65,0,0,1,2.29-1.28c1-.47,1.92-.91,2.87-1.38,1.17-.56,2.3-1.17,3.44-1.78a19.79,19.79,0,0,0,5.66-3.53c.91-.6,1.95-.95,2.9-1.49,1.44-.94,3.22-1.11,4.63-2.12a9.23,9.23,0,0,1,1.69-1c2.26-.94,4.51-1.88,6.79-2.77,1-.45,2.06-.89,3.12-1.27a54.51,54.51,0,0,0,7-2.61,12.25,12.25,0,0,1,2-.55c1.31-.22,2.58-.67,3.91-.85a16.76,16.76,0,0,0,3.15-.64c1-.31,2-.61,3-1,.61-.23,1.22-.43,1.84-.61,2-.4,3.5-1.83,5.44-2.31,4-.68,8-1.48,11.93-2.27a9.69,9.69,0,0,1,1.5-.29c9.52-1,18.78.9,28.07,2.44a7.42,7.42,0,0,1,4.28,1.76.78.78,0,0,0,.75.12c1.69.52,3.4-.65,5.09,0A6.71,6.71,0,0,1,186,21.71l5.86,1c2.48-.73,4.52.74,6.74,1.3.84.33,1.66.72,2.49,1.08,1.61.71,3.31,1.2,5,1.75a36.89,36.89,0,0,1,5,1.93c.83.42,1.2,1.3,1.87,1.88a1.33,1.33,0,0,0,.92.28c1.4-.21,2.53.55,3.73,1a7.19,7.19,0,0,1,1.14.66c1.24.91,2.54,1.73,3.81,2.58,3.47,2.1,6.23,5.07,9.32,7.62,1.31,1.77,3.21,2.78,5,3.92a3.26,3.26,0,0,1,1.82.84,10.69,10.69,0,0,1,3.12,4.3l5,5.85c2.07.63,2.16,2.65,3,4.17a.88.88,0,0,0,.27.75c2.46,1.9,2.83,5,4.38,7.43.46.93.86,1.9,1.23,2.88s.82,1.78,1.06,2.73a14.66,14.66,0,0,0,2.12,8.9,5.92,5.92,0,0,1,1,1.09c1.53,3.43,2.06,7.14,3,10.72a26.15,26.15,0,0,0,1.76,7.86,10,10,0,0,1,.34,1.44,49.35,49.35,0,0,1-.28,10.09c0,1.57-.21,3.12-.32,4.68-.38,2,.58,3.8,1,5.68a4.93,4.93,0,0,1,0,1.33c-.21,1.09-.54,2.16-.84,3.23-.42,2.91-2.39,5.28-2.87,8.18a17.78,17.78,0,0,1-1,2.43c-.46,1-.78,2-1.15,3-1.08,2.12-1.72,4.42-2.69,6.58a10.76,10.76,0,0,1-.6,1.17c-1.46,2.45-3.18,4.75-4.11,7.49a11.2,11.2,0,0,1-2.37,3.87,13.2,13.2,0,0,0-1.92,3.23,8.29,8.29,0,0,1-.64,1.12c-.9,1.21-1.69,2.5-2.65,3.67-.71.81-1.48,1.55-2.23,2.32a10,10,0,0,0-2.79,4.76c-1.08,1.6-2.89,2.45-4.13,3.9a13.46,13.46,0,0,0-3.88,4c-1,1.1-2.09,2.12-3.13,3.2a29.93,29.93,0,0,1-3.4,3.06c-1.47,1-3,1.88-4.4,2.93-.51.43-1,.85-1.55,1.26-2.08,1.33-3.59,3.33-5.58,4.76s-4.55,2.44-6.75,3.8c-.69.45-1.47.74-2.16,1.19a15.33,15.33,0,0,1-1.54,1,25.06,25.06,0,0,0-3,2c-.36.24-.73.45-1.12.66-2.51,1.1-4.29,3.53-7.21,3.87-1.26.22-2.46.93-3.81.51-1.71.62-3.53,1-4.91,2.31l-.42.51c-1.89,1.26-4.14,1.42-6.23,2-.82.28-1.74-.19-2.53.34-1.35,0-2.76-.17-3.89.85-2.44,2.29-5.72,2.18-8.67,3-1.72.41-3.46.8-5.19,1.18-2.95.27-5.93.37-8.76,1.44-1.5.24-3-.22-4.48-.17-.75,0-1.51,0-2.27,0a29,29,0,0,0-6.95.84c-6.84.21-13.68.68-20.52-.07-1.21-.24-2.38-.71-3.62-.86a32,32,0,0,1-4.59-1.22,12.26,12.26,0,0,1-1.2-.44,26.16,26.16,0,0,1-4-1.78,9.06,9.06,0,0,0-2.32-.78,16.28,16.28,0,0,1-3.65-1.33c-3.89-2.2-8.25-3.35-12.14-5.53-.41-.18-.8-.4-1.19-.62a44.13,44.13,0,0,0-5.51-2.29,10.81,10.81,0,0,1-1.19-.57A10.51,10.51,0,0,1,70,208.94a11.36,11.36,0,0,0-7-3.08,2.31,2.31,0,0,1-1.61-.77c-.31-.29-.59-.58-.88-.88-1.32-1.34-3.31-1.92-4.28-3.67l-.06-.64c-.43-1.79-2.43-1.65-3.41-2.76a18.85,18.85,0,0,1-2.51-1.62,22.67,22.67,0,0,1-3.34-2.68c-2-1-2.75-3.1-3.94-4.8-1.09-1.24-1.16-3.26-3-3.91a4.88,4.88,0,0,1-2.84-2.41c0-.21-.07-.42-.1-.63a24.49,24.49,0,0,0-5.88-6.22c-2.08-1.93-2.06-5.34-4.84-6.78-1.53-.41-2.2-1.26-1.44-2.83-1.23-3.78-2.73-7.4-5.78-10.15a2.34,2.34,0,0,1-1.18-2.79l-.57-1.18c-2.13-1-2.49-2.8-2.13-4.9-1.7-5.18-1.32-10.55-1.38-15.88C13.61,129.73,13.41,129.1,13.2,128.47Z"/><path class="cls-145" d="M170.92,231.92c-3.14-.51-4.44.85-4,3.94-1.56.17-2-1.39-3-2-1.29-2.35.58-3.8,1.56-5.51.26-.63.53-1.25.8-1.87.72-1,.6-2.91,2.65-2.56-.35,3.15,3.93,4.58,3,7.95Z"/><path class="cls-146" d="M161.06,223l8.78-2.28-1,2.23c-2,.47-1.27,3.16-3.13,3.72a3.64,3.64,0,0,1-4.05-1.78A3.17,3.17,0,0,1,161.06,223Z"/><path class="cls-147" d="M182.87,223c.62,1,2.19,1.38,2,2.93l-3,1c-1.36-.11-2.38-.59-2.47-2.15C180,223,181.16,222.48,182.87,223Z"/><path class="cls-148" d="M177.91,227c-1.19-.29-2.84.57-3.52-.91-.51-1.09.65-1.65,1.49-2.14a1.45,1.45,0,0,1,1.27-.39,3,3,0,0,1,2.16,1.68C179.39,226.23,179.37,227.17,177.91,227Z"/><path class="cls-149" d="M173.73,219.88a1.87,1.87,0,0,1,1.91-1.07c1.48-.35,3.07-1,3.75,1.18a3.31,3.31,0,0,1-1.47,2.47,1.84,1.84,0,0,1-2,.49A3.2,3.2,0,0,0,173.73,219.88Z"/><path class="cls-150" d="M177.91,227a2.2,2.2,0,0,0,1-2.05.6.6,0,0,1,.94,0l2,2C180.59,228.27,179.28,229.48,177.91,227Z"/><path class="cls-151" d="M165.8,225.9c.75-1.27.77-3.3,3.08-2.94,0,.33,0,.65,0,1l-2,3C166,227.17,165.65,226.78,165.8,225.9Z"/><path class="cls-152" d="M176,223l.94-1c.68-.18,1.2,0,1.29.74.1.88-.24,1.44-1.26,1.24h-1C175.9,223.6,175.92,223.27,176,223Z"/><path class="cls-153" d="M15.19,146.24l2.13,4.9c-4.68,1.27-3.09-3-4.34-4.83Z"/><path class="cls-154" d="M5,134.38c.72-1.18,1.91-1,3-1,1.06-.38,1.24.1,1,1,0,.33,0,.66,0,1-1,1.31-3.22.15-4,2C5,136.33,5,135.36,5,134.38Z"/><path class="cls-155" d="M10,139.34a1.44,1.44,0,0,1-2.45-.88c-.06-1.58,1.55-.93,2.51-1.12Z"/><path class="cls-129" d="M9,134.36l-1-1c0-.33,0-.67,0-1l1,0a4.19,4.19,0,0,1,3.09,1.45C11.21,134.84,10,134.12,9,134.36Z"/><path class="cls-156" d="M153.91,234.88h-1c-1.13.86-1.93.32-2.66-.6-.79-1.83-1.41-3.61,1.39-4.28a3.81,3.81,0,0,1,2.27.46c1,.95,1.65,2,1,3.42Z"/><path class="cls-151" d="M166.9,228.91c-1.4,1.41-3,2.73-3,5a5.5,5.5,0,0,1-2-4c.09-.21.17-.41.25-.62C163.61,227.53,165.1,226.25,166.9,228.91Z"/><path class="cls-48" d="M154.91,233.88l-1-3a2.13,2.13,0,0,1,2.69-1.5c.72.26,1,.93,1.3,1.5C158.12,233.11,157.11,234.09,154.91,233.88Z"/><path class="cls-157" d="M157.9,230.9l-1-1c-.8-1.15-3.7-1.93-.65-3.75,1.43-.2,2.62.1,3.25,1.56a2.33,2.33,0,0,1-.58,2.21Z"/><path class="cls-158" d="M158.91,229.91v-2c.49-1,1.18-1.53,2.34-1.1,1,.87,1.67,1.82.65,3.11h0C160.92,228.93,159.91,232.66,158.91,229.91Z"/><path class="cls-159" d="M260.47,139.14c.18-3.34,2.58-5.88,3.25-9a1.73,1.73,0,0,1,.79.77c.3.66.5,1.37.84,2a3.05,3.05,0,0,1,.49,1.55c-.2.61-.2,1.52-.62,1.78-3.13,1.93-1.24,3,.62,4.12a4.29,4.29,0,0,1-3.39,2.28C260.69,142.08,261,140.38,260.47,139.14Z"/><path class="cls-112" d="M270.84,143.31c0,.34,0,.68,0,1-1.31.43-3.45-2.46-4,1a1.82,1.82,0,0,1-2,.26,2.18,2.18,0,0,1-.47-1.28,4.93,4.93,0,0,1,2.47-4C268.77,138.85,269.42,139.33,270.84,143.31Z"/><path class="cls-160" d="M273.83,134.46l-1-.09c-1-.67-2.25-.13-3.18-.9a2.48,2.48,0,0,1-.17-1.37c.79-1.83,1.79-3.45,3.9-4C274.2,130.17,276.84,132.1,273.83,134.46Z"/><path class="cls-161" d="M273.83,134.46c1.36-2.3.42-4.22-1-6.07l-.25-.55.32-.51c2.09,0,1.62,2.29,2.82,3.07.07,1.7.13,3.39.2,5.09Z"/><path class="cls-162" d="M266.84,140.32l-2,4a3.65,3.65,0,0,1-2-2,3,3,0,0,1,3-2Z"/><path class="cls-163" d="M269.92,133.27c1,.17,2.26-.15,2.88,1.1-1.33,2.36-2.63-.2-3.94,0a.83.83,0,0,1-.29-.76c0-.27.1-.41.16-.41A1,1,0,0,1,269.92,133.27Z"/><path class="cls-164" d="M268.8,133.36l.06,1a2.65,2.65,0,0,1-3,.06l-1-1a2.61,2.61,0,0,1,3.93,0Z"/><path class="cls-165" d="M47.8,192.16c.93,1.13,2.61,1.65,2.81,3.39.13,1.23-.77,1.36-1.64,1.5l-2,1c-3,.48-4.09-3.29-7-3,0-1.41,1.4-3.16-1-4-.46.11-1.19.48-1.34.31-1-1.1.26-1.59.8-2.2a1.16,1.16,0,0,1,2,.07c.73,1,1.16,2.33,2.51,2.81C44.56,193.21,46.19,191.87,47.8,192.16Z"/><path class="cls-21" d="M47.8,192.16c-1.64,2.05-3.27,2.82-4.83-.08,1.81-1.34-.38-2.69,0-4Z"/><path class="cls-166" d="M34,185.08c-1.86.52-1.05-1.59-2-2,0-1.77.86-1.63,2-1l3-1h0a2.3,2.3,0,0,1,0,3C36.87,187.21,34.28,182.55,34,185.08Z"/><path class="cls-3" d="M37,184.12v-3c1.42.59,2.11,1.89,2.94,3A2.57,2.57,0,0,1,37,184.12Z"/><path class="cls-18" d="M251.07,159.24a22.79,22.79,0,0,1,4.66-8.06c2.32.53,1.51,2.67,2.11,4.08,0,.67,0,1.33,0,2-.85.89-2.62.15-3.1,1.72C253.59,160,252.38,160.41,251.07,159.24Z"/><path class="cls-46" d="M254.87,158.23c.23-.7-2.6-2.91,1-1.95a11.05,11.05,0,0,1,2,1l1,1a1.34,1.34,0,0,1,0,2h0c-.83.84-1.69,1.64-3,1.2A3.52,3.52,0,0,1,254.87,158.23Z"/><path class="cls-167" d="M264.84,148.28a3.43,3.43,0,0,1,2,2c-1,1.61-2.1,2.94-4,1a2.07,2.07,0,0,1-.64-2.31C262.77,147.55,263.84,148.05,264.84,148.28Z"/><path class="cls-168" d="M262.87,148.3c0,1,0,2,0,3a2.76,2.76,0,0,1-3,0l-.4-.48a3.83,3.83,0,0,1,.6-3,3,3,0,0,1,.89-.91,2.39,2.39,0,0,1,1.27-.1C262.79,147.14,263.23,147.53,262.87,148.3Z"/><path class="cls-169" d="M257.84,155.26l-2.11-4.08,0,0c.89-.8,2-.46,3-.48a1.82,1.82,0,0,1,1.1.49v.11C260,153.05,258.39,153.89,257.84,155.26Z"/><path class="cls-170" d="M258.87,160.23l0-2h3C261.93,161.06,261.71,161.21,258.87,160.23Z"/><path class="cls-171" d="M190.93,213.11c3.41.18,4.8-3.69,8-4,1.1.65,2.72.94,2,2.86a8.22,8.22,0,0,1-1,5h-4a8.68,8.68,0,0,1-3.76-.18C190.2,216.05,190.28,214.67,190.93,213.11Z"/><path class="cls-172" d="M189.89,225.92c-2.86.45-2.31-1.34-2-3a12.36,12.36,0,0,1,2.93-4.48c1-.63,2.06-1.24,3.29-.48a1.61,1.61,0,0,1-.19,2C192.21,221.68,189.3,222.63,189.89,225.92Z"/><path class="cls-173" d="M193.93,219.94c0-.67,0-1.34,0-2-.7-.62-2.52-.1-2-2,1.37.13,2.94-.51,4,1C195.89,218.38,196,219.83,193.93,219.94Z"/><path class="cls-174" d="M17.89,152.32l1.18,2.79c0,.72-.07,1.43-.11,2.15-.37.3-.38,1-1,1l-1-.05C15,155.91,17,154.2,17.89,152.32Z"/><path class="cls-175" d="M24.85,165.26l1.44,2.83-2.35,1.18c-1.47-.63-1.77-1.67-1.07-3.05Z"/><path class="cls-176" d="M18,158.27l1-1c.57,1.41,1.13,2.82,1.95,4.86A4,4,0,0,1,18,158.27Z"/><path class="cls-177" d="M133.92,225.84c2.27-1,4.67-.8,7.05-.77,2.18,1.13,3.68,2.52,2,5.14a3.28,3.28,0,0,1-3.14.27c-1.35.17-2.71.41-3.89-.58l-3,0c-1-1-.55-2.05.1-3C133.33,226.51,133.63,226.18,133.92,225.84Z"/><path class="cls-46" d="M139.9,229.89h3a1.59,1.59,0,0,1,1.64-.52,2.34,2.34,0,0,1,1,.73,4.13,4.13,0,0,1,.77,2.89,3,3,0,0,1-1.41,1.91c-1.33,1-2.64,0-4,0-.33-1.32-.66-2.63-1-4-.34-.22-.46-.44-.35-.67S139.79,229.89,139.9,229.89Z"/><path class="cls-178" d="M131.92,232.88c1.12,1.18,2.73,2.42,2.44,4s-2.24.71-3.45,1c-.79.41-1.08-.1-1.33-.71,0-1.06-.41-2.09-.13-3.16a2.84,2.84,0,0,1,1.3-1.41A1.09,1.09,0,0,1,131.92,232.88Z"/><path class="cls-31" d="M131.92,232.88h-1a4.48,4.48,0,0,1-1.51-3,3.15,3.15,0,0,1,.29-1.39c1.12-1.3,2.25-2.56,4.22-1.54l-1,3Z"/><path class="cls-179" d="M139.9,229.89c0,.34,0,.68,0,1-1.82,1.6-3.24,1.65-4-1Z"/><path class="cls-180" d="M129.93,236.86l1,1c0,.32,0,.65,0,1a2.13,2.13,0,0,1-1,2,2,2,0,0,0-2-1c0-.33,0-.66,0-1a2.8,2.8,0,0,1,.88-2.2A1,1,0,0,1,129.93,236.86Z"/><path class="cls-181" d="M144.88,234.9a2.14,2.14,0,0,1,1-2,3.41,3.41,0,0,1,3.31,1,1.72,1.72,0,0,1-.32,2l-3,0Z"/><path class="cls-182" d="M190.89,219c-.08,2-1.4,3.1-3,4-.76-1.19-2.44,1.09-2.12,0,.5-1.65-.92-4.39,2.08-5,.86.44,1.44-.66,2.27-.4C190.76,217.8,191.24,218.15,190.89,219Z"/><path class="cls-183" d="M190.89,219l-1-1c-.94-.39-1.4-1.25-2-2l-.07-1.31,3.11-1.56c.32,1,.65,1.91,1,2.87l2,2Z"/><path class="cls-184" d="M176.92,223.93c1-.67,1-1.33,0-2a2,2,0,0,1,2-1,1.09,1.09,0,0,1,1.05-.42,3.59,3.59,0,0,1,1.94,1.41l1,1-3,2h-.94A2.06,2.06,0,0,1,176.92,223.93Z"/><path class="cls-185" d="M181.88,221.93a2.12,2.12,0,0,1-2-1c-.61-2.56,2-2.65,3.05-3.95h0C186.25,219.39,182.39,220.31,181.88,221.93Z"/><path class="cls-186" d="M187.89,216a3.29,3.29,0,0,1,2,2c-.66-.53-1.38,3.27-2,0Z"/><path class="cls-172" d="M238.75,190.08c-2.51.52-4.89,1.24-5.89,4a1.3,1.3,0,0,1-1.26.32,5.29,5.29,0,0,1-3-2.75,1.75,1.75,0,0,1,.54-1.23c3.21-.92,4.75-5,8.7-4.54C237.54,187.39,240.21,188.29,238.75,190.08Z"/><path class="cls-187" d="M231.89,194.06h1a3.42,3.42,0,0,0,2,2c-.33,1-.66,2-1,3-1.76.63-2.51-.69-3.41-1.75A4.4,4.4,0,0,1,230,196a3,3,0,0,1,.61-2A.89.89,0,0,1,231.89,194.06Z"/><path class="cls-188" d="M242.86,186.1c2.88.7,2.69,2.16,1,4-1.09,0-2.28.17-3-1C240.25,187.25,241.43,186.59,242.86,186.1Z"/><path class="cls-189" d="M242.86,186.1l-2,3-.94,0a2.78,2.78,0,0,1-.68-2.69,4.25,4.25,0,0,1,2.5-2.51c.83,0,1.39.26,1.12,1.25C242.85,185.44,242.85,185.77,242.86,186.1Z"/><path class="cls-190" d="M239.78,186.11c0,1,.08,2,.13,2.95l-1.15,1c.47-1.49-2.3-2.25-.92-4-.41-.8.1-1.08.74-1.28A1.47,1.47,0,0,1,239.78,186.11Z"/><path class="cls-86" d="M242.85,192.07c0,.94-.07,1.88-.11,2.82-1.17-.43-2-1.23-1.75-2.49S242.18,192,242.85,192.07Z"/><path class="cls-191" d="M49,197.05l1.64-1.5a1.79,1.79,0,0,1,2.15,1.59C51.48,197.71,50.19,198.79,49,197.05Z"/><path class="cls-191" d="M54,202.06H52c.58-2.31,2.22-2.57,4.2-2.15h0a2.15,2.15,0,0,1-1,2.41A1.12,1.12,0,0,1,54,202.06Z"/><path class="cls-192" d="M27,177.15c.85-.84.83-4.31,3-1C29.27,177.31,28.1,177.14,27,177.15Z"/><path class="cls-193" d="M34,182.13a2.12,2.12,0,0,0-2,1l-1.88-.22a1.63,1.63,0,0,1,.94-1.72,1.34,1.34,0,0,1,2,0Z"/><path class="cls-194" d="M33,181.11l-2,0c.21-.76-.58-2.11.74-2.17C32.86,178.93,32.88,180.22,33,181.11Z"/><path class="cls-195" d="M259.84,165.21v1l-2,0c-1.68,1.49-3.71,1.5-5.77,1.32a3,3,0,0,1-1.52-3.13c.87-1.16,2.06-.78,3.2-.68a10.47,10.47,0,0,0,2.61-.31,2.57,2.57,0,0,1,2.46.76Z"/><path class="cls-196" d="M258.83,164.19h-3a8.6,8.6,0,0,1,0-2.95l3-1C258.87,161.56,259.83,162.88,258.83,164.19Z"/><path class="cls-197" d="M70,208.94c1.52.29,3.06.55,4,2,.09,2.58-2.35,2.41-3.72,3.41A1.43,1.43,0,0,1,69,214l-1-1c-.27-.2-.36-.41-.29-.63s.15-.33.23-.33C68.57,210.94,70.14,210.51,70,208.94Z"/><path class="cls-198" d="M62.05,204.89l1,1c.7,2.71-2.91,2.87-3,5.09A2.09,2.09,0,0,1,59,209C58.58,206.58,60.1,205.57,62.05,204.89Z"/><path class="cls-199" d="M67.94,212l.06,1a2.25,2.25,0,0,1-1,2l-2-2C65.69,211.81,66.86,212,67.94,212Z"/><path class="cls-182" d="M242.85,185.11l-1-1c-2.16-1.09-2.9-2.64-1.6-4.85a17.51,17.51,0,0,0,1.47-2.06c.66-1.1.28-2.61,1.42-3.51a3,3,0,0,1,2.6,0,9.93,9.93,0,0,1,2.69,2.79c.62.82.7,1.92,1.45,2.68h1v3c-1.44,1.22-3.65.52-5,2Z"/><path class="cls-49" d="M245.86,184.12c.79-2.81,2.79-2.66,5-2a3,3,0,0,1-2,3Z"/><path class="cls-200" d="M262.87,148.3l-1-1c-.05-2.22,1.27-2.39,3-2l2,0c-.6,1-2.14,1.43-2,3C264.2,149.39,263.53,148.38,262.87,148.3Z"/><path class="cls-201" d="M101.93,229.89c0,1.1.19,2.28-1,3a7.64,7.64,0,0,1-4-5c-1.78-1.09-2.06-2.4-.58-3.95,1.19-.58,2.48-.26,3.71-.42,1.25.85,2.62.19,3.92.31h0C109.25,227.85,103.3,228.11,101.93,229.89Z"/><path class="cls-202" d="M94.13,219.79l3.73,1.31c.34,1.45-.89,1.67-1.74,2.19-.93.24-1.91-.12-2.83.24-.84,1-.2,2.54-1.35,3.38l-2,1a6.78,6.78,0,0,0-4-1,2,2,0,0,1,1-2c1.21-.92,0-1.37-.4-2a2.91,2.91,0,0,1-.12-1.24,2.55,2.55,0,0,1,1.23-1.48C89.74,219.12,92,219.7,94.13,219.79Z"/><path class="cls-158" d="M92.94,221.94l3,1a1.84,1.84,0,0,1,1,1,3.26,3.26,0,0,0,0,4c-1.33-.36-2.68,1.8-4,0C93.35,225.9,91.46,223.92,92.94,221.94Z"/><path class="cls-203" d="M92.94,221.94c-.36,2,1.65,4,0,5.94l-1-1C93.06,225.41,89.21,222.92,92.94,221.94Z"/><path class="cls-16" d="M101.93,229.89a2.21,2.21,0,0,1,1.52-2.19c2.94-.93,1.24-2.45.52-3.86l5,1.27a3.82,3.82,0,0,1,1.29,3.26,5.54,5.54,0,0,1-.3.53c-1.19,1.83-3.59.66-5,2Z"/><path class="cls-204" d="M117.89,237.86l-4-1,1-1a4.91,4.91,0,0,1,2.82-1.48,3.91,3.91,0,0,1,1.32,0,3.7,3.7,0,0,1,2.14,1.51c.29,1.29-.47,2.11-1.28,2.92Z"/><path class="cls-205" d="M113.93,232.88c-1.63-1-4.53-.79-4-4h0c2.33-1.27,3.53.84,5.14,1.71a2.11,2.11,0,0,1,.16,2.13A.86.86,0,0,1,113.93,232.88Z"/><path class="cls-65" d="M114.94,232.88v-2c-.18-1.1.43-1.3,1.33-1.17,2,1.26,3.28,2.74,1.67,5.15-.72,1.17-1.9,1-3,1v-1A3.18,3.18,0,0,0,114.94,232.88Z"/><path class="cls-206" d="M114.94,232.88c.52.26,1.41.43,1.48.79.23,1.07-.76,1.06-1.49,1.21a2,2,0,0,1-1-2Z"/><path class="cls-207" d="M62.05,204.89,59,209c-4.5,1.3-1.79-2.81-3-4a2.83,2.83,0,0,1,1.75-1,10,10,0,0,1,4,.14A1.66,1.66,0,0,1,62.05,204.89Z"/><path class="cls-20" d="M58,205l-2,0-2-3,1-.05C57.16,201.84,58.92,202.08,58,205Z"/><path class="cls-48" d="M208.87,209l-1-2a1.67,1.67,0,0,1-.49-1.24c.94-2.21,3.53-1.94,5-3.3,1-.6,2-1.16,2.94.12a3.67,3.67,0,0,1,.28,1.79c.37,1.32,1.83.57,2.5,1.29s1.32,1.34.77,2.39c-1,.66-2,1.31-3,2a1.51,1.51,0,0,1-.36-1.68c-.2.56-.11,1.24-.65,1.67C213.32,207,210.81,209.68,208.87,209Z"/><path class="cls-208" d="M214.87,210l.51-1.31c.17.44.34.88.5,1.32.55,1.11.69,2-1,2C214.87,211.34,214.87,210.68,214.87,210Z"/><path class="cls-209" d="M230.86,196.06v1c.48,1.42,2.53,2.06,2,4v2c-1.54.14-1.18-2.56-3-2a2.44,2.44,0,0,1-2.72-.82,4.19,4.19,0,0,1-.92-4.33C227.85,193.71,229.36,195,230.86,196.06Z"/><path class="cls-210" d="M232.86,201c-.56-1.38-2.16-2.24-2-4l3,2A2,2,0,0,1,232.86,201Z"/><path class="cls-211" d="M218.9,208.06l-1-2.05a4.17,4.17,0,0,1,1.86-1.59,7.15,7.15,0,0,1,2.42-.86,2.41,2.41,0,0,1,1.24.41c.72.9,1.34,1.82.51,3a2.14,2.14,0,0,0-2,1C220.92,209.58,219.9,208.31,218.9,208.06Z"/><path class="cls-212" d="M227.87,200l2,1c-.33,1-.67,2-1,3l-2,0c-.82-1-2.12,0-3-.73-.61-1.31.43-1.94,1.12-2.71A2.66,2.66,0,0,1,227.87,200Z"/><path class="cls-213" d="M223.89,203.05c1.08,0,2.24-.22,2.94.95-2.14-.15-1.63,2.3-2.93,3l-1-2.92A1.16,1.16,0,0,1,223.89,203.05Z"/><path class="cls-214" d="M257.88,169.18l1,2-3,.94c-1.08-.11-2.06.66-3.17.34a2.73,2.73,0,0,1-1.32-1.44,2.5,2.5,0,0,1,.72-2.47C255.49,166.29,256.33,166.38,257.88,169.18Z"/><path class="cls-215" d="M249.88,179.13a1.81,1.81,0,0,1-2-2,3.26,3.26,0,0,1,1.82-1.82c1-.3,2.06-.88,3.16-.15.73,1.15,1.91,1,3,1,0,.67,0,1.33,0,2C253.77,178,251.36,175.79,249.88,179.13Z"/><path class="cls-216" d="M252.84,175.17l-3,1c-1.2-3,1.08-3.32,3-4,1-.31,2-1.58,3-.05Z"/><path class="cls-217" d="M69.94,214c.53-2.12,3.1-1.55,4.06-3.09a6.08,6.08,0,0,1,.92.28c1.06,1.41,1.82,2.88,1.06,4.69L74,217c-1.26.22-2.14-1.65-3.55-.64C69.5,215.69,69.17,215,69.94,214Z"/><path class="cls-218" d="M76,215.87a7.5,7.5,0,0,1-1.06-4.69c2.12.7,4.37,1.13,6.09,2.71-.36,1.72-1.94,2.17-3.15,3Z"/><path class="cls-219" d="M80,222.93h-1l-1-1c.1-1.07-.14-2.26,1-2.95,1-.88,1.4-2.56,3.18-2.46a1.87,1.87,0,0,1,1.4,2.19C83,220.63,82.15,222.37,80,222.93Z"/><path class="cls-220" d="M82,217c-1.11.54-1.53,2.13-3.08,2a2.06,2.06,0,0,0-1.09-2.07c.12-2,1.91-2.21,3.15-3h0C81.88,214.75,83.14,215.48,82,217Z"/><path class="cls-86" d="M70.93,216c1.49-1.11,2.12.39,3,1a2.78,2.78,0,0,1-2.91,3c0-.34-.07-.67-.11-1A2.19,2.19,0,0,1,70.93,216Z"/><path class="cls-221" d="M200.88,212l-2-2.86a.74.74,0,0,1,.66-.29,4.37,4.37,0,0,1,1.28-.27,12.66,12.66,0,0,1,3.88.84,2.1,2.1,0,0,1,1.14,1.58l-1.95,2C203.2,211.83,202,212,200.88,212Z"/><path class="cls-222" d="M205.88,211l-1-1c-1.65-1-2.18-2.26-1-4l2-1c1.14-.65,1.47.32,2,1,0,.33,0,.66,0,1-1.19.16-3.47-.55-1.58,2A1.24,1.24,0,0,1,205.88,211Z"/><path class="cls-223" d="M273.74,126.33l-.84,1-.22.21a2.66,2.66,0,0,1-2.71.39c-1.36-.89-3-1.36-4.27-2.4-.34-1.53.57-2.18,1.84-2.57,2.14.23,4.25-.55,6.4-.17C276,124.09,274.74,125.2,273.74,126.33Z"/><path class="cls-224" d="M273.74,126.33c-.29-1,1.29-1.91.1-2.92a1,1,0,0,1-.28-1.17c.57-.77,1.23-1.28,2.25-.83l1.05,3C276.58,126.28,275.82,127.37,273.74,126.33Z"/><path class="cls-225" d="M257.88,169.18c-1.67-2.87-3.37-1.45-5.07,0-.42-.32-1-.43-1.26-1a1.09,1.09,0,0,1,.33-1c1.85-1.18,3.92-1,6-1C258.12,167.21,259.42,168.18,257.88,169.18Z"/><path class="cls-226" d="M148.9,235.86v-2c-.17-.52,0-1,.51-1.07.74-.09,1.1.57,1.5,1.08a2.09,2.09,0,0,0,2,1v1c-.69.64-.82,1.84-2,2Z"/><path class="cls-227" d="M150.89,237.87a3.39,3.39,0,0,1,2-2c.34,1.66.84,3.42-2,3C150.91,238.52,150.91,238.19,150.89,237.87Z"/><path class="cls-228" d="M119.93,238.86l1-3c.94-1.62,1.74-3.41,4.14-3.1a2.59,2.59,0,0,1,.5,2,5.27,5.27,0,0,1-1.65,3.06Z"/><path class="cls-12" d="M123.91,237.84c.06-1.09-.16-2.26,1-3,1.79.25,3.11.82,2,3h-1Z"/><path class="cls-229" d="M70.93,216c0,1,0,2,0,3-2.32-1-2-3-2-4.95q.48,0,1,0A2.09,2.09,0,0,0,70.93,216Z"/><path class="cls-230" d="M126.9,237.85c.2-1.58-1.41-1.95-2-3,0-.65,0-1.3,0-1.95-.45-1.2.21-1.92,1.11-2.54a3.21,3.21,0,0,1,2.91.14,2.57,2.57,0,0,1,.69,2.59c-.83,1.13-.21,2.54-.69,3.73a2.12,2.12,0,0,1-1,2Z"/><path class="cls-231" d="M86.94,222c0,.32,0,.64,0,1a1.73,1.73,0,0,1-1,1c-1.73-1.26-2.46,1.39-4,1,0-.33,0-.65,0-1C82.4,220.6,83.06,220.34,86.94,222Z"/><path class="cls-21" d="M85.92,223.88l1-1c.89.61,2.66.74,2.45,1.9s-1.59-.14-2.45.1Z"/><path class="cls-232" d="M86.94,222c-1.77.39-4.34-1.2-5,2a2,2,0,0,1-2-1l3-4c2.05-.32,4.81-2.35,4.94,2Z"/><path class="cls-75" d="M89,35c-.65,1.3-1.9.76-2.92,1-1.29.82-2.48.94-3.46-.49-.55-2,1.38-1.84,2.3-2.56l-2-4c.25-2.11,1.32-3.39,3.55-3.52a2.58,2.58,0,0,1,1.65,1.19,4.48,4.48,0,0,1,.09,2.59,5.27,5.27,0,0,0,.55,3.5A2.32,2.32,0,0,1,89,35Z"/><path class="cls-233" d="M80,39.83l-3,1.88c-.88-.09-1.1-1.63-2.3-1a32.19,32.19,0,0,0-4.2,1.37,1.38,1.38,0,0,1-1.05-.77c-.63-2.17.54-3.56,2.09-4.79,1-.79,2.62-.48,3.48-1.67h2l.6.24a8.11,8.11,0,0,1,1.93,1.72C80,37.74,80.69,38.68,80,39.83Z"/><path class="cls-88" d="M86.94,25.87c-1.92.21-2.72,1.92-4,3-1.59-1-.24-2,0-3-.28-2.13-.52-4.24,2.59-4.4,1.48.49,3,.89,2.94,2.94A1.92,1.92,0,0,1,86.94,25.87Z"/><path class="cls-234" d="M65,32.84l1-3c1.5-.53,1.82.94,2.65,1.54,1.37.71,3.19.07,4.32,1.47v2a1.92,1.92,0,0,1-1,1.43c-.63.47-1.2,1.13-2.14.8a5.2,5.2,0,0,1-.9-.79A8.11,8.11,0,0,0,66,34.34C65.44,34,65.34,33.32,65,32.84Z"/><path class="cls-235" d="M76,29.86c1.76.43,4.34-1.21,5,2-.49,1.47-.94,3-2.76,3.38A1.36,1.36,0,0,1,77,34.86l0,0v-3C76.4,31.29,75.33,31,76,29.86Z"/><path class="cls-236" d="M86,21.89c-2.56.15-1.89,2.72-3,3.95l-1-.94c-1.3-2.89,1.48-4.62,2-7l1,0,2,.05c.55,1.27-1.69,1.64-1,3,.24.23.32.45.23.67S86,21.89,86,21.89Z"/><path class="cls-227" d="M73,32.84c-1.71-.23-3.65.68-5-1.05-.26-1,.15-1.21,1-.94C71,30,72.53,30.38,73,32.84Z"/><path class="cls-237" d="M84,17.91c.41,2.63-1.89,4.5-2,7l-1,0C80.43,21.91,81.6,19.66,84,17.91Z"/><path class="cls-238" d="M78,34.84l3-3,1,1c.54.71-.75,1.76.44,2.35.1,2.14-1,2-2.5,1.38C79.23,36,78.37,35.68,78,34.84Z"/><path class="cls-239" d="M71.93,35.8c.34-.33.68-.66,1-1h2c-.08,2-1.53,2-3,2-.31-.23-.41-.46-.32-.7S71.83,35.8,71.93,35.8Z"/><path class="cls-240" d="M69,30.85l-1,.94c-.64-.66-1.28-1.31-1.93-2,0-.31,0-.63,0-.94a1.33,1.33,0,0,1,2,0h1Z"/><path class="cls-241" d="M82,34.87c-1.16-.66-.13-1.35,0-2l3,0L83,34.8C82.65,35.3,82.33,35.32,82,34.87Z"/><path class="cls-242" d="M76,29.86l1,2c-.87-.1-2.07.3-2.44-.76S75.26,30.05,76,29.86Z"/><path class="cls-86" d="M128.93,12.92c-.05-2.44-.11-4.86,3.56-4.24,1.52.26,2.19-1.34,3.44-1.72l.54.38c.65.94,1.2,1.9.36,3-1.39.93-1.58,2.53-2.19,3.9a2.2,2.2,0,0,1-2.2,1.2,3,3,0,0,1-1.15-.54C130.52,14.24,129.5,13.84,128.93,12.92Z"/><path class="cls-158" d="M122.94,11c2.24-.81,4-.36,5,2,.22,1.05.68,2.07.3,3.18a3.33,3.33,0,0,1-1.46,1.44,5.19,5.19,0,0,1-1.41.34,3.58,3.58,0,0,1-2.73-.86,3.55,3.55,0,0,1-.55-2.72C122.86,13.32,123.64,12.33,122.94,11Z"/><path class="cls-243" d="M127.93,15.91c-.3-1-1.59-2,0-3h1c1.1.06,2.3-.16,3,1.05C131,15.39,130,16.7,127.93,15.91Z"/><path class="cls-244" d="M136.92,5l1,0A1.92,1.92,0,0,1,140,7a.88.88,0,0,1-.14,1.25C138.12,9.05,137,8,135.92,7h0Z"/><path class="cls-245" d="M122.94,11c1.37,1,1.4,2,0,3-1.62.3-2.27-.37-2-2l1-1Z"/><path class="cls-246" d="M111.93,16.92h1c.75,1.64.33,3.37.42,5.07a3.27,3.27,0,0,1-1.54,2.18,2.51,2.51,0,0,1-2.56-1.94c.4-2.68-1.7-3.69-3.37-5-.65-1.19-.13-2.2.47-3.21a3.58,3.58,0,0,1,1.06-.84,12,12,0,0,1,1.28-.43,2.7,2.7,0,0,1,2.5.21C112,14.18,110.3,15.85,111.93,16.92Z"/><path class="cls-247" d="M120.93,11.94a3.34,3.34,0,0,0,2,2c0,1,0,2,0,3a3.67,3.67,0,0,1-3,1.2c-1.32-.25-3-.06-2.94-2.14C118.45,14.79,118,11.73,120.93,11.94Z"/><path class="cls-248" d="M112.93,21.88a4.05,4.05,0,0,1,0-5c.66-.09,1.33-1.11,2,0a4.57,4.57,0,0,1,1.26,3.17,6.84,6.84,0,0,1,.08,2.74,2.69,2.69,0,0,1-2.23,1.34A2.38,2.38,0,0,1,112.93,21.88Z"/><path class="cls-243" d="M111,13l-2,1c-.68-1.88-1.34-3.74,2-3l2-1c2.83-.25,2.82-.26,1.49,1.26-.51.58-1,1.19-1.49,1.78A1.38,1.38,0,0,1,111,13Z"/><path class="cls-249" d="M114.94,20.94v-4l2-1c.7,1.16,1.86,1,2.94,1,.07,2.53-2.43,2.86-3.68,4.26A1.26,1.26,0,0,1,114.94,20.94Z"/><path class="cls-250" d="M111,13h2a6.5,6.5,0,0,0-1,4C108.44,16.37,111.42,14.25,111,13Z"/><path class="cls-251" d="M55,56.73c-3.58,2.77-6.69,6.16-10.94,8a3,3,0,0,1-1.1-2.57c0-1.74,1.06-3,1.8-4.45a8.68,8.68,0,0,1,.63-1.16A10,10,0,0,1,48,53.74v-1a4.86,4.86,0,0,1,4.06-4,38.6,38.6,0,0,1,5.26-.33c.51,0,1-.06,1.52-.07,2.19.12,4.42.22,3.19,3.46-1.59,1.13-2.83,2.85-5.06,2.86-1-.62-2.31.33-3.56-1.53C54,55,55.15,55.55,55,56.73Z"/><path class="cls-104" d="M52,49.76c-1.71.51-2.82,1.83-4,3,1.14-2.25-4.55-3.34-1-6a4.69,4.69,0,0,1,2.93-1.44,2.56,2.56,0,0,1,1.31.28,4.63,4.63,0,0,1,1.38,2.31A2,2,0,0,1,52,49.76Z"/><path class="cls-252" d="M48,53.74a3,3,0,0,1-2,3c-2,.79-2.83-1.23-4.28-1.78a2.59,2.59,0,0,1-1.09-3.13c.65-.7,1.25-1.52,2.42-1.06Z"/><path class="cls-253" d="M50,45.78c-.74,1.18-1.92,1-3,1l-1-3a2.09,2.09,0,0,1,2-1C50.22,42.75,50.39,44.07,50,45.78Z"/><path class="cls-254" d="M41,51.78l1,3c.24.23.31.44.21.64s-.18.3-.27.3c-4.64.53-2.9-2.74-3-4.94h1C40.33,51.06,40.92,51.15,41,51.78Z"/><path class="cls-74" d="M41,51.78l-1-1c1.72-.37-.35-2.81,1.43-2.85S42,50,43,50.76Z"/><path class="cls-255" d="M18.89,108.53l-2.85,10c-1.32-2.53-3.91-4.75-2-8.09a8.47,8.47,0,0,0-1-7l.42-.48a10.24,10.24,0,0,1,3-1l.64-.07a2.06,2.06,0,0,1,1.15.44,2.16,2.16,0,0,1,.3,1.16c-.13,1-1,1.65-1,2.64A3.43,3.43,0,0,0,18.89,108.53Z"/><path class="cls-256" d="M14,110.47c-.3,3,2.85,5,2,8.09a1,1,0,0,1-.14.84c-.84.8-1.53.55-2.13-.3.51-1.9-1.92-1.53-2.21-2.82a1.78,1.78,0,0,1,.43-1.82c0-1.33,0-2.66,0-4Z"/><path class="cls-66" d="M6,105.49v-3a6.63,6.63,0,0,0,4-1c1.31-.94,2.46-.94,3.38.52A1.52,1.52,0,0,1,13,103.5l0,0C11.2,106.12,8.11,104.08,6,105.49Z"/><path class="cls-257" d="M20,70.66l0-1a5.33,5.33,0,0,0,2-3c1.54-3.07,4.09-.17,6-1,.84-.31,1.2.17,1.46.85.09,1.84-1.76,3.57-.29,5.49.76,2.59-.22,3.63-2.87,3.18-1.51-1-2.78-2.49-4.8-2.57C20.64,72.25,19.55,72,20,70.66Z"/><path class="cls-65" d="M29,66.69l-1-1c-.55-1.28-2.32-2.25-1-4h4c.44,1.64,1.39,1.19,2.41.58a3.29,3.29,0,0,1,2.84,1.48c-.11,2.6-2.91,3.12-3.92,5a2.24,2.24,0,0,1-1.83.37C29.29,68.76,29.84,67.31,29,66.69Z"/><path class="cls-258" d="M22,66.7c1.38,2.35.41,3.13-2,3,0-.33,0-.65,0-1l1-2Z"/><path class="cls-259" d="M14,83.58v-2a5.46,5.46,0,0,1,4-2,7.18,7.18,0,0,1,3.39,4.16A1.86,1.86,0,0,1,20.84,85c-2.05,1.07-4.06,1.71-5.85-.45Z"/><path class="cls-260" d="M15,84.59c2,.82,4,0,6,0,.92.9.57,2,.52,3,0,.88.06,1.8-.78,2.42a4,4,0,0,1-3.28.19,3.55,3.55,0,0,1-1.06-.74c-.84-.94-1.61-1.94-2.39-2.93C13.48,85.5,13.23,84.55,15,84.59Z"/><path class="cls-261" d="M10,93.55l-1-2c1.52-1,2.87-2.42,5-2l.4.63C14,92.65,13,94.42,10,93.55Z"/><path class="cls-262" d="M14,86.58a3,3,0,0,1,3,2c-.73,1.13-1.51,2.12-3,1v0A2.6,2.6,0,0,1,14,86.58Z"/><path class="cls-86" d="M65,32.84l1,1c.47.44,1.12.65,1.53,1.17a7.29,7.29,0,0,1,1,3.11,4.73,4.73,0,0,1-.16,1.3c-.77,1.23.72,3.27-1.43,4a3.45,3.45,0,0,1-1.43-.12A4.85,4.85,0,0,1,63,39.65,3.36,3.36,0,0,1,64,36.82a6.6,6.6,0,0,1-1-4C63.63,32.94,64.29,34,65,32.84Z"/><path class="cls-263" d="M55.93,37.84A2.25,2.25,0,0,1,58,36.77c.81-.26,1.33.18,1.81.73a4.58,4.58,0,0,1,.9,2c.09,1.72-.4,2.95-2.44,2.88a4.42,4.42,0,0,1-2.76-2.4A2,2,0,0,1,55.93,37.84Z"/><path class="cls-109" d="M59,37.81l-1-1c.09-.9-.36-2.27.82-2.45,1.7-.27,2.37,1.3,3.14,2.5C61.62,39.1,60.3,38.45,59,37.81Z"/><path class="cls-264" d="M59,37.81c1.1,0,2.27.18,3-1h2v3c-1.76,1.36-3,.62-4-1Z"/><path class="cls-265" d="M53,40.81c-1-.79-5.06.49-2-3h2.94C54.61,39.14,54,40,53,40.81Z"/><path class="cls-17" d="M53,40.81l1-3c.67-1.13,1.33-.13,2,0,0,.65,0,1.3,0,1.95-.76,1-1.66,1.66-3,1Z"/><path class="cls-76" d="M68,28.85l-2,0c.08-.91.09-2.18,1.16-2.18C68.5,26.71,67.71,28.1,68,28.85Z"/><path class="cls-266" d="M44,61.71,44,64.76h0c-1.21.93-2.22.37-3.2-.41a18.66,18.66,0,0,1-2.36-3.43,3.56,3.56,0,0,1-.26-2A2.59,2.59,0,0,1,39,57.73h2a3.12,3.12,0,0,1,.93.84C42.69,59.54,43.17,60.73,44,61.71Z"/><path class="cls-267" d="M41,58.69c0-.32,0-.64,0-1l1-2,.06-.94c1.73-.18,2.58,1.39,3.93,2,0,.32,0,.64,0,1C44.46,58.85,42.88,59.54,41,58.69Z"/><path class="cls-268" d="M32,52.75a3.49,3.49,0,0,0,2-2c.27,1.34,3.79,1.88,1,4-1.27.69-2.2,0-3.11-.74A1.07,1.07,0,0,1,32,52.75Z"/><path class="cls-268" d="M39,57.73v1c-1.7,1.37-3.24.7-4.76-.35a1.86,1.86,0,0,1-.56-1.28c.33-1.19,1.58-.83,2.31-1.35Z"/><path class="cls-269" d="M36,55.75a2,2,0,0,1-2,1,2.46,2.46,0,0,1-1.56-.81c-.48-.65-.94-1.3-.43-2.15l3,1Z"/><path class="cls-59" d="M14,89.57l3-1v1c.78,1,2.45,1.28,2.23,3-.87,1.68-4.38,2.57-1.6,5.33a5,5,0,0,1,.77,2.47A3.59,3.59,0,0,1,17,102.49h0c-1.32-1-2.69,1.4-4-.06-.74-1.11-1.91-.89-3-.93.22-2.88-1.44-5.28-2-8h2A5.2,5.2,0,0,0,14,89.57Z"/><path class="cls-270" d="M91,20.88c2.82,0,1.3-3.15,3-4a2.65,2.65,0,0,1,1.63.85,2.51,2.51,0,0,1,.75,1.71,5.22,5.22,0,0,1-2.24,3.05c-1.51.69-2.21,2.77-4.28,2.51a3.87,3.87,0,0,1-1.15-3A2.39,2.39,0,0,1,91,20.88Z"/><path class="cls-237" d="M88.93,21.9l1,3a.94.94,0,0,1,0,1.21,2.25,2.25,0,0,1-1.32.28c-.63-.32-1.26-.64-.72-1.51.18-1.55-1.39-1.95-2-3,0-.33,0-.66,0-1h1C87.49,21.48,88.51,21.1,88.93,21.9Z"/><path class="cls-271" d="M88.93,21.9a2,2,0,0,1-2-1c1.34-.68,2.66-4.26,4,0A2.11,2.11,0,0,1,88.93,21.9Z"/><path class="cls-272" d="M94.94,17.91l-1-1c0-.33,0-.66,0-1l3-2a1.66,1.66,0,0,1,.54,1.83A3.25,3.25,0,0,1,94.94,17.91Z"/><path class="cls-273" d="M20,78.63c-2.08-2.85,0-2.92,2-3a1.56,1.56,0,0,1,1.28-.43c2,.59,3.95,1.18,2.2,3.87-1.2,1-2.21,2.85-4,.82C20.73,79.73,22.48,76.72,20,78.63Z"/><path class="cls-274" d="M22.94,75.65H22l-3-2a1.38,1.38,0,0,1,0-2l1-1a2.13,2.13,0,0,0,2,1c1.22.72,3.08.9,2.59,3.06C24.3,75.47,23.9,76.08,22.94,75.65Z"/><path class="cls-275" d="M20,78.63c.5-.39,1.16-1.19,1.48-1.08.93.33.39,1.34.54,2.06-.87,1.41,1.58,2.7.15,4.13A.85.85,0,0,1,21,83.61c-1.82-.72-2.17-2.54-3-4A2.05,2.05,0,0,0,20,78.63Z"/><path class="cls-276" d="M19,71.65c0,.67,0,1.33,0,2a3.52,3.52,0,0,1-2,2C16.72,73.85,15.75,71.7,19,71.65Z"/><path class="cls-277" d="M53,40.8l3-1a3.6,3.6,0,0,1,2,2,2.51,2.51,0,0,1,.6,2.64C57,47,55.67,45.66,54.33,44.2A4,4,0,0,1,53,42.79Z"/><path class="cls-278" d="M53,42.79h2c.25,3.11-1.21,4-4,3H50l-2-3v-1C50,40.26,51.18,43.2,53,42.79Z"/><path class="cls-279" d="M6,109.46c.65,1.33,3,2.64,0,4C6.35,112.12,4.17,110.81,6,109.46Z"/><path class="cls-280" d="M32,53.76l1,2a1.19,1.19,0,0,1-.66.68,2.56,2.56,0,0,1-1.4.37c-3.79-1.06-.28-3.32-.81-4.92l1.85.9Z"/><path class="cls-281" d="M30.93,56.77l1.05-1c1,1.72,2.29,3.42.37,5.34A1.39,1.39,0,0,1,31,60.71l-2-1Z"/><path class="cls-81" d="M110.93,10.94c-2,.09-2,1.53-2,3h-1a1.35,1.35,0,0,0-1.32-.44.79.79,0,0,1-.73-.6l1-1C108.27,11.73,108.57,7.19,110.93,10.94Z"/><path class="cls-282" d="M99.89,13c0-.65.07-1.3.11-2,3.34,0,.71,2.89,1.93,3.9s2.54,2,2.3,3.93a5.27,5.27,0,0,1-2.44,2.34,1.65,1.65,0,0,1-1.25-.42c-.84-1.86-2.17-3.51-2.33-5.65A3.06,3.06,0,0,1,99.89,13Z"/><path class="cls-283" d="M103.94,18.91c-.56-1.38-2.15-2.25-2-4,2.17.19,1.69-2.26,3-3l1,.91L107,13a.55.55,0,0,1,.23.63c-.08.2-.15.31-.23.31l-1,3C105.79,18.1,105.59,19.23,103.94,18.91Z"/><path class="cls-284" d="M99.89,13l-1,1.92c-.52.65-.9,1.56-2,1,0-.66,0-1.33,0-2Z"/><path class="cls-285" d="M31,60.71h1c.44.36,1.07.47,1.35,1a.81.81,0,0,1-.36,1c-.35.67-.78,1.62-1.6,1.15-.41-.23-.28-1.41-.39-2.15C31,61.37,31,61,31,60.71Z"/><path class="cls-84" d="M261.8,96.55q-1.4-5.47-2.78-10.94c3-.27,2.94,4,5.83,4-.12,2.92,1.46,3.58,4,3a2,2,0,0,0,1,2,2,2,0,0,1-2,1.06c-1.93-.3-1.2,2-2.35,2.42C263.89,98.52,262.84,97.55,261.8,96.55Z"/><path class="cls-286" d="M264.85,89.59c-3.38.76-3.78-2.82-5.83-4-.08-.33-.15-.66-.23-1,2.22-4.56,4,1.95,6.3,0C264.43,86.44,262,88,264.85,89.59Z"/><path class="cls-131" d="M256.67,75.72A1.75,1.75,0,0,1,255,73.57c.33-2,.53-4,2.84-4.89,1.42,1.35-.6,4.08,2,5Z"/><path class="cls-23" d="M188.74,8.19c3.12,4-1.43,4.7-2.85,6.75-2.61-.35-2.55-2.06-2-4-.26-1-1.58-2.11-.46-3.07a2.79,2.79,0,0,1,2.63.41C187.14,9.42,187.87,8.94,188.74,8.19Z"/><path class="cls-158" d="M173.92,11.94c2,.11,2,1.54,2,3-1.2,1.31-2.75,1.22-4.31,1.07-1.81-.3-3-1.53-4.12-2.81a4.63,4.63,0,0,1-.79-1.12c-.18-1.47,1-2.37,1.56-3.52a2.11,2.11,0,0,1,1.63-.94,5.25,5.25,0,0,1,2.32,1.1C173,9.64,172.77,11.16,173.92,11.94Z"/><path class="cls-287" d="M170.88,14.93h5a2.39,2.39,0,0,1,1,2c0,1,0,2,0,3-1.41,0-2.86.3-4.06-.78-1.09-.8-2.37-1.44-2.5-3A1.69,1.69,0,0,1,170.88,14.93Z"/><path class="cls-288" d="M182.91,20.73a7.66,7.66,0,0,1-5.27-.7l4.24-2.12c1.14.07,2.09.42,2.37,1.68A1.46,1.46,0,0,1,182.91,20.73Z"/><path class="cls-289" d="M183.85,10.94a5.75,5.75,0,0,0,2,4l-1,2a.61.61,0,0,1-1-.08C183,14.92,182,12.94,183.85,10.94Z"/><path class="cls-290" d="M183.9,16.9l1,.08c0,.65,0,1.31,0,2,.14.94-.16,1.29-1.08.8l-1.93-1.83A2.13,2.13,0,0,1,183.9,16.9Z"/><path class="cls-291" d="M177.89,8c2.42-1.06,1.94.74,2,2h0c-.71.58-.31,2.09-1.63,2.09-.48,0-.62-.58-.37-1.08V8Z"/><path class="cls-106" d="M177.89,11c1.36,1,1.09-1.15,2-1-.14,1.29.3,3.17-2,2.7C176.81,12.43,177.22,11.55,177.89,11Z"/><path class="cls-292" d="M176.9,16.91a2,2,0,0,1-1-2c.58-.11,1.28-.81,1.73-.07S177.7,16.42,176.9,16.91Z"/><path class="cls-231" d="M173.92,11.94c-2,0-2-1.52-2.06-2.95,1.12-.63,1.47.34,2,.95h.08C173.93,10.62,173.92,11.28,173.92,11.94Z"/><path class="cls-293" d="M194.89,11l2,1a6.42,6.42,0,0,0,1,4,6.22,6.22,0,0,1,1.24,1.8c.4,1.22.69,2.43-.26,3.55-2.41,1.22-4.78,1.9-7-.39-3.28-3.41,1.61-4.53,2-6.92C192.77,12.46,193.79,11.69,194.89,11Z"/><path class="cls-294" d="M191.89,20.87c2.32.9,4.65-.18,7,0,.78-.45,1.67-.09,2.48-.37a1.44,1.44,0,0,1,1,.7,2.68,2.68,0,0,1-.09,1.93c-.82,1.11-1.63,2.23-3.3,1.69a15.27,15.27,0,0,1-7.09-2.1C191.88,22.12,191.88,21.49,191.89,20.87Z"/><path class="cls-295" d="M194.89,11l-1,3c-2-.16-3.05-.88-2-3Z"/><path class="cls-296" d="M183.81,19.74l1.08-.8c1.44.5,1.91,1.38,1.12,2.77-1.13,0-2.39.36-3.1-1Z"/><path class="cls-297" d="M166.89,11.92l1,0a.88.88,0,0,1,.29.84c-.07.29-.15.44-.23.44a3.21,3.21,0,0,1-2.11.51c-1.69-.4-3.29-.94-4-2.79a6.8,6.8,0,0,1,1-4l3-1c.78,1,2.4,1.26,2.43,2.87C168.78,10.31,166,10.25,166.89,11.92Z"/><path class="cls-298" d="M167.9,9c-.59-1-2.18-1.41-2-3,1.68.25,3.59-.69,5,1,.22.9,0,1.4-1,1l-1,1C168.56,9.41,168.23,9.43,167.9,9Z"/><path class="cls-299" d="M169.88,8l1-1c1.88.11,3,1,2.95,3l-2-.95A2.18,2.18,0,0,1,169.88,8Z"/><path class="cls-149" d="M223.87,29.85c3.64.35,3.44,4.53,6,6,.08.67,1.11,1.34,0,2-4,2.13-5.33-2.25-8-3.36-.12-.2-.23-.41-.35-.62s0-.47-.07-.7c.32-1.45,1.47-2.3,2.44-3.27Z"/><path class="cls-300" d="M221.91,33.82c3,.72,4.41,4.4,7.94,4-1.08,2.37,2,3.11,2,5a60.61,60.61,0,0,1-10-7A1.4,1.4,0,0,1,221.91,33.82Z"/><path class="cls-301" d="M237.89,47.75a1,1,0,0,1-1-1l1-2a1.86,1.86,0,0,1,2,2C239.89,48.45,239.07,48.46,237.89,47.75Z"/><path class="cls-302" d="M235.86,41.79l2,3C234.11,43.8,234.09,43.76,235.86,41.79Z"/><path class="cls-8" d="M210.87,29.81l-5-2c-2.91-3.06.63-3.5,2-4.83,2.05-1,2.67.22,3,1.89C212.14,26.52,212.29,28.16,210.87,29.81Z"/><path class="cls-303" d="M201.87,20.9h-1c-1.08-.93-1.63-2.39-3-3l0-2c1.66-.16,3.32-1.37,5,0a11.92,11.92,0,0,0,2,3v1C204.18,21.19,203.32,21.93,201.87,20.9Z"/><path class="cls-304" d="M207.85,23c.41,2-3.83,2.2-2,4.83a9,9,0,0,1-5-2,2.5,2.5,0,0,1,1-1.71,19.62,19.62,0,0,0,4.06-3.2Z"/><path class="cls-54" d="M210.87,29.81V24.88c1.11,0,2.29-.16,3,1,.79.45,1.56.91,1,2s-2.08,1.31-1.93,2.79Z"/><path class="cls-305" d="M205.93,21c.53,3.23-1.83,3.49-4.05,3.91a1.31,1.31,0,0,1,0-1.95c0-.67,0-1.34,0-2l3-1Z"/><path class="cls-196" d="M204.86,18.93c-2.39.13-3.37-.66-2-3l2.72-.78a3.52,3.52,0,0,0,.3,3.75Z"/><path class="cls-306" d="M214.85,27.89l-1-2,1-1,1,0,1,1A3.44,3.44,0,0,1,214.85,27.89Z"/><path class="cls-307" d="M237.89,47.75a2.19,2.19,0,0,0,2-1c1.41,0,3.18-1.4,4,1a5.84,5.84,0,0,0-2,4.14Z"/><path class="cls-308" d="M248.85,53.75c1.84.75,2.09,2.28,2,4l-1,1c-1.78,0-1.56-.9-1-2C250,55.74,248.52,54.74,248.85,53.75Z"/><path class="cls-128" d="M248.84,56.73a2.17,2.17,0,0,0,1,2c0,1.06,0,2.12-.07,3.19l-3-4.17Z"/><path class="cls-309" d="M269.83,113.42l-1,.07c-3.26,2.61-3.87-.25-4.39-2.34-.43-1.7-.1-3.56-.1-5.35a1.63,1.63,0,0,1,2-1.76c1.57.6,1.65,2.26,2.46,3.39C270.75,109.16,272.42,110.93,269.83,113.42Z"/><path class="cls-232" d="M264.81,105.5c.67,3-1.85,7.6,4,8,0,1,0,2,0,3-1.4-.88-1.36.58-1.86,1.14-1.37.6-2.12-.76-3.22-1,0-3.69.05-7.38.08-11.07C264.16,105,264.49,105,264.81,105.5Z"/><path class="cls-310" d="M269.83,113.42c1.69-2.59-.75-3.53-2-5,.88-.84,1.09-2.66,3-2h1C271,108.74,274,112.13,269.83,113.42Z"/><path class="cls-278" d="M275.83,115.45c-.05,1.09.17,2.26-1,3s-2.22.16-3.29-.3c-.58-.41-1.08-.87-.7-1.68C271.77,112.48,274,115.08,275.83,115.45Z"/><path class="cls-65" d="M270.84,116.45l1,1c.5,1.15-.17,1.82-1,2.42a3.84,3.84,0,0,1-4.05-1.11,1.11,1.11,0,0,1,.07-1.32c0-1.77.92-1.49,2-1C269.5,117.55,270.17,116.52,270.84,116.45Z"/><path class="cls-311" d="M270.82,106.48c-1,.61-1.42,2.16-3,2a6.6,6.6,0,0,1-1-4c-.22-2.29,1-2.71,2.94-2.3a.78.78,0,0,1,.07,1.31C268.71,105,270.23,105.58,270.82,106.48Z"/><path class="cls-312" d="M269.84,103.51v-1c-.77-.76-2.2-.36-2.73-1.54a2.79,2.79,0,0,1-.44-2.54,2.18,2.18,0,0,1,1.24-.47,4.08,4.08,0,0,1,2.92,2.57C270.8,101.62,271,102.8,269.84,103.51Z"/><path class="cls-313" d="M275.53,104.63c1,3.4-1.39,1.81-2.69,1.84C272.9,104.64,274.06,104.41,275.53,104.63Z"/><path class="cls-121" d="M270.83,100.53l-3-2c-.22-.88,0-1.29,1-1l3,2Z"/><path class="cls-314" d="M217.87,30.84c.13-.8.23-1.67,1.27-1.79,1.33-.16,1.59.79,1.73,1.8.75.43,1.48.88,1,1.94l0,.07c-1.33,1.09-2.69.35-4,0h0A1.45,1.45,0,0,1,217.87,30.84Z"/><path class="cls-315" d="M217.87,30.84c0,.69,0,1.38-.05,2.07a6.07,6.07,0,0,1-4-1.95C215.13,28.93,216.52,30.38,217.87,30.84Z"/><path class="cls-316" d="M221.89,32.79l-1-1.94c.91-.57,1.49-2.16,3-1A2.87,2.87,0,0,1,221.89,32.79Z"/><path class="cls-8" d="M270.82,119.44l1-2,3,1c.32,1,.65,2,1,3l-2,1c-.53-1.43-1.47-2.18-3.08-1.8A.87.87,0,0,1,270.82,119.44Z"/><path class="cls-125" d="M253.81,70.72c-2-2.36-2.89-5.19-3.81-8l3,.91c1.08-.24,1.66.49,2.26,1.17.51,1.32.06,2.65.1,4A2.22,2.22,0,0,1,253.81,70.72Z"/><path class="cls-317" d="M254.8,64.72,253,63.59l1.24-3.07c1,.92.2,2.61,1.61,3.16l-.05,0C256.05,64.65,255.72,65,254.8,64.72Z"/><path class="cls-318" d="M268.84,97.52l-1,1h-1a.86.86,0,0,1-1.11.17.81.81,0,0,1,.06-1.1c.12-1.24-.47-3.2,2.06-2Z"/><path class="cls-319" d="M253.81,70.72l1.12-2.12c.65-1.32,1.53-1.91,2.91-.93v1L255,73.57Z"/><path class="cls-320" d="M257.84,67.67l-2.91.93c-2-1.23.42-2.6-.13-3.88l1-1a2.94,2.94,0,0,1,2,2.94C257.85,67,257.84,67.34,257.84,67.67Z"/><path class="cls-321" d="M10,120.42c-.33-.67-.67-1.33-1-2,.34-.66.68-1.33,1-2,2,.07,1.83,1.47,1.74,2.83C11.44,120.05,11,120.7,10,120.42Z"/><path class="cls-257" d="M11,119.44c0-1.1.18-2.27-1-3a3.22,3.22,0,0,1,2-2l0,2a2.27,2.27,0,0,1,.74,1.82,2.82,2.82,0,0,1-.53,1.23A1,1,0,0,1,11,119.44Z"/><path class="cls-322" d="M12,119.38c0-.32,0-.64,0-1a1.34,1.34,0,0,1,2,0,1.82,1.82,0,0,0,1.88,1,2.42,2.42,0,0,1-.76,2.21,2.21,2.21,0,0,0-2.08-1.22A1.1,1.1,0,0,1,12,119.38Z"/><path class="cls-323" d="M12,119.38l1,1c-.73,1.2-1.93,1-3.06,1,0-.33,0-.66,0-1l1-1Z"/><path class="cls-19" d="M143.91,16.94l-.41.12-.42-.08a1.19,1.19,0,0,1-1.35.09,3.31,3.31,0,0,1-.7-2.72c.12-1.57,2-2.51,1.57-4.27a1.44,1.44,0,0,1,.32-1.14h1c1.38.17,2.95-.43,4,1A31.59,31.59,0,0,0,150.45,12a3.55,3.55,0,0,1,.82,1.06,2.65,2.65,0,0,1-.07,1.34c-.62,1.34-1.52,2.12-3,1.33C146.33,14.78,145.08,15.69,143.91,16.94Z"/><path class="cls-17" d="M150.89,12.94h-1a4.56,4.56,0,0,1-1-3c.7-1.16,1.87-.93,2.94-1l1,0v1A5.77,5.77,0,0,1,150.89,12.94Z"/><path class="cls-324" d="M149,9.93c1.16.74.92,1.92,1,3a3,3,0,0,1-2-3Z"/><path class="cls-106" d="M154.91,10.94a2,2,0,0,1,2-1c1.38.14,3-.46,4,1,.25,2.13-1.72,2-2.83,2.78-1.18.34-2.36,1.07-3.54,0A2.18,2.18,0,0,1,154.91,10.94Z"/><path class="cls-325" d="M157.9,12.93l3-2h1l4,2.08C164,15.61,161.13,15.58,157.9,12.93Z"/><path class="cls-326" d="M154.91,10.94c0,1,0,2,0,3-1.33.69-2.65,1-4,0l0-1c0-1.46,0-2.89,2-3Z"/><path class="cls-251" d="M142.92,8.94c0,.33,0,.66,0,1a2.26,2.26,0,0,1-1.41.69c-1.57-.27-2.6-.86-1.59-2.66,0-.31,0-.63.06-.94l.91,0Z"/><path class="cls-327" d="M35.74,100.12c.29,0-.39.16-.64-.12-1.42-1.59-4.37,2-4.93-1.24-.51-2.93,2.59-1.63,3.85-2.54,2.12-1.53,3.16-4.07,5.38-5.69,6.14-4.46,10.69-1.51,13.48,3.39.62,1.11,1.23,2.69-.54,2.41-3.43-.55-5.07,2.38-7.67,3.06S39.24,99.88,35.74,100.12Z"/><path class="cls-328" d="M150.92,13.92c1.32,0,2.65-.94,4,0l3-1c2.66,1.13,5.33,1.71,8,.09l2,0a6.75,6.75,0,0,0,3,2.91c.65,1.08,1.3,2.16,1.94,3.25-9.62-.94-19.18-2.73-28.92-2.2.92-2.28,1.19-5.86,4.79-2C149.66,16,150.07,14.09,150.92,13.92Z"/><path class="cls-329" d="M22.94,75.65l1-1.07a1.39,1.39,0,0,1,2,0c2.39.18,3.43-.56,2-2.95-.18-1.56-.31-3.08,2-3h2c2.08.22,4.25.34,4.16,3.29L31,79.71a7.4,7.4,0,0,1-1.82-.11c-1.24-.45-2.3.53-3.5.44-.63-.28-1.13-.63-.75-1.43C26.44,76.17,23.24,76.89,22.94,75.65Z"/><path class="cls-330" d="M89.94,25.87v-1c1.36-1,1.76-3.21,4-3,2.77-.8,3.93,1.29,5.35,2.92.55.61,1.2,1.13,1.8,1.69a2.73,2.73,0,0,1,.69,2.28,14.14,14.14,0,0,1-6.84,3,16.93,16.93,0,0,1-1.82-1.44,5.06,5.06,0,0,1-1-1.46C91.85,27.59,89.48,27.75,89.94,25.87Z"/><path class="cls-331" d="M36.14,72,32,68.66c-.83-3.38,3.45-2.68,4-5a2.11,2.11,0,0,1,1.81-.63c1.08.11,2.13.42,3.21.59l3,1.09C42.22,68,38.87,69.65,36.14,72Z"/><path class="cls-177" d="M133.92,226.9c-1.73-.14-2.61,1.43-4,2-1.38.39-2.56,1.35-4,1.48s-2.74-.88-4.21-.86a7.07,7.07,0,0,1-1.21-.18,9,9,0,0,0-4.2,0l-1.27.12c-4.63-1.37-4.63-1.37-2.94-3.74,7.28,1,14.57.06,21.86.15Z"/><path class="cls-332" d="M101,20.88l1,0c2.46,1.82,5.3.77,8,1a3.36,3.36,0,0,0,2,1.92.81.81,0,0,1,.34.8c-.07.3-.14.44-.23.44a17.34,17.34,0,0,1-7.1,2.74c-1.1-.54-2.52-.36-3.37-1.47-.51-.41-1.07-.76-1.57-1.18-1.76-1.41-2.3-2.89-.29-4.53A1.17,1.17,0,0,1,101,20.88Z"/><path class="cls-333" d="M252.84,172.19c-.44,1.74-3.08,1.82-3,4l-2,1c-.61-1-2.17-1.42-2-3-.93-.93-2-1.72-2.32-3.13q1.56-2.07,3.13-4.13a4.84,4.84,0,0,1,2.61,1.63,35.17,35.17,0,0,1,2.55,2.63Z"/><path class="cls-334" d="M115.87,20.84c.59-2.06,2.48-2.81,4-3.93l3,0,3,.07a1.67,1.67,0,0,1,.37,1.89A11.27,11.27,0,0,0,124,22.11c-.78.95-1.86.9-2.93.9C118.7,23.86,117.26,22.42,115.87,20.84Z"/><path class="cls-335" d="M87.93,221c-.65-3.1-3.54-.73-4.94-2a2.08,2.08,0,0,0-1-2l-1-3.09c4.46,1.77,9.11,3.13,13.12,5.9C92.27,221.29,89.9,220.09,87.93,221Z"/><path class="cls-336" d="M146.81,225.7c2.67-2.48,6-1.62,9.08-1.69a1.53,1.53,0,0,1,.34,1.9c-2,.78-3.32,2.43-4.82,3.85-2.14.84-4.25,2.93-6.47.14h0a.91.91,0,0,1-.34-.72c0-.28,0-.42.1-.42A19.08,19.08,0,0,0,146.81,225.7Z"/><path class="cls-337" d="M238.82,185.15l-1,1c-3.38,1-5.07,4.95-9,5a2.25,2.25,0,0,1-1-2c.53-1.47,1.88-2.14,3-3,2.48-.22,2.66-3.54,5.15-3.76C237.85,182.33,239.79,182.32,238.82,185.15Z"/><path class="cls-233" d="M66.92,42.8c.16-1.37-1-3.07,1-4,1.26.61,1.1,2.17,2,3h0c.81.7,2.06.94,2.34,2.2A29.94,29.94,0,0,1,65,49.66,3.28,3.28,0,0,1,63.43,46C64,44.26,65.85,44,66.92,42.8Z"/><path class="cls-19" d="M141.8,16.79l1.28.19c-4.08.86-8,2.64-12.28,2.31-1-1.32-3.1-.78-3.89-2.4l1-1,4-1.94c0,.32,0,.64,0,1,2.24,1.56,4.67.09,7,.45A4,4,0,0,1,141.8,16.79Z"/><path class="cls-338" d="M238.82,185.15c-.26-2.73-2.4-1.83-4-2a.88.88,0,0,1-.12-1.38c.68-2,2.78-2.41,4.21-3.59,1.16-.64,2-.65,1.93,1-1.06,1.92.71,3.29,1,5a3.41,3.41,0,0,1-2.07,2Z"/><path class="cls-58" d="M255.86,161.24a2.57,2.57,0,0,1,0,2.95,2,2,0,0,1-2.05,1c-.71-2.21-2.41-1.48-3.92-1.31a1.94,1.94,0,0,1-1.11-.66l2.29-3.95a6.61,6.61,0,0,0,3.8-1C256,159,255.81,160.15,255.86,161.24Z"/><path class="cls-339" d="M214.88,203c-.69-1.1-1.34,0-2,0a1.82,1.82,0,0,1-.1-2.31c2.24-1.29,3.49-3.85,6.06-4.73,1.81.82,1.41,2.07.66,3.4-1.07,1.22-1.18,2.74-1.36,4.25C216.67,205.31,215.75,204.24,214.88,203Z"/><path class="cls-340" d="M155.89,225.89V224a8.69,8.69,0,0,1,5.17-1l.84.92c.47,1.26,1.37,2.65-1,3l-2,1c-.73-1.16-1.92-1-3-1-.34-.22-.46-.44-.35-.66S155.78,225.89,155.89,225.89Z"/><path class="cls-112" d="M264.84,145.3l-3,2h-1a3,3,0,0,1-1.08-2.63c0-1.19-.79-2.37,0-3.56l.72-2c1.58.47,1.07,2.5,2.37,3.18a1.81,1.81,0,0,1,2,2Z"/><path class="cls-32" d="M30.25,81.65c-1,2.58-1.85,5.26-4.16,7.09-1.62-.36-1-2.59-2.56-3a2,2,0,0,1-.75-2.32,3.8,3.8,0,0,1,2.8-1.81,12.87,12.87,0,0,1,1.36-.23C28.06,81.3,29.22,80.8,30.25,81.65Z"/><path class="cls-341" d="M227.82,189.07a2.08,2.08,0,0,1,1,2h0c-1.11,2.18,1.57,1.84,2,3v2c-1.33.48-2.66-1-4,0a1.23,1.23,0,0,1-1.3-.2c-.9-1.19-1.52-2.44-.83-4Z"/><path class="cls-342" d="M18,100.52l-1-2c.26-2.67,2.42-3.49,4.4-4.48,1,.07,2.18,0,1.71,1.64a17,17,0,0,1-1.94,6.09,3,3,0,0,1-1-.51C19.48,100.82,18.65,100.89,18,100.52Z"/><path class="cls-343" d="M64,45.81c.33,1.29.66,2.57,1,3.85l-3,2.17c-.17-1.91-.77-3.2-3-2.07-1.45-2.71,1.51-3.31,2.37-4.91a2.21,2.21,0,0,1,1.28-.45A1.7,1.7,0,0,1,64,45.81Z"/><path class="cls-344" d="M112.06,225.69c-.55,3.27,2.7,2,3.87,3.21a.8.8,0,0,1,0,1l-1,1c-2.2.65-3.09-1.93-5-2a6.5,6.5,0,0,1-1-3.79C110,225,111.14,224.87,112.06,225.69Z"/><path class="cls-345" d="M260.83,144.32c0,1,0,2,0,3,0,.34,0,.68,0,1a3.14,3.14,0,0,0-2,2.93c-1,1.18-2-.27-3.09,0a21,21,0,0,1,2.91-7.18C259.36,144.32,260.17,143.82,260.83,144.32Z"/><path class="cls-346" d="M82,34.87l1-.07c.74,1.24,2,1,3.15,1.1-1.09,2.8-3.85,3-6.14,3.93l-1-3a1.11,1.11,0,0,1,1.05-1C81.11,36.4,82,36.54,82,34.87Z"/><path class="cls-347" d="M24,85.61c5.22-1.94-.33,3.22,2.09,3.13-.36.61-.73,1.22-1.09,1.84-1.06.73-2.05.15-3.06-.17a2.49,2.49,0,0,1-1-.84l-1-2A14.7,14.7,0,0,1,24,85.61Z"/><path class="cls-348" d="M126.91,16.89c1.78,0,3.49.15,3.89,2.4-1.34,1.39-3.2,1.76-4.9,2.46a2,2,0,0,1,0-2.84c0-.66,0-1.32,0-2Z"/><path class="cls-349" d="M265.85,125.42c1.59.11,3.6-.64,4,1.89.5,1.25-.22,2-1.15,2.59-2.25.63-3.61-.12-3.91-2.51a5.82,5.82,0,0,1-.07-.93C264.44,125.39,264.91,125.16,265.85,125.42Z"/><path class="cls-350" d="M55,56.73c-.63-.47-1.31-1.38-1.87-1.32-3.15.36-1.78-2-1.43-2.79.74-1.66,1.63-.42,2.49.3a23.4,23.4,0,0,0,2.78,1.77Z"/><path class="cls-351" d="M72.29,44C71,43.78,70,43.29,70,41.8c1.1-2.08,3-2.2,5-2,1.26,1.51-.39,2.24-.88,3.29Z"/><path class="cls-2" d="M267.81,100.51l2,2a3,3,0,0,0-3,2,2.11,2.11,0,0,0-2,1h-1a.9.9,0,0,1-.13-.78c-.54-1.15-.3-2.39-.42-3.59C264.55,99.14,266.24,100.25,267.81,100.51Z"/><path class="cls-352" d="M58,205c-.06-1.94-1.81-2.19-3-3l1.22-2.11,5.54,4.25Z"/><path class="cls-330" d="M265.85,125.42l-1.09,1c-1.2-1.89-2.52-3.75-1.15-6.12l.61.1c1.32.46,3-.29,4,1.2a1.71,1.71,0,0,1-.41,1.81A3.15,3.15,0,0,0,265.85,125.42Z"/><path class="cls-353" d="M263.85,100.52c-.05,1.39-.1,2.79-.14,4.19a13.66,13.66,0,0,1-1.91-8.16l4,1c0,.29,0,.58,0,.87C265.51,99.5,264.58,99.92,263.85,100.52Z"/><path class="cls-354" d="M212.77,200.73c0,.77.07,1.54.1,2.31-1.12,1.89-3.68,1.41-5,3l-2-1Z"/><path class="cls-355" d="M248.78,163.19l1.12.09a2.53,2.53,0,0,1,1,.95c.33,1,.67,2,1,3,0,.34,0,.68,0,1a1.71,1.71,0,0,1-1.81.47,12.77,12.77,0,0,1-3-2.46Z"/><path class="cls-356" d="M224.73,191.9a6.7,6.7,0,0,1,1.09,4.1l-.48.45c-1.58.44-3-.24-4.49-.59a2.41,2.41,0,0,1-1-.81Z"/><path class="cls-357" d="M240.87,179.16a2,2,0,0,0-1.93-1c-.81-2.69,1.42-3.61,2.92-4.95.16.15.31.31.46.47.49,1.44-.43,3,.5,4.42A2,2,0,0,1,240.87,179.16Z"/><path class="cls-358" d="M234.73,181.73l.12,1.38c-.58,1.16-1.09,2.36-1.77,3.46-1.17,1.88-1.67.39-2.25-.52C231.82,184.33,232.56,182.39,234.73,181.73Z"/><path class="cls-197" d="M182.9,217c.07,2.15-2.58,2.21-3.05,3.95l-1,0c-.09-2.22-1.87-1.87-3.25-2.13A16.83,16.83,0,0,1,182.9,217Z"/><path class="cls-359" d="M146.81,225.7c1.1,2,.39,3.06-1.84,3.2-2.65-.26-1.46-2.51-2-3.86C144.37,224.54,145.6,225.1,146.81,225.7Z"/><path class="cls-27" d="M264.83,127.39c1.14,1,2.14,2.35,4,2.06a1.83,1.83,0,0,1,.54,1.23,1.66,1.66,0,0,1-.73,1.11,7.57,7.57,0,0,1-4.72-.36c-.05-.44-.11-.89-.16-1.33C263.77,129.06,263.66,128,264.83,127.39Z"/><path class="cls-360" d="M89,35,88,32.85a3.13,3.13,0,0,1,1.47-2.14,2.48,2.48,0,0,1,1.28-.28,4.52,4.52,0,0,1,1.71.89,5,5,0,0,1,1.2,1.46C92.6,34.59,90.26,33.6,89,35Z"/><path class="cls-361" d="M96.94,223.92l-1-1,1.89-1.83c.87-.18,1.65-.13,2.1.79a1.3,1.3,0,0,1,0,2A2.59,2.59,0,0,1,96.94,223.92Z"/><path class="cls-77" d="M266.84,117.43c0,.33,0,.66,0,1,.19,2.29-1.41,2-2.87,2l-.37-.08.15-3.78C265.27,115.15,265.72,117.47,266.84,117.43Z"/><path class="cls-257" d="M143,225c1.94.63.56,3,2,3.86l-.06,1h-2c.4-2-1-3.34-1.94-4.82Z"/><path class="cls-31" d="M16,105.53l2-2c2.23-.79,2.75.07,2,2.11l-.74,1.07C17.78,107.51,16.8,106.79,16,105.53Z"/><path class="cls-362" d="M243.53,171.05a3.14,3.14,0,0,1,2.32,3.13h-3a2.94,2.94,0,0,1-1-.94l0,0Z"/><path class="cls-363" d="M30.25,81.65,27,82.58c-1.33-3.08,1.87-2.73,3-3.94L31,79.71C31,80.47,31,81.21,30.25,81.65Z"/><path class="cls-364" d="M22,89.59l3,1-1.15,3c-.88.78-1.58.44-2.2-.35A5.82,5.82,0,0,1,22,89.59Z"/><path class="cls-365" d="M115.87,20.84,121.1,23a3.79,3.79,0,0,1-3.2.82c-.51-.65-1.53-.2-2-.94s-.65-1.3-1-1.95C115.25,20.89,115.56,20.86,115.87,20.84Z"/><path class="cls-366" d="M217.81,32.91c1.33-1.07,2.69-.14,4,0l.06,1c0,.69,0,1.38-.07,2.07A8.39,8.39,0,0,1,217.81,32.91Z"/><path class="cls-266" d="M99.91,223.86c0-.65,0-1.31,0-2l4,2C102.64,225.41,101.27,225.94,99.91,223.86Z"/><path class="cls-367" d="M74.07,43.11c.29-1.1.59-2.2.88-3.29.72-2.29,1.16-1.91,1.48.14a15.18,15.18,0,0,0,.5,1.75Z"/><path class="cls-80" d="M125.92,18.91c0,.95,0,1.89,0,2.84l-1.88.36C122.77,19.94,123.09,18.69,125.92,18.91Z"/><path class="cls-368" d="M247.08,166.21c1.46-.05,2.73.14,2.78,2,.19.85-.06,1.26-1,1a4.07,4.07,0,0,1-2.2-2.28A.8.8,0,0,1,247.08,166.21Z"/><path class="cls-369" d="M102,25.85l2.94,2-3.14,1-.84-1.93A1.19,1.19,0,0,1,102,25.85Z"/><path class="cls-370" d="M16,105.53l3.29,1.14c-.14.62-.27,1.24-.41,1.86C15.86,109.5,16.58,106.9,16,105.53Z"/><path class="cls-371" d="M20,105.6c-.1-1.26-.68-2.06-2-2.11,0-.33-.05-.66-.07-1,.25-2.35,1.86-1.1,3-1.13l.23.41C21,103.13,21.07,104.52,20,105.6Z"/><path class="cls-372" d="M219.84,195.05l1,.17a2.84,2.84,0,0,1,.09,4.08,1.81,1.81,0,0,1-2.1-.25,2.75,2.75,0,0,0,0-3.05Z"/><path class="cls-373" d="M203.89,206.06a6.74,6.74,0,0,0,1,4c-1.38-.19-3,.43-4-1,.53-.85,1.5-1.32,2-2.23Z"/><path class="cls-374" d="M112,25.09c0-.41-.07-.83-.11-1.24a2.06,2.06,0,0,1,1-2,2.09,2.09,0,0,1,1,2c.34.2.45.4.34.6s-.23.29-.35.29Z"/><path class="cls-375" d="M201.85,22.91l0,1.95c-.32.34-.65.67-1,1a1.9,1.9,0,0,1-1.94-1Z"/><path class="cls-159" d="M260.83,144.32c-.76.22-1.6,1-2.17-.3.37-1,.73-2,1.09-2.93Z"/><path class="cls-376" d="M93.62,32.78A1.65,1.65,0,0,1,92,31.86c.13-1.19,1.14-1.51,2-2a2,2,0,0,1,1,1.95Z"/><path class="cls-377" d="M113.93,24.76c0-.29,0-.59,0-.89l2-1a2.06,2.06,0,0,1,2,.94Z"/><path class="cls-378" d="M202.8,206.78a1.83,1.83,0,0,1-2,2.23l-1.26-.17A5.58,5.58,0,0,1,202.8,206.78Z"/><path class="cls-379" d="M22,92.57a2,2,0,0,0,1.86,1l-.75,2.14A2.19,2.19,0,0,0,21,94.53a1.61,1.61,0,0,1-.26-1.94A.94.94,0,0,1,22,92.57Z"/><path class="cls-219" d="M160.93,226.93c1.15-.74.92-1.92,1-3,1.12,1,2,2.41,3.9,2l1.08,1c0,.66,0,1.32,0,2-2.12-1.93-3.26,1-5,1C161.58,228.92,161.25,227.92,160.93,226.93Z"/><path class="cls-359" d="M144.94,229.9a6.08,6.08,0,0,0,6-1c1.64,0,1.66.84,1,2-2.63.24-.61,2-1,3-.67-.08-1.33-1.12-2,0-1.09,0-2.27.18-3-1Z"/><path class="cls-23" d="M151.9,230.89a2.07,2.07,0,0,0-1-2c1-2,2.58-3.21,5-3,0,.34,0,.67,0,1-.74,1.35,1.55,1.71,1,3l-3,1Z"/><path class="cls-242" d="M263.89,131.43c1.62-1.56,3.29-.16,4.94-.07.68,2-1.57,1.09-2,2l-2,0A1.9,1.9,0,0,1,263.89,131.43Z"/><path class="cls-380" d="M268.88,130.33c0-.29-.05-.59-.08-.88.36-.71.73-1.42,1.09-2.14l2.79.23a4.09,4.09,0,0,1,.15.85c-.14,1.93-1.93,2.64-2.92,3.94C269.08,131.91,269.52,130.85,268.88,130.33Z"/><path class="cls-381" d="M268.88,130.33l1,2a4.92,4.92,0,0,0,0,.94l-1.11.09h-2l2-2C268.85,131,268.87,130.67,268.88,130.33Z"/><path class="cls-382" d="M258.84,151.23c-1.47-2.42-.35-3.09,2-2.93-.34,1-.68,1.94-1,2.91l-.49,0Z"/><path class="cls-383" d="M128.92,233.88l0-3a1.24,1.24,0,0,1,1-1c1.18.72,1,1.89,1,3l-1,1A.59.59,0,0,1,128.92,233.88Z"/><path class="cls-384" d="M128.92,233.88h1c-.28,1,1.16,2,0,3l-1,0C128.66,235.84,127.28,234.86,128.92,233.88Z"/><path class="cls-385" d="M129.93,229.89l-1,1h-3a.66.66,0,0,1-.22-.68c.08-.22.15-.33.23-.33,1.4-.06,2.06-3.08,4-1C129.93,229.23,129.92,229.56,129.93,229.89Z"/><path class="cls-373" d="M230.86,194.07c-1.28,0-2.8.23-3.37-1.27-.32-.85.61-1.36,1.37-1.72l3,3Z"/><path class="cls-386" d="M250.87,164.23l-1-.95c1.59,0,4.35-2.35,3.91,1.88Z"/><path class="cls-290" d="M241.88,173.23l1,.94c.94,1.31.06,2.61,0,3.91C241.2,176.72,242.07,174.87,241.88,173.23Z"/><path class="cls-234" d="M125.93,229.91v1c-.33.66-.67,1.32-1,2-1.75.42-1.83,3.09-4,3a2.06,2.06,0,0,1-2-1,7.87,7.87,0,0,1,2-6C123,227.22,124.38,229,125.93,229.91Z"/><path class="cls-387" d="M120.94,228.89c0,2.21-1.26,4-2,6h-1c.42-2.1-1.09-3.42-2-5v-1h0a5.91,5.91,0,0,1,5,0Z"/><path class="cls-388" d="M214.88,203c1,.24,2,1.63,3,0,.84-1.65,1.21-1.69,4-.37a1,1,0,0,1,.07,1.34,2,2,0,0,1-2,1c-1.67.32-3.34,1.06-5,0C214.88,204.34,214.88,203.67,214.88,203Z"/><path class="cls-389" d="M214.87,205h5a2.08,2.08,0,0,1-2,1C216.91,205.55,215.34,206.93,214.87,205Z"/><path class="cls-390" d="M220.86,199l0-2c1.31-2,3.61.72,5-1.05l0,0,1,.06a6.69,6.69,0,0,0,1,4l-2,1a7.42,7.42,0,0,1-4.17-.29C221.06,200.35,220.53,199.9,220.86,199Z"/><path class="cls-17" d="M221.87,200a6.61,6.61,0,0,1,4,1l-2,2-1,1-1,0c0-.33,0-.65,0-1A6.86,6.86,0,0,1,221.87,200Z"/><path class="cls-391" d="M248.86,169.2l1-1,2,0,.95.94a2.32,2.32,0,0,0-1,2A3,3,0,0,1,248.86,169.2Z"/><path class="cls-392" d="M267.84,123.45v-2c.31-2.38,1.74-1.44,3-1,1.63-.29,3.46-.88,3,2,0,.34,0,.67,0,1C271.84,123.41,269.85,125.64,267.84,123.45Z"/><path class="cls-393" d="M90.93,30.84h-1c-1.4-.05-2.11-1.15-3-2l1-2c0-.63.64-.69,1-1h1c.15,1.85,4.41-.36,3,3C92.32,29.59,91.94,30.53,90.93,30.84Z"/><path class="cls-56" d="M87,28.86a3,3,0,0,1,3,2l-2,2C86.48,31.81,87.08,30.24,87,28.86Z"/><path class="cls-394" d="M88.94,25.87l-1,1-1-1c.34-.33.67-.66,1-1C88.27,25.21,88.61,25.54,88.94,25.87Z"/><path class="cls-247" d="M70,41.81a3.08,3.08,0,0,1-2-3h0c.5-.82.83-1.83,2-1.95l2-1.05,0,1.05C71,38.39,69.56,39.73,70,41.81Z"/><path class="cls-395" d="M80,35.87l-1.05,1a1.83,1.83,0,0,1-2-2c.33,0,.66,0,1,0A2.12,2.12,0,0,1,80,35.87Z"/><path class="cls-396" d="M70,36.85,68,38.8a6.58,6.58,0,0,1-1-3.94c1.28-.58,2,.5,3,.94Z"/><path class="cls-397" d="M70,35.8l-3-.94c-.34-.34-.68-.68-1-1C67.66,33.73,69.2,34,70,35.8Z"/><path class="cls-274" d="M138.92,15.91c-2.42.28-5.1,2.45-7-1a2.07,2.07,0,0,0,2-1c.61-1.5,2.63-1,3.35-2.36,1.75-1.74,2.63,0,3.74.91a1.93,1.93,0,0,1,.28,1.26A3.51,3.51,0,0,1,138.92,15.91Z"/><path class="cls-84" d="M140.92,12.94c-1.29.52-1.66-1.69-3-1-1.67,0-1.67-.82-1-2-.34-1-.67-2-1-3l4,1a1.87,1.87,0,0,0,2,2C142.59,11.31,141.83,12.15,140.92,12.94Z"/><path class="cls-398" d="M136.92,10a2,2,0,0,0,1,2c.73,4.77-3.08.51-4,2C134.52,12.31,133.51,9.49,136.92,10Z"/><path class="cls-106" d="M109.91,21.93c-4.13,2.67-4.13,2.67-8-1a1.83,1.83,0,0,1,2-2c.66-.67,1.33-1.33,2-2C108.69,17.47,111.31,18.12,109.91,21.93Z"/><path class="cls-399" d="M107,13.89c0-.31,0-.63,0-.94.32.32.64.65,1,1C107.59,13.93,107.27,13.92,107,13.89Z"/><path class="cls-344" d="M62,44.83c.28,2.44-3.11,2.63-3,4.93H58c-.46-.44-1.19-.64-1.32-1.4,0-1.51,1.34-2.35,1.78-3.64.15-.88,0-2.1,1.32-2S62.31,43,62,44.83Z"/><path class="cls-400" d="M41,58.69a8.75,8.75,0,0,1,5-1l-2,4C42.7,61,41,60.67,41,58.69Z"/><path class="cls-401" d="M57,48.71l1,1H52v-2C54,46.28,55.56,47.09,57,48.71Z"/><path class="cls-402" d="M57,48.71l-5-.91a2.12,2.12,0,0,1-1-2c1.68-.55,3.58-.8,4-3,1.25.28.53,3.48,3,2a3.21,3.21,0,0,1,1,.95Z"/><path class="cls-48" d="M20.93,101.37l-3,1.13c-.31,0-.63,0-.94,0a2,2,0,0,1,1-2C19.5,98.93,20.71,98.44,20.93,101.37Z"/><path class="cls-403" d="M13,102.44c1.34.21,2.71-2.28,4,.06-1,1.47-2.62.86-4,1C13,103.15,13,102.8,13,102.44Z"/><path class="cls-404" d="M14,118.44l-2,0c0-.64,0-1.29,0-1.93C13,116.76,14.8,116.31,14,118.44Z"/><path class="cls-405" d="M30,68.66l-2,3c-2.44-2.21.52-3.36,1-5C30.77,66.63,30.49,67.59,30,68.66Z"/><path class="cls-406" d="M26,74.63l-2,0c.15-1.52-1.4-1.89-2-2.92C24.16,71.56,25.84,72.07,26,74.63Z"/><path class="cls-407" d="M38,63.7H36l-3-1c0-.34,0-.68,0-1a3.13,3.13,0,0,1,3.21-1.92,2.83,2.83,0,0,1,2.12,1A2.26,2.26,0,0,1,38,63.7Z"/><path class="cls-408" d="M24,85.61c-.35,2.64-2.44,1.79-4,2l1-3c0-.33,0-.66,0-1q.48,0,1,0a.63.63,0,0,1,1,0Z"/><path class="cls-409" d="M22,92.57H21a1.38,1.38,0,0,1-2,0c-.59-1-2.16-1.43-2-3l4,0,1,0A2.64,2.64,0,0,1,22,92.57Z"/><path class="cls-410" d="M59,45.73l-1-.95c0-1,0-2,0-3,2-.11,2-1.55,2-3a6.77,6.77,0,0,0,4,1l2,3c0,2.35-2,1.55-3.13,2H62a2.28,2.28,0,0,0-2.45-1.27C59.17,43.68,59.14,45,59,45.73Z"/><path class="cls-411" d="M62.87,44.83l3.13-2h.92c0,2-1.74,2.24-3,3Z"/><path class="cls-62" d="M38,63.7l0-3a.61.61,0,0,1,1,0,3,3,0,0,1,2,2.95C40,65,39,65,38,63.7Z"/><path class="cls-412" d="M39,60.71H36c-.85-.86-2.68-1.07-2-3l5,1C39,59.39,39,60.05,39,60.71Z"/><path class="cls-413" d="M34,57.74l2,3-3,1-1-1v-5l1,0,1,1C34,57.06,34,57.4,34,57.74Z"/><path class="cls-414" d="M19,92.56h2l0,2c-.16,2.5-3.22,2.12-4,4C13.87,95.28,14.92,93.41,19,92.56Z"/><path class="cls-415" d="M101,20.88l-1,0c-2,.62-3.17-.33-4-2l-1-1,2-2,2-1C99.48,16.94,101.66,18.42,101,20.88Z"/><path class="cls-416" d="M96,18.91l4,2c-1.39,1.75-.2,2.85,1,3.94-.36.91-.88,1.51-2,1-1.47-1.61-2.84-3.33-5.06-4Z"/><path class="cls-363" d="M23,83.61l-1,0c.4-1.32-1.82-2.66,0-4,1.5,1.18,1.88-1,3-1l1,1a2.38,2.38,0,0,1,0,3Z"/><path class="cls-417" d="M170.89,15.89c-2.18.24-3.24-.68-3-2.91,0-.35,0-.69,0-1l3,3C170.89,15.25,170.89,15.57,170.89,15.89Z"/><path class="cls-418" d="M167.9,9l1,0c.16,1.54-1.39,1.94-2,2.95C165,10.17,167.78,10,167.9,9Z"/><path class="cls-375" d="M197.87,17.89a2.86,2.86,0,0,1,3,3c-.68,1.11-1.34.07-2,0Z"/><path class="cls-419" d="M270.84,120.42c-1.1,0-2.28-.17-3,1-1.14-.9-3.25,2-3.86-1l2.87-2,4,1C270.83,119.77,270.84,120.09,270.84,120.42Z"/><path class="cls-420" d="M263.85,100.52a1.84,1.84,0,0,1,1.93-2l1.09.06.94,2A3.19,3.19,0,0,1,263.85,100.52Z"/><path class="cls-167" d="M140.92,12.94c.33-1,.67-2,1-3l1-.06c1.72,1.39,1.72,1.39-1,4a.59.59,0,0,1-1,0Z"/><path class="cls-84" d="M140.91,13.93h1c0,1-.06,1.92-.1,2.87l-2.88-.88A3.44,3.44,0,0,1,140.91,13.93Z"/><path class="cls-421" d="M26,82.59c0-1,0-2,0-3,1.05-1.42,2.45-1.47,4-1-.44,1.74-3.06,1.83-3,3.94H26Z"/><path class="cls-422" d="M90.93,30.84a1.79,1.79,0,0,1,2-1.95l1,1-2,2Z"/><path class="cls-405" d="M99,25.88l2-1,1,1-1,1A1.86,1.86,0,0,1,99,25.88Z"/><path class="cls-344" d="M120.93,228.9h-5A3.38,3.38,0,0,1,120.93,228.9Z"/><path class="cls-211" d="M221.87,200a2.62,2.62,0,0,1,0,3c-1.34.47-2.68-1-4,0-1.92-1.89-.59-3,1-4h2Z"/><path class="cls-423" d="M225.85,196c-.92,3.78-3.48-.09-5,1.05l0-1.86C222.65,194.71,224.16,195.92,225.85,196Z"/></g></g></svg>