<svg xmlns="http://www.w3.org/2000/svg" viewBox="0 0 261.9 247.73"><defs><style>.cls-1{fill:#f6f8f6;}.cls-2{fill:#8ead97;}.cls-3{fill:#87a892;}.cls-4{fill:#88a891;}.cls-5{fill:#86a690;}.cls-6{fill:#86a791;}.cls-7{fill:#87a791;}.cls-8{fill:#7c9c87;}.cls-9{fill:#80a08b;}.cls-10{fill:#86a691;}.cls-11{fill:#89a994;}.cls-12{fill:#8dac97;}.cls-13{fill:#799a85;}.cls-14{fill:#749681;}.cls-15{fill:#82a28c;}.cls-16{fill:#86a792;}.cls-17{fill:#8dae97;}.cls-18{fill:#94b49f;}.cls-19{fill:#779882;}.cls-20{fill:#7b9c86;}.cls-21{fill:#8dad97;}.cls-22{fill:#90b19b;}.cls-23{fill:#83a48e;}.cls-24{fill:#8cac95;}.cls-25{fill:#8eaf9a;}.cls-26{fill:#8fae99;}.cls-27{fill:#7e9d86;}.cls-28{fill:#84a38d;}.cls-29{fill:#7c9d87;}.cls-30{fill:#89a993;}.cls-31{fill:#8eac96;}.cls-32{fill:#84a58f;}.cls-33{fill:#8fae98;}.cls-34{fill:#80a18c;}.cls-35{fill:#85a68f;}.cls-36{fill:#81a38d;}.cls-37{fill:#90ad97;}.cls-38{fill:#42654e;}.cls-39{fill:#8baa94;}.cls-40{fill:#8ead98;}.cls-41{fill:#809f88;}.cls-42{fill:#8cad96;}.cls-43{fill:#83a38e;}.cls-44{fill:#8cab94;}.cls-45{fill:#81a28c;}.cls-46{fill:#81a089;}.cls-47{fill:#8fb09a;}.cls-48{fill:#83a18b;}.cls-49{fill:#8bab96;}.cls-50{fill:#53745d;}.cls-51{fill:#7b9e86;}.cls-52{fill:#799b83;}.cls-53{fill:#7d9e88;}.cls-54{fill:#94b39d;}.cls-55{fill:#7d9e89;}.cls-56{fill:#75967f;}.cls-57{fill:#7a9986;}.cls-58{fill:#83a48f;}.cls-59{fill:#799b85;}.cls-60{fill:#7b9c85;}.cls-61{fill:#7fa08a;}.cls-62{fill:#92ae99;}.cls-63{fill:#87a891;}.cls-64{fill:#94b49e;}.cls-65{fill:#90ae99;}.cls-66{fill:#8aab94;}.cls-67{fill:#9cbaa6;}.cls-68{fill:#6d8e78;}.cls-69{fill:#73977f;}.cls-70{fill:#8dac96;}.cls-71{fill:#89aa92;}.cls-72{fill:#90b09b;}.cls-73{fill:#81a28b;}.cls-74{fill:#89ab94;}.cls-75{fill:#8fad98;}.cls-76{fill:#7b9e89;}.cls-77{fill:#95b39e;}.cls-78{fill:#88a893;}.cls-79{fill:#9abaa4;}.cls-80{fill:#84a490;}.cls-81{fill:#92b19b;}.cls-82{fill:#8aab96;}.cls-83{fill:#8cac96;}.cls-84{fill:#7a9d87;}.cls-85{fill:#91ae96;}.cls-86{fill:#7a9b86;}.cls-87{fill:#97b6a2;}.cls-88{fill:#80a088;}.cls-89{fill:#7d9d87;}.cls-90{fill:#88a792;}.cls-91{fill:#80a28c;}.cls-92{fill:#93b39c;}.cls-93{fill:#7e9e88;}.cls-94{fill:#789983;}.cls-95{fill:#90b097;}.cls-96{fill:#89aa94;}.cls-97{fill:#86a28d;}.cls-98{fill:#688a74;}.cls-99{fill:#96b69e;}.cls-100{fill:#8ca995;}.cls-101{fill:#9abaa2;}.cls-102{fill:#91ad9a;}.cls-103{fill:#799982;}.cls-104{fill:#779883;}.cls-105{fill:#769881;}.cls-106{fill:#90b19c;}.cls-107{fill:#8daa94;}.cls-108{fill:#7b9d85;}.cls-109{fill:#81a28d;}.cls-110{fill:#6b8d74;}.cls-111{fill:#8daf99;}.cls-112{fill:#9db9a8;}.cls-113{fill:#8aab95;}.cls-114{fill:#95b09d;}.cls-115{fill:#7fa18b;}.cls-116{fill:#7b9a83;}.cls-117{fill:#759680;}.cls-118{fill:#98b8a3;}.cls-119{fill:#95b79e;}.cls-120{fill:#7b9b85;}.cls-121{fill:#84a68e;}.cls-122{fill:#658671;}.cls-123{fill:#fefefe;}.cls-124{fill:#92b39d;}.cls-125{fill:#8bac94;}.cls-126{fill:#85a58f;}.cls-127{fill:#84a28c;}.cls-128{fill:#7e9f87;}.cls-129{fill:#90b19a;}.cls-130{fill:#789882;}.cls-131{fill:#7fa188;}.cls-132{fill:#82a38b;}.cls-133{fill:#82a38d;}.cls-134{fill:#789a83;}.cls-135{fill:#83a28b;}.cls-136{fill:#799a84;}.cls-137{fill:#7b9c87;}.cls-138{fill:#789a80;}.cls-139{fill:#8cac97;}.cls-140{fill:#7a9a86;}.cls-141{fill:#8ba996;}.cls-142{fill:#70927a;}.cls-143{fill:#739781;}.cls-144{fill:#8aaa95;}.cls-145{fill:#8aa996;}.cls-146{fill:#91b19a;}.cls-147{fill:#87a793;}.cls-148{fill:#83a38c;}.cls-149{fill:#8caa95;}.cls-150{fill:#81a18d;}.cls-151{fill:#6c8d78;}.cls-152{fill:#87a691;}.cls-153{fill:#85a691;}.cls-154{fill:#81a18a;}.cls-155{fill:#82a28b;}.cls-156{fill:#8aaa94;}.cls-157{fill:#8fae9a;}.cls-158{fill:#87a792;}.cls-159{fill:#90ad98;}.cls-160{fill:#89a893;}.cls-161{fill:#91ae9a;}.cls-162{fill:#779881;}.cls-163{fill:#7c9b86;}.cls-164{fill:#97b7a2;}.cls-165{fill:#7d9d88;}.cls-166{fill:#91b29c;}.cls-167{fill:#8bab94;}.cls-168{fill:#81a38b;}.cls-169{fill:#7e9f89;}.cls-170{fill:#8dac95;}.cls-171{fill:#87a590;}.cls-172{fill:#8bac97;}.cls-173{fill:#75947c;}.cls-174{fill:#7f9f89;}.cls-175{fill:#7f9e8a;}.cls-176{fill:#6d9178;}.cls-177{fill:#85a590;}.cls-178{fill:#7ea089;}.cls-179{fill:#7fa289;}.cls-180{fill:#70917c;}.cls-181{fill:#8aa993;}.cls-182{fill:#7f9f8a;}.cls-183{fill:#87a992;}.cls-184{fill:#8cad97;}.cls-185{fill:#75957e;}.cls-186{fill:#86a893;}.cls-187{fill:#71917c;}.cls-188{fill:#779782;}.cls-189{fill:#7a9b84;}.cls-190{fill:#85a690;}.cls-191{fill:#88a490;}.cls-192{fill:#7c9d88;}.cls-193{fill:#80a18b;}.cls-194{fill:#83a38f;}.cls-195{fill:#84a48d;}.cls-196{fill:#87a692;}.cls-197{fill:#73937d;}.cls-198{fill:#90af98;}.cls-199{fill:#799a81;}.cls-200{fill:#90b09a;}.cls-201{fill:#88a994;}.cls-202{fill:#88a991;}.cls-203{fill:#7d9e86;}.cls-204{fill:#9bb7a4;}.cls-205{fill:#8caf95;}.cls-206{fill:#83a38d;}.cls-207{fill:#92af99;}.cls-208{fill:#86a990;}.cls-209{fill:#7d9c87;}.cls-210{fill:#90af99;}.cls-211{fill:#71927d;}.cls-212{fill:#90af9a;}.cls-213{fill:#88a894;}.cls-214{fill:#7fa08b;}.cls-215{fill:#86a891;}.cls-216{fill:#99b6a3;}.cls-217{fill:#8fb09b;}.cls-218{fill:#91b09c;}.cls-219{fill:#769c85;}.cls-220{fill:#91b19c;}.cls-221{fill:#8dad98;}.cls-222{fill:#83a28d;}.cls-223{fill:#81a08c;}.cls-224{fill:#86a892;}.cls-225{fill:#81a18b;}.cls-226{fill:#91b19b;}.cls-227{fill:#93b49c;}.cls-228{fill:#80a38c;}.cls-229{fill:#84a48e;}.cls-230{fill:#92b29a;}.cls-231{fill:#89aa93;}.cls-232{fill:#91b49b;}.cls-233{fill:#7ea088;}.cls-234{fill:#72947e;}.cls-235{fill:#86a790;}.cls-236{fill:#9ab9a4;}.cls-237{fill:#8eb29a;}.cls-238{fill:#8ba994;}.cls-239{fill:#96b69f;}.cls-240{fill:#89aa95;}.cls-241{fill:#9ab9a5;}.cls-242{fill:#7c9c86;}.cls-243{fill:#95b39d;}.cls-244{fill:#9bb6a2;}.cls-245{fill:#88a992;}.cls-246{fill:#89a793;}.cls-247{fill:#87a48d;}.cls-248{fill:#94b29e;}.cls-249{fill:#91b39c;}.cls-250{fill:#7e9f8a;}.cls-251{fill:#90b099;}.cls-252{fill:#799981;}.cls-253{fill:#84a590;}.cls-254{fill:#8daa95;}.cls-255{fill:#8faf9a;}.cls-256{fill:#88ab95;}.cls-257{fill:#9ab7a1;}.cls-258{fill:#92b09c;}.cls-259{fill:#7c9c84;}.cls-260{fill:#94b49d;}.cls-261{fill:#8bab95;}.cls-262{fill:#799984;}.cls-263{fill:#7f9e89;}.cls-264{fill:#799983;}.cls-265{fill:#70927b;}.cls-266{fill:#7a9c84;}.cls-267{fill:#769782;}.cls-268{fill:#74947d;}.cls-269{fill:#7b9b86;}.cls-270{fill:#8cab95;}.cls-271{fill:#85a78f;}.cls-272{fill:#7d9f89;}.cls-273{fill:#84a690;}.cls-274{fill:#7d9c88;}.cls-275{fill:#779984;}.cls-276{fill:#96b3a0;}.cls-277{fill:#92b19c;}</style></defs><title>资源 1243</title><g id="图层_2" data-name="图层 2"><g id="图层_1-2" data-name="图层 1"><path class="cls-1" d="M261.08,119.13c.27,0,.55,0,.82,0v5a4.25,4.25,0,0,1-.8,0l-.6-.41a4.12,4.12,0,0,1-.36-3.49A2.18,2.18,0,0,1,261.08,119.13Z"/><path class="cls-2" d="M145.39,246.39c-5.61.78-11.19,1.9-16.9,1a1.54,1.54,0,0,1-.44-1.69c.43-.9,1.16-1.66,1.23-2.73.05-.64.1-1.27.18-1.9a16.14,16.14,0,0,1,1.16-3.85c.28-.56.58-1.23,1.15-1.44,1.28-.45,2.18-.86.66-2.13,2-1.83,4.32-1.49,6.64-.72,1.29,1,2.26,2.17,1,3.87-3.37-1.47-1,1.91-2,2.4a2.18,2.18,0,0,1-.88.85c-.41.28-1.56.11-.68,1.19a8,8,0,0,1,2.3,2.1c.93.33.73-1,1.43-1,1.9-.08,3.13,1.72,5,1.76a1.77,1.77,0,0,1,.72,1.09A1.57,1.57,0,0,1,145.39,246.39Z"/><path class="cls-3" d="M118.53.87c3.1.78,6.73-.26,9.2,2.7.36.65-1.52,1.18-.08,1.91a2.74,2.74,0,0,1,.71.84c1.29,2.89-1.46,3.42-2.77,4.8a27.87,27.87,0,0,1-3.62,1.5c-1.4.57-3.25.06-4.16,1.79-2.61.63-5,.71-6.49-2.16a2.55,2.55,0,0,1,.75-2.75,3.76,3.76,0,0,1,1.27-.62c2.08.09,3.78-.43,4.31-2.76a4.86,4.86,0,0,0,.13-3A2.41,2.41,0,0,1,118.53.87Z"/><path class="cls-4" d="M115.55,245.52a50.87,50.87,0,0,1-14-2.92c-2.09-.92-2.23-3.44-4.19-4.85-1.66-1.21.65-2.95,2.64-3.32.74-.1,1.48-.13,2.23-.17,1.61.07,3.42-1,4.74.78a3.11,3.11,0,0,1,.26,1.34c.33.82-1.54,1.32-.44,2.14,1.47,1.1.88-1,1.63-1.18a2.08,2.08,0,0,1,1.88-.12c1,1.88,1.89,3.85,4,4.85C115.28,243,116.77,243.8,115.55,245.52Z"/><path class="cls-5" d="M8.91,89.25a31.2,31.2,0,0,1,3.87-11c1.17-1,3-1.51,2.8-3.63,1-2.68,1-6,4.46-7a2.84,2.84,0,0,1,2.13.61c.86,6.37-3,11.28-5.21,16.68a3.8,3.8,0,0,1-1.11.83,7.62,7.62,0,0,0-3.74,2.76C11.26,89.46,10.3,90.4,8.91,89.25Z"/><path class="cls-6" d="M2.85,118.22c-2-4,.79-7.36,1.23-11a1.67,1.67,0,0,1,1.9-.36,3.47,3.47,0,0,1,1.41,2.27c.08.86-.4,1.62-.36,2.43.82.71,1.81-.17,2.65.29a2.71,2.71,0,0,1,1.23,1.6c.4,4.68.8,9.36-2.21,13.48a1.9,1.9,0,0,1-1.31.53,2.25,2.25,0,0,1-1.09-.88,16.91,16.91,0,0,1-1.8-5.2A2.94,2.94,0,0,0,2.85,118.22Z"/><path class="cls-7" d="M92.64,240.5l-7.89-2.11c-.44-.93.1-1.62.58-2.33a14.22,14.22,0,0,1,1.34-1.46c2.67-2.13.33-3.2-1-4.48a5.63,5.63,0,0,1-.78-1.1c-.5-1.44-1.72-2.64-1.45-4.34a2.21,2.21,0,0,1,1.16-.65,3.78,3.78,0,0,1,1.33.17c1.84,1.2,3.75,2.18,6.06,1.89a1.83,1.83,0,0,1,1,.83c.79,2.34,2.85,4.46,1.33,7.23a7.21,7.21,0,0,1-.1,2C93.81,237.61,94,239.33,92.64,240.5Z"/><path class="cls-8" d="M67.69,230.87l-12.12-5.09c.6-1.06,1.69-1.28,2.71-1.58.52-.28,1.41.09,1.48-.89-1.8-.18-3.9,1.2-5.2-1.1.61-2-1.86-3.3-1.11-5.31a1.66,1.66,0,0,1,1-.67c1.34.17,2.47-.46,3.67-.89a1.71,1.71,0,0,1,1.16.56c2.2,2.67,6.73,3,7.31,7.3C66.46,225.83,69.9,228,67.69,230.87Z"/><path class="cls-5" d="M222,54.48l2.13,1.94c-2.73,3.8.91,6,2.2,8.81a2.16,2.16,0,0,1-1.08,2.37c-2.17.67-2.84-2.44-5-2,.32.8,1.09,1.22,1.35,2a5.23,5.23,0,0,1-1.32,4.65c-4.65-.36-6.58-3.86-8.52-7.36.52-2.35,2.87-1.55,4.21-2.48,1.43-1.64.88-4.16,2.53-5.69.56-.72,1.85-.49,2.09-1.64C220.93,54.55,221.3,54.14,222,54.48Z"/><path class="cls-9" d="M86.68,235.61l-1,1c-2.14-2.43-4.14-.28-6.2.18-4-.89-7.38-3-10.69-5.28-.21-2.13,1.54-3,2.73-4.21a3,3,0,0,1,1.32-.21c1.2-.58.72,2.27,2.22,1.09a2.14,2.14,0,0,1,2.32,1c1.07,2.06,2.6,1.93,4.32.9a5.21,5.21,0,0,1,1.41-.24,4.66,4.66,0,0,1,3.28,1.6C87.45,232.72,87.78,234.12,86.68,235.61Z"/><path class="cls-10" d="M165.4,16.26a4.43,4.43,0,0,1,3,2.08c.92,1.24.47,2.51.1,3.78a6,6,0,0,0-.49,3.57,7.68,7.68,0,0,1,.12,1.26,24.38,24.38,0,0,1-.6,3.89A2.85,2.85,0,0,1,166,32.12c-1.78.17-3.2-.34-3.92-2.08-.19-.37,1-.39.29-.95.11.4,0,.64-.48.74-2.85-.38-5.39-1.28-7-3.86a2.63,2.63,0,0,1,.16-1.36,4.6,4.6,0,0,1,2.33-1.28c1.36-.57,2.68-1.35,4.26-1.06a2.41,2.41,0,0,0,2.68-1.89C164.74,19,164,17.35,165.4,16.26Z"/><path class="cls-11" d="M253.15,95.14c3.51,4.79,5.18,10.34,6.54,16-2.62.53-4-1.62-5.92-2.69-.88-.63,1.08-4.38-2.38-2.17-1.49.16-2.21,3.44-4.33,1.08a3.08,3.08,0,0,1-.37-3.28c3.33-1.8,4.65-4.38,3.18-8.08C250.8,95.1,251.81,94.51,253.15,95.14Z"/><path class="cls-12" d="M165.4,16.26c-.58,1.44.92,2.92-.1,4.35-.53.7-1,1.51-2.08,1.36-1.09-.37-2.05-.88-2.18-2.2,2.68-2.17-.78-1.62-1.1-2.45a7.46,7.46,0,0,0-4.66-1.21,6,6,0,0,1-2.95-1.23c-.17-2.4-2.39-1.83-3.72-2.55a8.46,8.46,0,0,1-1.7-1.05c-1-1.16-3.78-1.13-2.64-3.8a1,1,0,0,1,1.2.15c5.75.93,10.9,3.44,15.75,6.45C162.59,14.93,164.06,15.43,165.4,16.26Z"/><path class="cls-13" d="M45.89,220.48c-2.38-.81-4.94-1.18-7-2.81-.83-1-2.21-1.43-2.7-2.75a4.53,4.53,0,0,1,0-2.68,3.42,3.42,0,0,1,.73-1.14c1.66-.93,3.39-.56,5.12-.33,1.25.4,2.62,0,3.85.59a5.56,5.56,0,0,1,1.61,2.1,7.85,7.85,0,0,1,.85,2.54C48.14,217.84,47.93,219.65,45.89,220.48Z"/><path class="cls-7" d="M208.18,43.47c2,1,3.89,2,5.11,3.91a3.34,3.34,0,0,1-2.71,2.53,5.1,5.1,0,0,0-3.44.91,3.26,3.26,0,0,1-1.28.1c-2.6-.42-4.44-2.08-6.28-3.75A10.94,10.94,0,0,1,198,45.7a4.63,4.63,0,0,1-.32-4.92c1.88-2.55,3.76-1.18,5.63,0a2.6,2.6,0,0,1,1.55,1.84C205.21,46.15,207,43.69,208.18,43.47Z"/><path class="cls-14" d="M220.31,212.77c-2,4.44-6.79,5.34-10.08,8.14a13.91,13.91,0,0,1-2.6-1.54,9.86,9.86,0,0,0-2.95-2.16,2,2,0,0,1,.48-1.89c4.05-.83,7.08-3.83,10.9-5.15A6.71,6.71,0,0,1,220.31,212.77Z"/><path class="cls-15" d="M51.88,21.68l1.93-2.08c2-.09,3.29-1.56,4.72-2.72a5,5,0,0,1,3.34-.57,2.59,2.59,0,0,1,1.43,2.25c-.36,1.66-2.73,2.26-2.31,4.34-3,3.34-7.28,4.64-10.87,7.05a2.84,2.84,0,0,1-2.61-2.05C47.39,24.72,51.5,24.51,51.88,21.68Z"/><path class="cls-16" d="M246.67,184.81c-1.89,2.93-3.62,6-6.69,8-2-1.54-3.87,2-5.93.26,1.15-6.15,5.36-10.28,9.51-14.46a2.26,2.26,0,0,1,1.74,1.07C246.29,181.22,244.12,183.64,246.67,184.81Z"/><path class="cls-17" d="M195.44,233.71c-1.74,1.67-3.55,3.18-6.21,2.8-1.12-1-1.14-2.39-1.23-3.74-.07-.41-.11-.83-.17-1.24a7.89,7.89,0,0,0-1.54-2.56c-.72-1.35-2.8-1.27-3.16-3a17,17,0,0,1,13.12-5.54c1.24,3.73-2.08,4.32-4,5.85C189.64,230.35,194.09,231.36,195.44,233.71Z"/><path class="cls-18" d="M178.25,23.79c6.7,4.12,14,7.24,20,12.46a.88.88,0,0,1,.34.71c0,.27,0,.41-.11.41-1.08.8-2.38.49-3.59.7-2.27-.45-2.92-3-5-3.78-1.52-.91-3.32-.87-4.92-1.48-1.14-.07-.48-3.14-2.62-1.56a2.71,2.71,0,0,1-2.93-1.42C179.05,27.82,176.5,26.24,178.25,23.79Z"/><path class="cls-19" d="M261.08,119.13l-.34,1c-1.19,1.32-.36,2.64,0,4l.37,0c-.86,1.64,1.08,4.47-2.17,5.1-1.11-.79-2.59-.3-3.7-1.07-1.62-.72-1.86-1.8-.87-3.22,1.23-1.73,1.75-3.54.58-5.53-.27-3,1.44-4.52,4-5.36C261.93,114.79,260.44,117.4,261.08,119.13Z"/><path class="cls-20" d="M45.89,220.48l2-4.78c-.51-.92.09-1.15.81-1.31a11.57,11.57,0,0,0,5.16,2.31c0,1.39.86,2.18,1.86,3,1.6,1.34.35,1.68-.85,1.94-1.19,1.3,3.09,2.57,0,3.89C50.88,225.59,49.71,220.7,45.89,220.48Z"/><path class="cls-21" d="M167.32,22.6l1.11-4.26a31.77,31.77,0,0,1,8.89,5.12,2.26,2.26,0,0,1,.33,2c-.37,1.85-.51,3.86-2.89,4.37-1.35-.61-2.37-2-4.06-1.85a1.82,1.82,0,0,1-.95-.86C169.38,25.38,167.93,24.21,167.32,22.6Z"/><path class="cls-22" d="M219.1,56.43c-2.69,1.6,2.35,6.5-3,7-2.24-.64-2.6-2.21-2.12-4.21.26-1.24,1.17-2.09,1.82-3.08.18-1.26-1-1.43-1.65-2a3.54,3.54,0,0,1-1.63-2.22c.15-1.74.72-3,2.85-2.57,2.82.94,5.23,2.39,6.6,5.18-.3.31-.6.63-.91.94C220.66,56.23,219.64,55.88,219.1,56.43Z"/><path class="cls-23" d="M245,179.87l-1.07-1.19c-1.1-3.81.81-6.5,3.31-9,1.55,0,3,.55,4.59.62a3.82,3.82,0,0,1,2.1,1.58l-3.73,7C248.49,179.6,246.86,180.49,245,179.87Z"/><path class="cls-24" d="M8,176.86a31.26,31.26,0,0,1-4.1-12.92c1.27-.84,2.28,1.15,3.56.32a2.83,2.83,0,0,1,2.48.54c.73,1.08,1.69,2.8,1,3.48-2.5,2.67.65,3.67,1.26,5.38a2,2,0,0,1-1.13,2.3C10.14,176.35,8.68,175.2,8,176.86Z"/><path class="cls-25" d="M226.06,65.4c-3-2.49-6.75-4.81-1.95-9a3.34,3.34,0,0,1,1.83,2.29,1.36,1.36,0,0,1,.46,1.09c.06.75-.11,1.57.68,2.07.68.2,1.44.05,2.07.47l3.92,4a2.75,2.75,0,0,1-2.19,1.87C228.5,68.6,227.12,67.27,226.06,65.4Z"/><path class="cls-26" d="M68.71,9.63a36,36,0,0,1,10-4,2.45,2.45,0,0,1,1.74,2.09A2.16,2.16,0,0,1,79.2,10c-.88.9-3.34-1.27-3.2,1.65a13.39,13.39,0,0,1,0,4.51,1.81,1.81,0,0,1-2.3.86c-1.74-1-3.42-2-5-3.16C67.83,12.44,71.29,11.06,68.71,9.63Z"/><path class="cls-27" d="M30.78,209.13c-.61-.48-1.21-1-1.81-1.46a2.73,2.73,0,0,0-2-2h0c-1.18-2.38,2.14-4.45.47-6.87a2.61,2.61,0,0,1,.36-1.31c1.45-1.2,3.5-1.76,4.12.13.82,2.45,3.25,2.54,4.43,4.2a2.86,2.86,0,0,1-.92,3.1A7.67,7.67,0,0,0,32.35,208,3.27,3.27,0,0,1,30.78,209.13Z"/><path class="cls-28" d="M20.19,198.67l-3-3.94c.26-1-.3-2.19.61-3.07a31.23,31.23,0,0,0,5.33-2.1,3.42,3.42,0,0,1,3.41,4.24c-.67,1.66-1.28,3.36-2.93,4.35C22.45,198.15,21.37,198.77,20.19,198.67Z"/><path class="cls-29" d="M259,114c-.4,2.36-4.3,3-3.07,6.16-1.62,1.13-2.47.13-3.22-1.15.2-1.37-.31-2.82.46-4.13.59-1.21.16-2.39-.1-3.57a3.14,3.14,0,0,1,.89-3.1c2.68-.5,3.63,2.35,5.75,2.94C259.45,112.1,259.22,113.05,259,114Z"/><path class="cls-30" d="M1.85,146.92c-2.52-5.92-2.08-12-.93-18.1C2.56,130,2.74,132,3.53,133.58c.38,1.64.12,3.45,1.23,4.92a7.13,7.13,0,0,1,.13,4.09c-.32,1.13-.58,2.29-.93,3.42a3.38,3.38,0,0,1-.8,1.18A1.31,1.31,0,0,1,1.85,146.92Z"/><path class="cls-29" d="M97.64.72l2-.07c1.19.68,2.21,1.47,2.11,3C101.1,5.31,101,7.3,99,8a24.17,24.17,0,0,0-3.14.61A4,4,0,0,1,92.65,9a3.93,3.93,0,0,1-1.58-1.31,3.62,3.62,0,0,1-.57-3.32C92,1.54,95.66,2.74,97.64.72Z"/><path class="cls-31" d="M258.15,161.07c-.68,1.7-1.36,3.39-2,5.09-1.35-.09-2.59-.8-4-.62-1.67-.27-2.37-1.42-2.7-2.92.34-2.87.21-5.92,3-7.87,1.11.1,1.55,1,2.07,1.77.7,1.37,1.34,2.79,2.82,3.55A2.71,2.71,0,0,1,258.15,161.07Z"/><path class="cls-32" d="M3,134.07c-1.7-1.35-1.95-3.28-2.11-5.25.07-.58.15-1.15.22-1.73.91-.79,1.22-2.37,2.87-2.21,1,.65,1.8,1.72,3,2.21L8.32,127a1,1,0,0,1,1.13.41c1.07,2.1-1.23,2.91-1.69,4.43-.42,2-2.36,1.8-3.62,2.59A1,1,0,0,1,3,134.07Z"/><path class="cls-33" d="M245.17,84.16c2.19.53,2.73,2.54,3.73,4.14-.68.68-.3,1.66-.66,2.43a20.53,20.53,0,0,1-3.21,4.1,4.48,4.48,0,0,1-1.05.78,4.32,4.32,0,0,1-1.29.17c-1.08-.11-2.23.17-3.2-.55-1.7-2.38.18-3.15,1.79-4,1.54-.55,1.47-1.79,1.29-3.07a5.23,5.23,0,0,1,0-1.31,3.66,3.66,0,0,1,2-2.53Z"/><path class="cls-34" d="M91.65,7.66l1,1-.4.46c-.85.6-2.38.56-2.07,2.25-.52,2.39-2.14,2.48-3.64,1.29-1.31-1.05-2.89-1.46-4.21-2.41A3.65,3.65,0,0,1,81.93,9c.17-1.71.07-3.47.84-5.09l1.76-.3C87.27,4.32,90,5,91.65,7.66Z"/><path class="cls-35" d="M93.64,235.61v-2c1.34-1.12,3.74.94,4.62-1.55a9.18,9.18,0,0,1,1-2.44,2.08,2.08,0,0,1,1.31-.47c2.76,2.14,1.22,4.29,0,6.44-1.08.12-2.5-.27-2.75,1.32-.21,1.31,1.27,1.17,1.79,1.73.95,1,1.33,2.61,1.95,3.95-1.41,0-2.85.16-4-1C95.45,240.18,93.59,238.53,93.64,235.61Z"/><path class="cls-36" d="M118.53.87v2.8a1.78,1.78,0,0,0,0,2c.07,3.48-1.41,5-5,4-.69-.72-2.31-.3-2.3-1.88.28-1.28,1.18-2.28,1.61-3.5s.64-2.52,1.68-3.43Z"/><path class="cls-37" d="M13.88,188.86a41.46,41.46,0,0,1-4.8-9,1.65,1.65,0,0,1,1.72-.5c1,.32,1.52,1.27,2.49,1.56.8,0,1.53-.45,2.35-.41,1.9.64,3.07,1.81,2.92,4a7.83,7.83,0,0,1-1.79,2.75A8.65,8.65,0,0,1,15,189.14,1,1,0,0,1,13.88,188.86Z"/><path class="cls-38" d="M205.12,217.58c1.51-1,2.17.35,3,1.09,1,2-.38,3.51-.89,5.21l-3.05,3c-2.24-1-2.83-2.85-2.75-5.08C202.12,219.88,202.27,217.56,205.12,217.58Z"/><path class="cls-39" d="M258.79,137.06q0,6.47.07,12.94c-.31.18-.66.07-.93.13-.63.16-1.9-3.09-1.92.34-1.22,1-2.2.87-2.89-.62a8,8,0,0,1,0-5.1c2.12-1.66,3.92-3.49,3.39-6.53C257,137.3,257.68,136.74,258.79,137.06Z"/><path class="cls-40" d="M128.43,3.48c3.41-1,6,1.33,9.06,2.11,1,1.22.41,2.22-.47,3.16a3,3,0,0,1-1.25.54,3.41,3.41,0,0,1-1.27-.19c-.84-.39-1.66-1-2.66-.34-.81.5-1.44,1.57-2.63.85-.54-1.32-.34-3-1.71-3.93v0C126.84,4.52,128.07,4.19,128.43,3.48Z"/><path class="cls-41" d="M35.85,38.4c-.2-1.75.21-3.17,2-3.89,2.73.22,3.59-2.88,5.94-3.34a3.16,3.16,0,0,1,2.33,1.46c-1.28,4.3-4.35,6.79-8.4,8.28C36.4,40.6,35.36,40.07,35.85,38.4Z"/><path class="cls-42" d="M195.44,233.71c-4.68-1.27-6.77-5.26-4.23-8.06a15.49,15.49,0,0,1,3.55,1.59,6.85,6.85,0,0,1,2.13,2.75,3.39,3.39,0,0,1-.72,3.4A1.07,1.07,0,0,1,195.44,233.71Z"/><path class="cls-43" d="M237.42,195l-9.25,7.83c-1.56.4-1.64-.74-1.85-1.76,1.47-3.66,3.87-6.37,7.75-7.55C235.21,193.94,236.7,193.6,237.42,195Z"/><path class="cls-44" d="M3.05,147v-1c1.92-1.62,3.86-.86,5.81-.06a2.85,2.85,0,0,1,1.46,1.57c.06,3.22-3.6,3.08-4.73,5.24a3.2,3.2,0,0,1-1.13.62,10.16,10.16,0,0,1-2.52-.23c-1-1.27-.8-2.73-.71-4.18C1.73,148.22,2.93,148.12,3.05,147Z"/><path class="cls-45" d="M5,104.17a18.36,18.36,0,0,1,1.85-8.08l.58.29c.67,1,1.76,1.17,2.8,1.46a4.29,4.29,0,0,1,2.19,2.48,2,2,0,0,1-.38,1.27c-2.1,1.09-2.51,3.61-4.22,5C5.81,107,5.17,105.82,5,104.17Z"/><path class="cls-46" d="M8.91,89.25c3,.21,2.69-4.73,6.08-4,1.18,1.4.37,2.62-.33,3.86a9.1,9.1,0,0,1-2,1.64c-.91.64-.9,1.61-.88,2.58a4.08,4.08,0,0,1-.25,1.2,5.2,5.2,0,0,1-4.45,1.72l-.3-.2A14.31,14.31,0,0,1,8.91,89.25Z"/><path class="cls-47" d="M248,90.26a2.06,2.06,0,0,1,.94-2q2.11,3.42,4.25,6.84L250,96.25c-.8,1-1.38,2.26-2.92,2.34a4.76,4.76,0,0,1-3.32-2.11,1.15,1.15,0,0,1,.27-1.23h0C246.17,94.27,247.92,93,248,90.26Z"/><path class="cls-48" d="M26.68,49.33c1.07-2.8,3.42-4.63,5.22-6.88a8,8,0,0,1,2.35,4.42,4.53,4.53,0,0,1-3.62,4.5C28.9,51.5,27.39,51.19,26.68,49.33Z"/><path class="cls-49" d="M231.05,67.38l2-1a19,19,0,0,1,4.89,7c-1.35,1.41-2.76,2.69-5,2.2-.86-1.83.42-4.61-2.45-5.56A2.3,2.3,0,0,1,231.05,67.38Z"/><path class="cls-50" d="M202.2,221.78q1,2.53,2,5.08l-2,1.83c-1.54.89-3.08,2.05-4.56-.09a4.15,4.15,0,0,1-.27-3C198.57,223.83,199.44,221.62,202.2,221.78Z"/><path class="cls-51" d="M245,179.87a5.69,5.69,0,0,1,5.2-.94l-3.49,5.88c-1.08-.16-2.1,1.38-3.09.37-.84-.85.28-1.73.52-2.6S244.67,180.77,245,179.87Z"/><path class="cls-52" d="M20,68.38c-3,1.38-1.87,5.09-4,7a1.51,1.51,0,0,1-2.14,0c.78-3.55,2.59-6.67,4.15-9.9C20.25,65.36,20.94,66.32,20,68.38Z"/><path class="cls-53" d="M26.68,49.33a9.83,9.83,0,0,0,4.7,1.28c.38,2.93-2,4.27-3.49,6.17-2.24.55-3.32-.82-4.17-2.54C25.3,53,24.48,50.24,26.68,49.33Z"/><path class="cls-54" d="M238.17,74.16c3,.94,3.93,3.53,4.76,6.17a3.1,3.1,0,0,1-1,.76c-1.83,1.55-3.54,1.69-5.08-.4a3.53,3.53,0,0,1-.48-1.21c.19-1.48-.78-2.83-.52-4.33A4.74,4.74,0,0,1,238.17,74.16Z"/><path class="cls-55" d="M71.74,227.64a9.13,9.13,0,0,1-2.95,3.86l-1.1-.63c.3-3-3.08-5-1.92-8.18l.61-.24a3.22,3.22,0,0,1,2.05,1.43c.62,1,1.66,1,2.66,1.18a2,2,0,0,1,1,.75A1.56,1.56,0,0,1,71.74,227.64Z"/><path class="cls-56" d="M19.78,62.12l1.38-3.6c1.95-.4,3.86-.69,5.1,1.44a5.65,5.65,0,0,1-2.6,4.71C20.55,66.6,19.19,65.84,19.78,62.12Z"/><path class="cls-57" d="M258.79,137.06l-1.87,1c-5.62-1-2.05-4.4-1.84-6.94.73-1.39,1.73-2,3.26-1.18a.43.43,0,0,1,.57.1c1,1.71.14,3.45.08,5.17C258.92,135.83,258.85,136.44,258.79,137.06Z"/><path class="cls-58" d="M227.07,200.82a2,2,0,0,0,1.1,2l-5.16,5.8c-1.22.15-2.38.13-3.18-1C221,204,223,201.27,227.07,200.82Z"/><path class="cls-59" d="M220.08,207.73c1,.05,2.19-.17,2.93.89l-2.7,4.15c-1.65.1-3.08-.22-3.69-2C216.23,208.54,216.7,208.13,220.08,207.73Z"/><path class="cls-60" d="M45.83,32.54a2,2,0,0,1-2-1,2.16,2.16,0,0,1,0-3l2-2c1.1-.48,1.65.1,2,1l2,1.93C49.77,32.2,47.77,32.33,45.83,32.54Z"/><path class="cls-61" d="M1.94,153.15c.63-1,1.31-1.32,2.1-.16,1.1,1.29.48,3.36,2,4.45.87,1.16,1.71,2.33,1.08,3.91-1.15,1.33-2.41,1.85-3.93.56Z"/><path class="cls-62" d="M27.94,198.78c3.29,2.81.25,4.74-1,6.92a6,6,0,0,1-3-3,6.42,6.42,0,0,1,.34-3.22C25.26,197.92,26.72,199,27.94,198.78Z"/><path class="cls-63" d="M208.18,43.47c-1.24,1,1.24,3.94-2,3.94-2.87,0-1.37-2.22-1.78-3.5a16.08,16.08,0,0,0-1.27-2.43c-.19-.83-.06-1.34,1-.93Z"/><path class="cls-64" d="M97.64.72c-.94,3.79-4.89,2.21-7,3.93a3.88,3.88,0,0,1-3.07-2A22.13,22.13,0,0,1,97.64.72Z"/><path class="cls-65" d="M79.48,236.78c3-4.86,3.21-4.86,6.2-.18l-.93,1.79A10.5,10.5,0,0,1,79.48,236.78Z"/><path class="cls-66" d="M155.33,245.42l-4.94.24c-1.91-1.15-1.37-2.63-.56-4.15A3.67,3.67,0,0,1,152,240a4.22,4.22,0,0,1,1.37.07,4.71,4.71,0,0,1,2.28,1.46A4,4,0,0,1,155.33,245.42Z"/><path class="cls-67" d="M136.48,8.63c.33-1,.67-2,1-3a16.88,16.88,0,0,1,8,2l-1.09.15c-1.39,3-4,2.7-6.58,2.34A1.88,1.88,0,0,1,136.48,8.63Z"/><path class="cls-68" d="M54.85,225.56c.59-1,.33-1.61-.69-2.32-1.4-1-.57-1.47.67-1.57,1.4,1.57,2.83,1.05,4.33.13,2.29-1.4,2.34.44,2.63,1.89-.74,1.09-2.09.31-3,1-.77,1.25-2.1.91-3.24,1.13A.83.83,0,0,1,54.85,225.56Z"/><path class="cls-69" d="M34,46.54c-1.87-.77-2.11-2.36-2.07-4.09a11.69,11.69,0,0,1,4-4.05l1.9,2.12c.74,1.4-.38,2-1.17,2.74a4.34,4.34,0,0,0-2.2,2.81Z"/><path class="cls-70" d="M25.89,60.14l-4.73-1.62.77-1.1c.32-1.21,2.81-1.14,1.85-3.11l-.06-.07,4.18,2.19C28.69,58.45,28.94,60.19,25.89,60.14Z"/><path class="cls-71" d="M171.3,242.61l-.42.12-.43-.06c-2.81.41-3.18-1.8-3.93-3.62a3.33,3.33,0,0,1-.36-2.54,2.15,2.15,0,0,1,1.18-.47c.85,0,1.57,1.23,2.52.26,2.37.41.91,3.5,2.92,4.17C172.84,241.58,172,242,171.3,242.61Z"/><path class="cls-72" d="M113.56,4.67a3.11,3.11,0,0,1-2,3,1,1,0,0,1-1.18,0,11.32,11.32,0,0,0-2.49-4.43c-.42-.81-.86-1.61-.3-2.53l5,.1C113.61,1.93,113.2,3.4,113.56,4.67Z"/><path class="cls-73" d="M87.59,2.64a3.16,3.16,0,0,1,3.07,2l1,3c-2-.37-3.23-3.17-5.92-1.55-.52.31.37-2.18-1.19-2.52C85.37,2.68,86.51,2.75,87.59,2.64Z"/><path class="cls-74" d="M185.18,238.4l-1.91,1.23a2.34,2.34,0,0,1-1.65-2.16,7,7,0,0,1,1.25-3.93c1.72-.34,1.75-3.92,4.49-2.34a3.29,3.29,0,0,1,1.32,2.91C187.93,235.88,185.85,236.56,185.18,238.4Z"/><path class="cls-75" d="M43.87,28.56c0,1,0,2,0,3-1.75,1.49-2.05,5.91-6,3A18.4,18.4,0,0,1,43.87,28.56Z"/><path class="cls-76" d="M237.42,195c-1.28-.25-2.77,0-3.55-1.48l-.12-.43.36-.27a3.39,3.39,0,0,0,2.91-1.29c1.71-2.13,1.89-2,3,1.25A4.66,4.66,0,0,1,237.42,195Z"/><path class="cls-17" d="M115.55,245.52c.15-1.54-1.4-1.92-2-3a.82.82,0,0,1-.26-.81q.12-.42.24-.42s6.51,1,6.52,1a4.18,4.18,0,0,0,1.6,3,.88.88,0,0,1-.13,1.09A9.42,9.42,0,0,1,115.55,245.52Z"/><path class="cls-77" d="M47.84,27.58l-2-1c1.61-2.14,3.41-4,6.06-4.87,0,.76,2.18.91.52,2.15S49.36,26.33,47.84,27.58Z"/><path class="cls-78" d="M68.71,9.63A3.82,3.82,0,0,1,72.17,12c-1.08.68-3-.37-3.4,1.63.43,1.31-.49,1.41-1.37,1.54a2,2,0,0,1-1.09-.63,5.49,5.49,0,0,1-.82-3A4.42,4.42,0,0,1,68.71,9.63Z"/><path class="cls-79" d="M167.31,243.52l-1.76.12a19.52,19.52,0,0,1-6.47,0,3,3,0,0,1-.29-2.92,2.94,2.94,0,0,1,3.1-1.66c1.5.67,3,1.43,4.49,2C167.16,241.71,167.76,242.41,167.31,243.52Z"/><path class="cls-65" d="M93.64,235.61l4,6a9.76,9.76,0,0,1-5-1.13C92.9,238.86,92,237,93.64,235.61Z"/><path class="cls-78" d="M60.68,14.4a4.18,4.18,0,0,1,3-2c1.36.24,2.16,1.27,3,2.18l0,0c1.19,1.55.19,2.41-1,3.21a2.4,2.4,0,0,1-1.3.07c-1.32-.29-2-1.66-3.37-1.89C60.59,15.57,60.18,15.11,60.68,14.4Z"/><path class="cls-80" d="M19.78,62.12c.67,1.35.85,3.35,3.23,2.44,1,1.61,1.44,3.08-1,3.84l-2.08,0a3,3,0,0,0-1.95-3Z"/><path class="cls-81" d="M198.25,228.6c1.3,1.12,2.65,0,4,.09-1.23,2.58-3.86,3.35-6.05,4.7,0-1.25,0-2.51,0-3.76C196.2,227.93,197.09,228,198.25,228.6Z"/><path class="cls-82" d="M82.77,3.89a5.61,5.61,0,0,1-.08,4.74c-1.5,1.19-2.24.09-3-1l-1-2.05C79.76,4.37,81.33,4.28,82.77,3.89Z"/><path class="cls-83" d="M101.61,3.68c-.62-1-2.18-1.46-2-3,1.25-1.46,2.59,0,3.88-.11l.62.38c.86,1,1.55,2.24.66,3.51s-1.94.82-2.87-.08C101.8,4.13,101.71,3.9,101.61,3.68Z"/><path class="cls-84" d="M2.85,118.22c.87-.22,1.76-1.08,2.59,0a1.81,1.81,0,0,1-.4,2.88c-.92,1.74-2.16,2.24-3.85,1Z"/><path class="cls-85" d="M128.49,245.56v1.85c-1.79.13-3.63.55-5.22-.73,1.13-.68-.47-2.44,1.16-2.92a5.81,5.81,0,0,1,2.73-.8C128.61,243.31,129.5,244,128.49,245.56Z"/><path class="cls-86" d="M252.94,164.93c1.61-1,2.33.27,3.18,1.23a5.8,5.8,0,0,1-1.3,3.74c-.75.62-2.11.33-1.83-.22,1-2-1.09-1.74-1.49-2.63C251.38,165.94,252.23,165.48,252.94,164.93Z"/><path class="cls-87" d="M204.1,40.55l-1,.93c-1.65-.3-3-2-4.94-1a5.86,5.86,0,0,0-.3-.55,3.28,3.28,0,0,1,.29-2.42c0-.43.08-.85.11-1.28C200.64,37.13,202.2,39.06,204.1,40.55Z"/><path class="cls-88" d="M11,179.86H9.08a3.93,3.93,0,0,1-1.05-3c-.24-4.05,1.71-1.51,3-1l.47.44a3.84,3.84,0,0,1,.39,1.23A2.52,2.52,0,0,1,11,179.86Z"/><path class="cls-89" d="M258.34,129.94c-1.34.13-2.35.62-2.43,2.17-.66,1-1.38,1.86-2.77,1.32a1.53,1.53,0,0,1-.59-1.13,12.57,12.57,0,0,1,1.75-4.15c.49-.41,1.15-.57,1.61-1,1.07.58,2.36.86,3,2.06Z"/><path class="cls-90" d="M13.88,188.86H15a3.4,3.4,0,0,1,3.33,1,1.63,1.63,0,0,1-.32,2c0,1,.19,2.14-.78,2.92A10.36,10.36,0,0,1,13.88,188.86Z"/><path class="cls-65" d="M171.3,242.61l1-2c.5-1,.45-2.37,2-2.54a2.86,2.86,0,0,1,1.37.33c.94.88,1.64,1.82.63,3.1A8,8,0,0,1,171.3,242.61Z"/><path class="cls-91" d="M251.93,166.93c2.21-.23.78,3.1,2.89,3l-.93,2a2,2,0,0,1-1.95-1c-.91-1-2.78-1.45-2.27-3.34C250,166.36,250.93,166.29,251.93,166.93Z"/><path class="cls-32" d="M1.19,122.12a6.36,6.36,0,0,0,3.85-1l2,5c-1.63.75-2.07-1.06-3.16-1.47a3.45,3.45,0,0,1-2.62-1.53Z"/><path class="cls-92" d="M3.23,161.91A6.36,6.36,0,0,0,7,161a2.71,2.71,0,0,1,.8,1.22,2.88,2.88,0,0,1-.8,2.73c-1.52,1.18-1.93-1.09-3.1-1A2,2,0,0,1,3.23,161.91Z"/><path class="cls-93" d="M255.94,150c.54-.41-1.14-2.54,1.14-1.54a7.76,7.76,0,0,1,1.78,1.54l.15,5c-.94.62-1.55,0-2.17-.57-.55-.87-.3-1.9-.56-2.84A5.2,5.2,0,0,1,255.94,150Z"/><path class="cls-94" d="M238.17,74.16a2.16,2.16,0,0,1-2.13,1.2c-.58.68-.21,1.76-1,2.34a3.18,3.18,0,0,1-1.3.4,2.15,2.15,0,0,1-2.16-1.44,2.29,2.29,0,0,1,.24-1.36.92.92,0,0,1,1.23,0l4.92-2A2.64,2.64,0,0,1,238.17,74.16Z"/><path class="cls-95" d="M185.18,238.4c-1.75-3.48,1.24-3.16,3-3.8a1.74,1.74,0,0,1,.1,2.21C187.56,237.91,186.76,238.92,185.18,238.4Z"/><path class="cls-96" d="M177.27,25.58c0-.71,0-1.41,0-2.12a2,2,0,0,1,.93.33c-.52,2.34,2.7,3.37,2,5.77-.53,1-1.32,1.52-2.25.71C176.5,29,176.41,27.32,177.27,25.58Z"/><path class="cls-97" d="M30.78,209.13l1.14-1.39c1.08-.55,1.8.09,2.53.73,1.11,1.94,1.4,3.61-1.44,4.19Z"/><path class="cls-98" d="M207.28,223.88a7,7,0,0,1,.89-5.21c1.44.05,2,1,2.06,2.24A6.53,6.53,0,0,1,207.28,223.88Z"/><path class="cls-99" d="M167.31,243.52l-1-1.94a2.2,2.2,0,0,1-.62-2c.28-.73.68-1.28,1.61-1,.66,1.66,1.14,3.47,3.14,4.1A3.92,3.92,0,0,1,167.31,243.52Z"/><path class="cls-83" d="M107.59.72l1,2C108,4,107.33,5.15,105.62,4.89c-.75-1.28-.76-2.9-1.88-4l-.25-.34C104.91-.82,106.21.82,107.59.72Z"/><path class="cls-100" d="M33,212.66a2.81,2.81,0,0,0,.9-3.93c2.15-1,2.57.31,2.79,2a33.09,33.09,0,0,1-1,3.4,1.85,1.85,0,0,1-1.06.82Z"/><path class="cls-77" d="M58.81,17.62c-1.26,1.68-2.63,3.1-5,2l5-3.89A1.32,1.32,0,0,1,58.81,17.62Z"/><path class="cls-101" d="M150.38,241.58c-.06,1.36-.92,2.72,0,4.08a7.3,7.3,0,0,1-5,.73c0-.28,0-.56,0-.84,1.55-1.13,2.14-3.13,3.77-4.19A1.36,1.36,0,0,1,150.38,241.58Z"/><path class="cls-102" d="M20.19,198.67c.77-.74,1.41-1.92,2.76-.89a3.2,3.2,0,0,1,.8,1.22,2.65,2.65,0,0,1-.77,2.7A5.46,5.46,0,0,1,20.19,198.67Z"/><path class="cls-103" d="M13.87,75.31l2.14,0c1,3.25-1.74,2.4-3.23,2.92C13,77.24,12.76,76,13.87,75.31Z"/><path class="cls-65" d="M180.28,240.45a4.16,4.16,0,0,1-3,1c-1.11-2.06-.42-3.36,1.72-4a1.59,1.59,0,0,1,1.82,1A2.13,2.13,0,0,1,180.28,240.45Z"/><path class="cls-104" d="M113.56,4.67c-2.39-.76-1.07-2.46-1-3.85l2,0C114.43,2.17,115,3.68,113.56,4.67Z"/><path class="cls-105" d="M258.15,161.07l-1.23-.14a3.05,3.05,0,0,1-1.64-3.25,2,2,0,0,1,.8-1,2.92,2.92,0,0,1,2.81,1.28C259,159.09,259.16,160.22,258.15,161.07Z"/><path class="cls-106" d="M155.33,245.42c-1-1.29.07-2.56,0-3.85-.29-.84.16-1.13.9-1.2,1.27.83,1.26,2.58,2.47,3.46a2.43,2.43,0,0,1,.78.9C158.24,245.67,156.79,245.57,155.33,245.42Z"/><path class="cls-107" d="M124.51,244.56c-.39.72.91,2.43-1.24,2.11l-1.75-.22v-.9c-.48-1.94.68-2.74,2.26-3.26C125,242.74,125.31,243.47,124.51,244.56Z"/><path class="cls-108" d="M1.23,123.14l2.82,1c.29.23.39.46.28.68s-.21.33-.32.33c-1,.57-1.36,2.11-2.87,2Z"/><path class="cls-109" d="M179.26,237.6c-1,1.11-2.38,2-2,3.83l-.47.1-.49-.07c-.34-1-.68-1.92-1-2.88-.37-1.32.61-1.52,1.49-1.82a3.4,3.4,0,0,1,2,.34Z"/><path class="cls-11" d="M36.9,214.7c.59,1,2.15,1.43,2,3-1.86-.22-3.46-.86-4.24-2.75l.37-.32A1.3,1.3,0,0,1,36.9,214.7Z"/><path class="cls-110" d="M5,104.17c1.08.59,1.47,2.19,3,2.06a1,1,0,0,1-.09,1.24A1.55,1.55,0,0,1,6,107.23l-1.92,0C4.14,106.11,3.65,104.88,5,104.17Z"/><path class="cls-111" d="M66.74,14.61a3,3,0,0,1-3-2.18l1.79-.94C66.84,12.15,66.76,13.39,66.74,14.61Z"/><path class="cls-112" d="M229.15,62.34,227,63.4c-.9-1.13-1.87-2.24-1.11-3.84,0-.29,0-.57,0-.85C227.83,59.19,228.35,60.89,229.15,62.34Z"/><path class="cls-113" d="M242,80.31l.92,0c.94,1.16,2.55,1.94,2.24,3.83l-.34.23a1.86,1.86,0,0,1-2.15.08C241.64,83.21,240.83,81.92,242,80.31Z"/><path class="cls-114" d="M159.37,243.56a9.11,9.11,0,0,1,6.18.08c-1.81,1.46-4,.88-6,1.09l-.26-.25A.61.61,0,0,1,159.37,243.56Z"/><path class="cls-18" d="M128.43,3.48l-.93,2.18c-.88.06-1.4,2.32-2.12,1-.89-1.67,1.18-2.27,2.35-3A4.06,4.06,0,0,1,128.43,3.48Z"/><path class="cls-11" d="M58.81,17.62c0-.64,0-1.27,0-1.91l1.85-1.31,1.12,1.23q.42.33.27.66c-.09.22-.19.33-.28.33Z"/><path class="cls-36" d="M180.28,240.45v-1.84c.45-.75.87-1.56,2-1l1,2C182.47,240.61,181.38,240.54,180.28,240.45Z"/><path class="cls-115" d="M210.15,49.46l3.14-2.08,1,1A23.07,23.07,0,0,1,212.25,51c-.73.62-1.47,1.11-2.4.36A1.56,1.56,0,0,1,210.15,49.46Z"/><path class="cls-116" d="M3.05,147c.42.45,1.29,1.1,1.19,1.3-.66,1.4-2,.39-3,.66-.18-.8-.29-1.58.62-2.05Z"/><path class="cls-117" d="M23,201.7v-2.91c1.1-.55,1.52.23,2,1,0,1.07.23,2.23-.92,2.95Z"/><path class="cls-118" d="M212.11,50.46a3.51,3.51,0,0,1,2.2-2l1.07.88a3.28,3.28,0,0,0-2.28,3.09,1,1,0,0,1-1.25,0A1.54,1.54,0,0,1,212.11,50.46Z"/><path class="cls-119" d="M188.32,236.81c0-.74-.07-1.47-.1-2.21l-1-3a1.39,1.39,0,0,1,2,0c0,1.63,0,3.26,0,4.89A4.22,4.22,0,0,1,188.32,236.81Z"/><path class="cls-120" d="M259,135.21c-1.19-1.71.23-3.45-.08-5.17C260.69,131.74,259.81,133.47,259,135.21Z"/><path class="cls-62" d="M27,205.71c.85-.16,1.76-1.31,2.48-.2.28.44-.3,1.43-.48,2.16Z"/><path class="cls-9" d="M23.78,54.31c1.54,2.32-.73,2.38-1.85,3.11A3.93,3.93,0,0,1,23.78,54.31Z"/><path class="cls-121" d="M258.89,158l-3-1a1,1,0,0,1,.22-1.34A2.44,2.44,0,0,1,259,156Z"/><path class="cls-117" d="M259,156l-3,0a1.58,1.58,0,0,1-.28-1.9,1,1,0,0,1,1.23-.1L259,155A1,1,0,0,1,259,156Z"/><path class="cls-122" d="M260.73,124.13c-.56-1.32-3.46-2.65,0-4C260.74,121.49,260.73,122.81,260.73,124.13Z"/><path class="cls-123" d="M253,132.08l0,1c.24,3.65,3.77,7.05.86,11,0,1.95,0,3.89,0,5.84-.63,1.57.95,3.6-1,4.88-1.63,2.51-1.75,5.53-2.74,8.26a9.28,9.28,0,0,1-2.2,6.73,30.63,30.63,0,0,0-4,9l-9.78,14.13a.83.83,0,0,0-.24.7q-3.41,3.66-6.8,7.31a33.18,33.18,0,0,0-7,6.91c-1.31.82-2.76,1.49-3.46,3-3.8,1.71-6.55,5.83-11.45,5a17.71,17.71,0,0,1-9,4.82c-4.4,1.82-9.14,2.91-12.92,6l-.52.36a31.13,31.13,0,0,0-4.77,1.44,17.74,17.74,0,0,1-1.9.51c-2.37.76-4.89.76-7.29,1.36a9.49,9.49,0,0,1-1.3.32,36.88,36.88,0,0,0-3.88.88,30.89,30.89,0,0,0-3.24.85,9.22,9.22,0,0,1-1.36.31,17,17,0,0,1-2.14.2,26.58,26.58,0,0,0-5.81.87c-3.16.08-6.23.88-9.39,1a4.71,4.71,0,0,1-2.2-1c-2.45,0-4.95-.57-7.28.7a3,3,0,0,1-2.75,1.24c-2.28-.27-4.51-.84-6.77-1.17-1.89-.68-3.93-.54-5.85-1a21.51,21.51,0,0,0-3.64-.72c-4.68-.49-9.07-2.21-13.63-3.23v-.07c-.63.49-1.22.17-1.82-.09-1.7-.9-3.84-1-5.09-2.7l0,0a21.7,21.7,0,0,1-6.89-1.92,1,1,0,0,0-.81-.18c-1.63-.54-3.44.09-5-.79a9.06,9.06,0,0,1-1.2-.43c-.76-.34-1.51-.72-2.29-1-1-.4-2-.68-3-1.06a22.54,22.54,0,0,0-4.92-1.69c-2.67-1.22-5.11-2.88-7.77-4.11-1.93-1.47-4.13-2.52-6.13-3.87-1-.75-2.14-1.41-3.14-2.23a19.3,19.3,0,0,0-3.39-2.71,10,10,0,0,1-1-.71c-1-1-2.18-1.79-3.29-2.64a21.86,21.86,0,0,0-2.11-2,19.69,19.69,0,0,0-2.38-1.64,7.46,7.46,0,0,1-1-.67,14,14,0,0,1-2.47-2.85,8.11,8.11,0,0,0-4.17-3.23c-1.51-1.83-2.47-4.08-4.36-5.62A34.4,34.4,0,0,1,24,183c-3.9-5-5.23-11.39-9-16.48-1.19-1.58-1.2-3.55-1.77-5.34-.32-1.14-.68-2.27-1-3.41a16.38,16.38,0,0,1-.48-2.87c-.06-1.74-.76-3.38-.88-5.12.31-3.42-1.23-6.51-1.74-9.78a12.13,12.13,0,0,1-.37-2.39c-.87-3.53,1.34-7,.29-10.5a.94.94,0,0,0-.69-.16,37.65,37.65,0,0,0,1.81-13.57c.5-1.72-.74-3.39-.18-5.11a9.08,9.08,0,0,1,.28-1.47c.71-1.83.18-4,1.8-5.59a1.5,1.5,0,0,0,.16-1A8,8,0,0,1,12.1,97a11.47,11.47,0,0,1,.29-1.32c.65-2.19.93-4.5,2.21-6.47.74-1.2.58-2.72,1.42-3.89l6-16.9c1.54-1,.94-2.48,1-3.84l2.88-4.42c1.43-.82,1.72-2.27,2-3.71,0-2.64,2.84-3.57,3.48-5.82A10,10,0,0,0,34,46.54h0c.71-1.33.67-3.09,2.25-3.93.71-.55,1.49-1,1.54-2.09a36,36,0,0,0,8.08-8l4-3c3-3.33,7.43-4.48,10.9-7.09.6-1.3,1.82-1.83,3-2.46a49.17,49.17,0,0,0,4.6-2.14c1.6-.5,3.14-1.29,4.89-1.17l.64.05,2.11-.92a3.63,3.63,0,0,1,1.14-1.1C82.16,12.19,88,14,93.16,11.87a9.8,9.8,0,0,1,2.23-.36c2.12-.22,4.18,1.05,6.34.29a13.39,13.39,0,0,1,3.46-.29c2.08.79,4.27-.47,6.36.29,1.68,2.67,4.57,1.47,6.87,2.14a3.78,3.78,0,0,1,1.89-.06c.41.09.82.21,1.23.34,2.07.54,4.16,1,6.21,1.69,1.28.43,2.62.61,3.92.94a84.06,84.06,0,0,1,13,3.65A10.69,10.69,0,0,1,146,21c3.08,1.62,6.64,2.24,9.45,4.44,2,1.9,4.55,2.84,6.94,4.07h0a6.33,6.33,0,0,0,3.92,2.13c4.74.51,8.27,3.48,12.09,5.87a23.7,23.7,0,0,0,2.25,1.37c2.1,1.16,4,2.62,6.19,3.67a31.3,31.3,0,0,1,5.89,4.34c1.49,2.43,3.73,4.11,6,5.77,1.93,1.42,4.18,2.35,6,3.87A8.67,8.67,0,0,1,206.16,58c1,3,5.94,2.46,5.86,6.45,1.94,3.4,5.1,5.58,8,8l.63.07a15.52,15.52,0,0,1,3.06,2.28,7.73,7.73,0,0,1,2.19,2.33c1.27,2.5,3.22,4.54,4.7,6.9,1,1.66,2.08,3.28,3.19,4.88,1.71,2.51,3.3,5.09,4.82,7.72.71,1.07,1.36,2.18,2.11,3.24s1.44,2.17,2.18,3.24c1.41,3,3.66,5.57,4.81,8.72.61,1.5,2.08,2.31,2.87,3.65.78,1.73.49,3.68,1.17,5.44.32,1.14.67,2.26,1,3.4.53,2.11.06,4.3.53,6.42A1.8,1.8,0,0,1,253,132.08Z"/><path class="cls-124" d="M141.42,233.76c3.28-.8,6.54-1.73,10-1a1.14,1.14,0,0,1,.28.74c0,.28,0,.41-.09.42a10,10,0,0,1-2.55,2.65,4.42,4.42,0,0,0-1.33,2.5,1.69,1.69,0,0,0,.86,1.78,2.31,2.31,0,0,1,.83.72c-1,1.62-.8,4.51-4,4v-1c-2.39-1.37-6.7-1.71-2.74-6.16C143.91,237,140,235.87,141.42,233.76Z"/><path class="cls-5" d="M123.54,242.55l-2,3c-1-.3-3.35.71-2-2a3.21,3.21,0,0,0,.74-1.72c-.06-2.89-1.73-5.95.91-8.55a13.85,13.85,0,0,0,5.38,2.06,18.85,18.85,0,0,1,2.19,3,2.76,2.76,0,0,1,.13,1.24c-.14,1.58.82,2.71,1.6,3.91a1.81,1.81,0,0,1-2,2,1.82,1.82,0,0,0-2-2,2.37,2.37,0,0,1-1.43-1.11,6,6,0,0,1-.82-2.16C124,241,124.39,242,123.54,242.55Z"/><path class="cls-125" d="M141.42,233.76c2.37,1.57,3.48,3.86,2.68,6.53-.75,2.47-1,2.39,1.31,4.27-2.35,1.07-3.73-.28-5-2a5.43,5.43,0,0,1-1.75-3.2,2.85,2.85,0,0,1,.73-2.76c1.2-1-.28-1.92,0-2.87Z"/><path class="cls-10" d="M128.49,239.58v-1c-1-.78-1.18-2.09-2-3-2.29,1.08-3.75-.09-5-1.86.28-.49.62-.56,1-.14l7,1c1.32.55,1.2,2.05,2,3l-1,4C128.72,242,128.65,240.74,128.49,239.58Z"/><path class="cls-126" d="M131.47,237.59c-2.31.11-1-2.18-2-3l2.68-.19c1.14.36,2.77-.25,3.3,2.18C133.81,236,132.09,235.43,131.47,237.59Z"/><path class="cls-127" d="M139.44,239.58c1.18.72,1,1.9,1,3-.73.89-.45,2.38-1.76,2.91-.08-.64-.16-1.27-.23-1.91a2.87,2.87,0,0,1-.6-2.68A2,2,0,0,1,139.44,239.58Z"/><path class="cls-128" d="M139.44,239.58l-1,1a1.81,1.81,0,0,1-1-1c.22-1.35-.53-2.82.51-4a16.92,16.92,0,0,1,1.44,1C139.43,237.6,139.44,238.59,139.44,239.58Z"/><path class="cls-129" d="M128.49,239.58l2,2v2C126.73,241,126.73,241,128.49,239.58Z"/><path class="cls-130" d="M137.47,239.6l1,1v3l-3-2a2.13,2.13,0,0,1,1-1.93Z"/><path class="cls-131" d="M136.48,239.65a2.06,2.06,0,0,1-1,1.93c-.87-.56-2.26-1.07-1.4-2.34C134.72,238.24,135.66,239.44,136.48,239.65Z"/><path class="cls-132" d="M111.55,11.8c-1.77,1.85-3.83,1.59-6,.79-1.08-.69-1.68-1.46-.42-2.54a19.6,19.6,0,0,1,3.42-1.73,3.09,3.09,0,0,1,1.25,0c.87.52,2,.57,2.73,1.35Z"/><path class="cls-133" d="M127.5,5.68c2.69.3,1.78,2.41,2,4a2.82,2.82,0,0,1-.58,1.79,2.67,2.67,0,0,1-1.68.94,2.56,2.56,0,0,1-1.88-.56.88.88,0,0,1,.16-1.17C125.41,8.69,129.21,8.29,127.5,5.68Z"/><path class="cls-11" d="M125.51,10.65c0,.33,0,.65,0,1-.41,3.13-2.53,3.45-5.06,3.11v0c-.66-1.38.62-2.09,1.08-3.08A6.64,6.64,0,0,1,125.51,10.65Z"/><path class="cls-134" d="M118.53,5.67c-.84.27-2,1.11-2.31-.31s1.25-1.5,2.32-1.69C119.55,4.34,119.55,5,118.53,5.67Z"/><path class="cls-135" d="M121.53,11.64l-1.08,3.08a1.88,1.88,0,0,1-2-.78C118.25,11.54,120.55,12.49,121.53,11.64Z"/><path class="cls-136" d="M112.57,9.66c-1.09-.05-2.27.18-3-1a1.18,1.18,0,0,1,1-1c.33,0,.66,0,1,0l2,1.94Z"/><path class="cls-11" d="M99.53,229.55c4.94-1,9.3,1.72,14,2.13a2.41,2.41,0,0,1,.48,2.79,3.19,3.19,0,0,1-1,1.06c-1.67.9-3.25,1.08-4.57-.61-2.55-5.12-3.82.87-5.79.68h-2C99.58,233.71,102.65,231.08,99.53,229.55Z"/><path class="cls-137" d="M102.63,235.6c.91-2.69,2.45-4.43,5.63-4,4,.6.73,1.92.33,3,0,1.68-.8,1.67-2,1C105.3,233.8,104,235.93,102.63,235.6Z"/><path class="cls-138" d="M106.62,235.61a2.05,2.05,0,0,0,2-1,3.24,3.24,0,0,0,4,0,1.86,1.86,0,0,1,.41,2c-.58.86-1.27,1.48-2.41,1l-2,0c-1.12.59-1.53-.23-2-1C106.62,236.27,106.62,235.94,106.62,235.61Z"/><path class="cls-139" d="M110.57,237.63l2-1a2.28,2.28,0,0,1,.64,1c0,1.32,1.61,2.5.35,3.93v1C111.59,241.51,109.18,240.72,110.57,237.63Z"/><path class="cls-140" d="M106.64,236.6l2,1c-.06,5.23-3.31-.52-3.68.5Z"/><path class="cls-141" d="M16,85.3c0,1.4.21,2.88-1,4a.65.65,0,0,1-1,0l1-4Z"/><path class="cls-30" d="M11,108.2c0,1.79.1,3.58-.9,5.19L9,112.18c-1-1-2,.87-3,0-2-1.78.91-1.9,1-3C8,107.46,9.31,107,11,108.2Z"/><path class="cls-19" d="M11,108.2a6.54,6.54,0,0,0-4,1,2.05,2.05,0,0,1-1-2l2,0c1-.56.51-3,2.53-2.25,1.22.43.93,1.52.6,2.47A.94.94,0,0,1,11,108.2Z"/><path class="cls-142" d="M4,125.14c0-.34,0-.68,0-1l3,2c0,.32,0,.64,0,1C4.8,128.24,4.21,127,4,125.14Z"/><path class="cls-143" d="M6,112.17c1-.28,2-1.59,3,0C8,111.85,7,115.24,6,112.17Z"/><path class="cls-144" d="M92.62,226.69c2,.62,4.19.51,5.88,2a5.38,5.38,0,0,0,1.11,3.94c-1.46,3.45-3.82,1.62-6,1-.39-1.12,1.54-2.55-.72-3.5C91.26,229.42,92,227.91,92.62,226.69Z"/><path class="cls-145" d="M79.7,222.68a12.38,12.38,0,0,1,5.19,1.89l-1.15.1a5.64,5.64,0,0,1-1.56,2.23,4,4,0,0,1-1.32.53,2.63,2.63,0,0,1-2.61-1C77.54,224.72,78.13,223.51,79.7,222.68Z"/><path class="cls-60" d="M86.68,235.61a6.72,6.72,0,0,0-1-4c0-.53-.32-1-.29-1.55.09-.15.19-.3.29-.45a4.18,4.18,0,0,1,4,2.92C90.16,234.26,87.82,234.65,86.68,235.61Z"/><path class="cls-144" d="M85.71,224.75a12.61,12.61,0,0,1,6.89,1.92C89.77,228,87.49,227.24,85.71,224.75Z"/><path class="cls-146" d="M81.71,226.66a3.15,3.15,0,0,1,2-2c.5,1.39,2.09,2.24,1.94,4C83.72,229.27,82.7,228,81.71,226.66Z"/><path class="cls-137" d="M81.71,226.66c1.73-.18,2.59,1.43,4,2v1h0c-1.29,1-2.37,0-3.53-.35-.86-.75-1.31-1.58-.43-2.62Z"/><path class="cls-147" d="M60.87,214.49a31.08,31.08,0,0,1,7.86,4.28c.48,2.4-1.32,3.08-3,3.89v0c-2.08-.76-2-4.73-5.77-3.42-1.45.5-1-2.23-1.21-3.55C58.51,213.67,60.16,214.88,60.87,214.49Z"/><path class="cls-148" d="M52,208.6l2.79,2.14c0,2,2.35,3,2.26,5-.53.83-1.16,1.41-2.23.94h-1c-1.78-.36-4.27,1-5-2-.33-.65,0-1,.53-1.31.63.13-.07.5.44.08s.19-.59-.32-.58a3,3,0,0,1-.86-.72A3.14,3.14,0,0,1,48.2,211a2.46,2.46,0,0,1,.67-1.79A2.91,2.91,0,0,1,52,208.6Z"/><path class="cls-149" d="M56.83,215.64c-.71-1.62-4.88-1.81-2-4.9,2.14,1.07,4.42,1.9,6.07,3.75-.17,1.29-1.79.14-2.08,1.23h-1A.57.57,0,0,1,56.83,215.64Z"/><path class="cls-150" d="M58.81,224.65c.71-1.19,1.88-1,3-1C61.53,226.27,60.08,225.19,58.81,224.65Z"/><path class="cls-151" d="M56.83,215.64l1,.08c-.37,2.18-1.35,2.52-3,1Z"/><path class="cls-152" d="M212,64.42c-1.76-2.56-5.67-2.7-6.74-6a2,2,0,0,1,1.82-1.52,3.11,3.11,0,0,1,1.2.29c1.6.61,3.35-.57,4.92.4.92.32,1.32,1.18,1.89,1.86-1.27,1.73.44,2.7,1,4C215.08,65,213.16,63.19,212,64.42Z"/><path class="cls-153" d="M231.05,67.38v3l-.55.54a5.47,5.47,0,0,1-5.22-.14,2.55,2.55,0,0,1-.9-2,2.26,2.26,0,0,1,.69-1.33l1-2C228,65.47,228.86,68.05,231.05,67.38Z"/><path class="cls-154" d="M225.06,67.39v1a3.47,3.47,0,0,1-2.15,1.34c-1.52-.06-1.08-1.67-1.83-2.34-.69-.86-3.73-.5-1.55-2.87,1.2-1.3,2.36-1.06,3.23.38A5.09,5.09,0,0,0,225.06,67.39Z"/><path class="cls-25" d="M221.08,67.38l2,2c.25,2.29-.08,4-3,3v0Z"/><path class="cls-155" d="M219.1,56.43a2.06,2.06,0,0,1,2-1c.18.71,1,1.51.16,2.12C220,58.41,220,56.54,219.1,56.43Z"/><path class="cls-156" d="M79.7,222.68a6.65,6.65,0,0,0-1,4,4.46,4.46,0,0,1-.17,1.85c-.39.71-.65,1.62-1.8,1.14a2,2,0,0,0-2-1,10,10,0,0,1-1.33-2.23,2.08,2.08,0,0,1,.27-1.24,4,4,0,0,1,1.56-1.07c1.36-.28,2-2.15,3.76-1.61A.79.79,0,0,1,79.7,222.68Z"/><path class="cls-49" d="M76.74,229.63a2.08,2.08,0,0,0,1-2c2.35-.37,3.72.58,4,3C79.36,233.68,77.7,233.4,76.74,229.63Z"/><path class="cls-156" d="M71.74,227.64v-2c-.67-.73-1.67-1-2.37-1.67-.86-.83-1.57-1.92-.86-3,.94-1.43,2.24-.8,3.4-.07,1.35,1.3,2.43,2.71,1.82,4.76h0c-.54.55-.2,1.54-1,2Z"/><path class="cls-157" d="M81.7,230.63c-1.2-1.16-2.31-2.46-4-3l1-1,3,0a2,2,0,0,0,1,2,1.3,1.3,0,0,1,0,2Z"/><path class="cls-158" d="M82.68,230.61v-2l3,1c.07.67,1.1,1.33,0,2Z"/><path class="cls-159" d="M72.74,227.63a2,2,0,0,1,1-2c.34,1,.67,2,1,3C73.38,229.66,73.65,227.49,72.74,227.63Z"/><path class="cls-160" d="M178.27,38.53l-12-6.86,1.06-1.14c.25-1.32.93-2.65,0-4v-1c2.42-1.5,2.15,1.07,3,2h0c1.13,1.06,3,.71,4,2,2.07-.52,1.55-3,3-4,.26,1.88-.46,4.5,3,4,.72,1.17,1.89,1,3,1,.32,2.32-3,2.35-2.85,4.56C180,36.42,179.59,37.78,178.27,38.53Z"/><path class="cls-161" d="M155.41,25.47c-3.79-.1-7-1.88-10.13-3.67,1-3.72,3.91-4.37,7.16-4.5,3,.14,6.22-.51,8,2.91.57,1.39-.47,1.71-1.4,2.1-1.48.22-4.43-1.91-3.53,2.18C155.46,24.82,155.43,25.15,155.41,25.47Z"/><path class="cls-162" d="M155.48,24.49c-.79-1-3-1.64-1.5-3.5s2.86.71,4.37.62a2.28,2.28,0,0,1,0,2.95Z"/><path class="cls-61" d="M158.33,24.56c0-1,0-2,0-2.95a2.12,2.12,0,0,0,2-1c-.31-1,.16-1.17,1-1l2,2c.61,2-1.57,1.09-2,2C159.86,22.44,159.26,24,158.33,24.56Z"/><path class="cls-137" d="M170.31,27.57c-1-.6-1.43-2.16-3-2-1.56-1-.3-2,0-3C169.11,23.77,171.5,24.59,170.31,27.57Z"/><path class="cls-163" d="M162.35,29.54c.19-1.17-1.19-2.3,0-3.95,1.24,1.59,1.34,2.75,0,3.95Z"/><path class="cls-164" d="M161.33,23.59l2-2,2-1C165.19,23.23,163.46,23.67,161.33,23.59Z"/><path class="cls-165" d="M167.32,26.57c1.38,1.31,1.41,2.63,0,4C166.32,29.21,167.31,27.89,167.32,26.57Z"/><path class="cls-166" d="M246.88,112.2l-5.18-8.75a3.75,3.75,0,0,1,1-1.77c1.92-1.6,3.84-3,5.59.2a3.24,3.24,0,0,1-1.33,2.33l1,3c-1,1.94,2.35,2.68,1.28,4.64C248.57,112.69,247.8,113,246.88,112.2Z"/><path class="cls-167" d="M246.88,112.2a2.19,2.19,0,0,0,2.09-1c2.78-1.29.74-4.16,2-6,1.3-.78,3.08-.2,4.35-1.42l-1.35,4.42v4a6,6,0,0,1-1.65,1.73c-.77.64-1.43,1.46-2.52,1.58C247.82,115.26,247.34,113.74,246.88,112.2Z"/><path class="cls-168" d="M247,104.21a2.07,2.07,0,0,1,1-2c1.1-1.68-3-2.06-1-4,1-.58,1.44-2.15,3-2,.52,1.34,3.73,1,2.61,2.82C251.29,101.16,250.91,104.83,247,104.21Z"/><path class="cls-61" d="M250.94,105.21c-.3,2.1,4.7,6-2,6-.77-1.21-3.35-2-1-4C249.71,107.67,249,104.4,250.94,105.21Z"/><path class="cls-169" d="M147.42,10.63l1,1c.87,1.62,3.38,1,4,3,1.08.05,2.25-.16,3,1-2.66,3.16-7.51,1.32-10.17,4.46a1.8,1.8,0,0,1-2.34-1.82c.73-1.86.59-3.9,1.12-5.82C144.81,11.26,145.67,10.09,147.42,10.63Z"/><path class="cls-170" d="M145.42,19.61c2.25-4,6.71-2.44,9.94-4,2-1.25,3.61-.68,5,1,0,1.7-1.16,1.52-2.33,1.55-1.89,0-3.84-.61-5.65.42-3.17-.72-4.95,1.64-7.1,3.19l0-.06A1.59,1.59,0,0,1,145.42,19.61Z"/><path class="cls-32" d="M147.42,10.63l-3,2c-1.55.27-2.87,1.15-4.38,1.55-2.22,0-2.65-1.59-3-3.26a1.94,1.94,0,0,1,.44-1.32c2.1-1.38,5.09.59,6.91-1.84C144.31,9.88,147.37,8.65,147.42,10.63Z"/><path class="cls-171" d="M152.38,18.61c2.23-2.38,5.74.38,8-2,.75.85,4.39.73,1,3l-1,1C158.07,18.43,155.24,18.46,152.38,18.61Z"/><path class="cls-32" d="M152.41,14.61c-.26-2.43-5.63,2-4-3a11.24,11.24,0,0,0,2.88.38C155,11.51,153.14,13.28,152.41,14.61Z"/><path class="cls-45" d="M48.84,209.72v2c-1,1-2,.35-3,0-1.33-.37-2.65,1.79-4,0-1.64-2.4-3.3-1.93-5,0v0c-.34.45-.67.45-1,0,0-1.44,0-2.89-2-3l-2-1c-.23-2.22.78-3.21,3-3,1.27-.91,2.05-.59,2.39.9.19-1.39-1.22-2.68-.34-4.15a2,2,0,0,1,2,0c.08,3.37,2.65.86,3.84,1.61,1.75.76,3.41,1.7,5.1,2.58v0C48.91,206.86,48.52,208.37,48.84,209.72Z"/><path class="cls-11" d="M36.9,211.69c.34-2.89,3.4-1.53,4.66-3,.22,1,1.34,1.89.31,3Z"/><path class="cls-172" d="M45.85,211.72c1-1.17,2,.32,3,0h0c.28,1.6-.38,2.27-2,2A2.12,2.12,0,0,1,45.85,211.72Z"/><path class="cls-19" d="M46.86,213.73a3.49,3.49,0,0,0,2-2l1,1a.61.61,0,0,1,.22.66c-.08.22-.16.33-.23.33l-1,1-1,1A2,2,0,0,1,46.86,213.73Z"/><path class="cls-173" d="M35.9,211.71l1,0c0,1,0,2,0,3L35,214.6C35.31,213.64,35.6,212.67,35.9,211.71Z"/><path class="cls-174" d="M207.14,57.43l-1.86,1-1.1-1c-.29-3.18-3.27-3.14-5.19-4.36-.81-.74-2.18-1-2.05-2.54a3.21,3.21,0,0,1,3-1.4c1.94,1,4.1,1,6.18,1.36h1.08c1.11-.37,1.76.23,2.27,1.09C209.38,53.77,208,55.49,207.14,57.43Z"/><path class="cls-8" d="M198.19,40.5c.22,1.68-.68,3.59,1,5,.45,1.12-.13,1.88-.91,2.58-2.21,1.37-4.18,1.59-5.53-1.15a2.64,2.64,0,0,1,.1-1.39c.74-1.12,3-1.33,2.06-3.46.65-1.46,1.66-2.19,3.31-1.59Z"/><path class="cls-63" d="M206.15,50.46c-2.2.93-4.38,1.72-6-1a2.07,2.07,0,0,1,0-3Q203.16,48.48,206.15,50.46Z"/><path class="cls-175" d="M200.17,46.48c0,1,0,2,0,3l-3,1c-1.1-1.45-.11-2.21,1-3l1-2Z"/><path class="cls-176" d="M209.14,51.47l-1.91-1c.31-2.29,1.34-2.44,2.92-1,0,.66,0,1.33,0,2A.61.61,0,0,1,209.14,51.47Z"/><path class="cls-177" d="M196.17,220.6a22.73,22.73,0,0,1,9-4.82c0,.6,0,1.2,0,1.8-2,.67-1.43,3.16-2.92,4.2l-4.06,3.87a8.2,8.2,0,0,1-3.94,2c-.8-1-3.09.33-3-2C193,224.09,195.81,223.56,196.17,220.6Z"/><path class="cls-11" d="M63.85,20.91l-3.12,1.51C57.46,19,62.31,20,62.78,18.6c.49-.68.86-1.59,2-1h0C66.05,19.16,64.4,19.88,63.85,20.91Z"/><path class="cls-20" d="M64.77,17.61l-2,1-1-2c0-.33,0-.66,0-1Z"/><path class="cls-178" d="M189.22,231.62h-2c-2.25-1.17-1.74,3.17-4,2-.8.4-1.21-.09-1.57-.69a3.69,3.69,0,0,1-.19-1.31,3.54,3.54,0,0,1,.42-1.22c.94-1.5,2.61-.59,3.84-1.14,1.13.49,2.31.82,3.42,1.33Z"/><path class="cls-179" d="M183.25,226.64c1.54.23,3.66-.69,4,2-.93.41-2-.13-2.92.5-1.45-.37-2-1.12-1.09-2.51Z"/><path class="cls-180" d="M185.17,228.69c.65-1.19,1.37-.17,2.07-.06l1.94,2a6,6,0,0,1-3.91-1c-.29-.17-.4-.36-.33-.58S185.08,228.69,185.17,228.69Z"/><path class="cls-181" d="M186.27,43.41a20.17,20.17,0,0,1-6.05-3.79c-1.31-1.36-.52-2.93-.45-4.42a2.28,2.28,0,0,1,.72-1.93c.83-1.22,1.74,1.85,2.58-.05.6-.66,1.24-1.14,2.17-.68a4.25,4.25,0,0,1,5,1c.9,1.06,2,2.09.43,3.45-2.28.48-1.21,2-1,3.22a3.26,3.26,0,0,1-.1,1.32C189,43,187.52,43,186.27,43.41Z"/><path class="cls-7" d="M198.2,40.49l-3,2a1.76,1.76,0,0,1-2.14.19,3.31,3.31,0,0,1-.66-2.92c.3-1.55,1.61-1.8,2.81-2.21a2.6,2.6,0,0,1,3,0A2.62,2.62,0,0,1,198.2,40.49Z"/><path class="cls-155" d="M195.18,37.54l-2,2c-1.42,1-2.41.3-3.31-.8a2,2,0,0,1,.31-2.17c1.19-1-.3-2,0-3C193.08,33.37,193.05,36.79,195.18,37.54Z"/><path class="cls-182" d="M185.24,32.54l-2,1c-.66-.08-1.32-.67-2,0l-1,1q-.49.69-1,0c-.24-2.89,2.8-2.5,4-4-.1-.68-1-1.58.41-1.85.68-.14,1.44.28,1.28,1A4.07,4.07,0,0,0,185.24,32.54Z"/><path class="cls-183" d="M251.61,124.29c-.88-.78-.75-1.84-.79-2.85-.17-1.67-1.48-4.06,2.12-3.29a3.06,3.06,0,0,0,3,2c1.94,2.09.72,3.57-.95,5C253.78,125.11,252.76,124.42,251.61,124.29Z"/><path class="cls-184" d="M251.61,124.29c1.39-.82,2.73-1.43,3.35.84-.53,1.06-.82,2,.95,2l-1,1c-1.55.47-1.08,2.29-2.07,3.14C251.38,129.12,252.41,126.54,251.61,124.29Z"/><path class="cls-185" d="M174.29,29.56c-1.58-.18-3.67.68-4-2C172.24,27,174.52,25.79,174.29,29.56Z"/><path class="cls-186" d="M209.14,51.47h1l2-1c0,.66,0,1.32,0,2,.87.68,1.58,1.81,3,1,.81.92,3.63.44,2.09,3-1.58-.19-2.72,1-4.16,1.29a8.64,8.64,0,0,0-4.88-.32h-1C206.87,55.13,207.26,53.05,209.14,51.47Z"/><path class="cls-187" d="M213.1,57.41c1.2-1,2.24-2.68,4.07-.95-.64,1-2.2,1.4-2.06,3l-2-1c-.34-.22-.45-.45-.34-.68S213,57.41,213.1,57.41Z"/><path class="cls-188" d="M215.08,53.46c-1.67,1.64-2.58,1.09-3-1a6.44,6.44,0,0,0,1,0Z"/><path class="cls-61" d="M247.88,169.73a18.58,18.58,0,0,1,2.2-6.73c.95.65,1.36,2.09,2.86,1.93-.34.66-.68,1.33-1,2-4,1.34,1.25,2.65,0,4C250.57,170.58,248.34,173.23,247.88,169.73Z"/><path class="cls-189" d="M12,173.9c-.32-1.87-7.26-1.63-1.74-5.5.43-.3-1.33-2.16-.25-3.47l.53-.38c2.76.13,1.62,2.65,2.45,4a11.54,11.54,0,0,1,.06,3.52A2.93,2.93,0,0,1,12,173.9Z"/><path class="cls-190" d="M7,164.93v-3c.91-.88,1.83-1.71,3.26-1.19,1.78,1.51,1.75,2.91-.26,4.18H7Z"/><path class="cls-23" d="M12,173.9v-2a1.84,1.84,0,0,1,1.94-.51,4.16,4.16,0,0,1,2.39,2.5,1.64,1.64,0,0,1-.41,1.23c-1.75-.55-3.06,1.86-4.9.75l0,0Z"/><path class="cls-32" d="M225.93,59.56,227,63.4C224.4,62.77,224.65,61.31,225.93,59.56Z"/><path class="cls-191" d="M63.85,20.91l.92-3.29a3,3,0,0,0,2-3,2.07,2.07,0,0,0,2-1c2.45-.23,4,1.1,5.06,3.09l0,0c-1.64.73-3.74.22-5,1.84C67.2,19.49,65.88,20.93,63.85,20.91Z"/><path class="cls-59" d="M75.7,11.66c-1-.1-2.1-.21-2.26-1.33,0-.31,1.27-1.24,1.78-1.12,1.17.27,2.56-1.24,3.5.42a.9.9,0,0,1,.33.71c0,.27,0,.41-.1.41a4.16,4.16,0,0,1-2.14,1.31A1.15,1.15,0,0,1,75.7,11.66Z"/><path class="cls-192" d="M78.71,10.64c0-.34,0-.67,0-1a2,2,0,0,0,1-2l3,1v1C81.83,11.85,81,14,78.71,10.64Z"/><path class="cls-193" d="M75.7,11.66l1,0c1.28,1.26,2.26,2.53,0,3.8a1.11,1.11,0,0,1-.8.33C74.6,14.48,75.24,13.06,75.7,11.66Z"/><path class="cls-194" d="M38.89,201.76h-2c-.32.49-.65.47-1,0-1.49-.95-4.94,1.26-4.38-3.23.25-2-2.3-.63-3.59-.74a2.36,2.36,0,0,1-.71-1.15,3.87,3.87,0,0,1,1.1-3.13,3.4,3.4,0,0,1,1.66-1c.69,0,1.42.6,2.11-.06,2.52-.27,3.4,1.65,4.46,3.33-.83,2.36,1.12,2.39,2.46,2.93a2.75,2.75,0,0,1,.85.23c.51,1,1.82,1.7,1,3.1A1.56,1.56,0,0,1,38.89,201.76Z"/><path class="cls-195" d="M27.93,196.77c0,.34,0,.68,0,1v1c0,3.32-2.51-.81-3,1l-2-1c0-.34,0-.67,0-1l3-4C27.21,194.38,27,196,27.93,196.77Z"/><path class="cls-196" d="M35.91,201.76h1l1.85,6.16c-2.39-.1-1.43-3.58-3.83-3.17C35.24,203.75,35.58,202.76,35.91,201.76Z"/><path class="cls-165" d="M18,191.81v-2c-1.16-.66-1.51-1.86-2-3a3.25,3.25,0,0,1,2-2,1.08,1.08,0,0,1,1.18,0c1.3,1.37,2.4,2.91,3.63,4.35l.17.62C21.83,191.78,20.58,193.47,18,191.81Z"/><path class="cls-136" d="M27.93,196.77a3,3,0,0,1-2-3c0-.66,0-1.32,0-2a.77.77,0,0,1-.35-.73c0-.28.09-.42.17-.42a2.33,2.33,0,0,1,1.24-.44,2.43,2.43,0,0,1,1.21.49,4.66,4.66,0,0,1,.72,3.09Z"/><path class="cls-197" d="M26,190.8v1l-3-2h0c-.32-1,.29-1.28,1.06-1.47C25.38,188.61,26.38,189.14,26,190.8Z"/><path class="cls-198" d="M252.94,118.15c-2.21.12-1.92,1.86-2.12,3.29-1.39-1.8-1-3.91-1-6a3.88,3.88,0,0,1,2.17-2.32c1.07.27,2.56.12,2,2Z"/><path class="cls-11" d="M254,115.18l-2-2a2,2,0,0,1,2-1C255.22,113.17,255.19,114.17,254,115.18Z"/><path class="cls-19" d="M4.05,143l0-5a2.34,2.34,0,0,1,1-2.25,1.78,1.78,0,0,1,1.24.17,7.12,7.12,0,0,1,2,3.23c-.46,1.37.31,2.9-.5,4.24a3.27,3.27,0,0,1-3.32.11Z"/><path class="cls-108" d="M9,147c-2-.31-3.85-1.35-5.94-1,.05-1.09-.16-2.26,1-3H4c1.17,1.29,2.89.69,4.29,1.22a2.69,2.69,0,0,1,1.06.86A1.56,1.56,0,0,1,9,147Z"/><path class="cls-199" d="M5,136.07a2,2,0,0,1-1,2c-3.51-.49-.47-2.7-1-4H4C4.93,134.46,5.58,135,5,136.07Z"/><path class="cls-200" d="M101.63,12.67c-2,1.77-4-.32-6,0-.74-1.66-1.06-3.33,0-5s2-.27,3,0a2.63,2.63,0,0,1,.82,1,7.66,7.66,0,0,0,1.93,3.37C101.46,12.27,101.55,12.47,101.63,12.67Z"/><path class="cls-201" d="M95.63,7.66c.19,1.67,1.37,3.33,0,5l-1.85,0a2.27,2.27,0,0,1-2,.26c-1.08-1.06-.72-2.15-.07-3.24.32-.35.65-.7,1-1v0Z"/><path class="cls-172" d="M98.62,8.66v-1c1.9-.66.26-4,3-4h0c.56,1.19,1.9,1.83,2.28,3.16a1.53,1.53,0,0,1-.42,1.2,7.93,7.93,0,0,1-3.72,1.22A2,2,0,0,1,98.62,8.66Z"/><path class="cls-202" d="M252.82,154.74c.21-1.66-.1-3.42,1-4.88.62,1.26,1.38.26,2.08.14l1,1c.67,1.32-.86,1.91-1,3v2c0,.34,0,.67,0,1h0a1.37,1.37,0,0,1-2,0C253,156.48,253,155.6,252.82,154.74Z"/><path class="cls-203" d="M253.91,157h2a6.51,6.51,0,0,0,1,4C254.52,160.67,254.28,158.77,253.91,157Z"/><path class="cls-204" d="M9,127.13c1.86,3.52.58,7.3.9,11a1,1,0,0,1-1.23,0,4.73,4.73,0,0,1-1.31-3c-.15-1.32,1.34-2.79-.37-4C6,129,10.53,129.57,9,127.13Z"/><path class="cls-205" d="M7,131.15c3.38.51,1.53,2.37,1,3.89a2.05,2.05,0,0,1-1.95,1l-1,0-1-2C3.68,131.74,7.59,133.72,7,131.15Z"/><path class="cls-206" d="M238,97.19l-5-8c-1.2-1.89-.49-3.19,1.29-4.14a2.7,2.7,0,0,1,1.32-.17c1.17.37,1.75,1.74,3.09,1.81.73.06,1.46.19,2.19.23s1.45-.24,2,.36h0c1.1,1.94.19,3.48-1,5-1.94.15-3.11.82-2,3a1.4,1.4,0,0,1,.38,1.74C239.66,98,238.82,97.35,238,97.19Z"/><path class="cls-207" d="M238,97.19c.68-1.09,1.32,0,2,0,.89-.82,1.64-1.84,3-2h1v1c1.08,1.35.4,2.53-.34,3.7-1.13,1.27-2.44.28-3.67.31A5.43,5.43,0,0,1,238,97.19Z"/><path class="cls-208" d="M248,90.26c2.31,4.56-.45,5.08-4,5A10.38,10.38,0,0,1,248,90.26Z"/><path class="cls-93" d="M243,87.29l-2,1c-1-1.16-.5-2.24.15-3.31.49-.57,1-1,1.84-.67l1.85.08Z"/><path class="cls-209" d="M242,92.26l1-5C244.28,89.27,245.11,91.16,242,92.26Z"/><path class="cls-148" d="M243,95.25a3,3,0,0,1-3,2c0-.66,0-1.32,0-2C241,95,242,93.67,243,95.25Z"/><path class="cls-24" d="M91.58,12.48l2.2.21-17,2.75c1-1.27,0-2.53,0-3.8a2.09,2.09,0,0,1,2-1c2,2.35,2.75-.27,4-1,1.59-.28,2.94-.7,3.91,1.5s2.42,2,3.06-.5l.61-.18C91.29,10.77,91,11.93,91.58,12.48Z"/><path class="cls-49" d="M92.65,8.67v1c-.78,1-2.12.32-3,1h0c-.5-.29-1.32-.49-1.43-.89-.18-.66.49-1,1.16-1C90.48,8.69,91.56,8.69,92.65,8.67Z"/><path class="cls-210" d="M99.61,232.61c-2.43-.73-1.74-2.34-1.11-3.94l1,.81C99.56,230.52,99.58,231.57,99.61,232.61Z"/><path class="cls-133" d="M19,184.84H18c-.08-2-1.41-3.08-3-4a2.26,2.26,0,0,1-.67-2.08A3.22,3.22,0,0,1,15.62,177c4.55-1.16,4.55-1.16,4.86,5.59a2.58,2.58,0,0,1-.83,2Z"/><path class="cls-133" d="M11,179.86v-3c1.79-.34,2.15,1.07,2.73,2.22a4.49,4.49,0,0,1-.72,3.74Z"/><path class="cls-211" d="M13,182.83v-4c-.19-.42-.26-.91.27-1,.84-.2,1.37.32,1.7,1l0,2A3.3,3.3,0,0,1,13,182.83Z"/><path class="cls-212" d="M16,186.82c2.3-.09,1,2.2,2,3-1.1,0-2.26.16-3-1A2.14,2.14,0,0,1,16,186.82Z"/><path class="cls-7" d="M253.9,144q-.42-5.47-.86-11l2.87-1c.19,2-2.16,4.45,1,5.95C257.89,141.05,259.63,144.42,253.9,144Z"/><path class="cls-213" d="M134.47,8.65h1c1.22,1.39,1.26,3.39,2.46,4.8.38.6,1,1.12.68,1.95-1.42,1.66-3.16,1.43-5,.85a3.22,3.22,0,0,1-1.78-3.19A6.64,6.64,0,0,1,134.47,8.65Z"/><path class="cls-15" d="M134.47,8.65a5.48,5.48,0,0,1-2,4l-.6-.24a2.58,2.58,0,0,1-.89-1.66c.15-1-.28-2.16.5-3.08C133.12,6,134.06,6.54,134.47,8.65Z"/><path class="cls-214" d="M137.44,13.64c-2.3-1-2-3.06-2-5l1,0,1,1c0,.34,0,.68,0,1A2.43,2.43,0,0,1,137.44,13.64Z"/><path class="cls-136" d="M131.48,7.66c-.34,1,1.16,2,0,3a2.41,2.41,0,0,1-1.15.7,2,2,0,0,1-1.83-.71l1-1Z"/><path class="cls-215" d="M194.2,227.63c.32-2.64,2.38-1.8,3.94-2,0,1,.07,2,.11,2.95a2.22,2.22,0,0,0-2.06,1A3.39,3.39,0,0,1,194.2,227.63Z"/><path class="cls-216" d="M9,147l0-2A3.65,3.65,0,0,1,10.06,140,20.73,20.73,0,0,1,11.91,150c-.36.6-.63,1.34-1.57,1.16-1.22-.95-1-2-.32-3.18Z"/><path class="cls-17" d="M10,148c.05,1.09-.18,2.27,1,3a2.66,2.66,0,0,1-.78,3.11c-1.66.52-3.09-.48-4.63-.72L5,153C4.66,149.29,8.81,150.12,10,148Z"/><path class="cls-217" d="M5,158c-2.07-1.31-1.27-3.19-1-5H5A3.41,3.41,0,0,1,5,158Z"/><path class="cls-218" d="M11.17,107.42c-.73-4.36-2.17,1-3.13-.22,0-.32,0-.65,0-1,.2-2.59.41-5.16,4-5C12,103.33,12.29,105.48,11.17,107.42Z"/><path class="cls-219" d="M13.09,96.36a1.14,1.14,0,0,1-.16.88c-.62,1.4-1.72,1.37-2.94,1-1.56.24-3.49,1-2.88-1.94.8-1.64,2.53-1.48,3.9-2C12.7,94,13.4,94.66,13.09,96.36Z"/><path class="cls-220" d="M10,98.23l2.94-1c.1,1.1.2,2.19-.74,3A3.4,3.4,0,0,1,10,98.23Z"/><path class="cls-221" d="M13.09,96.36,11,94.27v-1c.84-.82,0-2.21,1-3a2.09,2.09,0,0,1,2-1l1,0A18.33,18.33,0,0,1,13.09,96.36Z"/><path class="cls-104" d="M12,90.29c-.32,1,1.65,2.74-1,3C10.49,92,9.37,90.53,12,90.29Z"/><path class="cls-11" d="M243,100.25c.33-1.33.67-2.66,1-4l3,2c-.85,1.62,3.06,2.06,1,4-1.66-2.81-3.29,0-4.93,0A1.35,1.35,0,0,1,243,100.25Z"/><path class="cls-222" d="M233,75.33l-1,0c-1.06.58-1.7-.08-2.33-.79a3.07,3.07,0,0,1,.4-3.22l.92-1h0C235.87,70.34,232.79,73.5,233,75.33Z"/><path class="cls-29" d="M243,84.31l-1,1a2.35,2.35,0,0,1-2.43-.42,6.14,6.14,0,0,1-2.9-3.41,1.63,1.63,0,0,1,.37-1.2c1.65,2.24,3.33-1.37,5,0C242.33,81.64,242.66,83,243,84.31Z"/><path class="cls-223" d="M237,80.28v1c.49,1-.15,1.15-.88,1.29-4.58-1.82-4.68-2.09-2.13-5.26l1,0c1.19.14,1.51,1.16,2,2Z"/><path class="cls-224" d="M237,79.33a3.48,3.48,0,0,1-2-2,2,2,0,0,1,1-2C237.22,76.48,238.37,77.59,237,79.33Z"/><path class="cls-200" d="M71.74,221.67c-.74-.19-1.83-.78-2.16-.49-1.06.92-.09,1.68.67,2.18a2.79,2.79,0,0,1,1.49,2.27h-1c-.87-.68-2.26.18-3-1l-2-2c1-1.3,2-2.6,3-3.89,2.06-.35,3.67.71,5.3,1.7A1.67,1.67,0,0,1,71.74,221.67Z"/><path class="cls-6" d="M67.77,224.64c1.09.05,2.26-.16,3,1C69.46,226.19,68,227.29,67.77,224.64Z"/><path class="cls-6" d="M5,158c0-1.65,0-3.31,0-5,2.05-1.66,3.43.1,5,1a2.86,2.86,0,0,1,2.83,1l.4,2.9a10.54,10.54,0,0,1-2.15,2.37A3.32,3.32,0,0,1,10,161l-3,1c0-.32,0-.64,0-1Z"/><path class="cls-200" d="M156.36,240.58l-1,1a2.08,2.08,0,0,1-2-1c-.55-2.4,2.56-2.6,2.74-4.56a3.17,3.17,0,0,1,2,0,3.27,3.27,0,0,1,1.55,1.32,2.92,2.92,0,0,1,.27,1.3,2.11,2.11,0,0,1-1.15,1.49A3.73,3.73,0,0,1,156.36,240.58Z"/><path class="cls-225" d="M156.38,236.6c-.28,1.87-2.43,2.34-3,4h-1a3.36,3.36,0,0,1-.79-1.18,3.25,3.25,0,0,1,.48-2.72c1.57.51,2.12-1.25,3.34-1.51C156.16,235.35,156.67,235.7,156.38,236.6Z"/><path class="cls-200" d="M152.38,239.59c0,.33,0,.66,0,1l-2,1h-2c-.62-1.75.61-2.48,1.79-3.24C151.32,238,151.82,238.86,152.38,239.59Z"/><path class="cls-48" d="M36.21,42.61A6,6,0,0,1,34,46.54C33.08,44.3,33.77,43,36.21,42.61Z"/><path class="cls-226" d="M167.33,236.6h-1a1.68,1.68,0,0,1-2.07.25,3.11,3.11,0,0,1-.86-2c.07-1.94.77-3.39,2.88-3.76a2.39,2.39,0,0,1,1.3.51,2.67,2.67,0,0,1,.3,2C167.46,234.51,167.8,235.63,167.33,236.6Z"/><path class="cls-227" d="M174.3,238.57l-2,2c-1.69-.81-1-3.37-3-4a1,1,0,0,1,0-1.19c1.16-.68,2.16-.21,3.15.39a9.23,9.23,0,0,1,2.09,1.64A.9.9,0,0,1,174.3,238.57Z"/><path class="cls-228" d="M169.33,235.61c0,.33,0,.65,0,1-.66,1.11-1.33.11-2,0-.78-1-2.56-2,0-3,1-.53,1.67.1,2.26.83A1.09,1.09,0,0,1,169.33,235.61Z"/><path class="cls-229" d="M164.34,236.6h2l1,2-1,1c-1.28.67-2.25,0-3.19-.74a1.94,1.94,0,0,1,0-2A1,1,0,0,1,164.34,236.6Z"/><path class="cls-45" d="M110.57,7.66l-1,1h0c-1.14-.65-2.82.1-3.63-1.4-.48-.81-.92-1.64-.35-2.59l3-2C109.88,4.1,112.63,4.91,110.57,7.66Z"/><path class="cls-230" d="M182.24,232.62l1,1a6.84,6.84,0,0,1-1,4l-2,1-1-1h0C178.51,234.89,179.62,233.3,182.24,232.62Z"/><path class="cls-193" d="M113.56,241.56c.33-1.48-2.32-2.22-1-4,.83-.6,1.54,0,2.27.24,1.13.62,2.39.29,3.59.49,1.48,1,3.13,2,2.11,4.23l-1,1-.45-1.32C117,244.26,115.49,241.1,113.56,241.56Z"/><path class="cls-66" d="M156.36,240.58a2.07,2.07,0,0,1,2-1c.37.29.93.39,1,1,0,1,0,2,0,3a5.64,5.64,0,0,1-.11.92C156,244.89,156.38,242.59,156.36,240.58Z"/><path class="cls-231" d="M159.35,240.58l-1-1,1-1c.84-1.24,1.41-2.89,3.46-2.4l.52.41v2c.27.93-.08,1.25-1,1Z"/><path class="cls-232" d="M162.35,239.58l1-1,3,1v2C164.76,241.38,162.66,242.26,162.35,239.58Z"/><path class="cls-233" d="M105.6,4.67l1,2a5.23,5.23,0,0,1-.81.82,2,2,0,0,1-2.18.18c-.56-1.38-2.13-2.26-2-4,4.82,2.19,1.6-1.73,2.13-2.8C105.58,1.54,105.63,3.09,105.6,4.67Z"/><path class="cls-119" d="M123.54,242.55v-2.87l.74-.35,2.22,4.24a2.05,2.05,0,0,1-2,1A2.1,2.1,0,0,0,123.54,242.55Z"/><path class="cls-234" d="M15,178.86c-.65-.08-1.3-1.09-2,0l-2-2c0-.32,0-.64,0-1,1.65-.33,3-2,5-1a1.47,1.47,0,0,1,.43.94,3.94,3.94,0,0,1-.41,2.05Z"/><path class="cls-235" d="M252.86,131.25c.14-1.41-.06-3.05,2.07-3.14-1,1.17.24,3.39-1.94,4A1.15,1.15,0,0,1,252.86,131.25Z"/><path class="cls-236" d="M174.3,238.57l0-1c-1.09-2.1,0-2.93,1.93-3.24,1.3.76,2.1,1.68,1,3.21a2.2,2.2,0,0,0-2,1h-1Z"/><path class="cls-237" d="M255.94,154c-1.21-1.5,1-1.87,1-3,1.63,1,.26,1.95,0,2.93C256.57,154,256.25,154,255.94,154Z"/><path class="cls-40" d="M234,77.35c-3.15,3.2,2.23,3,2,5,.74,1.35-.2,2.14-1,3-1,1.1-2.39,2.06-2,3.9L230,84.54c-.94-2.17-.58-4.46-.49-6.7.06-1.49.83-2.5,2.56-1.49A2.05,2.05,0,0,0,234,77.35Z"/><path class="cls-238" d="M232,76.35c-1.42.14-2.06.8-1.37,2.21,1,2.15-.53,4-.7,6-2-2.18-4.1-4.23-4.89-7.2.59-.77.32-2.1,1.6-2.41,1.15,0,2.1-1.2,3.37-.59l2,1C232,75.68,232,76,232,76.35Z"/><path class="cls-239" d="M177.26,237.54c-.32-1-.65-1.94-1-2.91-1-.9-2.72-1.33-2-3.27a4.85,4.85,0,0,1,2.66-1c1.92-.26,3.86-.57,5.3,1.24,0,.33,0,.66,0,1l-3,5Z"/><path class="cls-221" d="M16,177.87c-.1-.67-1.14-1.32,0-2,.61-.67,1.19-1.34,0-2a3.39,3.39,0,0,1-2-2,1.74,1.74,0,0,1-.55-1.15c-.09-2.15.39-4,2.57-4.95l9,17c-.13.16-.27.32-.4.49a3.61,3.61,0,0,1-2.41.4,9.84,9.84,0,0,1-2.23-.84,2.72,2.72,0,0,1-.93-3.12C19.91,175.91,18,176.81,16,177.87Z"/><path class="cls-12" d="M133.46,15.62c1.68-.24,3.59.67,5-1,1.44-.61,2.35.5,3.44,1a3.24,3.24,0,0,1,1.56,1.95,1.78,1.78,0,0,0,2,2c0,.71-.07,1.42-.1,2.13l-14-4c.4-.68-.26-1.42.12-2.1A1.33,1.33,0,0,1,133.46,15.62Z"/><path class="cls-212" d="M120.53,242.56c-.08-2-1.4-3.1-3-4-.07-.16-.15-.31-.22-.45-.14-1.46-.7-.22-1.08-.14a3.6,3.6,0,0,1-1.69.61l-2-1c0-.33,0-.66,0-1v-2h1c.69-1.33,1-3.21,3.3-2.1,1.92.24,4-.27,5.67,1.1l-1,.14C119.65,236.51,122.52,239.81,120.53,242.56Z"/><path class="cls-17" d="M16,165.8c-1.67,1.31-.85,3.58-2,5.1-1.73-.28-1.18-2.12-2-3s.34-3.1-2-3a3.24,3.24,0,0,0,0-4v-1c1.77-1.35,3-.4,4.17.94Z"/><path class="cls-240" d="M24,188.8l-1,1c-2.3-.89-3.82-2.39-4-5h0c1.34-1.06,2.54-.43,3.74.3a1.38,1.38,0,0,1,.5.76c.09.39.21.3.12-.23A2.32,2.32,0,0,1,24.79,183l.22-.2c1,1.47,2.35,2.77,2.63,4.66a1.11,1.11,0,0,1-.74.88C26,188.67,24.85,188.12,24,188.8Z"/><path class="cls-241" d="M177.29,231.62l-3,0c-.74.76-.58,2.26-2,2.46A2.94,2.94,0,0,1,170,233a7.7,7.7,0,0,1-1.71-3.41c2.52-1.43,5.41-1,8.09-1.67C177.31,229,178,230.11,177.29,231.62Z"/><path class="cls-212" d="M198.16,47.51l-1,3,2,2c.21.91,0,1.41-1,1-2.47-1.71-5.64-2.82-5.69-6.62a.52.52,0,0,1,.76-.46C194.26,49.43,196.42,47.55,198.16,47.51Z"/><path class="cls-7" d="M177.29,231.62a5.62,5.62,0,0,1-1-3.71l1.66-.41c2.38-.25,5.7-1.78,4.27,3.15,0,.33,0,.65,0,1A8.81,8.81,0,0,0,177.29,231.62Z"/><path class="cls-242" d="M193.21,46.39a1,1,0,0,0-.76.47c-2.64-.11-4.19-2.18-6.18-3.45l2.95-1.91A3.29,3.29,0,0,1,192.76,43c.56.76,1,1.54.45,2.5Z"/><path class="cls-106" d="M156.38,236.6l-1-1c-1.07-.91-1.91.71-2.93.27a2.38,2.38,0,0,1-1.05-2.23c0-.29,0-.58,0-.87,1.81-1.3,3.88-1.26,6-1.12a3.82,3.82,0,0,1,1.18,2.35,3.36,3.36,0,0,1-.19,2.6Z"/><path class="cls-243" d="M120.44,14.74c2.09-.38,3.59-1.72,5.06-3.11l2,0c0,1.67,3.56,3.38-.07,5Z"/><path class="cls-158" d="M127.42,16.65c1.91-1.64-2.23-3.36.07-5l1-1h2a12.92,12.92,0,0,1,.66,3.08c.26.94-.51,2,.33,2.88.84.5.42.81-.16,1.1A5.71,5.71,0,0,1,127.42,16.65Z"/><path class="cls-39" d="M103.6,7.66l2-1c.89,1.33,2.15,2.66,0,4-1.1.65-.09,1.3,0,1.95l-4,.08-.12-.19a2.47,2.47,0,0,1-.61-1.91c.18-1.65,1.66-2.08,2.71-2.91Z"/><path class="cls-244" d="M198.14,53.47l1-1c1.71,1.6,7.59-1,5,4.94Z"/><path class="cls-245" d="M158.35,236.6l-1-2c1-.77,1-2.22,2-3l1-.13a24,24,0,0,1,2.28,1.26c.79.43,1.17,1.24,1.72,1.89l0,2h-1c-1.76-1.4-2.66.63-4,1Z"/><path class="cls-246" d="M71.74,221.67l2.29-1.2a3.88,3.88,0,0,1,2.69,1.2c.56,1.29-.15,2.16-1,3l-2,1Z"/><path class="cls-222" d="M27,187.88a1,1,0,0,0,.7-.43c2.65.62,3.82,2.56,4.45,5-.26,2.85-1.34.84-2.16.37-1-.34-1.25-1.41-2-2h0C27.18,190,26.26,189.2,27,187.88Z"/><path class="cls-247" d="M220,72.4c2-.06,2.33-1.72,3-3a2.05,2.05,0,0,1,2-1c0,.66,0,1.33,0,2,0,.2,0,.39,0,.59a11.85,11.85,0,0,0-.52,2.9,2.33,2.33,0,0,1-1.57,1.75A7,7,0,0,1,220,72.4Z"/><path class="cls-248" d="M48.84,209.72c-3.47-.62-.49-2.73-.94-4.05A6.08,6.08,0,0,1,52,208.6Z"/><path class="cls-156" d="M10.06,140,9,145l-1,0a1.38,1.38,0,0,1,0-2c-1.77-1.29-1.92-2.58,0-3.9a1.19,1.19,0,0,1,1-1h.88Z"/><path class="cls-249" d="M182.26,230.65c0-3-2-3.29-4.27-3.15,1.62-1,3.32-1.64,5.24-.88a1.91,1.91,0,0,0,1.94,2.07c0,.31.07.62.1.92Z"/><path class="cls-250" d="M164.31,234.59l-1.94-1c-.78-1.35.18-2.11,1-2.93a4.26,4.26,0,0,1,4-.89,1.17,1.17,0,0,1,0,1.8A2.86,2.86,0,0,0,164.31,234.59Z"/><path class="cls-196" d="M38.89,201.76h2c.65-.15.52-1,1.07-1.22a2.44,2.44,0,0,1,2,2.17,1.31,1.31,0,0,1-1.1,1C41.51,203.17,38.54,205.8,38.89,201.76Z"/><path class="cls-192" d="M222.94,75.61l1.14-2.21a2,2,0,0,1,1.91-.7,1.93,1.93,0,0,1,1.5,1.37,1.77,1.77,0,0,1-.45,1.29l-2,2Z"/><path class="cls-251" d="M39,198.69c-1.71,1.31-3.11.6-4-.91-1-1.69.57-1.71,1.58-2Z"/><path class="cls-25" d="M12.85,155c-1,0-2.17.12-2.83-1l1-3,.9-1C12.4,151.65,13.15,153.22,12.85,155Z"/><path class="cls-248" d="M42.88,203.75l1.1-1c1.9.22,3,1.49,3.93,3A5.55,5.55,0,0,1,42.88,203.75Z"/><path class="cls-252" d="M243,100.25c0,.66,0,1.33,0,2l-1.32,1.21L240,100.27C241,98.72,242,99.93,243,100.25Z"/><path class="cls-253" d="M14.19,160.91,10,160a3.26,3.26,0,0,1,3.23-2.08C14.18,158.71,14.17,159.81,14.19,160.91Z"/><path class="cls-166" d="M163.35,230.68c-.33,1-.66,1.95-1,2.93-1.42,0-2-.83-2.06-2.17A3.13,3.13,0,0,1,163.35,230.68Z"/><path class="cls-254" d="M179.27,34.53h1c0,1.69,0,3.39,0,5.09l-1.95-1.09C178.6,37.19,178.93,35.86,179.27,34.53Z"/><path class="cls-255" d="M75.72,224.65l1-3,2.27.82C77.41,222.47,78.06,225.81,75.72,224.65Z"/><path class="cls-256" d="M167.31,231.59c0-.6,0-1.2,0-1.8a1.54,1.54,0,0,1,.94-.21,3.11,3.11,0,0,1,2.06,3,1.83,1.83,0,0,1-1.1.54c-1-.07-1.33-.93-1.88-1.53Z"/><path class="cls-26" d="M68.75,18.52c.78-3.09,3.26-1.53,5-1.84A9.7,9.7,0,0,1,68.75,18.52Z"/><path class="cls-257" d="M159.34,231.57c0,1.46.09,2.94-2,3v-2.95Z"/><path class="cls-66" d="M41.94,200.54c-.33.43.55,1.93-1.07,1.22-.33-.95-.66-1.9-1-2.84C41,198.93,41.47,199.72,41.94,200.54Z"/><path class="cls-258" d="M116.87,232.5c-1.62-.11-2.24,1.34-3.3,2.1,0-1,0-1.94,0-2.92A4.63,4.63,0,0,1,116.87,232.5Z"/><path class="cls-66" d="M151.39,233.64a2,2,0,0,1,1,2,1.55,1.55,0,0,0,0,1c0,1,0,2,0,3l-2-1a2.83,2.83,0,0,1-2.15-1.64,1.15,1.15,0,0,1,.1-1.29Z"/><path class="cls-43" d="M148.4,236.6a3.44,3.44,0,0,1,2,2l-2,3c-3.74,1-1.3-2-2-3C148.54,239.36,147.48,237,148.4,236.6Z"/><path class="cls-259" d="M148.4,236.6c-.1,1.22.5,3.12-2,2l1.92-2.92C148.38,236,148.39,236.29,148.4,236.6Z"/><path class="cls-260" d="M126.5,235.6a3,3,0,0,1,2,3C126.47,238.5,126.5,237,126.5,235.6Z"/><path class="cls-261" d="M105.59,10.64c1-1.32,0-2.65,0-4h1l3,2C108.2,9.21,107.33,10.8,105.59,10.64Z"/><path class="cls-184" d="M49.83,213.7c0-.33,0-.66,0-1,.89-.36,1.84-.83,2.18.6.09.36,0,1.07-.24,1.16A1.49,1.49,0,0,1,49.83,213.7Z"/><path class="cls-262" d="M213.1,57.41c0,.34,0,.68,0,1-1.33-.09-2.44-.34-3.86.62-1.64,1.1-1.54-.47-1.12-1.62C209.78,55.55,211.44,56.72,213.1,57.41Z"/><path class="cls-263" d="M227.05,74.35l-1-1c-1.08-.75-2.11-1.51-1-3h6c0,.34,0,.67,0,1C229.12,71.58,229.54,74.9,227.05,74.35Z"/><path class="cls-184" d="M143.45,17.63l-2-1a4.53,4.53,0,0,1-1-3c1-1.63,2.11-2.91,4-1C143.84,14.25,146.26,16.47,143.45,17.63Z"/><path class="cls-104" d="M140.45,13.62c1.15.73,1,1.9,1,3l-3-2-1-1c0-1,0-2,0-3C138.77,11.32,138.25,13.84,140.45,13.62Z"/><path class="cls-264" d="M193.21,45.48l-1-2c.29-.37.4-.94,1-1h2c.87.45,2.2,1.31,1.58,2S194.43,45.18,193.21,45.48Z"/><path class="cls-265" d="M193.21,42.49l-1,1-3-2c0-.33,0-.66,0-1-.58-1.12.14-1.59,1-2l3,1C193.2,40.51,193.21,41.5,193.21,42.49Z"/><path class="cls-266" d="M190.22,38.52l-1,2a4.37,4.37,0,0,1-1.53-3.87c.14-1.08,1.63.13,2.52-.09C190.21,37.21,190.21,37.87,190.22,38.52Z"/><path class="cls-267" d="M181.27,33.53c.67-1,1.33-1,2,0,.1,1,2.72,1.52,1.15,2.45S181.91,34.93,181.27,33.53Z"/><path class="cls-268" d="M12,167.91l2,3c0,.34,0,.67-.05,1l-2,0Z"/><path class="cls-269" d="M16,173.87c.18-.41.33-1.14.56-1.17,1-.13,1.26.73,1.31,1.51.09,1.3-.83,1.56-1.86,1.66,0-.33,0-.66,0-1Z"/><path class="cls-270" d="M27.93,190.81a1.84,1.84,0,0,1,2,2l-1,1C27.76,193.08,28,191.91,27.93,190.81Z"/><path class="cls-91" d="M27,187.88l1,2.94-2,0a3.46,3.46,0,0,0-2-2C24.56,187.2,25.6,187,27,187.88Z"/><path class="cls-87" d="M9,138.08l-1,1A3.16,3.16,0,0,1,6,136.05a2.11,2.11,0,0,1,2-1C8.34,136.05,8.68,137.07,9,138.08Z"/><path class="cls-30" d="M8,143v2c-1.29-.73-3.61.59-4-2Z"/><path class="cls-271" d="M101.6,10.63l-.09,1.85c-2.7,0-2.9-1.82-2.89-3.82h1A3.53,3.53,0,0,1,101.6,10.63Z"/><path class="cls-272" d="M89.66,10.65c.72-1.17,1.9-1,3-1-.35.95-.71,1.91-1.07,2.86Z"/><path class="cls-86" d="M101.6,10.63a3.31,3.31,0,0,1-2-2,6.63,6.63,0,0,1,4-1Z"/><path class="cls-273" d="M235,85.3l1-3,1-1,3,3c.51,1.65-.92,1.79-1.82,2.34-1.12.19-1.59-.64-2.15-1.35Z"/><path class="cls-47" d="M238,86.28l2-2,2,1-1,3-2-1A1.14,1.14,0,0,1,238,86.28Z"/><path class="cls-274" d="M238,86.28l1,1c-2.62,1.8-2.54-.48-3-2Z"/><path class="cls-94" d="M23,185.82l-4-1,1-2c.67-1.08,1.32-.07,2,0C23,183.61,24,184.36,23,185.82Z"/><path class="cls-175" d="M131.47,16.62c-2.63-.23-.6-2-1-3,.38-.91.95-1.45,2-1h0l1,3A2.09,2.09,0,0,0,131.47,16.62Z"/><path class="cls-167" d="M132.47,12.64l-2,1c-1.57-1-.25-2,0-3h1Z"/><path class="cls-275" d="M227.05,74.35c1.85-.3,1.28-3.82,4-3l-1,3c-1.06.14-1.18,3-3,1C227.05,75,227.05,74.69,227.05,74.35Z"/><path class="cls-226" d="M159.35,237.59c1-1.59,2.08-2.94,4-1-1.73-.14-2.6,1.42-4,2Z"/><path class="cls-200" d="M152.4,236.62c-.66-.33-.73-.66,0-1,1-.25,2-1.58,3,0C154.47,236.2,153.88,237.72,152.4,236.62Z"/><path class="cls-276" d="M167.32,231.63l2,1c.6.43,1.28.87,1.05,1.75-.14.52-.64.44-1.06.25l-2-1C167.32,232.93,167.32,232.28,167.32,231.63Z"/><path class="cls-115" d="M172.31,233.63c.92-.4.13-2.49,1.95-2,.66,1,2.18,1.43,2,3a2.9,2.9,0,0,0-2,3,2,2,0,0,1-2-1A2.16,2.16,0,0,1,172.31,233.63Z"/><path class="cls-21" d="M172.31,233.63l0,3-2.95-1,0-1c1.11-.66.1-1.34,0-2h1Z"/><path class="cls-258" d="M114.54,238.61l1-1c1.15-.62,1.48.34,2,1h0C116.54,239.87,115.55,239.85,114.54,238.61Z"/><path class="cls-91" d="M23,185.82l-1-3,2.83.13C23.8,183.69,24.84,185.7,23,185.82Z"/><path class="cls-174" d="M117.54,238.6l-2-1c1-.91,1.69-2.32,3.33-2.45C119.66,236.86,117.75,237.38,117.54,238.6Z"/><path class="cls-277" d="M225.06,70.37c.33,1,.66,2,1,3l-2,.05C222.28,71.7,224,71.13,225.06,70.37Z"/></g></g></svg>