<svg xmlns="http://www.w3.org/2000/svg" viewBox="0 0 130.15 147.46"><defs><style>.cls-1{fill:#81a18b;}.cls-2{fill:#83a48e;}.cls-3{fill:#81a28c;}.cls-4{fill:#7b9c87;}.cls-5{fill:#8ead97;}.cls-6{fill:#799a83;}.cls-7{fill:#86a290;}.cls-8{fill:#8fad97;}.cls-9{fill:#80a18b;}.cls-10{fill:#41644d;}.cls-11{fill:#95b09e;}.cls-12{fill:#5b7c64;}.cls-13{fill:#bccdc1;}.cls-14{fill:#5e6264;}.cls-15{fill:#fefefe;}.cls-16{fill:#789982;}.cls-17{fill:#90b099;}.cls-18{fill:#89a993;}.cls-19{fill:#70937d;}.cls-20{fill:#8eae99;}</style></defs><title>资源 1244</title><g id="图层_2" data-name="图层 2"><g id="图层_1-2" data-name="图层 1"><path class="cls-1" d="M124.93,54.23c2.67,7,3,14.63,5.22,21.79v13.9c-2.66,8.12-5.08,16.34-8.15,24.3-.89,2.31.4,7-4.75,6.46-4.19-.87-2.31-4.3-2.55-6.63-.18-1.7,1.44-2,3.13-1.12-1.81-3.93-5.1,1.39-6.87-1.62a9.28,9.28,0,0,1,.75-4.35c4.67-14.24,4.49-28.49.52-42.88A70.24,70.24,0,0,0,90.11,29.13c-2.09-1.83-4.59-3.28-6-5.85,1.41-3.06.41-5.48-1.75-7.83-1.29-1.41-2.48-3.18-.35-5.26-4.64.75-7.48-2.4-10.77-4.55a1.78,1.78,0,0,1,.33-2c7,.06,13.29,2,18.66,6.87C95.35,15.12,101,19,105.38,24.38a12.14,12.14,0,0,0,4.4,7.31c2.15,1.76,5.67,3.69,3,7.63-.28.4-.08.42.17.56,6.69,3.55,5,9.07,3.74,14.53C119.1,51.59,122.06,54.64,124.93,54.23Z"/><path class="cls-2" d="M4.4,97.87C3.08,89.27,1.28,80.72.53,72.07-.79,57-.37,42.23,10.36,29.64,15.17,24,19.72,18.23,25.09,13.07c3-2.85,4.74-6.91,7.06-10.43,3.42.42,7.48-1.58,9.9,2.63.05,2.65-1.85,4.9-1.52,7.61a14.23,14.23,0,0,1-7.4,5.32c-2-.41-3.71-.36-5.16,1.59-1.68,2.27-3.23,4.66-6.62,5.18-2,.31-1.8,2.39-.78,4s.71,3.13-1,4.13c-3.85,2.21-5.13,6.19-6.13,10-.5,1.89.08,3.6-2.53,4.27-1.32.33-.37,1.73.09,2.46,2.32,3.67,2.56,8,4.14,12,1.59,6.59,1.1,13.47,2.77,20.06a3.38,3.38,0,0,1-.68,2.8c0,1.17-3.74,1.12-1,3.14A2.33,2.33,0,0,1,16.68,89c-.73,3.34-3.1,4.91-6.16,5.73C8.12,95.06,7.58,99,4.4,97.87Z"/><path class="cls-3" d="M73,144.66c-7.52,4.3-15.49,2.53-23.44,1.94-5.94-.45-10.7-3-15.54-6.18S23.9,135.1,18.9,132.33c-1.8-1-3.89-2-3.82-4.68,1-1,1.75-2.66,3.57-1.87,3.1,1.35,3.05-1.39,3.93-2.91,1.31-2.25-.35-2.91-2-3.46-1.44-.49-2.22-1.34-2.05-2.91.17-1.73-.38-2.64-2-3.86-2.68-2.06-1.3-5.3-.48-8.09,2-.78,3.12.68,4.31,1.88a7.26,7.26,0,0,1,.91,1.93c1.5,4.27,4.77,7.43,7,11.23,1,1.76,2.8,1.23,4.28,1.65,5.11,4.34,9.28,9.64,15,13.51s11.21,6,18,5.53a35,35,0,0,1,8.37.24C78.65,143,73.58,143.34,73,144.66Z"/><path class="cls-4" d="M16.14,104.81c.18,1.26.77,2.64.46,3.77-.59,2.15,1.3,2.46,1.74,3.29,1.85,3.49,2.84,7.34,7,9-1.2,2.35-2.07,5-3.69,7s-2.27-.51-3.33-1.28c-1.45-1-1.36,3.11-3.25,1.08C11.19,117.84,4.32,109.1,4.4,97.87c2.55-.41,2.77-4.22,5.78-4,2.2,2,4.2,4.25,6.56,6.12S18.63,103.5,16.14,104.81Z"/><path class="cls-5" d="M124.93,54.23c-3-.79-2.22,2.62-3.56,3.53-2.23-.89.31-2.92-1.38-3.94-1.79,0-2.72,2-4.84,2.57,1-4.08,1.89-8,.74-12-.47-1.63-.26-4.4-3.38-3.29-.76.27-1.42,1.1-1.93,0-.38-.85-.58-1.86.83-2.3,2.79-.86,1.64-2.27.35-3.54a45.73,45.73,0,0,0-4.58-4.24c-2.42-1.82-3.1-3.94-1.8-6.68C113.59,33.22,121.22,42.44,124.93,54.23Z"/><path class="cls-6" d="M111.4,111.78c1.25,0,2-.86,3-1.47s2.13-1.7,3-.55a18.51,18.51,0,0,1,2.13,4.74c.06.17-.58.82-1,.91-1.89.44-1.46-1.69-2.94-2.72.42,3-.71,5.76,1.62,8l-.17,1.06c-2.19.86-4.51,1.51-5.77,3.78-2.73,1.68-5.16,4.32-8.9,2.92-1.33-2.35.27-3.73,1.86-4.79,3.74-2.5,5.22-6,5.08-10.34C109.75,112.43,110,111.3,111.4,111.78Z"/><path class="cls-7" d="M110.22,113.55c1.17,4.86-1.08,8.37-4.89,10.82a5.58,5.58,0,0,0-2.92,4.07c-2.65,3.8-7.39,3.2-10.9,5.19-1,.39-1.22-.24-1.28-1,1-2.07,3.06-2.92,4.86-4a39.19,39.19,0,0,0,11.52-11.35C107.59,115.82,108,113.74,110.22,113.55Z"/><path class="cls-8" d="M41.92,5.56c-2.82-2.44-6.69-1.37-9.77-2.92.34-.54.68-1.54,1-1.55C38.49,1,43.72-.79,49.08.41c.07,2.66-2.81,2.41-3.86,4C44.33,5.35,43.59,6.77,41.92,5.56Z"/><path class="cls-9" d="M44.89,3.65c.52-2.22,3.53-1.2,4.18-3.24,4.2,0,7.93,1.71,11.7,3.24C60.33,6.2,58.19,6,56.41,6.31c-3.09.22-6.1-1.24-9.3-.3C45.89,6.37,44.49,5.52,44.89,3.65Z"/><path class="cls-10" d="M55.88,5.74l4.89-2.09,3.94.07c2.58,1.25,1.49,3.11.83,4.9-1.33,1.88-3.9,1.23-5.46,2.67a4.23,4.23,0,0,1-4.83-1.75A3.12,3.12,0,0,1,55.88,5.74Z"/><path class="cls-11" d="M73,144.66c-.61-.48-2.08-1,0-1.43,1.13-.23,2.9.23,1.4-1.89,2-2.92,4.58-4.68,8.33-4a1.58,1.58,0,0,1-.18,2.1C79.52,141.54,76.75,144,73,144.66Z"/><path class="cls-12" d="M64.74,8.56c0-1.61,1.52-3.24,0-4.84l6.91,0c0,.63,0,1.25,0,1.88C70.24,8.59,68,9.67,64.74,8.56Z"/><path class="cls-13" d="M82.52,139.49l.07-2c1.79-3.07,4.28-5,8-4.75l.9.88Z"/><path class="cls-14" d="M111.31,125.52c.27-3.79,3-3.76,5.77-3.78A13.77,13.77,0,0,1,111.31,125.52Z"/><path class="cls-15" d="M90.61,132.75l-8,4.75-8.22,3.85C55.62,144.78,42.81,135.4,32,121.66c-4.79-1.93-4.81-7.31-7.68-10.64-.87-1.67-1.36-3.52-2.4-5.12-2.9-5.68-5.78-11.37-5.8-18h0A2.19,2.19,0,0,1,16,85c1.77-2.31-.18-4.33-.44-6.5C14.9,72.68,14.5,66.89,14,61.11c-1.5-7.4.2-14.35,3.06-21.08a94.77,94.77,0,0,1,11.7-19.37,11.43,11.43,0,0,1,4.34-3.15l6.85-5c3.8-4.33,10.21-5.54,15.87-3,1.45,1.31,3.19,1.07,4.92.93C65.18,9.37,68.36,13,72.38,13.6a23.7,23.7,0,0,1,10.43,6.84,7.48,7.48,0,0,1,1.65,2.17c28.79,21,39.74,57.74,26.94,89.17-.39.59-.78,1.18-1.18,1.77C105.89,122.21,99.06,128.31,90.61,132.75Z"/><path class="cls-16" d="M72.65,14.49c-4.47.13-7.8-3.14-11.93-4,.12-3.23,2.91-.78,4-1.89a16.67,16.67,0,0,0,6.93-3c4.55,1.37,8.28,4.78,14.06,4.79-5,.44-4.86,2-2.4,4.47.57.57.81,1.54,1.44,2,3.09,2.16,2.35,4-.31,5.81-.8-.12-1.65-.17-1.89-1.19C81.88,17.36,77.11,14,72.65,14.49Z"/><path class="cls-17" d="M33.08,17.51c-7.73,9.24-14.6,19-17.5,30.93-1,4.11-1.09,8.44-1.6,12.67C11.37,57,11.52,51.77,8.26,47.67c-1.19-1.49,2.14-2.3,4.32-1.55.51-1.63-3.67-3.76.53-4.51.3,0,.64-.76.71-1.2.64-4,1.84-6.15,5.48-8.2,2.31-1.32.38-2.31-.15-3-2.43-3.11.18-6,1.9-5.85,3.9.28,5.17-2.82,6.25-4.58C29.2,15.68,30.76,16.14,33.08,17.51Z"/><path class="cls-18" d="M16.15,87.92c2.14,6,3.92,12.19,7,17.87-.65,1.38-1.55,2-3,1l-4-2c2.76-2.68-.28-4.89-1.51-5.17-3.43-.79-3.37-3.56-4.45-5.74C13,92.75,15.25,91,16.15,87.92Z"/><path class="cls-19" d="M55.8,9.52a29.52,29.52,0,0,0-15.87,3c-1.62-3,.33-4.93,2-7,1.51.18,1.92-1.38,3-1.91.48.86,1.25,2.07,2.11,1.56,3.16-1.88,6-.12,8.88.53C55.85,7,55.83,8.26,55.8,9.52Z"/><path class="cls-4" d="M11.68,88.13c-.55,1.73-1.7,1.79-2.86,1.72s-2.16-.52-2.13-1.59c.06-1.79,1.87-1.6,3-1.65C10.34,86.58,11.07,87.65,11.68,88.13Z"/><path class="cls-4" d="M7.25,82.38a1.57,1.57,0,0,1,1.58,1.5,1.48,1.48,0,0,1-1.4,1.65c-.76.1-1.11-.58-1.13-1.25S6.2,82.62,7.25,82.38Z"/><path class="cls-18" d="M16,85c0,1,.09,2,.13,3-1.38.7-2.64.7-2.82-1.15S14.77,85,16,85Z"/><path class="cls-20" d="M25.33,110.72,32,121.66c-1.43.56-3.08,2-4.1-.35-2-4.55-6.24-7.72-7.83-12.53C23.59,104.72,23.54,110.21,25.33,110.72Z"/><path class="cls-4" d="M25.33,110.72c-1.95-.07-2.43-4.15-5.23-1.94v-2l3-1Z"/><path class="cls-1" d="M72.65,14.49c.8-1.15.66-4.19,3.29-1.32a8.57,8.57,0,0,0,4.53,2.55c4.38.74,4.06,2.83,2.1,5.7C79.71,18.46,76.14,16.54,72.65,14.49Z"/></g></g></svg>