<svg xmlns="http://www.w3.org/2000/svg" viewBox="0 0 124.8 134.17"><defs><style>.cls-1{fill:#7b9c86;}.cls-2{fill:#8dad96;}.cls-3{fill:#7fa089;}.cls-4{fill:#7f9f88;}.cls-5{fill:#7fa08a;}.cls-6{fill:#81a28a;}.cls-7{fill:#42654e;}.cls-8{fill:#709179;}.cls-9{fill:#8eaf98;}.cls-10{fill:#94b29c;}.cls-11{fill:#6c8d77;}.cls-12{fill:#8cab96;}.cls-13{fill:#9bb9a3;}.cls-14{fill:#86a68f;}.cls-15{fill:#92b19a;}.cls-16{fill:#fefefe;}.cls-17{fill:#90af9a;}.cls-18{fill:#92b19d;}.cls-19{fill:#8ead97;}.cls-20{fill:#72927a;}</style></defs><title>资源 1245</title><g id="图层_2" data-name="图层 2"><g id="图层_1-2" data-name="图层 1"><path class="cls-1" d="M94,128l-21.76,6.16H65.34c-2.42-1.93-5.35-.94-8-1.33-11.4-1.66-20.67-7.5-29.33-14.59-1-.83-1.78-2-3.21-2.11-3.23-4-2.74-5.38,2.64-7.23,4.85,2.87,8.52,7.17,12.8,10.72,8.84,7.31,18.6,9.87,29.85,7,5.4-1.38,10.82-2.82,16.43-3.23,2.49-.33,4.68,1.07,7.41.83S94.72,126.62,94,128Z"/><path class="cls-2" d="M124.8,78.63c-2,4.43-.1,9.68-3,13.91a4.92,4.92,0,0,1-3.51-3.25c3.07-4.08-.23-7.91-.69-11.78a85.71,85.71,0,0,0-3.67-15c-.27-.89.71-1.43,1.51-1.59,1.6-.31,2.22-1.87,3.5-2.56,2.85-.69,2.59,2.33,4,3.36,1.72,1.27-.27,3.88,1.82,5Z"/><path class="cls-3" d="M5.85,94.51c-2.57-2.41-3.19-5.75-3.67-8.92-1.81-12-4.06-23.74.53-35.87C5.13,43.32,9.13,37.39,9.43,30c.08-2.22,2.05-5.67,4.23-7.93,1.85-2,3.74-2.74,5.94-.41a2.37,2.37,0,0,0,3.07.47C25,21,26.26,22.4,27.11,24.4,23.3,30.64,22.67,38.34,18,44.21c-2.53,1.33-3.88,3.19-2.74,6.17a1.6,1.6,0,0,1-1,.91c-4-.69-3.73,3.94-6.29,5,2.12.9.56,3.6,1.6,4.26,4.25,2.72,2,6.27,1,9C9,73.84,10,76.63,13.51,79a19.23,19.23,0,0,1,.85,7.07c-2.44,3-2.12,4.29,2,7.71,3.59,4.53,7.48,8.85,9.72,14.29a10.13,10.13,0,0,1-8.39,4.63c-2.3-1.2-3.59-3.44-5.36-5.2.23-.45.45-1.15.12-1.39C8.47,103.21,7.91,98.44,5.85,94.51Z"/><path class="cls-4" d="M118.88,58.78c-.36,2.36-1.61,3.64-4.92,2.9,2.39,1.55,2.26,1.5,1.49,3.76-.63,1.84,1.47,2.7,2,4.23s2.94,3,.25,4.82c-.23.15-.29.56-.43.84,5.65.89-1,7.88,4.46,9,1,.2.87.76-.12,2s-2.76,1.36-2.71,3.24c-3.48,3.91-4.51,3.77-6.27-.84-.46-1.21-1.46-2.16-1.68-3.49-.55-5.41.76-10.71.51-16.18-.55-11.92-6-21.63-12-31.35-2.2-3.62-5.36-6.66-6.57-10.88,3.67-2.42,8.2-1.9,10.79,1.23.53.64,1.56.36,2.08,1.07,2.37,7.63,6.54,14.3,11.06,20.78-.34.74-.2,1.63-.56,2.3-1.71,3.09-.24,4.54,2.62,5.35A1,1,0,0,1,118.88,58.78Z"/><path class="cls-3" d="M16.66,17.85c8-9,17.51-15.32,29.73-16.86a3,3,0,0,1,1.88,2A10.74,10.74,0,0,1,40,11.57c-2,.53-1.47,1.69-2,2.67-3,2.57-5.22,6.24-9.45,7.26-3.12-1.11-6-3.1-9.68-1.75C17.83,20.14,16.18,19.93,16.66,17.85Z"/><path class="cls-5" d="M47.51,3.29c-.37-.76-.74-1.53-1.12-2.3C54.45-.37,62.46-.64,70.3,2.2,71.94,3.38,73.81,4.43,72.71,7a1.85,1.85,0,0,1-1.19.73C65.69,7.89,60,5.53,54.05,6.88,50.9,7.59,50.36,3.28,47.51,3.29Z"/><path class="cls-6" d="M95.09,14.15a18.2,18.2,0,0,1,7,7.93c-1,5.2-4,1-6.11,1.32-2.17-3.09-4.93-3.58-8.2-1.85a15.15,15.15,0,0,1-7.51-8.65c1.89-1.28,3.79-.51,5.64.06A26.68,26.68,0,0,0,95.09,14.15Z"/><path class="cls-7" d="M95.09,14.15C92.51,17,89.62,15,87,14.49,84.73,14,82.63,13,80.28,13.13c-1.63.72-2-.49-2.53-1.58-.16-2.94-.75-6.32,4.18-4.22C86.71,8.84,91.43,10.47,95.09,14.15Z"/><path class="cls-8" d="M16.66,17.85c.52,1,1.48,1.58,2.39,1,4.05-2.61,6.77,0,9.61,2.27.4,1.72.26,3.07-2,3-1.34-.1-2.41-3.55-4-.27-.69,1.39-1.95.45-2.38-.07-1.83-2.26-3.93-2.89-6.57-1.68C13.78,20,15.33,19,16.66,17.85Z"/><path class="cls-9" d="M96.06,23.1c1.25-.75,1.16-.59,3,.61,1.67,1.09,1.89-1.31,3-1.63a20.74,20.74,0,0,1,3.65,7c-1.85.46-1.91.36-3.22-2-.21-.38-1.06-.51-1.63-.54-2.68-.15-5.35-.22-8-.32-.11-.23-.21-.47-.32-.71C92.78,23.4,93.52,22,96.06,23.1Z"/><path class="cls-10" d="M5.85,94.51c.32,0,.82,0,.93.16,2.48,3.93,4.16,8.35,7.38,11.87.39.43-1.12.77-1.86.94-3.23-1.84-5.19-4.8-6.9-7.93C4.49,97.87,4.15,96.05,5.85,94.51Z"/><path class="cls-11" d="M81.93,7.33c-3.1-.5-3.19,2-3.88,3.89-2.85,0-4.2-2.19-5.76-4.06.4-2.08-1.21-3.35-2-5C74.53,3.1,78.92,3.65,81.93,7.33Z"/><path class="cls-2" d="M118.85,57.81c-1.68-.3-4.48.88-4.73-1.26s.18-5.11,2.69-6.67l4,5.24C122,57.37,120.3,57.49,118.85,57.81Z"/><path class="cls-12" d="M17.65,112.68q4.13-2.16,8.23-4.34c.73-.09,1,.24,1,1-2.94,1.6-3.86,3.81-2.08,6.84A7.48,7.48,0,0,1,17.65,112.68Z"/><path class="cls-13" d="M118.85,57.81c.48-1,2.06-1.24,1.93-2.69,3.25,1.36,1.58,4.36,2.2,6.6-1.9-.23-2-3-4.1-2.94Z"/><path class="cls-14" d="M111.85,85.45c.28,1.72,1.67,2.83,2.12,4.76.8,3.49,3-1,4.89-.67a6.29,6.29,0,0,1,3,3c-2.68,13.94-8.76,25.63-21.65,32.82-1.49.47-1.57-.5-1.6-1.55,0-.38.46-1,.29-1-4.58.43-1.9-2.15-1.12-3.18,1.42-1.86,2.88-3.55,2.41-6.1a95,95,0,0,0,9.93-26.73A1.61,1.61,0,0,1,111.85,85.45Z"/><path class="cls-15" d="M101,114.23c2.53,4.36-3.22,4.91-3.6,8.17,1.44.47,1.87-1.46,3.11-1.46,1.16,1.54-2.93,2.8-.28,4.42-1.76,1.58-4,2-6.16,2.65l.39-4.2c-2.84,5.22-4.86.43-7.22.47,1.8-3.65,6.19-4,8.66-6.92C97.13,115.86,98.42,113.88,101,114.23Z"/><path class="cls-16" d="M101,114.23c-4,4.15-8.23,8-13.76,10-6.87,1.55-13.69,3.57-20.65,4.53a32.78,32.78,0,0,1-27.38-8.23C35,116.87,31,113.06,26.84,109.3l-1-1a98.83,98.83,0,0,1-9.89-14c-2.12-2.21-3.36-4.69-2.29-7.84l-1.06-7.92c-2.3-5.16-.93-10.43-.46-15.67a5.4,5.4,0,0,1-.31-2.39c1.26-3.11.13-7,3-9.61v0c.53-2.37.53-4.89,2-7a29.69,29.69,0,0,0,4.91-12.09c.45-3.23,4.39-4.46,4.83-7.8a5.13,5.13,0,0,0,2-3c2.76-2.58,5.42-5.29,8.94-6.88C45.26,9.7,53,5.57,62.43,6.7c2.92.34,5.92-.38,8.83.43l1,0c2.49.54,4.12,2.31,5.76,4.06.22,1.25,1.35,1.44,2.23,1.91q3.94,4,7.9,7.9C90.71,21.88,92,24,93,26.19l-.15.08a115.39,115.39,0,0,1,16,25.8c4,8.59,4.18,17.78,3.65,27-.12,2.12-.41,4.24-.63,6.36C109.7,95.6,106.51,105.36,101,114.23Z"/><path class="cls-17" d="M14.88,51c-.74,3-.53,6.19-1.87,9.07-2.08.42-.68,1.12-.14,1.76q-.12,8.42-.23,16.84c-2-1.56-2.69,1.19-4.31,1.34-1.24-2.24,1.33-3,1.82-4.57-1.59-.41-5.42-.06-2.2-3,2.61-2.35,1-5.76,3.23-7.91.7-.67,0-1.56-1-1.66-2.3-.25-2.63-1.63-2.05-3.5.36-1.16,1-2.36-1.13-2.17-.6,0-1-.17-1-.74,0-.35.46-.91.75-.93C10.18,55.17,9,46.69,14.88,51Z"/><path class="cls-18" d="M13.7,86.55c.77,2.61,1.53,5.23,2.29,7.84-3.9-.39-3.83-3.73-4.52-6.35C11,86.08,12.74,86.75,13.7,86.55Z"/><path class="cls-17" d="M16.91,44c-.3,2.44-.46,4.91-2,7a4.85,4.85,0,0,0-.19-.95C13.51,47.27,11.51,44.25,16.91,44Z"/><path class="cls-19" d="M71.26,7.13C60.92,6.52,51,7.91,41.77,13c-1.2.67-2.58,1.51-4.17,1.19.22-1.44-1.45-2.62-.62-4.16,4,1,8.75-2.13,10.53-6.78,1.19.21,3.59-5,3.59.86,0,2.08,2.34,2.05,3.42,1.73C60.31,4.17,65.73,6.19,71.26,7.13Z"/><path class="cls-20" d="M93,26.19c-2.37-1-3.29-3.39-4.84-5.16,5.13-3.38,5.13-3.38,7.88,2.07A2.91,2.91,0,0,0,93,26.19Z"/><path class="cls-3" d="M12.87,61.79c-1.14-.47-3.47,1-3.27-1.37.1-1.1,2-2.23,3.41-.39C13,60.62,12.92,61.2,12.87,61.79Z"/></g></g></svg>