<svg xmlns="http://www.w3.org/2000/svg" viewBox="0 0 107.89 118.15"><defs><style>.cls-1{fill:#80a08b;}.cls-2{fill:#89a994;}.cls-3{fill:#799a84;}.cls-4{fill:#80a08a;}.cls-5{fill:#7b9a84;}.cls-6{fill:#89a992;}.cls-7{fill:#8aaa94;}.cls-8{fill:#4a6c55;}.cls-9{fill:#9ebba7;}.cls-10{fill:#fefefe;}.cls-11{fill:#6b8974;}.cls-12{fill:#92b19c;}.cls-13{fill:#96b4a0;}</style></defs><title>资源 1246</title><g id="图层_2" data-name="图层 2"><g id="图层_1-2" data-name="图层 1"><path class="cls-1" d="M101.62,34.69c1.73,2.34,2.25,5.19,3.33,7.8a17.58,17.58,0,0,1-1.91,4c-1.23,2.47-1.05,5.17.89,6.84s3.62,2.65,1.59,5.77c-.63,1,2.38,3.86,1.28,6.44.32,5.07-1.25,9.85-2.24,14.72a4.31,4.31,0,0,1-.47.84c-5.17,6.43-6.93,6.19-10.33-1.42a13.23,13.23,0,0,1,.13-5.39c1.88-9.79,2.69-19.55-.94-29.15a4.43,4.43,0,0,1,1-2.74c.57-.71,1.45-1.14.57-2.41-1.12-1.6-2-.17-3-.08-1.49-.33-2-1.58-2.66-2.72-3.69-6.83-7.73-13.41-13.42-18.81A4.48,4.48,0,0,1,73.69,15c.53-1.46,1.75-2.28,3-3.19-2.29-1.86-7.53.18-7-5.38-1.45.28-.88,3.93-3,2.18s-4.28-4.12-2.59-7.48C70.67.88,76.23,3.81,80.9,7.72c6.94,5.84,14,11.87,17.07,20.94C96.55,32.27,99.8,33.05,101.62,34.69Z"/><path class="cls-2" d="M12.53,99.24a16,16,0,0,1-4.94-8.08c.61-2,3,1.87,3.58-1.23.39-2.09.46-3.37-1.82-4-.63-.18-1.14-1.22-.85-1.58,2.74-3.38-.17-5.2-1.73-7.63S6.7,68.32,9,66.61a4,4,0,0,1,2.89.28c2.81,3.21,3.69,7.24,4.78,11.2a66.28,66.28,0,0,0,10.88,23.08c8.19,10.76,20,13.79,32.45,8.45a8.31,8.31,0,0,1,3.76-1.06,4,4,0,0,1,2.6,2.48c-4.15,1.42-8.31,2.67-12.06,5.2-3.23,2.17-7.28,2.14-11,1.6C32.42,116.23,21.8,113.78,14.86,104c4.14-2.88-.5-5.48-.22-8.34C13.37,96.58,14.53,98.83,12.53,99.24Z"/><path class="cls-3" d="M8.69,67.35c-.33.35-.8.65-1,1.07a9.19,9.19,0,0,0,3.7,10.71c.74.51,1.14,1.54,1.94,2.68-2.07-.23-3.89-.57-4,2.08-.14,3.46,1.94.57,2.74,1a2.5,2.5,0,0,1,1.18,3.32c-.69,1.25-1.56,2.11-1.4,3.87.14,1.51-.51,1.54-4.31-1C5.88,87.24,5,83.22,1.55,79.8c-2.65-2.59-1.23-8-.64-12a153.93,153.93,0,0,0,1.7-29c-.13-2.68,1.77-2,3.27-2,1.19,4.28,5.87,8,2.26,13.1a2.84,2.84,0,0,0-.35,2.39C9.24,57.28,7.64,62.39,8.69,67.35Z"/><path class="cls-4" d="M6.71,37.62c-1.46.09-3.11-.43-4.1,1.23C1.49,32.92,5,28.3,7.62,23.77a20.57,20.57,0,0,1,10.49-9.26c1.25-.46,1.9-1.54,2.72-2.6C25,6.44,30,2.17,37.45,2.08c-.32,2.07-.44,4.06,2.14,4.85,0,1.87-1.44,2.23-2.84,2.6C31.21,7.94,29,9.57,28,16c-1,2.51-2.35,4.67-5.21,5.36-6,.3-8.45,1.87-9.27,8.67C12.94,34.77,10.28,36.25,6.71,37.62Z"/><path class="cls-5" d="M64.13,1.09c-.2,2.85,2.33,4.54,2.74,7.62,1.45-1.51.23-3.31,1.6-4.22a2,2,0,0,1,2.28-.11c.65.38.63.75.32,1.57-.86,2.3-1.14,4.21,2.66,3.37,1.25-.27,2.88,1.17,4.41,1.86a7.47,7.47,0,0,1-4.32,3.73,2.22,2.22,0,0,1-1.44,0C63.43,10,54.05,6.6,43.71,6.44c.45-2.24.45-2.24,3.34-3-.85-.82-1.88-.23-2.81-.35-1.14-.13-2.31-.17-3-1.28C48.82.6,56.41-1.17,64.13,1.09Z"/><path class="cls-4" d="M66.33,111c-1.11-.15-2.08-.47-2.17-1.83.2-1.79,1.64-2.39,3-2.93,8.29-3.35,16.24-7.15,21.56-14.83A2.19,2.19,0,0,1,90,90.8c5.59,3.22,5.71,4.43.88,8.36A5.94,5.94,0,0,0,89,101.34C82.83,107.79,75.74,112.14,66.33,111Z"/><path class="cls-6" d="M89,101.34c.18-.76.13-2,.58-2.2,5-2.39,3.76-5.1.57-8,.3-4.2,1.24-8.14,4.57-11.09,3.7,4.63,3.7,4.63,9.82.19C102.38,89.48,97.8,97,89,101.34Z"/><path class="cls-7" d="M106.8,65.52c-.56-2.67-.65-5.72-4.78-5.25.67-2.53,3.58-1.84,3.91-4.53-4.5.51-4.22-3.3-4.88-6-.79-3.29,1.54-5.37,3.9-7.22C107.93,50,108.82,57.63,106.8,65.52Z"/><path class="cls-8" d="M41.21,1.83c2.62,0,5.24.06,7.85.14.79,0,1.81.08,1.79,1.15,0,.87-.82,1.32-1.66,1.57-1.9.58-4.32-1.2-5.83,1.25-1,1.29-2.21,2.06-3.87,1l-4.15-.26c-.48-2.22,1.21-3.24,2.11-4.64Z"/><path class="cls-3" d="M12.53,99.24a3.23,3.23,0,0,0,.16-3.2c-1.29-2.84,1.17-1.27,1.94-1.47,1.2-.31,3.06-.61,1.79,1.58-.86,1.49,0,2.07.69,2.87,3.07,3.41,1.3,4.57-2.25,4.93A7.34,7.34,0,0,1,12.53,99.24Z"/><path class="cls-9" d="M101.62,34.69C95,32.77,95,32.77,98,28.66Q99.8,31.68,101.62,34.69Z"/><path class="cls-10" d="M39.49,7l3.87-1c11.43-1.32,21.24,2.83,30.47,9,8,6.76,12.8,15.89,18,24.7,2,.72,2,2.35,1.84,4,5.92,12,2.27,24.22,1.06,36.39-1.76,3.6-2.19,7.75-4.57,11.09C85.12,99.41,77,103.47,68.49,107c-1.48.62-2.88,1.45-4.33,2.18-9.56,5.18-19.25,6.44-29,.65-5.51-3.27-9.36-8.18-12.58-13.64-5.29-9-7.25-19.27-11-28.87a13.36,13.36,0,0,1-2.9-9.21c.29-8,1.33-15.73,5.14-22.89,1.71-3.2,3.12-6.54,4.56-9.87.86-2,1.89-3.88,4.18-4.61a14.28,14.28,0,0,0,4.84-5.11c2.56-2.85,5.26-5.52,9-6.78Z"/><path class="cls-11" d="M93.68,43.66c-.62-1.35-1.23-2.7-1.84-4,4.42-7.73,2.06,6.23,5.88,1.18C96.28,42.38,94.54,42.33,93.68,43.66Z"/><path class="cls-12" d="M22.57,20.77c-5.19,10.3-11.31,20.12-12.44,32.12C9.65,58,11,62.55,11.59,67.35H8.69c-1-.95-2.23-1.1-1.7-3.61.65-3.11,1.32-6.84-.49-10.25-1-2-.08-4.07,1.27-5.77.36-.45,1.54-1,1.37-1C6.68,46,8.1,43,6.63,42.11c-2.73-1.73,1.46-3,.08-4.49,1.34-1.17,2.64-2.37,4-3.48.74-.6,2.3-1.18,1.72-2-2.34-3.37,1.62-5.27,1.68-8.2C14.19,21.21,20,19.42,22.57,20.77Z"/><path class="cls-13" d="M36.41,8.88c-2.74,2.6-5.47,5.22-9,6.78C25.15,10.85,30,9.57,32,7.2,33.41,5.58,34.69,8.81,36.41,8.88Z"/></g></g></svg>