<svg id="图层_1" data-name="图层 1" xmlns="http://www.w3.org/2000/svg" width="300" height='300' viewBox="-50 -50 327.65 318.34"><defs><style>.cls-1{opacity:0.4;}.cls-2{opacity:0.2;}.cls-3{fill:orange;fill-rule:evenodd;}.cls-4{opacity:0.3;}.cls-5{opacity:0.19;}.cls-6{opacity:0.18;}</style></defs><title>field_force2</title><g class="cls-1"><g class="cls-2"><path class="cls-3" d="M48.59,204.07a4.46,4.46,0,0,1,4.41.26h0l7,5.33c1.14.83,1,2.1-.29,2.8a4.48,4.48,0,0,1-4.41-.19l-.1-.08-7-5.33c-1.1-.85-.92-2.1.4-2.8" transform="translate(-32.7 -44.58)"/><path class="cls-3" d="M48.59,217.8c-1.32-.7-1.5-2-.4-2.8l7-5.33a4.42,4.42,0,0,1,4.39-.32c1.35.7,1.58,1.94.5,2.8l-.09.07-7,5.29a4.46,4.46,0,0,1-4.4.26h0" transform="translate(-32.7 -44.58)"/><path class="cls-3" d="M56.51,210.94c0,1.1-1.4,2-3.13,2H36.7c-1.73,0-3.13-.89-3.13-2s1.4-2,3.13-2H53.38c1.73,0,3.13.9,3.13,2" transform="translate(-32.7 -44.58)"/></g><path class="cls-3" d="M48.89,207.76a1.51,1.51,0,0,1,1.47.08l7,5.33c.35.29.28.7-.17.94a1.48,1.48,0,0,1-1.4-.08l-7-5.33c-.36-.28-.31-.7.14-.94" transform="translate(-32.7 -44.58)"/><path class="cls-3" d="M48.89,219.44c-.44-.24-.5-.66-.14-.94l7-5.33a1.51,1.51,0,0,1,1.47-.06c.41.24.48.64.13.92l-7,5.33a1.51,1.51,0,0,1-1.47.08" transform="translate(-32.7 -44.58)"/><path class="cls-3" d="M56.51,213.6c0,.37-.47.7-1,.7H35.66c-.58,0-1-.29-1-.7s.47-.67,1-.67h19.8c.58,0,1,.3,1,.67" transform="translate(-32.7 -44.58)"/></g><g class="cls-1"><g class="cls-2"><path class="cls-3" d="M47.73,164.12a4.46,4.46,0,0,1,4.41.26h0l6.94,5.33c1.14.82,1,2.1-.29,2.8a4.45,4.45,0,0,1-4.41-.19l-.1-.07-7-5.33c-1.1-.85-.93-2.1.4-2.8" transform="translate(-32.7 -44.58)"/><path class="cls-3" d="M47.73,177.84c-1.33-.7-1.5-2-.4-2.8l7-5.32a4.4,4.4,0,0,1,4.39-.33c1.36.7,1.58,2,.51,2.8l-.1.08-6.94,5.32a4.45,4.45,0,0,1-4.41.25h0" transform="translate(-32.7 -44.58)"/><path class="cls-3" d="M55.64,171c0,1.11-1.4,2-3.12,2H35.83c-1.73,0-3.13-.89-3.13-2s1.4-2,3.13-2h16.7c1.72,0,3.12.89,3.12,2" transform="translate(-32.7 -44.58)"/></g><path class="cls-3" d="M48,167.78a1.49,1.49,0,0,1,1.46.08l6.95,5.33c.35.29.28.7-.17.94a1.45,1.45,0,0,1-1.4-.09l-6.95-5.32c-.37-.29-.31-.7.13-.94" transform="translate(-32.7 -44.58)"/><path class="cls-3" d="M48,179.48c-.45-.23-.51-.65-.14-.93l7-5.33a1.48,1.48,0,0,1,1.47-.06c.42.23.48.64.13.91l-6.95,5.33a1.44,1.44,0,0,1-1.46.08" transform="translate(-32.7 -44.58)"/><path class="cls-3" d="M55.64,173.65c0,.36-.47.7-1,.7H34.79c-.58,0-1-.3-1-.7s.46-.7,1-.7H54.63c.57,0,1,.3,1,.7" transform="translate(-32.7 -44.58)"/></g><g class="cls-1"><g class="cls-2"><path class="cls-3" d="M48.71,124.17a4.41,4.41,0,0,1,4.4.25h0l7,5.33c1.14.83,1,2.1-.3,2.8a4.45,4.45,0,0,1-4.41-.19l-.09-.07L48.33,127c-1.11-.85-.93-2.1.4-2.81" transform="translate(-32.7 -44.58)"/><path class="cls-3" d="M48.71,137.9c-1.33-.7-1.51-2-.4-2.81l6.95-5.33a4.42,4.42,0,0,1,4.39-.32c1.35.7,1.58,1.94.51,2.8l-.1.07-7,5.35a4.41,4.41,0,0,1-4.4.26h0" transform="translate(-32.7 -44.58)"/><path class="cls-3" d="M56.62,131c0,1.1-1.4,2-3.13,2H36.81c-1.73,0-3.13-.9-3.13-2s1.4-2,3.13-2H53.49c1.73,0,3.13.9,3.13,2" transform="translate(-32.7 -44.58)"/></g><path class="cls-3" d="M49,127.86a1.51,1.51,0,0,1,1.47.08l6.93,5.33c.36.28.28.7-.17.93a1.48,1.48,0,0,1-1.4-.08l-6.94-5.33c-.37-.28-.31-.7.13-.94" transform="translate(-32.7 -44.58)"/><path class="cls-3" d="M49,139.53c-.44-.23-.5-.65-.14-.93l7-5.33a1.51,1.51,0,0,1,1.47-.07c.42.24.48.64.14.92l-7,5.33a1.46,1.46,0,0,1-1.47.08" transform="translate(-32.7 -44.58)"/><path class="cls-3" d="M56.62,133.69c0,.37-.47.67-1,.67H35.77c-.58,0-1-.3-1-.67s.46-.66,1-.66H55.58c.57,0,1,.3,1,.66" transform="translate(-32.7 -44.58)"/></g><g class="cls-1"><g class="cls-2"><path class="cls-3" d="M49,85.79a4.41,4.41,0,0,1,4.4.25h0l7,5.32c1.13.84,1,2.1-.3,2.8A4.42,4.42,0,0,1,55.67,94l-.09-.07-6.95-5.33c-1.11-.84-.93-2.1.4-2.8" transform="translate(-32.7 -44.58)"/><path class="cls-3" d="M49,99.51c-1.33-.7-1.51-2-.4-2.8l6.95-5.33A4.42,4.42,0,0,1,60,91.06c1.36.7,1.59,2,.51,2.8l-.09.08-7,5.32a4.44,4.44,0,0,1-4.4.26h0" transform="translate(-32.7 -44.58)"/><path class="cls-3" d="M56.94,92.65c0,1.1-1.4,2-3.13,2H37.12c-1.73,0-3.13-.9-3.13-2s1.4-2,3.13-2H53.8c1.73,0,3.13.89,3.13,2" transform="translate(-32.7 -44.58)"/></g><path class="cls-3" d="M49.32,89.47a1.49,1.49,0,0,1,1.47.09l7,5.33c.36.29.28.7-.17.93a1.48,1.48,0,0,1-1.4-.08l-7-5.33c-.37-.28-.31-.7.13-.94" transform="translate(-32.7 -44.58)"/><path class="cls-3" d="M49.32,101.15c-.44-.23-.5-.65-.13-.93l7-5.33a1.49,1.49,0,0,1,1.47-.06c.42.23.48.63.13.91l-7,5.33a1.46,1.46,0,0,1-1.47.08" transform="translate(-32.7 -44.58)"/><path class="cls-3" d="M56.94,95.31c0,.37-.47.7-1,.7H36.09c-.57,0-1-.29-1-.7s.47-.66,1-.66H55.9c.57,0,1,.3,1,.66" transform="translate(-32.7 -44.58)"/></g><g class="cls-1"><g class="cls-2"><path class="cls-3" d="M92.71,244a4.46,4.46,0,0,1,4.41.26h0l6.95,5.33c1.13.83,1,2.1-.29,2.8a4.47,4.47,0,0,1-4.42-.19l-.09-.07-7-5.33c-1.11-.85-.92-2.1.4-2.8" transform="translate(-32.7 -44.58)"/><path class="cls-3" d="M92.71,257.75c-1.32-.7-1.51-2-.4-2.8l7-5.33a4.42,4.42,0,0,1,4.39-.32c1.35.7,1.58,1.94.5,2.8l-.09.08-6.95,5.32a4.46,4.46,0,0,1-4.41.26h0" transform="translate(-32.7 -44.58)"/><path class="cls-3" d="M100.62,250.89c0,1.1-1.4,2-3.13,2H80.82c-1.73,0-3.13-.89-3.13-2s1.4-2,3.13-2H97.49c1.73,0,3.13.89,3.13,2" transform="translate(-32.7 -44.58)"/></g><path class="cls-3" d="M93,247.71a1.49,1.49,0,0,1,1.47.09l7,5.33c.36.29.28.7-.17.93a1.48,1.48,0,0,1-1.4-.08l-6.95-5.33c-.37-.28-.31-.7.13-.94" transform="translate(-32.7 -44.58)"/><path class="cls-3" d="M93,259.39a.52.52,0,0,1-.13-.94l7-5.32a1.46,1.46,0,0,1,1.47-.06c.41.23.47.63.12.91l-7,5.33a1.51,1.51,0,0,1-1.47.08" transform="translate(-32.7 -44.58)"/><path class="cls-3" d="M100.62,253.55c0,.37-.47.7-1,.7H79.77c-.57,0-1-.3-1-.7s.47-.67,1-.67H99.58c.57,0,1,.3,1,.67" transform="translate(-32.7 -44.58)"/></g><g class="cls-1"><g class="cls-2"><path class="cls-3" d="M93,204.07a4.44,4.44,0,0,1,4.4.26h0l7,5.33c1.13.83,1,2.1-.3,2.8a4.48,4.48,0,0,1-4.41-.19l-.1-.08-7-5.33c-1.1-.85-.93-2.1.4-2.8" transform="translate(-32.7 -44.58)"/><path class="cls-3" d="M93,217.8c-1.33-.7-1.51-2-.41-2.8l7-5.33a4.42,4.42,0,0,1,4.39-.32c1.35.7,1.58,1.94.5,2.8l-.09.07-7,5.29a4.46,4.46,0,0,1-4.4.26h0" transform="translate(-32.7 -44.58)"/><path class="cls-3" d="M101,210.94c0,1.1-1.4,2-3.13,2H81.14c-1.73,0-3.13-.89-3.13-2s1.4-2,3.13-2H97.82c1.73,0,3.13.9,3.13,2" transform="translate(-32.7 -44.58)"/></g><path class="cls-3" d="M93.33,207.76a1.51,1.51,0,0,1,1.47.08l6.94,5.33c.36.29.29.7-.16.94a1.48,1.48,0,0,1-1.4-.08l-7-5.33c-.36-.28-.31-.7.13-.94" transform="translate(-32.7 -44.58)"/><path class="cls-3" d="M93.33,219.44c-.45-.24-.5-.66-.14-.94l7-5.33a1.51,1.51,0,0,1,1.47-.06c.41.24.47.64.12.92l-6.94,5.33a1.51,1.51,0,0,1-1.47.08" transform="translate(-32.7 -44.58)"/><path class="cls-3" d="M101,213.6c0,.37-.47.7-1,.7H80.1c-.58,0-1-.29-1-.7s.47-.67,1-.67H99.9c.58,0,1,.3,1,.67" transform="translate(-32.7 -44.58)"/></g><g class="cls-1"><g class="cls-2"><path class="cls-3" d="M92.17,164.12a4.46,4.46,0,0,1,4.41.26h0l6.94,5.33c1.14.82,1,2.1-.29,2.8a4.45,4.45,0,0,1-4.41-.19l-.1-.07-7-5.33c-1.11-.85-.93-2.1.4-2.8" transform="translate(-32.7 -44.58)"/><path class="cls-3" d="M92.17,177.85c-1.33-.71-1.51-2-.4-2.81l7-5.32a4.4,4.4,0,0,1,4.39-.33c1.36.7,1.58,2,.51,2.8l-.1.08-6.94,5.32a4.45,4.45,0,0,1-4.41.25h0" transform="translate(-32.7 -44.58)"/><path class="cls-3" d="M100.08,171c0,1.11-1.4,2-3.13,2H80.27c-1.73,0-3.13-.89-3.13-2s1.4-2,3.13-2H97c1.73,0,3.13.89,3.13,2" transform="translate(-32.7 -44.58)"/></g><path class="cls-3" d="M92.45,167.78a1.49,1.49,0,0,1,1.46.08l7,5.36c.36.29.28.7-.17.93a1.43,1.43,0,0,1-1.4-.08l-7-5.32c-.37-.29-.31-.7.13-.94" transform="translate(-32.7 -44.58)"/><path class="cls-3" d="M92.45,179.48c-.44-.23-.5-.65-.13-.93l7-5.33a1.48,1.48,0,0,1,1.47-.06c.42.23.47.64.12.91l-7,5.33a1.44,1.44,0,0,1-1.46.08" transform="translate(-32.7 -44.58)"/><path class="cls-3" d="M100.08,173.65c0,.36-.46.7-1,.7H79.23c-.58,0-1-.3-1-.7s.47-.7,1-.7H99c.59,0,1,.3,1,.7" transform="translate(-32.7 -44.58)"/></g><g class="cls-1"><g class="cls-2"><path class="cls-3" d="M93.15,124.17a4.43,4.43,0,0,1,4.41.25h0l7,5.33c1.14.83,1,2.1-.3,2.8a4.45,4.45,0,0,1-4.41-.19l-.09-.07-7-5.33c-1.1-.85-.92-2.11.4-2.81" transform="translate(-32.7 -44.58)"/><path class="cls-3" d="M93.15,137.9c-1.32-.7-1.5-2-.4-2.81l7-5.33a4.42,4.42,0,0,1,4.39-.32c1.35.7,1.58,1.94.5,2.8l-.09.07-7,5.35a4.43,4.43,0,0,1-4.41.26h0" transform="translate(-32.7 -44.58)"/><path class="cls-3" d="M101.06,131c0,1.1-1.4,2-3.13,2H81.24c-1.73,0-3.13-.9-3.13-2s1.4-2,3.13-2H97.92c1.73,0,3.13.9,3.13,2" transform="translate(-32.7 -44.58)"/></g><path class="cls-3" d="M93.44,127.86a1.51,1.51,0,0,1,1.47.08l7,5.33c.35.29.28.7-.17.94a1.51,1.51,0,0,1-1.44-.08l-6.94-5.33c-.37-.28-.31-.7.13-.94" transform="translate(-32.7 -44.58)"/><path class="cls-3" d="M93.44,139.53c-.44-.23-.5-.65-.13-.93l6.94-5.33a1.51,1.51,0,0,1,1.47-.07c.42.24.48.64.14.92l-7,5.33a1.46,1.46,0,0,1-1.47.08" transform="translate(-32.7 -44.58)"/><path class="cls-3" d="M101.06,133.69c0,.37-.47.67-1,.67H80.21c-.58,0-1-.3-1-.67s.47-.66,1-.66H100c.58,0,1,.3,1,.66" transform="translate(-32.7 -44.58)"/></g><g class="cls-1"><g class="cls-2"><path class="cls-3" d="M93.47,85.79a4.41,4.41,0,0,1,4.4.25h0l7,5.32c1.13.84,1,2.1-.3,2.8a4.4,4.4,0,0,1-4.41-.19l-.1-.07-7-5.33c-1.1-.84-.93-2.1.4-2.8" transform="translate(-32.7 -44.58)"/><path class="cls-3" d="M93.47,99.51c-1.33-.7-1.5-2-.4-2.8l7-5.33a4.42,4.42,0,0,1,4.39-.32c1.35.7,1.59,2,.51,2.8l-.09.08-7,5.32a4.44,4.44,0,0,1-4.4.26h0" transform="translate(-32.7 -44.58)"/><path class="cls-3" d="M101.38,92.65c0,1.1-1.4,2-3.13,2H81.57c-1.73,0-3.13-.9-3.13-2s1.4-2,3.13-2H98.25c1.73,0,3.13.89,3.13,2" transform="translate(-32.7 -44.58)"/></g><path class="cls-3" d="M93.76,89.47a1.49,1.49,0,0,1,1.47.09l7,5.33c.36.29.29.7-.17.93a1.48,1.48,0,0,1-1.4-.08l-7-5.33c-.37-.28-.31-.7.13-.94" transform="translate(-32.7 -44.58)"/><path class="cls-3" d="M93.76,101.15c-.44-.23-.5-.65-.13-.93l7-5.33a1.49,1.49,0,0,1,1.47-.06c.42.23.48.63.13.91l-6.93,5.33a1.46,1.46,0,0,1-1.47.08" transform="translate(-32.7 -44.58)"/><path class="cls-3" d="M101.38,95.31c0,.37-.47.7-1,.7H80.54c-.57,0-1-.29-1-.7s.47-.66,1-.66h19.81c.58,0,1,.3,1,.66" transform="translate(-32.7 -44.58)"/></g><g class="cls-1"><g class="cls-2"><path class="cls-3" d="M93.8,45.84a4.41,4.41,0,0,1,4.4.25h0l7,5.33c1.13.83,1,2.1-.3,2.8a4.43,4.43,0,0,1-4.41-.18l-.1-.08-7-5.33c-1.1-.85-.93-2.1.41-2.8" transform="translate(-32.7 -44.58)"/><path class="cls-3" d="M93.8,59.56c-1.34-.7-1.51-2-.41-2.8l7-5.33a4.42,4.42,0,0,1,4.4-.33c1.35.7,1.58,1.94.51,2.81l-.1.07-7,5.33a4.44,4.44,0,0,1-4.4.25h0" transform="translate(-32.7 -44.58)"/><path class="cls-3" d="M101.7,52.69c0,1.11-1.4,2-3.13,2H81.9c-1.73,0-3.13-.9-3.13-2s1.4-2,3.13-2H98.57c1.73,0,3.13.89,3.13,2" transform="translate(-32.7 -44.58)"/></g><path class="cls-3" d="M94.09,49.52a1.47,1.47,0,0,1,1.46.09l7,5.33c.36.28.29.7-.17.93a1.48,1.48,0,0,1-1.4-.08l-7-5.33c-.37-.28-.31-.7.14-.94" transform="translate(-32.7 -44.58)"/><path class="cls-3" d="M94.09,61.2c-.45-.23-.5-.65-.13-.93l6.94-5.33a1.48,1.48,0,0,1,1.48-.07.52.52,0,0,1,.12.92l-7,5.33a1.47,1.47,0,0,1-1.46.08" transform="translate(-32.7 -44.58)"/><path class="cls-3" d="M101.7,55.36c0,.37-.47.67-1,.67H80.85c-.57,0-1-.3-1-.67s.47-.66,1-.66h19.81c.57,0,1,.29,1,.66" transform="translate(-32.7 -44.58)"/></g><g class="cls-4"><g class="cls-2"><path class="cls-3" d="M169.17,245.32a4.45,4.45,0,0,1,4.41.25h0l6.95,5.33c1.13.83,1,2.1-.29,2.8a4.47,4.47,0,0,1-4.42-.19l-.09-.07-7-5.33c-1.11-.85-.92-2.1.4-2.8" transform="translate(-32.7 -44.58)"/><path class="cls-3" d="M169.17,259.05c-1.32-.7-1.51-2-.4-2.8l7-5.33a4.4,4.4,0,0,1,4.39-.33c1.35.7,1.58,1.94.5,2.8l-.09.07-6.95,5.33a4.44,4.44,0,0,1-4.4.26h0" transform="translate(-32.7 -44.58)"/><path class="cls-3" d="M177.08,252.18c0,1.1-1.4,2-3.13,2H157.28c-1.73,0-3.13-.9-3.13-2s1.4-2,3.13-2H174c1.73,0,3.13.9,3.13,2" transform="translate(-32.7 -44.58)"/></g><path class="cls-3" d="M169.49,249a1.49,1.49,0,0,1,1.47.09l6.94,5.31c.35.28.28.7-.17.94a1.51,1.51,0,0,1-1.4-.09l-7-5.33c-.36-.28-.3-.7.14-.94" transform="translate(-32.7 -44.58)"/><path class="cls-3" d="M169.49,260.69c-.44-.24-.49-.66-.13-.94l6.95-5.33a1.51,1.51,0,0,1,1.47-.07c.42.24.48.64.13.92L171,260.6a1.49,1.49,0,0,1-1.47.09" transform="translate(-32.7 -44.58)"/><path class="cls-3" d="M177.08,254.84c0,.38-.46.71-1,.71H156.23c-.57,0-1-.29-1-.7s.47-.7,1-.7H176c.58,0,1,.31,1,.7" transform="translate(-32.7 -44.58)"/></g><g class="cls-4"><g class="cls-2"><path class="cls-3" d="M169.49,205.36a4.44,4.44,0,0,1,4.4.26h0l7,5.33c1.13.83,1,2.1-.3,2.8a4.4,4.4,0,0,1-4.41-.19l-.1-.07-6.95-5.33c-1.1-.84-.93-2.1.41-2.8" transform="translate(-32.7 -44.58)"/><path class="cls-3" d="M169.49,219.09c-1.33-.7-1.5-2-.4-2.8L176,211a4.37,4.37,0,0,1,4.39-.33c1.35.7,1.59,1.94.51,2.8l-.09.08-6.95,5.33a4.48,4.48,0,0,1-4.41.25h0" transform="translate(-32.7 -44.58)"/><path class="cls-3" d="M177.41,212.23c0,1.1-1.4,2-3.13,2H157.59c-1.73,0-3.13-.89-3.13-2s1.4-2,3.13-2h16.67c1.73,0,3.13.9,3.13,2" transform="translate(-32.7 -44.58)"/></g><path class="cls-3" d="M169.79,209.05a1.49,1.49,0,0,1,1.47.09l7,5.33c.35.28.28.7-.17.93a1.48,1.48,0,0,1-1.4-.08l-7-5.33c-.36-.28-.31-.7.14-.94" transform="translate(-32.7 -44.58)"/><path class="cls-3" d="M169.79,220.73c-.44-.23-.5-.65-.14-.93l7-5.33a1.48,1.48,0,0,1,1.47-.07c.41.24.48.64.13.92l-7,5.33a1.48,1.48,0,0,1-1.47.08" transform="translate(-32.7 -44.58)"/><path class="cls-3" d="M177.41,214.9c0,.36-.47.66-1,.66h-19.8c-.58,0-1.05-.3-1.05-.66s.47-.71,1.05-.71h19.8c.58,0,1,.31,1,.71" transform="translate(-32.7 -44.58)"/></g><g class="cls-4"><g class="cls-2"><path class="cls-3" d="M168.63,165.41a4.46,4.46,0,0,1,4.41.26h0l7,5.33c1.13.83,1,2.1-.3,2.8a4.5,4.5,0,0,1-4.41-.19l-.1-.08-6.94-5.33c-1.11-.85-.94-2.1.39-2.8" transform="translate(-32.7 -44.58)"/><path class="cls-3" d="M168.63,179.14c-1.33-.7-1.5-2-.4-2.8l7-5.33a4.42,4.42,0,0,1,4.39-.32c1.36.7,1.58,1.94.51,2.8l-.1.07L173,178.89a4.46,4.46,0,0,1-4.41.26h0" transform="translate(-32.7 -44.58)"/><path class="cls-3" d="M176.54,172.28c0,1.1-1.4,2-3.13,2H156.73c-1.73,0-3.12-.89-3.12-2s1.4-2,3.12-2h16.68c1.73,0,3.13.9,3.13,2" transform="translate(-32.7 -44.58)"/></g><path class="cls-3" d="M168.93,169.1a1.49,1.49,0,0,1,1.46.08l7,5.33c.36.29.28.7-.17.94a1.48,1.48,0,0,1-1.4-.08l-7-5.33c-.37-.28-.31-.7.13-.94" transform="translate(-32.7 -44.58)"/><path class="cls-3" d="M168.93,180.78c-.45-.24-.51-.66-.14-.94l7-5.33a1.51,1.51,0,0,1,1.47-.06c.42.24.48.64.13.92l-7,5.33a1.49,1.49,0,0,1-1.46.08" transform="translate(-32.7 -44.58)"/><path class="cls-3" d="M176.54,174.94c0,.37-.46.66-1,.66h-19.8c-.58,0-1.05-.29-1.05-.66s.47-.67,1.05-.67h19.8c.59,0,1,.3,1,.67" transform="translate(-32.7 -44.58)"/></g><g class="cls-4"><g class="cls-2"><path class="cls-3" d="M169.6,125.46a4.43,4.43,0,0,1,4.41.26h0l7,5.33c1.14.82,1,2.1-.3,2.8a4.45,4.45,0,0,1-4.41-.19l-.09-.07-6.95-5.33c-1.11-.85-.93-2.1.39-2.8" transform="translate(-32.7 -44.58)"/><path class="cls-3" d="M169.6,139.18c-1.32-.7-1.5-2-.39-2.8l6.95-5.32a4.42,4.42,0,0,1,4.39-.33c1.35.7,1.58,2,.51,2.8l-.1.08-7,5.33a4.45,4.45,0,0,1-4.41.25h0" transform="translate(-32.7 -44.58)"/><path class="cls-3" d="M177.52,132.32c0,1.11-1.4,2-3.13,2H157.71c-1.73,0-3.13-.89-3.13-2s1.4-2,3.13-2H174.4c1.72,0,3.13.9,3.13,2" transform="translate(-32.7 -44.58)"/></g><path class="cls-3" d="M169.9,129.15a1.48,1.48,0,0,1,1.47.08l6.95,5.33c.35.29.28.7-.17.93a1.48,1.48,0,0,1-1.44-.07l-6.94-5.33c-.37-.29-.31-.7.13-.94" transform="translate(-32.7 -44.58)"/><path class="cls-3" d="M169.9,140.82c-.44-.23-.5-.65-.13-.93l6.94-5.33a1.49,1.49,0,0,1,1.47-.06c.42.23.48.64.14.92l-6.95,5.32a1.46,1.46,0,0,1-1.47.08" transform="translate(-32.7 -44.58)"/><path class="cls-3" d="M177.52,135c0,.36-.47.66-1,.66H156.67c-.58,0-1-.3-1-.66s.47-.67,1-.67H176.5c.57,0,1,.3,1,.67" transform="translate(-32.7 -44.58)"/></g><g class="cls-4"><g class="cls-2"><path class="cls-3" d="M169.93,87.08a4.44,4.44,0,0,1,4.4.26h0l7,5.33c1.13.82,1,2.1-.3,2.8a4.45,4.45,0,0,1-4.41-.19l-.1-.07-6.95-5.33c-1.1-.85-.93-2.1.4-2.8" transform="translate(-32.7 -44.58)"/><path class="cls-3" d="M169.93,100.8c-1.33-.7-1.5-2-.4-2.8l6.95-5.33a4.42,4.42,0,0,1,4.39-.32c1.36.7,1.59,1.94.51,2.8l-.09.07-7,5.32a4.44,4.44,0,0,1-4.4.26h0" transform="translate(-32.7 -44.58)"/><path class="cls-3" d="M177.84,93.94c0,1.11-1.4,2-3.13,2H158c-1.73,0-3.13-.89-3.13-2s1.4-2,3.13-2h16.68c1.73,0,3.13.9,3.13,2" transform="translate(-32.7 -44.58)"/></g><path class="cls-3" d="M170.19,90.74a1.48,1.48,0,0,1,1.47.08l7,5.33c.36.29.29.7-.17.94A1.48,1.48,0,0,1,177,97l-6.95-5.33c-.37-.28-.31-.7.13-.94" transform="translate(-32.7 -44.58)"/><path class="cls-3" d="M170.19,102.45c-.44-.24-.49-.66-.13-.94L177,96.18a1.48,1.48,0,0,1,1.48-.06.52.52,0,0,1,.12.92l-7,5.33a1.51,1.51,0,0,1-1.47.08" transform="translate(-32.7 -44.58)"/><path class="cls-3" d="M177.84,96.61c0,.36-.47.66-1,.66H157c-.57,0-1-.3-1-.66s.47-.67,1-.67H176.8c.57,0,1,.3,1,.67" transform="translate(-32.7 -44.58)"/></g><g class="cls-4"><g class="cls-2"><path class="cls-3" d="M170.26,47.13a4.41,4.41,0,0,1,4.4.26h0l7,5.32c1.13.83,1,2.1-.3,2.8a4.45,4.45,0,0,1-4.41-.19l-.1-.07-7-5.33c-1.1-.85-.92-2.1.41-2.8" transform="translate(-32.7 -44.58)"/><path class="cls-3" d="M170.26,60.85c-1.33-.7-1.51-2-.41-2.8l7-5.33a4.44,4.44,0,0,1,4.4-.32c1.35.7,1.58,2,.51,2.8l-.1.08-7,5.32a4.44,4.44,0,0,1-4.4.26h0" transform="translate(-32.7 -44.58)"/><path class="cls-3" d="M178.16,54c0,1.11-1.4,2-3.12,2H158.36c-1.73,0-3.13-.89-3.13-2s1.4-2,3.13-2H175c1.72,0,3.12.89,3.12,2" transform="translate(-32.7 -44.58)"/></g><path class="cls-3" d="M170.55,50.82a1.44,1.44,0,0,1,1.46.08l7,5.33c.36.29.29.7-.17.93a1.48,1.48,0,0,1-1.4-.08l-6.95-5.33c-.37-.28-.31-.7.14-.93" transform="translate(-32.7 -44.58)"/><path class="cls-3" d="M170.55,62.49c-.45-.23-.5-.65-.13-.94l6.94-5.32a1.48,1.48,0,0,1,1.48-.06c.42.23.47.64.12.91l-7,5.33a1.44,1.44,0,0,1-1.46.08" transform="translate(-32.7 -44.58)"/><path class="cls-3" d="M178.16,56.65c0,.37-.47.7-1,.7H157.31c-.57,0-1-.3-1-.7s.47-.66,1-.66h19.81c.57,0,1,.3,1,.66" transform="translate(-32.7 -44.58)"/></g><g class="cls-4"><g class="cls-2"><path class="cls-3" d="M132.65,244a4.44,4.44,0,0,1,4.4.26h0l6.95,5.33c1.14.83,1,2.1-.3,2.8a4.45,4.45,0,0,1-4.41-.19l-.1-.07-6.94-5.33c-1.11-.85-.93-2.1.4-2.8" transform="translate(-32.7 -44.58)"/><path class="cls-3" d="M132.65,257.75c-1.33-.7-1.51-2-.4-2.8l6.94-5.33a4.44,4.44,0,0,1,4.4-.32c1.35.7,1.58,1.94.51,2.8l-.1.08-6.95,5.32a4.44,4.44,0,0,1-4.4.26h0" transform="translate(-32.7 -44.58)"/><path class="cls-3" d="M140.55,250.89c0,1.1-1.4,2-3.12,2H120.75c-1.73,0-3.13-.89-3.13-2s1.4-2,3.13-2h16.68c1.72,0,3.12.89,3.12,2" transform="translate(-32.7 -44.58)"/></g><path class="cls-3" d="M132.94,247.71a1.49,1.49,0,0,1,1.47.09l7,5.33c.36.29.28.7-.17.93a1.51,1.51,0,0,1-1.44-.08l-6.94-5.33c-.37-.28-.31-.7.13-.94" transform="translate(-32.7 -44.58)"/><path class="cls-3" d="M132.94,259.39c-.44-.23-.5-.65-.13-.94l6.94-5.32a1.48,1.48,0,0,1,1.48-.06.51.51,0,0,1,.13.91l-7,5.33a1.51,1.51,0,0,1-1.47.08" transform="translate(-32.7 -44.58)"/><path class="cls-3" d="M140.55,253.55c0,.37-.46.7-1,.7H119.7c-.57,0-1-.3-1-.7s.46-.67,1-.67h19.82c.57,0,1,.3,1,.67" transform="translate(-32.7 -44.58)"/></g><g class="cls-4"><g class="cls-2"><path class="cls-3" d="M133,204.07a4.44,4.44,0,0,1,4.4.26h0l6.95,5.33c1.14.83,1,2.1-.29,2.8a4.5,4.5,0,0,1-4.42-.19l-.09-.08-7-5.33c-1.11-.85-.93-2.1.4-2.8" transform="translate(-32.7 -44.58)"/><path class="cls-3" d="M133,217.8c-1.33-.7-1.51-2-.4-2.8l7-5.33a4.42,4.42,0,0,1,4.39-.32c1.36.7,1.58,1.94.51,2.8l-.1.07-6.95,5.29a4.46,4.46,0,0,1-4.4.26h0" transform="translate(-32.7 -44.58)"/><path class="cls-3" d="M140.88,210.94c0,1.1-1.4,2-3.13,2H121.07c-1.72,0-3.13-.89-3.13-2s1.41-2,3.13-2h16.68c1.73,0,3.13.9,3.13,2" transform="translate(-32.7 -44.58)"/></g><path class="cls-3" d="M133.26,207.76a1.51,1.51,0,0,1,1.47.08l7,5.33c.36.29.28.7-.17.94a1.51,1.51,0,0,1-1.43-.1l-7-5.33c-.37-.28-.31-.7.13-.94" transform="translate(-32.7 -44.58)"/><path class="cls-3" d="M133.26,219.44c-.44-.24-.5-.66-.13-.94l7-5.33a1.51,1.51,0,0,1,1.47-.06c.42.24.47.64.13.92l-7,5.33a1.51,1.51,0,0,1-1.47.08" transform="translate(-32.7 -44.58)"/><path class="cls-3" d="M140.88,213.6c0,.37-.47.7-1,.7H120c-.58,0-1-.29-1-.7s.46-.67,1-.67h19.81c.57,0,1,.3,1,.67" transform="translate(-32.7 -44.58)"/></g><g class="cls-4"><g class="cls-2"><path class="cls-3" d="M132.1,164.12a4.44,4.44,0,0,1,4.4.26h0l7,5.33c1.13.82,1,2.1-.3,2.8a4.45,4.45,0,0,1-4.41-.19l-.1-.07-7-5.33c-1.11-.85-.92-2.1.4-2.8" transform="translate(-32.7 -44.58)"/><path class="cls-3" d="M132.1,177.85c-1.32-.71-1.51-2-.4-2.81l7-5.32a4.42,4.42,0,0,1,4.4-.33c1.35.7,1.58,2,.5,2.8l-.09.08-7,5.32a4.44,4.44,0,0,1-4.4.25h0" transform="translate(-32.7 -44.58)"/><path class="cls-3" d="M140,171c0,1.11-1.4,2-3.13,2H120.21c-1.73,0-3.13-.89-3.13-2s1.4-2,3.13-2h16.67c1.73,0,3.13.89,3.13,2" transform="translate(-32.7 -44.58)"/></g><path class="cls-3" d="M132.37,167.78a1.51,1.51,0,0,1,1.47.08l6.95,5.33c.36.29.28.7-.17.94a1.46,1.46,0,0,1-1.43-.09l-6.95-5.32c-.36-.29-.31-.7.13-.94" transform="translate(-32.7 -44.58)"/><path class="cls-3" d="M132.37,179.48c-.44-.23-.49-.65-.13-.93l6.95-5.33a1.48,1.48,0,0,1,1.47-.06c.42.23.47.64.13.91l-6.95,5.33a1.46,1.46,0,0,1-1.47.08" transform="translate(-32.7 -44.58)"/><path class="cls-3" d="M140,173.65c0,.36-.47.7-1,.7H119.16c-.57,0-1-.3-1-.7s.47-.7,1-.7H139c.57,0,1,.3,1,.7" transform="translate(-32.7 -44.58)"/></g><g class="cls-4"><g class="cls-2"><path class="cls-3" d="M133.07,124.17a4.43,4.43,0,0,1,4.41.25h0l7,5.33c1.13.83,1,2.1-.3,2.8a4.45,4.45,0,0,1-4.41-.19l-.1-.07-7-5.33c-1.1-.85-.92-2.11.4-2.81" transform="translate(-32.7 -44.58)"/><path class="cls-3" d="M133.07,137.9c-1.32-.7-1.5-2-.4-2.81l7-5.33a4.44,4.44,0,0,1,4.4-.32c1.35.7,1.58,1.94.5,2.8l-.09.07-6.94,5.35a4.43,4.43,0,0,1-4.41.26h0" transform="translate(-32.7 -44.58)"/><path class="cls-3" d="M141,131c0,1.1-1.4,2-3.13,2H121.17c-1.73,0-3.13-.9-3.13-2s1.4-2,3.13-2h16.68c1.72,0,3.12.9,3.12,2" transform="translate(-32.7 -44.58)"/></g><path class="cls-3" d="M133.37,127.86a1.51,1.51,0,0,1,1.47.08l6.95,5.33c.36.29.28.7-.17.94a1.48,1.48,0,0,1-1.43-.08l-6.95-5.33c-.37-.28-.31-.7.13-.94" transform="translate(-32.7 -44.58)"/><path class="cls-3" d="M133.37,139.53c-.44-.23-.5-.65-.13-.93l6.95-5.33a1.51,1.51,0,0,1,1.47-.07c.42.24.48.64.13.92l-6.95,5.33a1.46,1.46,0,0,1-1.47.08" transform="translate(-32.7 -44.58)"/><path class="cls-3" d="M141,133.69c0,.37-.47.67-1.05.67h-19.8c-.58,0-1-.3-1-.67s.46-.66,1-.66h19.8c.58,0,1.05.3,1.05.66" transform="translate(-32.7 -44.58)"/></g><g class="cls-4"><g class="cls-2"><path class="cls-3" d="M133.4,85.79a4.43,4.43,0,0,1,4.41.25h0l6.95,5.32c1.14.84,1,2.1-.3,2.8a4.4,4.4,0,0,1-4.41-.19l-.1-.07L133,88.57c-1.1-.84-.92-2.1.4-2.8" transform="translate(-32.7 -44.58)"/><path class="cls-3" d="M133.4,99.51c-1.32-.7-1.5-2-.4-2.8L140,91.38a4.44,4.44,0,0,1,4.4-.32c1.35.7,1.57,2,.5,2.8l-.09.08-6.95,5.32a4.46,4.46,0,0,1-4.41.26h0" transform="translate(-32.7 -44.58)"/><path class="cls-3" d="M141.31,92.65c0,1.1-1.4,2-3.12,2H121.5c-1.72,0-3.12-.9-3.12-2s1.4-2,3.12-2h16.69c1.73,0,3.12.89,3.12,2" transform="translate(-32.7 -44.58)"/></g><path class="cls-3" d="M133.7,89.47a1.49,1.49,0,0,1,1.47.09l6.94,5.33c.36.29.28.7-.16.93a1.48,1.48,0,0,1-1.4-.08l-7-5.33c-.37-.28-.31-.7.13-.94" transform="translate(-32.7 -44.58)"/><path class="cls-3" d="M133.7,101.15c-.45-.23-.51-.65-.14-.93l6.95-5.33a1.49,1.49,0,0,1,1.47-.06c.42.23.48.63.13.91l-6.94,5.33a1.46,1.46,0,0,1-1.47.08" transform="translate(-32.7 -44.58)"/><path class="cls-3" d="M141.31,95.31c0,.37-.46.7-1,.7h-19.8c-.59,0-1-.29-1-.7s.46-.66,1-.66h19.8c.58,0,1,.3,1,.66" transform="translate(-32.7 -44.58)"/></g><g class="cls-4"><g class="cls-2"><path class="cls-3" d="M133.72,45.84a4.43,4.43,0,0,1,4.41.25h0l7,5.33c1.14.83,1,2.1-.3,2.8a4.48,4.48,0,0,1-4.41-.18l-.09-.08-7-5.33c-1.1-.85-.92-2.1.4-2.8" transform="translate(-32.7 -44.58)"/><path class="cls-3" d="M133.72,59.56c-1.32-.7-1.5-2-.4-2.8l7-5.33a4.4,4.4,0,0,1,4.39-.33c1.35.7,1.58,1.94.51,2.81l-.1.07-7,5.33a4.45,4.45,0,0,1-4.41.25h0" transform="translate(-32.7 -44.58)"/><path class="cls-3" d="M141.64,52.69c0,1.11-1.4,2-3.13,2H121.87c-1.73,0-3.13-.9-3.13-2s1.4-2,3.13-2h16.67c1.73,0,3.13.89,3.13,2" transform="translate(-32.7 -44.58)"/></g><path class="cls-3" d="M134,49.52a1.49,1.49,0,0,1,1.47.09l6.95,5.33c.35.28.28.7-.17.93a1.48,1.48,0,0,1-1.4-.08l-7-5.33c-.37-.28-.31-.7.13-.94" transform="translate(-32.7 -44.58)"/><path class="cls-3" d="M134,61.2c-.44-.23-.51-.65-.13-.93l6.94-5.33a1.46,1.46,0,0,1,1.47-.07c.42.23.48.64.14.92l-6.95,5.33a1.48,1.48,0,0,1-1.47.08" transform="translate(-32.7 -44.58)"/><path class="cls-3" d="M141.64,55.36c0,.37-.47.67-1,.67h-19.8c-.58,0-1.05-.3-1.05-.67s.47-.66,1.05-.66h19.8c.58,0,1,.29,1,.66" transform="translate(-32.7 -44.58)"/></g><g class="cls-5"><g class="cls-2"><path class="cls-3" d="M211.52,243.24a4.44,4.44,0,0,1,4.4.25h0l7,5.33c1.14.83,1,2.1-.3,2.8a4.45,4.45,0,0,1-4.41-.19l-.1-.07L211.12,246c-1.11-.85-.93-2.1.4-2.8" transform="translate(-32.7 -44.58)"/><path class="cls-3" d="M211.52,257c-1.33-.7-1.51-2-.4-2.8l6.94-5.33a4.42,4.42,0,0,1,4.4-.33c1.35.7,1.58,1.94.51,2.8l-.1.07-6.93,5.35a4.44,4.44,0,0,1-4.4.26h0" transform="translate(-32.7 -44.58)"/><path class="cls-3" d="M219.45,250.1c0,1.1-1.4,2-3.13,2H199.61c-1.72,0-3.13-.9-3.13-2s1.41-2,3.13-2h16.68c1.73,0,3.13.9,3.13,2" transform="translate(-32.7 -44.58)"/></g><path class="cls-3" d="M211.83,246.92a1.49,1.49,0,0,1,1.47.09l6.95,5.33c.36.28.28.7-.17.94a1.53,1.53,0,0,1-1.44-.09l-6.94-5.33c-.37-.28-.31-.7.13-.94" transform="translate(-32.7 -44.58)"/><path class="cls-3" d="M211.83,258.61c-.44-.24-.5-.66-.13-.94l6.94-5.33a1.53,1.53,0,0,1,1.48-.07c.42.24.47.64.13.92l-6.95,5.33a1.49,1.49,0,0,1-1.47.09" transform="translate(-32.7 -44.58)"/><path class="cls-3" d="M219.45,252.76c0,.38-.47.7-1,.7H198.6c-.58,0-1-.29-1-.7s.46-.7,1-.7h19.81c.57,0,1,.31,1,.7" transform="translate(-32.7 -44.58)"/></g><g class="cls-5"><g class="cls-2"><path class="cls-3" d="M211.86,203.28a4.44,4.44,0,0,1,4.4.26h0l7,5.33c1.14.83,1,2.1-.29,2.8a4.42,4.42,0,0,1-4.42-.19l-.09-.07-6.95-5.33c-1.11-.84-.93-2.1.4-2.8" transform="translate(-32.7 -44.58)"/><path class="cls-3" d="M211.86,217c-1.33-.7-1.51-2-.4-2.8l6.95-5.32a4.42,4.42,0,0,1,4.4-.33c1.35.7,1.57,1.94.5,2.8l-.1.08-7,5.33a4.46,4.46,0,0,1-4.4.25h0" transform="translate(-32.7 -44.58)"/><path class="cls-3" d="M219.77,210.15c0,1.1-1.4,2-3.13,2H200c-1.73,0-3.13-.9-3.13-2s1.4-2,3.13-2h16.67c1.73,0,3.13.9,3.13,2" transform="translate(-32.7 -44.58)"/></g><path class="cls-3" d="M212.15,207a1.49,1.49,0,0,1,1.47.09l6.95,5.33c.36.28.28.7-.17.93a1.48,1.48,0,0,1-1.43-.08L212,207.94c-.36-.29-.31-.7.13-.94" transform="translate(-32.7 -44.58)"/><path class="cls-3" d="M212.15,218.65c-.44-.23-.49-.65-.13-.93l6.95-5.33a1.48,1.48,0,0,1,1.47-.07c.42.24.47.64.13.92l-6.95,5.33a1.48,1.48,0,0,1-1.47.08" transform="translate(-32.7 -44.58)"/><path class="cls-3" d="M219.77,212.81c0,.37-.47.67-1,.67H198.91c-.58,0-1-.3-1-.67s.47-.7,1-.7h19.82c.57,0,1,.3,1,.7" transform="translate(-32.7 -44.58)"/></g><g class="cls-5"><g class="cls-2"><path class="cls-3" d="M211,163.33a4.46,4.46,0,0,1,4.41.26h0l6.95,5.33c1.13.83,1,2.1-.29,2.8a4.47,4.47,0,0,1-4.42-.19l-.09-.08-7-5.32c-1.11-.85-.92-2.1.4-2.8" transform="translate(-32.7 -44.58)"/><path class="cls-3" d="M211,177.06c-1.32-.7-1.51-2-.4-2.8l7-5.33a4.42,4.42,0,0,1,4.39-.32c1.35.7,1.58,1.94.5,2.8l-.09.07-6.95,5.33a4.46,4.46,0,0,1-4.41.26h0" transform="translate(-32.7 -44.58)"/><path class="cls-3" d="M218.9,170.2c0,1.1-1.4,2-3.13,2H199.1c-1.73,0-3.13-.89-3.13-2s1.4-2,3.13-2h16.67c1.73,0,3.13.9,3.13,2" transform="translate(-32.7 -44.58)"/></g><path class="cls-3" d="M211.28,167a1.46,1.46,0,0,1,1.47.09l6.95,5.32c.36.29.28.7-.17.94a1.48,1.48,0,0,1-1.4-.08L211.18,168c-.37-.28-.31-.7.13-.94" transform="translate(-32.7 -44.58)"/><path class="cls-3" d="M211.28,178.7c-.44-.24-.49-.66-.13-.94l7-5.33a1.51,1.51,0,0,1,1.47-.06c.41.24.47.64.12.92l-6.95,5.33a1.51,1.51,0,0,1-1.47.08" transform="translate(-32.7 -44.58)"/><path class="cls-3" d="M218.9,172.86c0,.37-.47.66-1,.66H198.05c-.57,0-1-.29-1-.66s.47-.67,1-.67h19.81c.57,0,1,.3,1,.67" transform="translate(-32.7 -44.58)"/></g><g class="cls-5"><g class="cls-2"><path class="cls-3" d="M212,123.38a4.46,4.46,0,0,1,4.41.26h0l6.94,5.33c1.15.82,1,2.1-.29,2.8a4.45,4.45,0,0,1-4.41-.19l-.1-.07-7-5.33c-1.11-.85-.92-2.1.4-2.8" transform="translate(-32.7 -44.58)"/><path class="cls-3" d="M212,137.1c-1.32-.7-1.51-2-.4-2.8l7-5.33a4.44,4.44,0,0,1,4.4-.32c1.35.7,1.57,1.94.5,2.8l-.1.08-6.94,5.33a4.45,4.45,0,0,1-4.41.25h0" transform="translate(-32.7 -44.58)"/><path class="cls-3" d="M219.88,130.24c0,1.11-1.4,2-3.13,2H200.07c-1.72,0-3.12-.89-3.12-2s1.4-2,3.12-2h16.68c1.73,0,3.13.9,3.13,2" transform="translate(-32.7 -44.58)"/></g><path class="cls-3" d="M212.26,127.07a1.5,1.5,0,0,1,1.48.08l6.94,5.33c.36.29.28.7-.17.93a1.46,1.46,0,0,1-1.43-.07l-7-5.33c-.37-.29-.31-.7.13-.94" transform="translate(-32.7 -44.58)"/><path class="cls-3" d="M212.26,138.75c-.44-.24-.5-.66-.13-.94l7-5.33a1.48,1.48,0,0,1,1.47-.06c.42.23.48.64.13.92l-6.94,5.32a1.5,1.5,0,0,1-1.48.09" transform="translate(-32.7 -44.58)"/><path class="cls-3" d="M219.88,132.91c0,.36-.46.7-1,.7H199c-.58,0-1-.3-1-.7s.46-.67,1-.67h19.81c.58,0,1,.3,1,.67" transform="translate(-32.7 -44.58)"/></g><g class="cls-5"><g class="cls-2"><path class="cls-3" d="M212.29,85a4.46,4.46,0,0,1,4.41.26h0l7,5.32c1.14.84,1,2.11-.3,2.81a4.5,4.5,0,0,1-4.41-.19l-.1-.08-7-5.33c-1.1-.85-.92-2.1.4-2.8" transform="translate(-32.7 -44.58)"/><path class="cls-3" d="M212.29,98.72c-1.32-.7-1.5-2-.4-2.8l7-5.33a4.44,4.44,0,0,1,4.4-.32c1.35.7,1.58,1.94.5,2.8l-.09.07-7,5.3a4.46,4.46,0,0,1-4.41.26h0" transform="translate(-32.7 -44.58)"/><path class="cls-3" d="M220.21,91.87c0,1.1-1.4,2-3.13,2H200.39c-1.72,0-3.12-.89-3.12-2s1.4-2,3.12-2h16.69c1.73,0,3.13.9,3.13,2" transform="translate(-32.7 -44.58)"/></g><path class="cls-3" d="M212.59,88.69a1.51,1.51,0,0,1,1.47.08L221,94.1c.35.29.28.7-.17.94A1.53,1.53,0,0,1,219.4,95l-7-5.33c-.37-.28-.3-.7.14-.94" transform="translate(-32.7 -44.58)"/><path class="cls-3" d="M212.59,100.37c-.44-.24-.51-.66-.14-.94l7-5.33a1.51,1.51,0,0,1,1.47-.06c.42.24.48.64.14.92l-6.95,5.33a1.51,1.51,0,0,1-1.47.08" transform="translate(-32.7 -44.58)"/><path class="cls-3" d="M220.21,94.53c0,.36-.47.66-1.05.66h-19.8c-.58,0-1.05-.3-1.05-.66s.47-.7,1.05-.7h19.8c.58,0,1.05.29,1.05.7" transform="translate(-32.7 -44.58)"/></g><g class="cls-5"><g class="cls-2"><path class="cls-3" d="M212.61,45.05a4.43,4.43,0,0,1,4.41.26h0L224,50.64c1.14.82,1,2.1-.3,2.8a4.45,4.45,0,0,1-4.41-.19l-.09-.07-6.95-5.33c-1.11-.85-.93-2.1.39-2.8" transform="translate(-32.7 -44.58)"/><path class="cls-3" d="M212.61,58.77c-1.32-.7-1.5-2-.39-2.8l6.95-5.32a4.4,4.4,0,0,1,4.39-.33c1.35.7,1.58,2,.51,2.8l-.1.08L217,58.52a4.43,4.43,0,0,1-4.41.25h0" transform="translate(-32.7 -44.58)"/><path class="cls-3" d="M220.53,51.91c0,1.11-1.4,2-3.13,2H200.72c-1.73,0-3.13-.89-3.13-2s1.4-2,3.13-2H217.4c1.73,0,3.13.9,3.13,2" transform="translate(-32.7 -44.58)"/></g><path class="cls-3" d="M212.92,48.72a1.46,1.46,0,0,1,1.47.08l6.93,5.35c.36.29.28.7-.17.93a1.48,1.48,0,0,1-1.4-.08l-6.95-5.32c-.36-.29-.3-.7.14-.94" transform="translate(-32.7 -44.58)"/><path class="cls-3" d="M212.92,60.41c-.45-.23-.5-.65-.14-.94l6.95-5.32a1.46,1.46,0,0,1,1.47-.06c.42.23.48.64.13.91l-6.94,5.33a1.46,1.46,0,0,1-1.47.08" transform="translate(-32.7 -44.58)"/><path class="cls-3" d="M220.53,54.58c0,.36-.47.66-1,.66H199.68c-.58,0-1-.3-1-.66s.46-.7,1-.7h19.81c.57,0,1,.3,1,.7" transform="translate(-32.7 -44.58)"/></g><g class="cls-6"><g class="cls-2"><path class="cls-3" d="M255.53,203.28a4.44,4.44,0,0,1,4.4.26h0l6.95,5.33c1.13.83,1,2.1-.29,2.8a4.42,4.42,0,0,1-4.42-.19l-.09-.07-7-5.33c-1.1-.84-.92-2.1.41-2.8" transform="translate(-32.7 -44.58)"/><path class="cls-3" d="M255.53,217c-1.33-.7-1.51-2-.41-2.8l7-5.32a4.4,4.4,0,0,1,4.39-.33c1.36.7,1.58,1.94.51,2.8l-.1.08-6.95,5.33a4.46,4.46,0,0,1-4.4.25h0" transform="translate(-32.7 -44.58)"/><path class="cls-3" d="M263.43,210.15c0,1.1-1.4,2-3.12,2H243.63c-1.73,0-3.13-.9-3.13-2s1.4-2,3.13-2h16.68c1.72,0,3.12.9,3.12,2" transform="translate(-32.7 -44.58)"/></g><path class="cls-3" d="M255.82,207a1.47,1.47,0,0,1,1.46.09l7,5.33c.36.28.29.7-.17.93a1.48,1.48,0,0,1-1.4-.08l-6.94-5.33c-.38-.29-.32-.7.13-.94" transform="translate(-32.7 -44.58)"/><path class="cls-3" d="M255.82,218.65c-.45-.23-.5-.65-.13-.93l6.95-5.33a1.48,1.48,0,0,1,1.47-.07c.42.24.47.64.12.92l-7,5.33a1.46,1.46,0,0,1-1.46.08" transform="translate(-32.7 -44.58)"/><path class="cls-3" d="M263.43,212.81c0,.37-.47.67-1,.67H242.58c-.57,0-1-.3-1-.67s.47-.7,1-.7h19.81c.57,0,1,.3,1,.7" transform="translate(-32.7 -44.58)"/></g><g class="cls-6"><g class="cls-2"><path class="cls-3" d="M254.66,163.33a4.44,4.44,0,0,1,4.4.26h0l6.95,5.33c1.14.83,1,2.1-.29,2.8a4.47,4.47,0,0,1-4.42-.19l-.09-.08-6.95-5.32c-1.11-.85-.93-2.1.4-2.8" transform="translate(-32.7 -44.58)"/><path class="cls-3" d="M254.66,177.06c-1.33-.7-1.51-2-.4-2.8l6.95-5.33a4.42,4.42,0,0,1,4.39-.32c1.36.7,1.58,1.94.51,2.8l-.1.07-6.95,5.33a4.44,4.44,0,0,1-4.4.26h0" transform="translate(-32.7 -44.58)"/><path class="cls-3" d="M262.57,170.2c0,1.1-1.41,2-3.13,2H242.76c-1.73,0-3.12-.89-3.12-2s1.4-2,3.12-2h16.68c1.72,0,3.13.9,3.13,2" transform="translate(-32.7 -44.58)"/></g><path class="cls-3" d="M254.94,167a1.44,1.44,0,0,1,1.46.09l7,5.32c.35.29.28.7-.18.94a1.48,1.48,0,0,1-1.4-.08L254.83,168c-.37-.28-.3-.7.14-.94" transform="translate(-32.7 -44.58)"/><path class="cls-3" d="M254.94,178.7c-.44-.24-.51-.66-.13-.94l6.94-5.33a1.51,1.51,0,0,1,1.47-.06c.42.24.48.64.14.92l-7,5.33a1.49,1.49,0,0,1-1.46.08" transform="translate(-32.7 -44.58)"/><path class="cls-3" d="M262.57,172.86c0,.37-.47.66-1.05.66h-19.8c-.58,0-1.05-.29-1.05-.66s.47-.67,1.05-.67h19.8c.58,0,1.05.3,1.05.67" transform="translate(-32.7 -44.58)"/></g><g class="cls-6"><g class="cls-2"><path class="cls-3" d="M255.64,123.38a4.44,4.44,0,0,1,4.4.26h0l7,5.33c1.13.82,1,2.1-.3,2.8a4.45,4.45,0,0,1-4.41-.19l-.1-.07-6.95-5.33c-1.11-.85-.92-2.1.4-2.8" transform="translate(-32.7 -44.58)"/><path class="cls-3" d="M255.64,137.1c-1.32-.7-1.51-2-.4-2.8l6.95-5.33a4.44,4.44,0,0,1,4.4-.32c1.35.7,1.58,1.94.5,2.8l-.09.08-7,5.33a4.44,4.44,0,0,1-4.4.25h0" transform="translate(-32.7 -44.58)"/><path class="cls-3" d="M263.55,130.24c0,1.11-1.4,2-3.13,2H243.73c-1.73,0-3.13-.89-3.13-2s1.4-2,3.13-2h16.68c1.73,0,3.13.9,3.13,2" transform="translate(-32.7 -44.58)"/></g><path class="cls-3" d="M255.93,127.07a1.48,1.48,0,0,1,1.47.08l6.94,5.33c.36.29.28.7-.16.93a1.48,1.48,0,0,1-1.4-.07l-7-5.33c-.36-.29-.31-.7.13-.94" transform="translate(-32.7 -44.58)"/><path class="cls-3" d="M255.93,138.75c-.45-.24-.5-.66-.14-.94l7-5.33a1.48,1.48,0,0,1,1.47-.06.52.52,0,0,1,.12.92l-6.94,5.32a1.49,1.49,0,0,1-1.47.09" transform="translate(-32.7 -44.58)"/><path class="cls-3" d="M263.55,132.91c0,.36-.47.7-1.05.7H242.7c-.58,0-1-.3-1-.7s.47-.67,1-.67h19.8c.58,0,1.05.3,1.05.67" transform="translate(-32.7 -44.58)"/></g><g class="cls-6"><g class="cls-2"><path class="cls-3" d="M256,85a4.44,4.44,0,0,1,4.4.26h0l6.95,5.32c1.13.84,1,2.11-.3,2.81a4.5,4.5,0,0,1-4.41-.19l-.1-.08-6.95-5.33c-1.1-.85-.93-2.1.4-2.8" transform="translate(-32.7 -44.58)"/><path class="cls-3" d="M256,98.72c-1.33-.7-1.5-2-.41-2.8l7-5.33a4.42,4.42,0,0,1,4.39-.32c1.35.7,1.58,1.94.51,2.8l-.1.07-6.94,5.3a4.46,4.46,0,0,1-4.41.26h0" transform="translate(-32.7 -44.58)"/><path class="cls-3" d="M263.87,91.87c0,1.1-1.4,2-3.13,2H244.06c-1.73,0-3.13-.89-3.13-2s1.4-2,3.13-2h16.68c1.73,0,3.13.9,3.13,2" transform="translate(-32.7 -44.58)"/></g><path class="cls-3" d="M256.25,88.69a1.51,1.51,0,0,1,1.47.08l6.95,5.33c.35.29.28.7-.17.94a1.51,1.51,0,0,1-1.4-.08l-7-5.33c-.36-.28-.3-.7.14-.94" transform="translate(-32.7 -44.58)"/><path class="cls-3" d="M256.25,100.37c-.44-.24-.5-.66-.13-.94l6.95-5.33a1.51,1.51,0,0,1,1.47-.06c.41.24.48.64.13.92l-6.93,5.33a1.51,1.51,0,0,1-1.47.08" transform="translate(-32.7 -44.58)"/><path class="cls-3" d="M263.87,94.53c0,.36-.47.66-1.05.66H243c-.57,0-1-.3-1-.66s.47-.7,1-.7h19.81c.57,0,1,.29,1,.7" transform="translate(-32.7 -44.58)"/></g></svg>
