<svg id="图层_1" data-name="图层 1" xmlns="http://www.w3.org/2000/svg" xmlns:xlink="http://www.w3.org/1999/xlink" width="836" height="600" viewBox="0 0 836.09 600.02"><defs><style>.cls-1,.cls-2{fill:none;stroke-linecap:round;}.cls-1{stroke-width:50px;stroke:url(#未命名的渐变);}.cls-2{stroke:#000;stroke-width:3px;}</style><linearGradient id="未命名的渐变" x1="171.86" y1="66.83" x2="39.36" y2="163.83" gradientTransform="matrix(1, 0, 0, -1, 0, 667.89)" gradientUnits="userSpaceOnUse"><stop offset="0" stop-color="#f8f3c1" stop-opacity="0"/><stop offset="1" stop-color="#f8f3c1"/></linearGradient></defs><title>Group 105</title><path class="cls-1" d="M61,586.22c10.71,0,22.89-14.67,30.24-21.49,8.26-7.67,19-15,25.47-24.32,6.87-9.92,20.17-16.81,25.47-27.41" transform="translate(-36 -46.5)"/><path class="cls-2" d="M177.31,437c0-49.88,2.05-100.08,2.05-150.15,0-22.24,5.21-50.22,13.37-71.08,5.85-14.95,8.15-31.91,13.37-47.31,5.37-15.8,12.68-29.56,20.57-44.11,21.8-40.15,66.91-36.18,104.9-42.73,19.79-3.41,40.45-2.89,60-7.77,24.55-6.14,49.46-13.26,74.85-13.26,42.36,0,83.93,4.12,126.38,4.12,13.62,0,24.46-3.09,37-8.12,10.46-4.18,21.52-4.64,32.46-6.74,15.16-2.9,31.19-1.6,46.62-1.6,29.81,0,58.27,6.67,85.93,16.91,35,13,55.21,45.7,62.28,81,11.68,58.4.48,118.78,10.28,177.58,3.68,22.1,3.28,43.8,3.09,66.39-.38,43-21.53,81.48-41.6,118.38-17.37,31.94-42.52,65.71-73.13,85.93A134.79,134.79,0,0,1,711.4,613c-31.26,7.17-61.36,18.66-92.78,25.14-71.87,14.82-137.88,3.07-208.09-11-44-8.79-81.81-24.66-119.3-48.22-37.68-23.69-79.67-41.45-117.92-63.76A104.24,104.24,0,0,1,146,493c-5-5.53-10-8.56-16-2.52" transform="translate(-36 -46.5)"/><path class="cls-2" d="M46.46,568.28c20.9-23.51,47.86-41.3,69.13-64.7,9.63-10.59,23.78-23.81,36.55-30.19" transform="translate(-36 -46.5)"/><path class="cls-2" d="M72.34,581.22c5.19-.58,10.34-5.54,14-8.75,11.14-9.69,21.29-21.09,32.23-31.15,8.72-8,17-17.11,26-24.68,5-4.23,8.06-11,14-14,11.14-5.57-1.7-4.08-9.83-8.15-5.92-3-7.43-10.86-7.43-16.77,0-10.08,25.16-7.38,28.16,3.11,4,13.85,6.28,22.77-13.06,22.77" transform="translate(-36 -46.5)"/><path class="cls-2" d="M167.23,473.39c18.43,0,30.31-41,8.63-41" transform="translate(-36 -46.5)"/><path d="M605,485q-2.85.12-7,.44l.22,10.15L597.67,511l-5.44.44-.3-25.78c-1.41,0-2.72.08-3.93.14s-2.19.1-3,.1l.44-5.3a148.1,148.1,0,0,1,18.92-1.09Zm5.76,16.36-3.37-13.55,6.16-1.47,2.61,13.77.44,6.35,1.15.05,3.71-13.26-1.2-5.54,6.49-1.1,4.16,19.8,1-.12c.31-2,.61-4,.88-6l1.79-13.65,6.34.78-1,5.52A135.09,135.09,0,0,1,635.37,511l-7.89.39-3-10.69h-.56L621.18,511l-8.1.39Zm34.7-6.62c0-2.18.22-3.44.68-3.78a16.46,16.46,0,0,1,1.54-1,20.34,20.34,0,0,1,1.88-1.05c.68-.34,1.39-.67,2.12-1s1.48-.58,2.2-.83a11.93,11.93,0,0,1,3.42-.78,10.3,10.3,0,0,1,1.85.13,4.77,4.77,0,0,1,1.3.34,2.18,2.18,0,0,1,1.51,1.63,79,79,0,0,1,.8,12.16V502l-11.69.15v3.17c1.27.31,2.78.6,4.54.86l4.2.68c1.07.16,2.17.35,3.3.56l-1.44,5.35a99.67,99.67,0,0,1-14.26-3.4,2.16,2.16,0,0,1-1.78-2Zm11.81,2a26.77,26.77,0,0,0-.46-4.83,9.29,9.29,0,0,0-1.56.1,10,10,0,0,0-1.18.26c-.39.12-.78.25-1.19.4a7.85,7.85,0,0,0-1.91.87v4.4l6.3-.69Zm11.33-2c0-2.18.23-3.44.68-3.78a16.46,16.46,0,0,1,1.54-1c.57-.36,1.2-.71,1.88-1.05s1.39-.67,2.13-1,1.48-.58,2.19-.83a11.93,11.93,0,0,1,3.42-.78,10.42,10.42,0,0,1,1.86.13,4.7,4.7,0,0,1,1.29.34,2.17,2.17,0,0,1,1.51,1.63,78.83,78.83,0,0,1,.81,12.16V502l-11.69.15v3.17c1.27.31,2.78.6,4.54.86l4.2.68c1.07.16,2.17.35,3.29.56l-1.44,5.35a99.67,99.67,0,0,1-14.26-3.4,2.18,2.18,0,0,1-1.78-2Zm11.82,2a26.82,26.82,0,0,0-.47-4.83,9.29,9.29,0,0,0-1.56.1,9.82,9.82,0,0,0-1.17.26c-.39.12-.79.25-1.2.4a7.72,7.72,0,0,0-1.9.87v4.4l6.3-.69Zm11.74-15.55,6-1.15v7.67l6.13-1.15.46,5.54-6.5.49-.46,13.21c1.2.37,2.25.67,3.13.88,2.19.52,3.54.84,4,1l-1.29,5.11a68,68,0,0,1-9.5-2.76,2.23,2.23,0,0,1-1.66-2.2ZM710,495.64l16.48-.24-.24,5.05c-1.58.07-2.72.13-3.42.2l-1.73.12-1.49.07c-1.26.05-2.47.08-3.64.08h-2.44l-1.2-.05-1.2-.1-1.8-.12Zm23.36-15.4,6.16-1v13.38l-.76,11.91a23.35,23.35,0,0,0,5.08,1.18c2.13.27,3.42.44,3.86.51l-1.4,5.42c-1.74-.23-3.14-.44-4.22-.64l-2.86-.53a30.07,30.07,0,0,1-5.86-1.54Zm24.79-6a7.84,7.84,0,0,1,.26,2.14c0,.79,0,1.45-.07,2s-.11,1-.17,1.51a6.92,6.92,0,0,1-.56,2.1l-5.62-.24a39.77,39.77,0,0,0,.42-6.86Zm-.2,12.3c.08,1.68.12,3.09.12,4.22s0,2.48-.07,4L757.44,511l-5.2.44-.49-24.1Zm6.57-10.4,5.91-1.12.09,16.14-.14,4.9.83.17,8.25-10.64,4.32,3.34a21.24,21.24,0,0,1-1.93,2.47l-2.07,2.27c-.72.73-1.42,1.41-2.1,2l-2,1.78c.21.19.54.53,1,1q6.3,6.78,8.44,10.69l-4.8,3.42-8.4-12.67-1.69.81-.41,10.05-5.16.4Zm23.53,18.58q0-3.27.69-3.78a16.26,16.26,0,0,1,1.53-1c.57-.36,1.2-.71,1.88-1.05s1.4-.67,2.13-1,1.48-.58,2.2-.83a12,12,0,0,1,3.41-.78,10.34,10.34,0,0,1,1.86.13,4.7,4.7,0,0,1,1.29.34,2.2,2.2,0,0,1,1.52,1.63,80.23,80.23,0,0,1,.8,12.16V502l-11.69.15v3.17c1.27.31,2.78.6,4.54.86l4.2.68c1.07.16,2.17.35,3.29.56l-1.44,5.35a99.55,99.55,0,0,1-14.25-3.4,2.19,2.19,0,0,1-1.79-2Zm11.82,2a26.77,26.77,0,0,0-.46-4.83,9.35,9.35,0,0,0-1.57.1,9.82,9.82,0,0,0-1.17.26c-.39.12-.79.25-1.2.4a7.72,7.72,0,0,0-1.9.87v4.4l6.3-.69Zm-211.6,51.51,5.71-1,.15,4.62v2.78l7.06-1.29a10,10,0,0,0,1.49-5.4,7.29,7.29,0,0,0-.15-1.51q-6-1.68-17-1.69l.88-5.81a96.1,96.1,0,0,1,18.6,1.81c.76.2,1.61,1,2.54,2.52a7.05,7.05,0,0,1,1.32,2.93,13.55,13.55,0,0,1-.12,1.75c-.09.6-.21,1.26-.37,2q-.9,3.87-1.95,4.83a12.6,12.6,0,0,1-3.86,1.61l-.05.2,4.86,2.19a12.69,12.69,0,0,1,.34,2.91,16.6,16.6,0,0,1-.17,2.49c-.11.72-.25,1.39-.41,2-.56,2-1.15,3.19-1.79,3.61q-1.51,1-11.5,1.9c-2.06.18-3.69.29-4.88.32Zm6.2,18.6a33.45,33.45,0,0,0,6.6-1.05,14.34,14.34,0,0,0,.75-3.74,17.93,17.93,0,0,0-.07-1.9,1.24,1.24,0,0,0-.42-.95l-7-.71Zm23,3.91a2.48,2.48,0,0,1-1.44-1,4.06,4.06,0,0,1-1.32-2.53l-.49-20.07,5.72-.61.58,18.89a4,4,0,0,0,1.81.42,12.38,12.38,0,0,0,4.52-1.49l.56-17.46h5.64l-.37,23.81-4.05.48-1-3.9-5.1,3.61Zm22.22-34.6,5.91-1.12.09,17.6-.56,13.77a4,4,0,0,0,.49,0h.49a13.55,13.55,0,0,0,4.32-.58A40.85,40.85,0,0,0,651.94,555a18.81,18.81,0,0,0-.14-2.68,9.67,9.67,0,0,0-1.2-.29l-1.41-.25-1.74-.27,1.25-5.44a53.87,53.87,0,0,1,6.49,1.29,3.92,3.92,0,0,1,2,1.08,3,3,0,0,1,.52,1.34,24.59,24.59,0,0,1,.19,3.44,54.77,54.77,0,0,1-.66,9.89,48.41,48.41,0,0,1-1.17,4.88,10.31,10.31,0,0,1-.78,2c-.36.61-2.17,1.08-5.45,1.42a39.49,39.49,0,0,1-4.34.27c-2.26,0-4.16-.06-5.69-.17Zm24.31,0L670,535l.1,17.6-.56,13.77a3.93,3.93,0,0,0,.49,0h.48a13.57,13.57,0,0,0,4.33-.58A41.26,41.26,0,0,0,676.26,555a18.56,18.56,0,0,0-.15-2.68,9.46,9.46,0,0,0-1.19-.29l-1.42-.25-1.73-.27,1.24-5.44a54.18,54.18,0,0,1,6.5,1.29,4,4,0,0,1,2,1.08,3,3,0,0,1,.51,1.34,24.37,24.37,0,0,1,.2,3.44,54.77,54.77,0,0,1-.66,9.89,48.41,48.41,0,0,1-1.17,4.88,10.79,10.79,0,0,1-.79,2c-.35.61-2.17,1.08-5.44,1.42a39.49,39.49,0,0,1-4.34.27c-2.27,0-4.16-.06-5.69-.17Zm23.91,0,6-1.12.17,17.6L693.42,571l-5.15.44Zm12,18.58c0-2.18.23-3.44.68-3.78a16.46,16.46,0,0,1,1.54-1c.57-.36,1.2-.71,1.88-1s1.39-.67,2.12-1,1.48-.58,2.2-.83a11.93,11.93,0,0,1,3.42-.78,11.48,11.48,0,0,1,1.85.12,5.05,5.05,0,0,1,1.3.35,2.18,2.18,0,0,1,1.51,1.63,78.83,78.83,0,0,1,.81,12.16V562l-11.7.15v3.17c1.27.31,2.78.6,4.54.86l4.2.68c1.08.16,2.17.35,3.3.56l-1.44,5.35a99.67,99.67,0,0,1-14.26-3.4,2.16,2.16,0,0,1-1.78-2Zm11.81,2a26.77,26.77,0,0,0-.46-4.83,9.29,9.29,0,0,0-1.56.1,9.82,9.82,0,0,0-1.17.26l-1.2.39a8.16,8.16,0,0,0-1.91.88v4.4l6.3-.69Zm10.77,10.35,5.22-.31c1.62-.1,3.24-.26,4.86-.49l.17-3.08-8.57-3.37a2.08,2.08,0,0,1-1.14-1.12,3.54,3.54,0,0,1-.39-1.34v-.61c0-.1,0-.32.07-.66l.54-4.62a3.19,3.19,0,0,1,2-2.71,15.71,15.71,0,0,1,2.71-.88c2.23-.52,3.8-.87,4.69-1l2.37-.51,1.83-.34,1.12,5.59L728.48,553l-.39,2.34,9,4.2a2.53,2.53,0,0,1,1.39,2.91l-.66,5.88c-.14,1.25-1.16,2.09-3.05,2.51a41.47,41.47,0,0,1-6.71,1.22c-2.44.28-4.05.44-4.84.47Z" transform="translate(-36 -46.5)"/></svg>