<svg xmlns="http://www.w3.org/2000/svg" viewBox="0 0 26.59 38.23"><defs><style>.cls-1{fill:#7e7d84;}.cls-2{fill:#908f96;}.cls-3{fill:#96969d;}.cls-4{fill:#2c2e30;}</style></defs><title>资源 1</title><g id="图层_2" data-name="图层 2"><g id="图层_1-2" data-name="图层 1"><path class="cls-1" d="M18.45,8.2c1.88,4,5.76,7,6.09,11.84a17.66,17.66,0,0,1-7.4,13.86c-3.59,2.59-8.25,1.13-12-1.56C1.59,25.73-1.13,18.94.47,11.19,1.69,9.55,1.55,7.45,2.36,5.65,4.56.81,9.8-.3,13.53,3.4A43.73,43.73,0,0,0,18.45,8.2Z"/><path class="cls-2" d="M5.14,32.34c2.25.29,4.67.15,6.73.95,3.92,1.52,5.75-.78,7.37-3.48,1.9-3.17,3.54-6.51,5.3-9.77,1.69,3.35,2,7,2.05,10.63a6.13,6.13,0,0,1-.89,3.83c-3.89,5.36-9.7,3.25-14.79,3.61C7.24,38.36,5.88,35.47,5.14,32.34Z"/><path class="cls-3" d="M18.45,8.2c-2.51.3-4.14-1.2-5.31-3S10.48,1.65,8,2.33A6.91,6.91,0,0,0,2.7,7.07c-.44,1.59-.36,3.35-2.23,4.12C.81,2.94,3.89-.6,10.33.08,15.14.59,17.37,3.86,18.45,8.2Z"/><path class="cls-4" d="M17.46,24.23c-.05,2.32.2,5.15-2.8,5.51-2.43.29-3.6-2-4.26-4.11A30.06,30.06,0,0,1,8.69,15.48a3.83,3.83,0,0,1,2.2-3.63c1.92-.74,2.4,1.11,3.22,2.27A16.47,16.47,0,0,1,17.46,24.23Z"/></g></g></svg>