<svg xmlns="http://www.w3.org/2000/svg" viewBox="0 0 31.45 42.29"><defs><style>.cls-1{fill:#66ba9a;}.cls-2{fill:#88c7ae;}.cls-3{fill:#343736;}</style></defs><title>资源 2</title><g id="图层_2" data-name="图层 2"><g id="图层_1-2" data-name="图层 1"><path class="cls-1" d="M1.37,24.87c.21-6.77,2.31-13,5.26-19,2.55-5.2,7-7,12.44-5,6,2.25,11,6,11.68,12.88.89,8.4,2.27,17.11-5.51,23.63-1.78,1.5-3.32,3.26-5.78,3.62-5,.23-9.56-1.51-14.3-2.5a4.47,4.47,0,0,1-3.29-3.95C1.41,31.32.29,28.14,1.37,24.87Z"/><path class="cls-2" d="M1.37,24.87c.42,2.77.92,5.52,1.25,8.3.72,5.91,6.25,4.06,9.48,5.37a55.49,55.49,0,0,0,7.35,2.4c-4.31,2-8.75,1.57-13,0C.08,38.58-1.49,33.21,1.37,24.87Z"/><path class="cls-3" d="M22.47,18.74c.18,2.53-.6,4.9-1.22,7.29-.74,2.82-2.69,5.42-5.33,5s-5-2.89-5.41-6.2a15.53,15.53,0,0,1,2.42-10.43c1.58-2.44,5.43-2.25,7.92-1.74C23.62,13.24,22.25,16.57,22.47,18.74Z"/></g></g></svg>