<svg xmlns="http://www.w3.org/2000/svg" viewBox="0 0 29.23 34.38"><defs><style>.cls-1{fill:#eda75f;}.cls-2{fill:#383433;}</style></defs><title>资源 3</title><g id="图层_2" data-name="图层 2"><g id="图层_1-2" data-name="图层 1"><path class="cls-1" d="M17.06,33.06C8.83,30.29,3.37,24.87.8,16.48A15.16,15.16,0,0,1,.41,8.16c1-3.68,3-6.7,6.89-7.84C11-.75,13.86,1,16.11,3.59A149.2,149.2,0,0,1,27,17.12c4.18,6.22,2.22,11.81-3,16.56-.1.63-.45.84-1.05.61C21,33.65,18.71,34.85,17.06,33.06Z"/><path class="cls-2" d="M21,20.78c-.34,1.73.09,3.89-1.87,4.84-2.24,1.08-3.8-.51-5.14-2C10.67,20,7.28,16.36,7.06,11c-.1-2.33.66-3.26,3.19-3C16.27,8.59,21.18,14.27,21,20.78Z"/></g></g></svg>