<svg xmlns="http://www.w3.org/2000/svg" viewBox="0 0 28.87 30.93"><defs><style>.cls-1{fill:#afc1d6;}.cls-2{fill:#313234;}</style></defs><title>资源 4</title><g id="图层_2" data-name="图层 2"><g id="图层_1-2" data-name="图层 1"><path class="cls-1" d="M11.86.2c3.75,1.37,7.57,2.11,11,4.83,4.49,3.59,6.29,7.71,6,13.14-1,6.43-4.95,10.34-10.73,12.72l-4.17,0C5.39,28.08,3.2,20.31.17,13.18a6.94,6.94,0,0,1,0-2.94c1.35-3.92,3-7.67,7-9.61C8.75.59,10.23-.41,11.86.2Z"/><path class="cls-2" d="M20.54,18.1c-.65,2.42.45,5.3-2.36,6s-5.21-.68-6.6-3.32A69.68,69.68,0,0,1,8.42,14c-1.18-3-.28-5.13,2.88-6.22,2.9-1,5.35-.57,6.71,2.32C19.25,12.78,20.41,15.53,20.54,18.1Z"/></g></g></svg>