<svg xmlns="http://www.w3.org/2000/svg" viewBox="0 0 23.65 32.27"><defs><style>.cls-1{fill:#738564;}.cls-2{fill:#2f3131;}</style></defs><title>资源 5</title><g id="图层_2" data-name="图层 2"><g id="图层_1-2" data-name="图层 1"><path class="cls-1" d="M18.34,32.12c-2.39-.08-4.84.66-7.13-.57C8.12,27.49,4.45,23.84,2.45,19A40.06,40.06,0,0,1,.5,13.91C-.93,8.43.81,3,4.44,1.11,9-1.23,12.87.06,17,5.67c4.64,6.24,8.06,12.94,6,21.13C22.75,29.7,20.38,30.77,18.34,32.12Z"/><path class="cls-2" d="M17.08,17.53c.12,3.53-1.24,6.28-4.07,6.3-2.58,0-5.26-1.42-4.19-5.55.46-1.76-1.3-4-1.61-6.08-.23-1.64-1-3.89,1.28-4.76,2.11-.8,3.83.31,5.14,2A20.6,20.6,0,0,1,17.08,17.53Z"/></g></g></svg>