<svg xmlns="http://www.w3.org/2000/svg" viewBox="0 0 26.69 29.03"><defs><style>.cls-1{fill:#86aba6;}.cls-2{fill:#689a93;}.cls-3{fill:#2b2d2f;}</style></defs><title>资源 6</title><g id="图层_2" data-name="图层 2"><g id="图层_1-2" data-name="图层 1"><path class="cls-1" d="M25.72,9.35q.48,6.32,1,12.62c0,2.33-1.4,3.81-3.05,5.15C22,28.3,20.29,29.49,18,28.86,10.14,28.67,1.93,22.19.19,14.75-.86,10.3,2.6,4.56,7.77,2.16c.11,2.55-.93,5.27,1.12,7.54.41,2.36.78,4.73,1,7.12-.77,3.17.29,5.56,3.19,7,2.63,1.32,5.51,1.32,7.36-.94,2.22-2.71,3.67-6.16,2.25-9.71-2.11-5.28-5.11-9.8-11.75-9.89-1.13,0-2.36,0-3.18-1.1C12.5-1.74,18.65-.28,23.1,5.84,24,7,24.25,8.62,25.72,9.35Z"/><path class="cls-2" d="M7.72,2.18c8.6-.8,13.94,2.66,16.86,10.92,1.24,3.5-1.86,10.79-5.25,12.35-3.79,1.75-7.77.31-10.28-3.29a4,4,0,0,1-.17-5c1.12-.32,1.84.45,2.65,1,1.83,1.21,4,2.61,5.81.78,2-2.07,1.41-5,.41-7.45A4.31,4.31,0,0,0,12.16,8.7c-1.39.39-2.7,1.34-4.26.67C3.57,7,5.9,4.6,7.77,2.16Z"/><path class="cls-3" d="M7.9,9.37C15.59,4.94,19.74,7,20,15.25c.08,2.31.38,4.88-2.4,5.91-2.56.94-4.88.08-6.81-1.77-.71-.68-1.3-1.48-2-2.23C8.08,14.62,7.11,12.1,7.9,9.37Z"/></g></g></svg>