<svg xmlns="http://www.w3.org/2000/svg" viewBox="0 0 24.93 32.88"><defs><style>.cls-1{fill:#a0a0a5;}.cls-2{fill:#8b898f;}.cls-3{fill:#9b2c29;}</style></defs><title>资源 7</title><g id="图层_2" data-name="图层 2"><g id="图层_1-2" data-name="图层 1"><path class="cls-1" d="M20.08,31.8C11.84,34.1,9.53,33,5.19,25.51a57.22,57.22,0,0,1-4.53-11C-1.44,8.1,1.57,2.71,8,.72c1,1.67-1.43,2.43-1,4,.75,1.63,6.17-.91,3.59,3.87-4,3.59-4.37,7.83-2.19,12.45,1.9,4,3.83,4.67,8.22,3,2.75-.48,4.67-2.89,7.49-3.21,2,3,0,5.42-1.2,8C22.53,30.36,21.84,31.59,20.08,31.8Z"/><path class="cls-2" d="M24.09,20.87c-1.89,2.19-3.94,4.1-7.12,4a3.19,3.19,0,0,1-.61-2.77A14.15,14.15,0,0,0,10,7.77c0-.57.91-2.19-.43-1.35C7.26,7.9,5.65,6.89,4.77,5.34,3.7,3.45,6,2.82,7.13,1.82A7.92,7.92,0,0,0,8,.72C13.84-.9,16.62.05,19.59,5.28,22.31,10.08,24.37,15.17,24.09,20.87Z"/><path class="cls-3" d="M10,7.77c4.79.51,8.29,5.85,8,12.36a29.35,29.35,0,0,1-1,4.73c-2.93,3.37-5.53,2.88-8.1-.51C4.16,18.15,4.48,12.9,10,7.77Z"/></g></g></svg>