<svg xmlns="http://www.w3.org/2000/svg" viewBox="0 0 182.56 182.38"><defs><style>.cls-1{fill:#d7e3e0;}</style></defs><title>资源 1</title><g id="图层_2" data-name="图层 2"><g id="图层_1-2" data-name="图层 1"><path class="cls-1" d="M0,99.46V82.91C.3,73,2,63.42,6.11,54.33A94.87,94.87,0,0,1,45.73,10.46,75.46,75.46,0,0,1,83,0H99.56a75.19,75.19,0,0,1,34.69,9.15,92.59,92.59,0,0,1,43.11,48.36,72.13,72.13,0,0,1,5.19,25.41q0,8.28,0,16.55c-.33,16.06-6,30.35-14.82,43.49-13.25,19.84-32,32-54.89,38-4.36,1.14-8.87.93-13.29,1.43H83c-16,0-30.34-5.83-43.32-14.51-19-12.71-31.84-30.24-37.8-52.53C.49,110.12.54,104.76,0,99.46Z"/></g></g></svg>