<svg xmlns="http://www.w3.org/2000/svg" viewBox="0 0 182.83 182.65"><defs><style>.cls-1{fill:#66948a;}</style></defs><title>资源 2</title><g id="图层_2" data-name="图层 2"><g id="图层_1-2" data-name="图层 1"><path class="cls-1" d="M0,99.54q0-8.36,0-16.72c.26-9.14,1.65-18,5.22-26.56a94.32,94.32,0,0,1,36.52-43.4A76,76,0,0,1,72.52.81C76,.31,79.45.39,82.91,0L99.65,0a72.92,72.92,0,0,1,34,8.9c25.8,14.12,42,35.43,48,64.34.85,4.15.47,8.42.95,12.61a49,49,0,0,1,0,10,78.11,78.11,0,0,1-6.31,30.82c-12.35,28.53-33.94,46.13-63.67,54.18-5.43,1.46-11.11,1.06-16.67,1.56a49.88,49.88,0,0,1-10,0c-5.18-.53-10.46-.16-15.57-1.45q-47.65-12.09-66-57.67C1.24,115.7.38,107.65,0,99.54Z"/></g></g></svg>