<svg xmlns="http://www.w3.org/2000/svg" viewBox="0 0 182.37 182.39"><defs><style>.cls-1{fill:#5a8c81;}</style></defs><title>资源 3</title><g id="图层_2" data-name="图层 2"><g id="图层_1-2" data-name="图层 1"><path class="cls-1" d="M101.18,182.38h-22C40,179.66,1.33,142.25,0,102.52L0,79.88c.74-14.54,5.71-27.6,13.76-39.61,13.5-20.11,32.06-33,55.51-38.9C74,.19,78.89.6,83.69,0H98.2c9.49.34,18.73,1.67,27.59,5.44,28.61,12.19,46.86,33.3,55.11,63.15,1.3,4.71,1.41,9.56,1.44,14.42V98.53c.49,14.73-4.62,27.91-11.89,40.28A87.41,87.41,0,0,1,143,167.94C130.31,176.27,116.62,181.93,101.18,182.38Z"/></g></g></svg>