<svg xmlns="http://www.w3.org/2000/svg" viewBox="0 0 182.56 182.37"><defs><style>.cls-1{fill:#c3d6d2;}</style></defs><title>资源 4</title><g id="图层_2" data-name="图层 2"><g id="图层_1-2" data-name="图层 1"><path class="cls-1" d="M182.55,85.15V97.23c.31,14-3.84,26.79-10.58,38.74-13.78,24.44-34.36,39.86-62,45.48-3.16.65-6.42.49-9.61.92H80C39,180.11.44,140.48,0,101.72V80.65C.47,64.54,6.37,50.33,15.64,37.46,29,19,46.85,7,68.93,1.34,73.74.11,78.8.54,83.73,0H98.07a75,75,0,0,1,32.39,7.55c23.18,11.11,39,28.66,47.86,52.77C181.27,68.39,182.26,76.69,182.55,85.15Z"/></g></g></svg>