<svg xmlns="http://www.w3.org/2000/svg" viewBox="0 0 182.56 182.38"><defs><style>.cls-1{fill:#b2cac5;}</style></defs><title>资源 5</title><g id="图层_2" data-name="图层 2"><g id="图层_1-2" data-name="图层 1"><path class="cls-1" d="M182.56,82.91V99.5c0,13.58-4.51,25.89-11,37.51a88.38,88.38,0,0,1-40.68,37.69c-9.45,4.39-19.19,7.61-29.75,7.67H80.72C40.4,181.25.21,141,0,101.73V80.65c.4-17.4,7.22-32.41,17.62-45.92A90.67,90.67,0,0,1,67.45,1.63C72.29.35,77.32.63,82.24,0H98.85a71,71,0,0,1,28.61,6c28.3,12.77,46.18,34.3,53.83,64.31C182.33,74.45,182,78.73,182.56,82.91Z"/></g></g></svg>