<svg xmlns="http://www.w3.org/2000/svg" viewBox="0 0 182.55 182.37"><defs><style>.cls-1{fill:#a8c3bd;}</style></defs><title>资源 6</title><g id="图层_2" data-name="图层 2"><g id="图层_1-2" data-name="图层 1"><path class="cls-1" d="M101.83,182.37H80.71c-38.84-4.16-63.42-26.22-77.3-61.61C.74,114,.41,106.7,0,99.49V82.88C.56,78,.32,72.94,1.61,68.09c7.05-26.54,23-46,47-59.11A73.67,73.67,0,0,1,83,0H99.59c4.94.56,10,.29,14.8,1.62,30.48,8.38,51.54,27.27,63.38,56.53a64.47,64.47,0,0,1,4.78,22.49v21.1C181.12,142,142.15,181,101.83,182.37Z"/></g></g></svg>