<svg xmlns="http://www.w3.org/2000/svg" viewBox="0 0 182.57 182.39"><defs><style>.cls-1{fill:#80a79f;}</style></defs><title>资源 7</title><g id="图层_2" data-name="图层 2"><g id="图层_1-2" data-name="图层 1"><path class="cls-1" d="M83.7,0H97.38c4.94.47,9.92.34,14.83,1.22,16.85,3,31.39,11.14,45,21,5.58,4,8.65,10.62,11.94,16.55,6.66,12,12,24.6,13.12,38.56.17,2.1-.26,4.22.3,6.3l0,15.92c-.11,11.68-3.53,22.49-8.67,32.84-10.35,20.82-26.24,35.63-47.83,44.46a75.22,75.22,0,0,1-25.7,5.57H82.18c-21.43-.68-39.53-9.91-56.54-22a12.82,12.82,0,0,1-3.3-3c-10-14.54-18.87-29.61-21.43-47.53-.6-4.18-.42-8.41-.91-12.59V83.61c.43-9.1,1.54-18,5.11-26.57q15.33-36.7,52-51.94C65.66,1.53,74.59.44,83.7,0Z"/></g></g></svg>