<svg xmlns="http://www.w3.org/2000/svg" viewBox="0 0 155.13 113.11"><defs><style>.cls-1{fill:#1fa0e6;}.cls-2{fill:#2eabe8;}.cls-3{fill:#32b2f0;}.cls-4{fill:#39b3ed;}.cls-5{fill:#168cd3;}.cls-6{fill:#2eacea;}.cls-7{fill:#1f9ada;}</style></defs><title>资源 1</title><g id="图层_2" data-name="图层 2"><g id="图层_1-2" data-name="图层 1"><path class="cls-1" d="M85,111.8l-7,.89c-2.67-.28-5.8.32-6-3.92-.08-1.49-1.58-1.26-2.78-1.27-3.84,0-7.55.06-10.94,2.38-3.64,2.5-7.37-.81-11.09-.23a46.51,46.51,0,0,1-13.1-5.77c3.5-2.7,7.94-1.77,11.83-3,2.19-.71,5.69.62,5.94-2.91.22-3-2.6-4.33-5.06-5.49-2.88-1.36-5.54-.59-8,.92-5.66,3.44-11,1.53-16-1.29a8.91,8.91,0,0,1-4.47-8.35c.17-5.41-.73-6-5.68-4.29-1.4.48-2.75,1.24-4.29.51a23.19,23.19,0,0,1-2-8C5.44,67.29,5,62.53,3,58.12A6,6,0,0,1,2.12,54c.57-1.82,2.72-3.92-.91-5L.45,43.94C1,41,1.54,38,.94,35a19.84,19.84,0,0,1,5.1-11,42.52,42.52,0,0,0,11.67-8.85,11.36,11.36,0,0,1,6.54-4c2.52-.24,4.88-.63,6.64-2.84,3.26-4.07,3.69-4,7.43-.19-3.57,4.3-8.22,7.36-13,9.92-3.49,1.86-7.43,5.87-7.17,9.7.12,1.94,1.07,3.79.18,5.83-.46,1,.57,1.37,1.36,1.61,1.67.52,3.26.63,4.58-.84,2-2.19,4.15-3.86,7.37-2.79,1.52,2-1.43,4-.08,6.05a5.37,5.37,0,0,1-2.4,4.18A11.59,11.59,0,0,0,24.79,56c1.56,3.83.45,6.62-3.45,7.45A4.6,4.6,0,0,0,17.71,67c-.56,1.76,1.29,2,2.33,2.72,3.74,2.45,4.57,7.14,7.85,10.09,1.52,1.36-1.28,2.55-2.56,4.14,1.73,0,3.83-.75,4.51.75,2.43,5.37,7,3.43,10.69,3,5.12-.61,10.24-1.08,15.37-1.24,2.34-.08,5,0,6.52,1.48-.62-4.48-3.9-7.59-7.35-10.84-2.74-2.58-3.37-6.95-7.12-9-1.06-.59-.72-2.53,0-3.72.91-1.52,2.49-1.36,4-1.2,1.82.18,4.27,3,5.18-.77.57-2.35-.09-4.69-3.3-5A2.26,2.26,0,0,1,51.67,55c0-1.56,1.1-2.33,2.45-2.77,1-.34,2.26-.18,3.65-1.34-3.52-1.14-5.84-2.93-6.26-6.56-.28-2.39-2.32-2.8-4.41-3.23-4.69-.94-9.26-2.23-9.38-8.38.45-2.29,2.29-2.63,4.13-2.9,2.63-.38,5.22-1.15,7.9-1,1.58.06,3.56-.86,4.61.88,1.24,2-.32,3.6-1.28,4.64A36.5,36.5,0,0,1,66.88,31c7.25-.21,13.79,4.22,21.2,2.62,1.92-.42,3.17,1.52,4,3.22A3.13,3.13,0,0,1,91,41.21,3.91,3.91,0,0,0,89.6,44c2-2.14,3.16-4.78,6.29-3.29,2.53,1.2,4,2.47,4.38,5.75a11.74,11.74,0,0,0,6,9.26c3,1.57,3.92.63,4.21-2.23.07-.66,0,.17,0-.49,0-2.33-1.37-5.36,2.62-5.76,2.57-.27,5.69,3.47,5.67,6.55,0,5.38,2.89,7,8.78,4.23-2-.58-3.57,0-5.1-.14-1.77-.15-4.12.27-3.81-2.56.23-2.13.84-4.46,4-3.71a11.37,11.37,0,0,0,3,.32c6.14-.16,7.29-2.14,6.23-8.15-1.16-6.54-5.43-9.74-10.3-13.61-5.83-4.63-12.39-8.22-17.84-13.29-2.32-2.16-1.72-4.66,1.65-6.14a20.46,20.46,0,0,1,16.93.06c6.22,2.69,12.12,6,18.1,9.19,3.55,1.88,5.43,5.94,9.48,7.12,3.6,3.29,4.39,8,4.72,12.26,1.19,15.32.88,30.51-7.72,44.27-2.31,3.71-5.48,6.11-9,8.38-6,3.9-12,7.75-18.8,10-7.08,2.15-14.72,1.7-21.62,4.71a5.09,5.09,0,0,1-2.94.37C90.08,106.09,87.4,108.59,85,111.8Z"/><path class="cls-2" d="M31.08,37.05c-4.17-2.56,0-3.45,1-5,1.65-2.14,4-3.62,5.7-5.69,2.38-1.42,5,.29,7.63-.84,7.44-3.16,13.19-9,20.53-12.26,1.64-.73,2.83-2.36,4.83-1,.78.55,1.65.62,1.81-.57s-.71-1.44-1.59-1.46c-2.24-.06-4.16,1.05-6.15,1.84-3.3,1.3-6.19,1.52-7.92-2.34C56.11,8,54.79,7.93,53.23,8.71A6.51,6.51,0,0,1,48,8.14a10.71,10.71,0,0,0-9.88-.06c-2.17-.59-4.49-4.45-6.18,1.14-.72,2.4-4.59,3.43-7.8,2.84-.95-1.55,2.32-2.51.58-4.18C30.57,4.14,36.78.79,43.83.53c27.72-1,55.47-1.77,81.93,9,9.5,3.85,18.1,9,24.15,17.61-2.39,1.7-3.51-.38-5-1.62A71.47,71.47,0,0,0,115,10.21a4,4,0,0,0-1.49-.11c-3.53.59-8.19,0-9.8,3.54-1.47,3.2,3.43,3.4,5.11,5.4,1.82,2.17,4.75,3.55,7.4,4.84,1.75.85,2.65,2.25,3.92,3.44,2.81,2.64,6.43,4.32,9.16,7.22,1.93,2,5.94,13.29,4.48,15.39-2.57,3.67-6.71,3.46-10.68,3.09-1-.1-2.14-1.54-2.9.26-.38.89-.93,2.07-.63,2.82.62,1.55,1.92.39,3,.3s2.27.22,3.38.11,2.86-1.28,3.29.48-.83,3-2.63,3.72c-2.61,1-5-.27-7.29-.9-3.37-.91-2-3.46-1.51-5.73s-1.54-3.53-2.61-5.13a2.39,2.39,0,0,0-3.18-.57c-1.12.58-.85,1.65-.46,2.62a5.47,5.47,0,0,1,.19,4.37c-1.09,2.36-1.3,4.29-5.5,2.08-5.11-2.7-5-7.88-8.3-11.12-1.26-1.26,3.51-1.92.44-3-2.08-.71-5.66-5.81-6.48,1.25-.15,1.26-1.25,1.4-2.3,1.33a2.19,2.19,0,0,1-2-1.25c-.69-1.6.63-2.84,1.5-3.36,3.15-1.87,3-3.75.66-6.06-1-.94-1.93-1.29-3-.3-1.3,1.14-3,.09-4,.38-4.82,1.53-8.35-5.68-13.25-1.71-4.17-3.26-8.12-.29-12.21.27A9.54,9.54,0,0,0,52,36.39c-.79.69-2,.94-2.58-.17s-.16-2.63,1.29-2.51c2.4.19,3.29-1.42,3-2.94-.4-2.47-2.55-.66-3.67-.59-4.14.23-8.62-.49-12,2.86C36.71,36.05,34.88,38.28,31.08,37.05Z"/><path class="cls-3" d="M8.3,80c.92-.36,1.86-.68,2.76-1.08,7.84-3.47,8.73-2.88,8.18,6-.14,2.25,1.54,3.18,2.58,4.57,3,4.07,10.44,5.66,15,3.36,6.48-3.24,11.85-2.61,15.32,1.89,1.09,1.43,2.17,2.86,1.11,4.94A4,4,0,0,1,48.83,102c-5.07-.47-9.68,2.55-14.77,1.9C23.91,99,16.61,90.75,9.14,82.72,8.55,82.09,8.57,80.89,8.3,80Z"/><path class="cls-4" d="M85,111.8a6.15,6.15,0,0,1,6.42-6.35,29,29,0,0,0,9-1.46c3.31-.88,7.26-2,10.85-1.6,2.75.3,5.22-2.44,7.89-.33A104.57,104.57,0,0,1,85,111.8Z"/><path class="cls-5" d="M47.16,109.65c.77-.22,1.7-.84,2.29-.6,4.51,1.82,8.3.25,12-2.21,3.21-2.15,7.1.9,10.48-1.35.85-.57,1.22,1.31,1.19,2.19-.09,3.42,2,4.55,4.89,5C67.52,113.65,57.2,113.08,47.16,109.65Z"/><path class="cls-6" d="M24.67,7.88c7.6,2.48-3.25,2.39-.58,4.18-5.69,2.39-8.68,8.2-14,11-1.29.7-2.23,2.78-4,.83-.25-1.91.93-3.11,2.2-4.2C13.39,15.34,18.38,10.7,24.67,7.88Z"/><path class="cls-7" d="M3,58.12C6.22,62.24,6.4,67.07,6.31,72A56.28,56.28,0,0,1,3,58.12Z"/><path class="cls-7" d="M.94,35c2.86,3.15,1.37,6.07-.49,9C0,40.92-.44,37.9.94,35Z"/><path class="cls-7" d="M1.21,49.06c4,1,3.43,2.8.91,5A8.33,8.33,0,0,1,1.21,49.06Z"/><path class="cls-7" d="M31.08,37.05c3-.12,4.7-2.63,7-4,2.24,5.46,6.74,6.93,12.15,7.37C52.14,40.57,53,43,53,44.76c-.06,3.11,2,3.84,4.24,4.71.86.34,2.77-1.06,2.42,1.12-.19,1.24-.61,3.11-2.8,2.77a9.68,9.68,0,0,0-2.45-.18c-1.06.12-2,.72-1.91,1.9s1,1.5,2.17,1.21c1.84-.45,3.34-.33,3.45,2.14s2,5-1,7.23c-1.57,1.15-2.27.43-3.34-.46-1.6-1.32-3.69-2.32-4.93,0s0,3.77,2.65,3.93c1.29.08,2.63.9,2.42,2.06-.72,4,2.63,5.28,4.6,7.49,1.42,1.59,3.54,3,4,4.85s.67,4.13,2.46,7c-4.69-2.48-8.4-2.19-12.36-2.27-7.32-.14-14.35,1.71-21.56,1.6-.67,0-1.61-.06-1.47-.88,1.14-7-2.53-4-5.42-2.24-.57-1.72-1.39-4-.1-4.27,7.55-1.86,1.11-3.42,0-5-2.19-3-2.86-7.38-7.58-8.27-1-.18-1.3-2.24,0-2.88,2.11-1,.69-5.37,4.15-4.53,1.34.33,2.54,1.41,3.09-.4.49-1.59,1.87-3.74,0-5.06-4.18-3-.88-6.55-.22-9.18.58-2.32,1.41-4.05-1.47-7.32C27.32,42.22,29.93,41.06,31.08,37.05Z"/><path class="cls-7" d="M38.07,8.08c2.73-4.9,6.63-2.43,10-1.23a13,13,0,0,0,5,1.22c3.23,5.56-.42,14.44-6.11,16.7-3,1.17-6.15.71-8.88,2.27-.66,3.29-3.32,4.17-6,5-2.91,0-5.52.29-7.08,3.39-.91,1.81-8.08,1.32-9.18-.43-.09-.14-.17-.28-.25-.43,5.08-2.53-2-7.89,2.46-10.58,1.17-.7.36-1.73.4-2.65.08-1.77,1.42-3.86,2.6-3.85C28.61,17.58,31.64,9.79,38.07,8.08Z"/><path class="cls-1" d="M38.09,27a4.67,4.67,0,0,1,3.35-1.88c12-1.28,9-4.46,11.53-12.33.44-1.38,1.16-3.16.11-4.76,1.88-2.7,4-2.89,4.79.46,1,4.29,3.14,3.76,6.22,2.6,2.7-1,5.18-3.14,8.42-2.12.9.27,2.3.05,2.11,1.46a8.66,8.66,0,0,1-1.41,4.1A1.76,1.76,0,0,1,70.3,14c-.58-1.14-1.22-2.4-2.44-.95-3.45,4.1-8.63,5.15-13,7.62-1,.58-2.15,1-2.59,2.2-.88,2.43-1.21,5.82-5.05,2.69C44.76,29.6,41.1,26.32,38.09,27Z"/><path class="cls-1" d="M49.25,46.51c-.43-.45-1.24-.93-1.44-1.59-.38-1.27.66-1.68,1.69-1.73a1.3,1.3,0,0,1,1.43,1.54C50.89,45.61,50.47,46.24,49.25,46.51Z"/></g></g></svg>