<svg xmlns="http://www.w3.org/2000/svg" viewBox="0 0 123.34 117.16"><defs><style>.cls-1{fill:#0729e3;}.cls-2{fill:#0b4cf4;}.cls-3{fill:#0738ef;}.cls-4{fill:#0b41f1;}.cls-5{fill:#0d54f4;}.cls-6{fill:#081ed3;}.cls-7{fill:#1a70f3;}.cls-8{fill:#51a4f5;}.cls-9{fill:#2583f4;}.cls-10{fill:#0a22d5;}.cls-11{fill:#3c9af5;}.cls-12{fill:#176ff5;}.cls-13{fill:#5aa8f6;}.cls-14{fill:#88ccf3;}.cls-15{fill:#49a3f5;}.cls-16{fill:#4da3f3;}.cls-17{fill:#1145e8;}.cls-18{fill:#a1ddf5;}.cls-19{fill:#0f5ded;}.cls-20{fill:#1d6bee;}.cls-21{fill:#0d4bf3;}.cls-22{fill:#1e68eb;}.cls-23{fill:#7fcbf6;}</style></defs><title>资源 2</title><g id="图层_2" data-name="图层 2"><g id="图层_1-2" data-name="图层 1"><path class="cls-1" d="M75.23,29.71c-1.61,5.19-1.8,10.74-4,15.76C67,50,67,51,71.06,54.66,85.75,47.32,100.83,40.9,116,34.53c1.33-.57,2.5-2,3.31.61.6,1.9,1.87,3.56-1,4.89-7.19,3.4-14.27,7-21.45,10.45-4.49,2.13-9.1,4-13.68,6.75l7.83.38c-2.34,3.08-6.11,4.23-9,6.62-.55.46-1,.58-.7,1.37.22,3.88-3.5,7.16-1.68,11.26a5.38,5.38,0,0,1,.41,2.63c3,7.55,6,15.1,8.89,22.68.47,1.24,1.85,2.83-.13,3.93-2.72,1.52-5.24,3.49-8.37,4.13-.25,0-.84-1-1.07-1.55-3.5-9.07-8-17.67-12.21-26.4a10.9,10.9,0,0,1-8,.06l-.27.14c-3.06-.54-2.55-2.28-1.48-4.28,3-5.62,3-5.66-3.41-6.36-1.3-.14-2.5-.83-3.85-.6l-5.93,2.3c-2.72.08-4.1-1.19-4-4l4.48-2.91L24.13,65.41c3.49-3.18,7.42-5.08,12.3-4.12,3.21-.84,6.47-.13,9.83-.11-.94-2-3.13-1.51-4.2-2.82.65-2.33.27-5.32,3.78-5.78,1.08,1.29,2.43.52,3.79.52C47.37,48,41.93,45.85,39,41.47c.66-2.48,1.14-5.07,4.07-6,2.4,2.75,3.12,6.64,6,9,4.12-.27,2.69-3.58,3.07-5.8.16-.94-.69-1.8-1.07-2.7-.7-1.72-2.75-3.77-.83-5.25,1.68-1.3,3.12,1,4.33,2.21s2.17,1.34,3.37.21c1.36-.64,2.57.28,3.85.35,2.45.15,4.85.38,3.64-3.53-.71-2.29.62-4.27,2.47-5.51,2-1.37,3.72-.08,5.2,1.39C73.41,27.38,75.6,27.85,75.23,29.71Z"/><path class="cls-2" d="M50.13,71.24c2.76-1.81,5.79-.41,8.64-.49s3.19,3.72.8,6.68c-1.27,1.57-3.86,2.89-.7,5a328.44,328.44,0,0,0-10.87,32c-.71,2.59-1.63,3-4.1,2.54-7.91-1.58-8.63-3.12-5.19-10.31,3.23-6.74,3-14.51,6-21.39.43-1-1,.1-1.52.22-2.22.77-2.85-.07-2.2-2.19,1.92-2.93,4.74-5,7-7.68C48.9,74.46,51,73.49,50.13,71.24Z"/><path class="cls-3" d="M58.09,33.48C58,36.11,57.53,38,54.83,35c-1.2-1.34-2.45-2.64-4-4.31a3.63,3.63,0,0,0,1.09,4.19c3.6,3.22.7,6.82.79,10.19,0,1.32-.41,1.34-3.59-.55.86-2.67-1-4.66-2-6.7C44,31.44,42,24.55,38.05,18.59c-.21-2.53-1.07-5,.57-7.52,1.27-2-1.95-3.27-1.41-5.36,8.64-3.07,6.14-4,10.83,3.61,4.28,7,7.2,14.55,10.06,22.16A1.34,1.34,0,0,1,58.09,33.48Z"/><path class="cls-4" d="M58.09,33.48c0-.66,0-1.33,0-2,1.7-.49,1-1.83,1-2.87-.14-8.07-.35-16.14-.42-24.21,0-2.22-.25-4.51,3.52-4.4,3.5.11,4,1.53,4,4.5,0,4.95.33,9.91.59,14.87,0,.6-.39,1.87,1,1.48.49-.14.77-1,1.15-1.49,1.27-.55,2.55-1.09,3.93-.34a6.76,6.76,0,0,1,.23,7.49c-1.72-.19-3-3.18-5.14-.7-1.56,1.8-2.27,3.55-.83,5.79.38.59,1.64,1.59,0,2.33a10.5,10.5,0,0,1-6.5.91C59.79,34.67,59.19,33.49,58.09,33.48Z"/><path class="cls-5" d="M79,77.48c-3.64-4.75,1.2-8,2.07-12,2.15-2.09,4.4-3,7-.7l-3.32.94c8.77,5.82,19.17,7,28.5,10.93,1.6.68,5.44,0,4,3.91-1.18,3.1-3,4-6.53,2.55C104,80.45,96.93,78.57,90,76.36,86.4,77.19,82.32,73.5,79,77.48Z"/><path class="cls-6" d="M88.08,64.77c-2.39-.42-4.78-.76-7,.7-.92-.15-2.1.28-2.55-1-.28-.75.51-1.64.87-1.5,3.15,1.22,4-1.5,5.75-2.92C86.75,58.82,89,58.41,91,57.61q14.59-1.17,29.22-2.35c1.29-.1,3.33-1.13,3.06,1.56-.2,1.88,1,4.65-2.44,5-4.12.47-8.24,1-12.38,1.35C101.68,63.79,94.88,64.25,88.08,64.77Z"/><path class="cls-7" d="M43.06,35.46c-1.45,1.94-1.73,4.67-4.07,6C33.31,33.89,26.3,27.65,19.06,21.61c-1.23-1-3.82-2.21-1-4.58,2.06-1.75,3.6-3.13,6-.29C29.88,23.48,38,27.9,43.06,35.46Z"/><path class="cls-8" d="M79,77.48c.28-3.29,1.93-4.62,5-2.93,1.93,1.08,4.41,0,6,1.81-.93.23-1.57.33-.44,1.42,4.73,4.61,9.42,9.27,14,14,.89.93,3.64,1.62,1.54,3.75-1.39,1.41-3,2.53-5.23,1a44.14,44.14,0,0,1-8.15-7.21,51.72,51.72,0,0,0-11.65-9.93C79.12,79.13,79.21,78.24,79,77.48Z"/><path class="cls-9" d="M45.84,52.58l-3.78,5.78c-9.61-2.93-18.67-7.23-27.91-11.1a3.11,3.11,0,0,1,4-3.69c3,2,6,.17,8.93.9Z"/><path class="cls-10" d="M76.65,42.33c7.76-9.72,16.53-18.5,25.46-27.12,1.41-1.36,2.64-2.55,4.48-.52,1,1.09,1.88,2,.34,3.23-9.29,7.56-16.31,17.46-25.7,24.94C79.69,42.8,78,44,76.65,42.33Z"/><path class="cls-11" d="M37.16,76.52c-8.59,4.73-17.88,7.91-26.68,12.17-2.54,1.23-3.17-.56-4.14-2.1-1.49-2.38.42-2.73,1.94-3.38L35.11,71.58C36,73.16,36.43,74.89,37.16,76.52Z"/><path class="cls-12" d="M73.08,19.49l-4.18-.13c1.74-4.75,3.57-9.48,5.19-14.27,1.72-5.07,5.09-2,7.76-1.59,3.73.55,1.42,2.93,1,4.47-1.36,4.57-2.46,9.23-4.7,13.49C76.77,19.94,74.76,20.13,73.08,19.49Z"/><path class="cls-13" d="M59.14,82.34l.44-1.28c2.3,1.84,5,.9,7.6,1.22-.43,7.41,1.65,14.72.91,22.14-1,1.48-1.84,3-4.11,2.47-2.52-.59-2.09-2.88-2.83-4.5,0-5,0-9.91,0-14.86C61.08,85.61,61.4,83.45,59.14,82.34Z"/><path class="cls-14" d="M41,83.31a2,2,0,0,0,2.2,2.19c-6,6.39-12,12.76-17.93,19.2-1.67,1.82-2.85,1.5-4.51-.08-1.86-1.77-.86-2.75.51-4Q31.14,92,41,83.31Z"/><path class="cls-15" d="M27.11,44.47c-2.83.5-5.74,4.13-8.45-.2-1.42,1.14-4.06.41-4.51,3-4.19-1.49-8.86-2-11.93-5.78,2-2.63,5.09-3.29,8-4.18C15.92,39.57,21.74,41.5,27.11,44.47Z"/><path class="cls-16" d="M21.08,65.28C15.07,66,9.25,64.2,3.3,64c-1.95-.09-3.44-.9-3.29-3.39s2-2.28,3.57-2.14c6.89.59,13.77,1.28,20.65,1.94C22.78,61.75,19.12,61.72,21.08,65.28Z"/><path class="cls-17" d="M76.65,42.33c1.47.68,3.32-1.94,4.58.53-2.53,3.71-6.39,6.1-9.34,9.39-.54.6-2.46,1-.83,2.41A3.58,3.58,0,0,1,66.6,51.2c-.14-2.72.76-5.67,4.58-5.73C74,46.17,74.34,42.53,76.65,42.33Z"/><path class="cls-18" d="M61.15,102.39c1.55,3.29,3.53,5.08,6.94,2,.27,2.43.44,4.88.83,7.3.42,2.6-.54,4.09-3.14,4.54s-3.18-1.42-3.46-3.19C61.77,109.54,61.52,106,61.15,102.39Z"/><path class="cls-19" d="M21.08,65.28c-.89-1.12-3.66-.87-2.78-3.19,1.11-2.93,4.05-.76,5.93-1.72,4.07.2,8.21-.34,12.2.92-4.58-.07-7.79,4-12.3,4.12Z"/><path class="cls-20" d="M37.21,5.71c1.62,2.38,6.44,4.06,1.43,7.9-.64.49.73,3.36-.59,5-2.59-2.42-2.56-6-3.74-9C33.55,7.64,36.12,7,37.21,5.71Z"/><path class="cls-21" d="M73.08,19.49c2.31-1,4.83-2.45,5,2-.66,2.86-1.16,5.77-2.88,8.25-.64-1.12-4-.43-2.17-3.2C73,24.17,71.86,21.83,73.08,19.49Z"/><path class="cls-22" d="M37.16,76.52c-2.71-.81-2.8-2.69-2-4.94,1.54-1.06,3.11-2,5.09-2a10.26,10.26,0,0,0,4,4C42.28,75.54,39.28,75,37.16,76.52Z"/><path class="cls-23" d="M10.25,37.3c-1.8,3.07-5.36,2.78-8,4.18-.21-1.11.74-1.79,1-2.68C4.65,33.79,7,33.71,10.25,37.3Z"/></g></g></svg>