<svg xmlns="http://www.w3.org/2000/svg" viewBox="0 0 111.33 109.6"><defs><style>.cls-1{fill:#2559d8;}.cls-2{fill:#6ea0ea;}.cls-3{fill:#4585e3;}.cls-4{fill:#4f88e6;}.cls-5{fill:#5990ec;}.cls-6{fill:#518ae8;}.cls-7{fill:#3271e1;}.cls-8{fill:#84b0e6;}.cls-9{fill:#87b4e9;}.cls-10{fill:#5891e2;}.cls-11{fill:#76a4e7;}.cls-12{fill:#77a7e5;}.cls-13{fill:#5c91e5;}.cls-14{fill:#669ce2;}.cls-15{fill:#76a4e8;}.cls-16{fill:#79abf0;}.cls-17{fill:#a3c6ef;}.cls-18{fill:#6a9ae5;}.cls-19{fill:#6491d7;}.cls-20{fill:#9dc5ef;}.cls-21{fill:#d1e7f6;}</style></defs><title>资源 3</title><g id="图层_2" data-name="图层 2"><g id="图层_1-2" data-name="图层 1"><path class="cls-1" d="M53.91,59,49,61.11c-3.4.62-6.75-.42-10.14-.32L0,64.7c1.39-2.55,3.33-2.15,5-2.34,13.62-1.56,27.25-3.06,40.87-4.63,1.63-.19,3.23-.64,4.84-1,2.82-.84,5.49-1.41,6-5.33.35-2.5,2.4-4,4.38-.61,2.25.31,1.94-1.85,2.8-2.89.7-1,.74-2.42,1.54-3.4,1.26-1.54,2.3-1.52,2.92.54-.14,2.65.64,5.49-1.62,7.68,2.27,4.24,6,1.84,9,1.66,5.24-.31,10.43-1.53,15.66-2.25,1.56-.21,3.35-.59,4.36,1.34L75.15,56.15c-2.15,2-4.64,2-7.27,1.27-1.09-.12-1.76.61-2.46,1.26-2.68,2-1.25,5.19-2,7.74-.34,1.09.55,2.9-1.81,2.49-2-1.08-1.42-3-1.77-4.75C59.18,61.05,57.74,58.6,53.91,59Z"/><path class="cls-2" d="M31.89,31c5.37.8,8,5.52,12,8.38,2.65,1.93,5,4.35,9.35,5.6-3.8-6.8-7.07-13-10.64-18.93S35.26,14.56,31.73,8.77C31,7.59,28.66,6.11,31,4.68c1.92-1.19,2.8,1,3.73,2.29,7,9.51,12.39,19.94,18.22,30.13.61,1.07.61,1.07,2.14.84a2.23,2.23,0,0,1,2.47,1c.76,3.36-1.57,6.12-2,9.36C55.26,51,47.94,50.16,44.89,47l2.87-.36c-5.75-4.22-11.16-8.07-16-12.6C31.94,33,31.09,32,31.89,31Z"/><path class="cls-3" d="M68,45.1c-3.42-2-2.31,2.58-4.16,2.84Q68.44,26.82,73,5.69c.14-.64.48-1.23.67-1.86.33-1.09.41-2.55,2.06-2.16s1.1,1.79.87,2.89c-1.4,6.8-2.77,13.61-4.28,20.38-.79,3.58-1.85,7.09-2.41,10.84,7.94-8.12,12.21-19,21.14-26.36C85.32,22.3,74.59,32.08,68.89,45A.51.51,0,0,1,68,45.1Z"/><path class="cls-4" d="M53.91,59c3.47-1.26,6.56.32,6.93,3.61.23,2.09-.39,4.33,1.23,6.14l-.5.6A2.76,2.76,0,0,1,58,68.84a7,7,0,0,0,.86-4.51c-.29-1.59-1-1.89-2.12-.6-.46,3.68-3.81,5.82-4.89,9.17C47.53,77.28,45.15,83,41.45,87.85c-3.18,4.14-6,8.56-9,12.83-.67.94-1,2.87-2.85,1.32-1.4-1.19-.64-2.53.2-3.51C34.66,92.81,37.9,86.07,42.2,80S50.59,67.8,54.74,61.64C55.49,60.53,57.17,58.94,53.91,59Z"/><path class="cls-5" d="M44.89,47a9,9,0,0,0,6,1.67c2-.17,7.15,1.14,3.36-4.18-.56-.78-.65-1.63.84-2.21C56.19,41.88,58,41,56.84,39a1.55,1.55,0,0,1,1.24-1.36c1.3,4.33,2.94,8.6,3,13.21-1.67-1.5-3.64-1.56-3.42.93.53,6.13-3.38,5.17-7,5l3-2.62c-7.14-5.4-16.14-5.56-23.75-9.23-.79-3.56,1.6-2.29,3.25-2.14A58.76,58.76,0,0,1,44.89,47Z"/><path class="cls-6" d="M58.08,37.62,56.84,39l-1.79-1Q51.74,22,48.44,6a28.34,28.34,0,0,1-.56-3.42C47.78,1.45,47.37,0,49.22,0a2.25,2.25,0,0,1,2.36,2.08C53.65,13.94,57.88,25.41,58.08,37.62Z"/><path class="cls-7" d="M62.07,68.75c1.42-1.78.58-3.71.47-5.63s-.64-4.32,2.09-5.25c3.31,2.55,4.2,6.33,5.13,10.09.44,1.3.88,2.6,1.31,3.91a1.1,1.1,0,0,1-1.46.23L65,65.23l-1,.25q3.87,20.83,7.73,41.65l-1.62.38C67,96.85,65,85.9,62.74,75c-.08-2.06-2.67-3.75-.91-6.08Z"/><path class="cls-8" d="M61.83,68.94q.45,3,.91,6.08l-2.17-2.93c-1.53,12.08-5.85,23-7.9,34.46-.18,1,.6,3.18-1.44,3-2.27-.15-1.61-2.26-1.34-3.54,1.32-6.29,2.85-12.54,4.23-18.81C55.46,81.12,56.72,75,58,68.84Z"/><path class="cls-9" d="M68,45.1a3,3,0,0,1,.85-.15c.51,2.82,2.1,1.69,3.65,1.06C81,42.57,88.7,37.88,96.38,33.1c2.7-1.68,5.21-3.8,9.07-3.28-1.4,3.36-4.64,3.53-6.85,4.84-10.51,6.23-20.66,13.13-31.88,18.1C66.86,50.16,66.86,47.53,68,45.1Z"/><path class="cls-10" d="M66.78,57.14l8.37-1c-.4,3.13,2.49,2.62,4,3.27,9,3.93,18,7.61,27,11.44,1.11.47,2.65.72,2.75,3-15-3.12-27.71-11.59-42-15.87a.52.52,0,0,1-.26-.52Q66.69,57.14,66.78,57.14Z"/><path class="cls-11" d="M38.85,60.79A12.21,12.21,0,0,1,49,61.11L23.85,72.88c-2.18.8-4.21,1.2-4.88-1.9,2.92-.74,5.39-2.43,7.87-4,3.77-2.4,8-3.52,12.16-4.73C40.76,61.74,40.1,61.16,38.85,60.79Z"/><path class="cls-12" d="M76.88,69.91c5.32,2,8,7.25,12.48,10.34,3.66,2.51,6.57,6,10.81,7.83,1.18.5,2.56,1.49,1.35,3-1.07,1.37-2,.07-2.94-.53A124.63,124.63,0,0,1,74.82,71C74.77,69.2,75.67,69.26,76.88,69.91Z"/><path class="cls-13" d="M31.89,31c.36,1.05,1.57,2.14-.16,3.08C25.88,29.72,20,25.43,14.21,21c-.89-.67-3-1.24-1.79-2.89s2.86-1.06,4.39.06C22.14,22.09,27.49,26,31.89,31Z"/><path class="cls-14" d="M69.61,72.1l1.46-.23c3.22.65,3.53,3.75,4.75,5.93,4,7.21,7.52,14.72,12.45,21.41.59.8.78,1.81.09,3.54C81,92.89,75.16,82.58,69.61,72.1Z"/><path class="cls-15" d="M33.15,42.78c-1.37.28-3.12,0-3.25,2.14l-21-6.16C6.57,37.51,7,36.24,8.91,35Z"/><path class="cls-16" d="M76.88,69.91A2.16,2.16,0,0,0,74.82,71c-2-.44-2.47-3.52-5.06-3-2.86-2.78-3.17-6.85-5.12-10.09a2,2,0,0,1,2.14-.73,3.76,3.76,0,0,1,.11.82,10.61,10.61,0,0,0,5.42,6A8.7,8.7,0,0,1,76.88,69.91Z"/><path class="cls-17" d="M19,71a5.12,5.12,0,0,0,4.88,1.9l-9.77,5.2a3.57,3.57,0,0,0-2.32-3.31Z"/><path class="cls-18" d="M11.76,74.77c3-.44,2.46,1.57,2.32,3.3-2.28.37-4.59,4.63-6.55,1.29C5.67,76.19,10.92,77,11.76,74.77Z"/><path class="cls-19" d="M111.33,51c-4.41.91-8.73,3.33-13.36.62C102.45,51.43,106.75,49.45,111.33,51Z"/><path class="cls-20" d="M8.91,35a2.77,2.77,0,0,0,0,3.8c-2.1,0-3.73-1.21-5.49-2C2.38,36.21,1.37,35.35,2,34c.79-1.62,2.24-1.32,3.32-.47A5.65,5.65,0,0,0,8.91,35Z"/><path class="cls-21" d="M51.86,72.9c.4-3.71,3.41-6,4.89-9.17C57.25,67.92,54,70.1,51.86,72.9Z"/></g></g></svg>