<svg xmlns="http://www.w3.org/2000/svg" viewBox="0 0 105.8 102.17"><defs><style>.cls-1{fill:#0628e3;}.cls-2{fill:#061fd3;}.cls-3{fill:#0833ee;}.cls-4{fill:#f9fbfa;}.cls-5{fill:#0d53f5;}.cls-6{fill:#2a88f4;}.cls-7{fill:#f8fbfa;}.cls-8{fill:#0d55f4;}.cls-9{fill:#0e59f1;}.cls-10{fill:#0931e8;}.cls-11{fill:#176ff3;}.cls-12{fill:#0f5cf4;}.cls-13{fill:#1f79f3;}.cls-14{fill:#1465f2;}.cls-15{fill:#1e76f1;}.cls-16{fill:#2a87f0;}.cls-17{fill:#63b0ec;}.cls-18{fill:#247eef;}.cls-19{fill:#fefefe;}</style></defs><title>资源 4</title><g id="图层_2" data-name="图层 2"><g id="图层_1-2" data-name="图层 1"><path class="cls-1" d="M30,30.82c2.94.43,5.36,2.17,8.05,3.23,1.91.72,3.14-.07,4.09-1.74,1.34-2.33,3.27-4.14,6.07-3.09s5.64,3.91,5.09,6.7c-1.06,5.26,1.66,6.22,5.54,6.88a2.53,2.53,0,0,1,1.22.83c0,4-3,4-5.65,4.44,4.84,4.3,12.28,3.57,17,8.4.56.57,1.35.93,2,1.49.94.88,2.29,1.6,1.89,3.18-.52,2-2.42-.48-3.21.87,4.47,7.69,10.8,13.8,17.2,19.8,2.2,2.07,2.34,3.17.32,5.45-2.28,2.56-3.38.65-4.7-.63-4.14-4-9.33-6.94-12.73-11.79-.81-1.15-2-1.75-3.08-.12-.49,3.07-2.89,3.16-5.23,3.34C61.08,75.85,60.48,72.73,60,70a107.57,107.57,0,0,1,.36,10.88c0,2.44-.08,4.93-1.67,7-1.34,1.71-2.88,3.44-5,.74C52,86.69,54,83,50.46,82.07c-3.2.26-4.94-1.28-5.44-4.36.33-3.64,2-6.91,3-10.35.13-.8.87-1.4.73-2.28-.36.51-.78,1-1.19,1.46-2.65,2.79-4.19,6.83-8.58,7.68-2-1-4.37-1.66-4.9-4.35,1.39-1.83,2.81-3.63,4.15-5.49,1.21-1.67-.28-1.35-1.14-1.47-2.07.29-1.65-1.18-1.39-2.19A41.66,41.66,0,0,1,37.06,56l4.55-2.56c-8.73-.51-17,2.07-25.59,2,1.54-3.68,5.07-5.25,8-7.49l9-1.59c-3.29-3.87-8.15-3.74-12-5.68-2.13-5.64-.78-8.32,4.93-8.92C27.36,31.61,28.51,30.47,30,30.82Z"/><path class="cls-2" d="M72.05,62c.79-.92,4-1,.65-3.21-2.38-1.55-5.51-2.34-6.88-5.35a1.58,1.58,0,0,0-2.26-.27c-2.27,2.08-3.57.35-4.84-1.15a8,8,0,0,0-5.18-2.67c-.88-.13-2.21.66-2.3-.92s1.4-1.64,2.51-1.57c2.69.16,5-.32,6.24-3A5.48,5.48,0,0,0,59.63,41a1.31,1.31,0,0,1,.23-1.13C63.49,28.91,67.23,18,71.71,7.43,72.52,5.52,73,3.72,75.87,5,78.3,6.16,78.92,7.43,78,10c-2.44,6.3-4.68,12.68-7,19.12,1.64.42,1.92-1.21,3-1.43a6.3,6.3,0,0,1,5.06,4L77.7,33c-.78,3.19-.08,6.48-.66,9.68l-3.51,2.58L99.72,42.4c1-.11,2-.25,3-.43,1.84-.35,2.8.31,3.06,2.22s-.18,3-2.41,3.42c-6.54,1.16-13.06,2.4-19.74,2.48-1.43,0-3-.44-4.55,1L86,54.9c1,1.88,1.4,4.08,2.9,5.76,2.14,2.4,1.53,4.51-.94,6.28A105.09,105.09,0,0,1,72.05,62Z"/><path class="cls-3" d="M60.09,40.84c3,1.11,1.35,2-.1,3-2.13.38-4.12-.62-6.26-.71-2.92-.12-2.32-3.27-1.66-5.32,1.36-4.22-1.76-6.26-4.33-7.62-2.41-1.28-3.92,1.13-4.91,3.53-1.17,2.81-2.89,4.46-4.76.33,1.61-2.86-.92-4.48-2.06-6.4a45.17,45.17,0,0,0-4-5c-.12-1.42-.25-2.83-.5-4.25-.31-1.77-.27-3.64,2.41-3.54l10.14,9.49C41.93,18.6,39.78,12.91,37.7,7.19,37,5.19,36,3.3,39.35,2.24s3.57,1,4.31,3.05c1.49,4,3.05,8,4.51,12.08S51,25.5,52.41,29.55c1.82-1.06,1-3.12,1.6-4.68,3.59,2.92,3.91,7.13,4.47,11.27C58.7,37.8,57.6,39.94,60.09,40.84Z"/><path class="cls-4" d="M51.14,80.92c.67-.49,1.49-2,2,0,.52,2.25.73,4.58,1.07,6.87,1,4.55,4.1,9.07.19,13.69-4.56,1.73-9.41-2.31-13.92.67-4.71-5.39-12.89-5.06-17.51-10.6-.28-1.53.71-2.5,1.64-3.41,4.85-4.71,9.27-9.86,14.5-14.18Q43,69.86,47,65.75a2.31,2.31,0,0,1,2.2,1.12q-1.63,5.4-3.26,10.81c-1.06,1.28.75,3.43-1.33,4.4-.92.37-1.89-.59-2.83.08.42,1,1.62,1.17,1.95,2.18a10.73,10.73,0,0,1-3,9.66c-2.54-.11-2.45-2.31-3.08-3.92-.52-1.33-1.2-2.52-2.83-2.27a3.79,3.79,0,0,0-3.16,3.42c-.36,1.83.72,2.74,2.28,3.34,1.73.66,3.69,0,5.35,1,3.36,3.32,3.94,3.23,5.78-.76C47.16,90.23,47.49,84.85,51.14,80.92Z"/><path class="cls-5" d="M30,30.82c-.67,1-.9,3-2.41,2.57-7.07-1.84-6.68,2.84-6.66,7.3-6-1.06-10.46-5.64-16.2-7.37-1.63-.49-1.07-1.75-.62-2.85.75-1.85,1.56-3.67,2.25-5.53.92-2.5,2.36-3.24,4.94-2.1C17.51,25.59,23.78,28.17,30,30.82Z"/><path class="cls-6" d="M37.06,56c2.57,2.32-1.82,4.62,0,6.94-8,4.69-15.54,10.17-24,14.08-1.53.7-3.51,2.71-5-.27-1.19-1.92-.28-3.43,1-4.86C18.85,67.39,26.81,59.65,37.06,56Z"/><path class="cls-7" d="M59.15,80.72V66.08c2,4.64,3.48,8.16,5,11.67,2.59,2.41,2.74,5.91,3.94,8.93C69.6,90.51,71.25,94.27,73,98c-5.18,2.17-10.38,4.23-16.18,3.62a10.37,10.37,0,0,0,1.88-8.24C57.79,89.15,60.4,85,59.15,80.72Z"/><path class="cls-8" d="M60.09,40.84c-2.08,1.58-2.3-.2-2.1-1.42.9-5.5-2.92-9.64-4-14.55,1-7.4,1.88-14.79,2.87-22.18.19-1.46.3-3.14,2.65-2.58C61.44.57,62.26,1.47,62,3.6c-1,8.4-1.89,16.81-2.6,25.24-.31,3.65-1.61,7.41.45,11C59.94,40.17,60,40.5,60.09,40.84Z"/><path class="cls-9" d="M77,42.65C75.76,39.32,74.58,36,77.7,33c.81,1.44,1.61.5,2.38,0,5-3.38,10.83-4.85,16.39-7,2.58-1,3.16.57,4,2.18.77,1.41.73,2.48-1.06,3C91.28,33.65,84.57,39,77,42.65Z"/><path class="cls-10" d="M87.94,66.94c.72-2.34,2.08-4.56-.85-6.7A4.26,4.26,0,0,1,86,54.9c6.15,1.16,11.27,4.69,16.72,7.41,3.92,2,.36,4.56-.06,6.8s-1.87,2.67-4.06,1.7C95.13,69.29,91.2,69,87.94,66.94Z"/><path class="cls-11" d="M39.06,74c-4.4,6.76-11,11.52-16.14,17.59-5.25-3.34-5.44-5-1.08-9.43Q28,76,34,69.87C35.81,71.11,37.82,72.08,39.06,74Z"/><path class="cls-12" d="M24,48c-1.8,3.4-4.69,5.66-8,7.49-3.76.57-7.58.89-11.26,1.77-3.89.93-4.29-1-4.68-4.11-.45-3.58,1-4,4.1-4.09C10.79,48.9,17.39,48.34,24,48Z"/><path class="cls-13" d="M73,98c-2.25,0-2.59-1.85-3.14-3.32-2.09-5.58-4.52-11-5.72-16.94l4.93-3c3.58,6.15,5,13.16,7.7,19.66C77.82,97,74.11,96.6,73,98Z"/><path class="cls-14" d="M78.92,31.62a10.85,10.85,0,0,1-5.06-4c3.83-4.81,8.65-8.63,12.92-13,1.56-1.6,2.72-1.5,4,.15.9,1.17,3.1,2.06,1,4C87.34,22.87,84.07,28.2,78.92,31.62Z"/><path class="cls-15" d="M33.93,14.85c-3.75,1.84.79,5.7-1.91,7.79-2.71-3.22-5.51-6.37-8.09-9.68-.73-.94-3.69-1.86-.88-3.6,1.83-1.14,3.71-4,6.17-.74Z"/><path class="cls-16" d="M59.15,80.72c1.57,6,.54,12.11,1.44,18.12.46,3-2.7,1.6-3.78,2.79l-2.46-.13c1.07-4.58-.52-9.12-.19-13.69.89,1,1.58,1.93,3,.31C59,85.9,58.71,83.24,59.15,80.72Z"/><path class="cls-17" d="M9,71.86c-.33,1.62-.65,3.24-1,4.86C6.47,74.71,4.43,72.62,9,71.86Z"/><path class="cls-18" d="M51.14,80.92c-1.89,5.47-3.82,10.93-5.67,16.42-.58,1.74-1.24,3-3.49,2.42s-3.78-1.27-2.93-4A2.08,2.08,0,0,1,40,93.73c2-3,2.68-6.4,3.38-9.82a1.56,1.56,0,0,1,.71-2c.62-1.41,1.23-2.83,1.85-4.24C46.68,80.31,48.33,81.55,51.14,80.92Z"/><path class="cls-19" d="M49.16,66.87A2.33,2.33,0,0,1,47,65.75c.73-1.66,2.14-2.71,3.74-4.11C51.08,63.87,50.05,65.35,49.16,66.87Z"/><path class="cls-19" d="M40,93.73l-.91,2.08c-6.51,1.31-10.2-1.08-8.69-5.62.81-2.43,2.53-4.18,5-4.15,2.85,0,3.61,2.31,3.7,4.9A10.43,10.43,0,0,0,40,93.73Z"/><path class="cls-19" d="M44.05,81.92c-.23.66-.47,1.33-.71,2-1.37-.26-3.17.32-3.69-1.64a2,2,0,0,1,.72-1.72C42,79.62,43.07,80.78,44.05,81.92Z"/></g></g></svg>