<svg xmlns="http://www.w3.org/2000/svg" viewBox="0 0 114.38 112.04"><defs><style>.cls-1{fill:#232f45;}.cls-2{fill:#253247;}.cls-3{fill:#2b384e;}.cls-4{fill:#c5d5e5;}.cls-5{fill:#b5c4d8;}.cls-6{fill:#95a6b9;}.cls-7{fill:#758597;}.cls-8{fill:#8b99ae;}.cls-9{fill:#8592a7;}.cls-10{fill:#7c8ca0;}.cls-11{fill:#2e3a4a;}.cls-12{fill:#687586;}.cls-13{fill:#a8b5c7;}.cls-14{fill:#b4c2d3;}.cls-15{fill:#bdccda;}.cls-16{fill:#253142;}.cls-17{fill:#738196;}.cls-18{fill:#2c3b51;}.cls-19{fill:#d7e3ec;}.cls-20{fill:#d2e0ef;}.cls-21{fill:#4b5664;}.cls-22{fill:#738293;}.cls-23{fill:#5b6b7f;}.cls-24{fill:#8d9cae;}.cls-25{fill:#92a1b5;}.cls-26{fill:#8996ab;}.cls-27{fill:#4b5b71;}.cls-28{fill:#8493aa;}.cls-29{fill:#2b3b50;}.cls-30{fill:#a7b7cb;}.cls-31{fill:#6d7a8f;}.cls-32{fill:#98a8bd;}.cls-33{fill:#c5d5e7;}.cls-34{fill:#455468;}.cls-35{fill:#98a9bd;}.cls-36{fill:#8e9db0;}.cls-37{fill:#6e7c92;}.cls-38{fill:#c0cfe3;}.cls-39{fill:#a8b6cd;}.cls-40{fill:#657589;}.cls-41{fill:#2a374e;}.cls-42{fill:#46566a;}.cls-43{fill:#48586c;}.cls-44{fill:#222f45;}.cls-45{fill:#202d43;}.cls-46{fill:#243348;}.cls-47{fill:#9dacc1;}.cls-48{fill:#8f9db2;}.cls-49{fill:#27364b;}.cls-50{fill:#a6b6ca;}.cls-51{fill:#27374b;}.cls-52{fill:#b7c7da;}.cls-53{fill:#a1b1c6;}.cls-54{fill:#98aac0;}.cls-55{fill:#212d43;}.cls-56{fill:#2d3b50;}.cls-57{fill:#9caabf;}.cls-58{fill:#758599;}.cls-59{fill:#8695aa;}.cls-60{fill:#68768b;}.cls-61{fill:#607083;}.cls-62{fill:#3a4a5e;}.cls-63{fill:#566479;}.cls-64{fill:#5b697e;}.cls-65{fill:#8697ab;}.cls-66{fill:#213045;}.cls-67{fill:#afbed3;}.cls-68{fill:#7d8ca1;}.cls-69{fill:#404f64;}.cls-70{fill:#99a8bd;}.cls-71{fill:#344358;}.cls-72{fill:#4d5c71;}.cls-73{fill:#a2b0c5;}.cls-74{fill:#2c3a4f;}.cls-75{fill:#8796aa;}.cls-76{fill:#b8c8dc;}.cls-77{fill:#96a5ba;}.cls-78{fill:#56657a;}.cls-79{fill:#8693a8;}.cls-80{fill:#adbcd1;}.cls-81{fill:#a3b2c6;}.cls-82{fill:#677489;}.cls-83{fill:#455469;}.cls-84{fill:#8a99ae;}.cls-85{fill:#4c5c70;}.cls-86{fill:#79889c;}.cls-87{fill:#4a5a6e;}.cls-88{fill:#27364a;}</style></defs><title>资源 5</title><g id="图层_2" data-name="图层 2"><g id="图层_1-2" data-name="图层 1"><path class="cls-1" d="M56.05,2.78C61,3.85,66.1,4,70.82,6c1.36.5,3,.39,4.11,1.37,1.65,1.44,1.89,2.73-.83,3.11a51,51,0,0,0-35.45,8.75c-4.08,2.79-7.76,6.53-8.93,11.86-.25,1.14-1.16,2-1.66,3.05C27.63,39.77,25,44.48,21.89,49a4.53,4.53,0,0,0-3.68,2.2c-.6.28.22.33-.37.27-5.94-.54-8.3,4.72-12.21,7.44a2.83,2.83,0,0,1-2,.47,1.61,1.61,0,0,1-1-.8c-.54-1.48.05-3.1-.52-4.58a18.44,18.44,0,0,1,.09-4.2A45.26,45.26,0,0,1,18,16.53a29.73,29.73,0,0,1,4.48-3.74c.62-.42,1.26-.82,1.91-1.19A51.81,51.81,0,0,1,56.05,2.78Z"/><path class="cls-2" d="M95.12,90c-3.6,4.14-7.17,8.3-10.8,12.41a7.18,7.18,0,0,1-2.59,2.26c-15.15,5.18-30.28,10.77-46.6,4.92-.61-1.2-.07-2.13.71-3a2.27,2.27,0,0,1,1.26-.19,10.62,10.62,0,0,0,4.28.89c2,.22,3.91,1.17,6,.92.59-.31,1.17-.76.78-1.44-.49-.87-1.44-.37-2.2-.43-1.13,0-2.23-.22-3.35-.28s-2.26,0-3.4,0c-2.28-.3-4.65-.11-6.75-1.3-1.57-1-3.4-1.42-5.1-2.15a24.58,24.58,0,0,1-4-2.71C20,97.26,20,97,24.32,95c2.25-.11,4.46.61,6.72.4a35.86,35.86,0,0,1,3.74.11c4.58.9,8.26,4,12.74,5.19,1.58.73,3.74-.5,5,1.45a4.88,4.88,0,0,1,.38,1.27c.76,2.54,2.57,1.18,3.91.9,1.69-.34,3.26-1.26,5.08-1l1.34-.07c2.6-.7,5.1-1.69,7.67-2.46,2.54-2.1,5.57-3.1,8.67-4,2.81-.85,4.84-2.55,5-5.78,1.5-1.59,3,1.55,4.51,0,2-.77,3.58-2.92,6.14-2.34A1.15,1.15,0,0,1,95.12,90Z"/><path class="cls-3" d="M24,12.94l-.71.92c-3-.7-3.49,2.53-5.45,3.48-4.56,4-8.68,8.39-11.46,13.91C5.64,32.71,5.55,35,3,34.81,2.17,25,6.68,17.69,14.14,11.87,23.75,4.36,34.27-.68,46.87.07,48.94,2.88,48.72,3.38,45,3.78c-6.57.72-12.32,3.73-18.18,6.42A9,9,0,0,0,24,12.94Z"/><path class="cls-4" d="M35,96.55c-1.34.62-2.67.06-4,0a2.28,2.28,0,0,1-.65-1.21c-.6-.54,2.68-2.13-.76-2.13a40.55,40.55,0,0,1-8.8-1.06c-1.39-.3-2.61-.27-3.58.91-1.64,1.12-3.47.44-5.22.56-2.76.59-4.22-1.65-6.18-2.83-2.14-2.3-2.11-5.56-3.62-8.14.3-3.14,1.61-3.86,4.1-1.69a11.51,11.51,0,0,0,4.23,2.17C16.39,87.41,23,88,29.85,86.79a5.63,5.63,0,0,1,4.67,2.77,18.8,18.8,0,0,0,2,2.63,10.75,10.75,0,0,1,1.25,1.52C39.3,97,36.16,95.82,35,96.55Z"/><path class="cls-5" d="M101.87,26.87a12,12,0,0,1,6,8c-.78,1,1.68,3.43-1.52,3.3-4.93-4-6.13-3.6-7.64,2.4-.32,1.25-.67,2.5-1.08,3.74-.74,2-1,4.15-2,5.94s-2.5,4-5.19,1.78a4.63,4.63,0,0,1,.48-3.35c1.76-4.47,1.07-5.78-3.46-7.12-2.22-.66-4.71-.1-6.74-1.55-.73-1.7-2.66-3.6.76-4.6,3.75,1.35,8.18-.09,11.58,2.89.5.44,1.17-.36,1.12-1.11a1.45,1.45,0,0,0-1.7-1.42c-2.79.37-5.62-.34-8.39.35a2.18,2.18,0,0,1-2.27-.49,1.9,1.9,0,0,1-.09-2.06c1.86-2,4.35-2,6.77-2.06S93.36,31,95.17,29c1-.84,2.17-.62,3.32-.56C101.49,31.87,101.09,28.13,101.87,26.87Z"/><path class="cls-6" d="M9.93,83.79c-1.56.23-3.07,0-3.93-1.41-1.51-2.49-2.65-1.67-3.79.24q-1-6.41-2-12.8c1.13-1.66,3.48-1.57,4.62-3.2A1.81,1.81,0,0,1,6,66.49c.78.51,1.37,1.45,2.53,1.12a19.75,19.75,0,0,1,5.76-1.31,2.38,2.38,0,0,1,2,1.73c-.85,2.51-2.24,4.48-5.21,4.33-2.36-.11.19.28,0,.65C9,76.39,12.73,80.42,9.93,83.79Z"/><path class="cls-7" d="M113.76,55.61c.63,8-2.55,14.37-8,19.88-3.29,2.65-7.53,3.54-11,5.92a3.06,3.06,0,0,1-2.71-.35c2-5.07,6.6-7.76,10.54-11A23.89,23.89,0,0,0,106,67.29c2.13-1.09,3.46-2.5,2.36-5.12a3,3,0,0,1,.15-2.88c1.78-2,.8-4.17.74-6.29a4.28,4.28,0,0,1,1.54-2.38C114.09,50.94,112.63,54,113.76,55.61Z"/><path class="cls-8" d="M3,34.81C5.79,29.2,9.7,24.39,13.58,19.53c1.2-1.51,2.35-2.61,4.28-2.81a.79.79,0,0,1,1.33.13,47.12,47.12,0,0,0-16,33.07c-1.05-.2-1,1.92-2.35,1.1Q1.93,42.92,3,34.81Z"/><path class="cls-9" d="M24,12.94c.24-5.13,5.12-4.71,8-6C36.56,5,41,2.1,46.54,2.6c1.88.17.81-1.56.33-2.53,3.3.1,6.84-.64,9.18,2.71-4.81.86-9.62,1.71-14.42,2.59C35.18,6.56,29.67,9.94,24,12.94Z"/><path class="cls-10" d="M95,88.19c-1.79,1.55-3.42,3.38-6.06,3.39-1.8-.65-2-2.19-2.1-3.78,0-2.56,1.32-4,3.77-4.46,1.81-.37,3.19-1.71,4.93-2.28,2.21-.83,4.39-2.08,6.72-.32a1.9,1.9,0,0,1-1.19,2C98.05,83.45,98.18,87.67,95,88.19Z"/><path class="cls-11" d="M5.83,90.76c2.45-.39,3.53,2.89,6.07,2.26A5.09,5.09,0,0,1,16,95a64.66,64.66,0,0,0,4.67,6.28,1.94,1.94,0,0,1-.62,1.87C14.9,99.48,8,97.88,5.83,90.76Z"/><path class="cls-12" d="M20,103.18l-.18-2.2c1.83-1.35,2.83.83,4.28,1,1.28.13,2.69,2.18,3.87-.14a8.58,8.58,0,0,1,5.06,1.9c-.71,1.27-.07,1.57,1.09,1.58,1,0,2.38-.36,1.9,1.52l-.9,2.73A41.75,41.75,0,0,1,20,103.18Z"/><path class="cls-13" d="M74,9.81c1-.26,2.21-.61.71-1.73A28.38,28.38,0,0,0,70.82,6c6.46-1.42,10.07,3.28,14.28,6.68a2.17,2.17,0,0,1-1.4,1.67c-3.6,0-7-.48-9.79-3.12A1.35,1.35,0,0,1,74,9.81Z"/><path class="cls-14" d="M5,67c.37,4.22-3.48,1.41-4.78,2.86C1.56,66.33-1.25,62.18,1.92,59A.66.66,0,0,1,3,58.79l0,0C7,60.72,7,63.59,5,67Z"/><path class="cls-15" d="M102.26,80.74c-2.53-.45-4.72,1.67-7.28,1a.8.8,0,0,1-.13-1.27c3.07-2.9,6.9-4.12,10.91-5A5.42,5.42,0,0,1,102.26,80.74Z"/><path class="cls-16" d="M113.76,55.61q-1.31-2.51-2.59-5c-.45-2.35-2.26-4.54-.87-7.12.71-.84,1.12-2.14,2.65-1.66C115.6,46.27,113.75,51,113.76,55.61Z"/><path class="cls-17" d="M113,41.8l-1.93,2c-.31-.16-.5-1.2-1,0-.33.84-.3,2.44-2.06,1.95-1.6-2.48-2.58-5-1.09-7.94,1.87-.48-1.17-2.62,1-3A22.11,22.11,0,0,1,113,41.8Z"/><path class="cls-18" d="M101.87,26.87a20.43,20.43,0,0,0,.77,2.2c.75,1.58.54,2.94-1.17,3.5s-2.7-.25-2.68-2.18c0-.58-.46-1.15-.72-1.73a2.44,2.44,0,0,1-.94-2c.62-3.24,2.3-1.77,3.85-.87Z"/><path class="cls-19" d="M88.92,14.84c3.28.38,4.61,3.47,7,5.05.27,2.11-1,2.51-2.71,2.44C91.4,21,89.31,20,87.61,18.48a3.19,3.19,0,0,1-.19-1.37A4.6,4.6,0,0,1,88.92,14.84Z"/><path class="cls-20" d="M93.13,21.8A2.94,2.94,0,0,0,96,19.89l2.11,2.65c-1.57,1.39-.5,2.83-.09,4.26,0,.62.07,1.24.1,1.86-.59,1.12-1.27.42-1.94.1-1.46-1.54-3.2-2.8-4.58-4.44a2.84,2.84,0,0,1,0-1.36A1.84,1.84,0,0,1,93.13,21.8Z"/><path class="cls-21" d="M95,88.19c2.09-1.74,2.21-5.68,6.07-5.44A29,29,0,0,1,95.12,90Z"/><path class="cls-14" d="M.83,51c1,.18.79-2.39,2.35-1.1,0,1.62-.07,3.24-.1,4.86-1,.9-1,2.48-2.31,3.11C-.94,55.59.7,53.31.83,51Z"/><path class="cls-22" d="M88.92,14.84,88.14,17c-1.17.74-2.31,1.94-3.67.29A4.81,4.81,0,0,1,84,13.85l1.08-1.17C86.35,13.43,87,15.29,88.92,14.84Z"/><path class="cls-23" d="M.77,57.89c1.15-.76-1.59-4.39,2.31-3.11,1.93,1.37-.37,2.67-.07,4L1.92,59Z"/><path class="cls-24" d="M98,26.8c-.26-1.42-3.79-2.93.09-4.26,1,1.07,2.58,1.61,2.92,3.25C100,26.22,98.13,24,98,26.8Z"/><path class="cls-25" d="M20.87,48.41c2.61-4.65,5.84-9,6-14.71,1.75-1.19,2.91.32,4.27.93s2.16,2,3.7,2.29c2,.26,4.77-.3,3.87,3.35-1,1-1.15,3-3,3.09-3.83.26-4.67,3-5.25,6,1.16,2.11,3.73-.44,4.92,1.5.68,1.72,0,3.25-.65,4.79-1.19,1.72-2.25,3.54-3.53,5.2-2,.37-1.78-1.21-2.15-2.57-.47,2.42.42,3.67,2.63,4,6.5,0,12.68-1.58,18.76-3.64,1.48-.5,2.88-.93,4.13.45,1.86,2.7-1,3.67-2,5.3-6.41,1-12.52,3.44-19,4.08-2.33,0-4.7.26-6.77-1.2a4.1,4.1,0,0,1-1.3-1.64,9.32,9.32,0,0,1-.17-5.36c-.12,1-.87,2.54-3.47,1.69-1.28-2.5-.57-6.11-4.12-7.35C17.16,51.76,19.13,50.14,20.87,48.41Z"/><path class="cls-26" d="M31,35.8l-4.14-2.1c2.19-3.18,3.1-7,5.73-10C42,12.88,54.07,9,67.86,9.19c2,0,4.27-1.23,6.14.62,0,.32,0,.64,0,1-1,2-2.8,1.5-4.38,1.38a40.38,40.38,0,0,0-30,9.82c-3,2.48-3.94,5.62-5.11,8.83C33.78,32.85,33.46,35,31,35.8Z"/><path class="cls-27" d="M5,67c-.15-4.23-.51-5.81-1.92-8.21l1.89,0C7.67,59,8.88,55,12,56.24a3.07,3.07,0,0,1,1.62,2.12c.29,1.77-1.56,3.23-.75,5.07.34,1.15,1.73,1.88,1.33,3.33L8.1,68.86a1.66,1.66,0,0,1-.57-1.22c0-.78.56-1.37.76-2.08-1,.11-1.44,1.17-2.39,1.35l-.47-.06Z"/><path class="cls-28" d="M12,56.73c-1.25.14-2.51-.13-3.16,1.62-.88,2.32-2.47,1.49-3.9.37,3.82-3.49,5.55-10.43,13-7.83C18.14,55.05,14.05,54.85,12,56.73Z"/><path class="cls-29" d="M12,56.73c1-2.95,5-2.82,6-5.84,0-1.9,0-4,2.9-2.48l-2.76,6.4c-.06.23-.13.45-.19.67C16.58,57,15.47,58.89,13,58.78,12.68,58.1,12.34,57.41,12,56.73Z"/><path class="cls-9" d="M19.19,16.85l-1.33-.13a30.43,30.43,0,0,1,3.45-4.18c1.58-1.37,1.82.09,2,1.32Z"/><path class="cls-30" d="M36,92.73a2.62,2.62,0,0,1-1.81-2.14,4.86,4.86,0,0,1,3.35-2,46.45,46.45,0,0,1,6.24-.24c4.5.46,8.92-1.41,13.43-.44a28.41,28.41,0,0,0,7.29,3.2A1.44,1.44,0,0,1,65.09,93c-5.78,2.7-12,3.14-18.62,3.63.11,1.59,2.44,1.76,2.26,3.34a2.2,2.2,0,0,1-.77,1.93c-5-.13-8.33-4.27-12.94-5.3,0-1.34,3.68,0,1.95-2.65,1.11-1.3,2.65-1.05,3.94-1.15C39.37,92.2,37.67,93.82,36,92.73Z"/><path class="cls-31" d="M85,90.82c1.25,3.44.06,5.26-3.47,6.37s-7,3-10.56,4.52h-.64c-3.6-.25-2.6-2.6-2.14-4.7.33-1,.22-2.07.58-3.06,1.55-1.66,3.91-1.61,5.71-2.74a3.86,3.86,0,0,1,1.27,0c1.2.39,2.33.5,3.08-.83a9.91,9.91,0,0,1,.75-1,19.78,19.78,0,0,1,1.84-1.59c.63-.52,1.14-1.24,2.07-1.29,1.41.59,1.66,1.9,2,3.17A1.51,1.51,0,0,1,85,90.82Z"/><path class="cls-32" d="M28,101.81c.49,1.11,2,1.69,1.76,3.5C26.23,104,22.83,103,19.83,101c-2.81-.67-3-3.59-4.58-5.33,3-.26,6-2.83,8.88.16l-2.52,1.27C23.75,98.66,25.87,100.23,28,101.81Z"/><path class="cls-33" d="M24.13,95.81c-2.94-1.26-5.94,1.15-8.88-.16C14.74,94,12.7,94.31,11.9,93c1.67-1.38,3.51.28,5.22-.31,4.92-.25,10-1.19,13.91,3.06,0,.25,0,.5,0,.75C28.62,97.31,26.41,96.24,24.13,95.81Z"/><path class="cls-34" d="M63,104.76l-1.05-.09a4,4,0,0,0-4.87-.53c-1.66.8-3.38,1-4.95-.31l0-1.21a9.29,9.29,0,0,1,2.53-2.14C57.82,99.9,61,98,64.33,100A5.18,5.18,0,0,1,63,104.76Z"/><path class="cls-35" d="M43,104.76l2.93.89c2.77.3,2.32,2.18,2,4-2.4-.33-4.84-.53-7-1.85C39.69,105.82,39.69,105.82,43,104.76Z"/><path class="cls-36" d="M52.09,103.83c1.78-.22,3.58,0,5.36-.8s3.64-.7,4.46,1.64C58.74,104,56,106,52.84,106,49.46,106,52,104.65,52.09,103.83Z"/><path class="cls-31" d="M63,104.76a10,10,0,0,1,.94-4.87,1.62,1.62,0,0,1,1.28-.54,25.8,25.8,0,0,0,5.86,2.4l-.05,0Z"/><path class="cls-37" d="M85,90.82v-1c-.65-1-.91-2.17.17-3,.91-.71,1.82,0,2.65.49l1.11,4.28C87.6,94.25,87.6,94.25,85,90.82Z"/><path class="cls-38" d="M55,101.63l-2.88,1c-1.07-1.84-3,.59-4.11-.77l0-2c1.75-1.66,3.78-1.56,5.9-1C55.05,99.48,56,100.18,55,101.63Z"/><path class="cls-39" d="M36,106.81c-.81-1.4-1.78-.71-2.82-.3-.74.3-1.68.26-1.94-.71-.39-1.41.41-2,1.77-2.09,1.8,1.3,4,.51,5.92,1.07.38,1.75-.57,2.28-2.1,2.28A2.22,2.22,0,0,0,36,106.81Z"/><path class="cls-40" d="M47.94,109.66l-2-4c1.22-1.15,2.91-1.56,3.76-.17C50.77,107.18,50.1,108.93,47.94,109.66Z"/><path class="cls-12" d="M36.86,107.06a3.13,3.13,0,0,0,2.1-2.28l4.08,0c.78,2-4,.25-2.08,3C39.39,108.67,37.9,109.09,36.86,107.06Z"/><path class="cls-41" d="M9.93,83.79c.89-2.22-.35-4.12-.83-6.16-.6-2.55-1.72-5.33,2.67-6.14,1.66-.31,3-2.35,4.48-3.59.67-2,1.91-1.26,3-.57,1.78,1.1,3.93,1.58,5.44,3.14,2.9,2.37,3.92,5.66,4.51,9.16,0,2.71,2,5.25.75,8.07C22.66,89.64,15.84,89,9.93,83.79Z"/><path class="cls-42" d="M31,95.77c-2.89-1.73-6.16-1.73-9.37-2-1.57-.13-3.28.39-4.54-1.05-.41-1.46-.76-2.42,1.66-2,4.81.89,9.72,1.3,14.63,1.92C33.19,94.47,30.86,94.09,31,95.77Z"/><path class="cls-10" d="M30,87.7c-.64-2.65-1.27-5.3-1.91-8,1-.5,1.72.07,2.45.62,1.79,1.86,2.43,4.7,5,5.86,1.07.84,2.47,1.53,1.63,3.31-1,.46-1.79,1.36-3,1.06C32.87,89.48,32.09,87.63,30,87.7Z"/><path class="cls-43" d="M36,92.73l8.8-1.39c-2.05,3.57-5.22,1.81-7.81,2.56Z"/><path class="cls-44" d="M58.05,88.61c-4.68.3-9.29,1.37-14,1-.86-.41-1.57-.9-1.15-2a4.56,4.56,0,0,1,1.71-1c.82-.33,1.63-.69,2.44-1.07,6.23-2.33,12.18-5.35,18.48-7.52a8.81,8.81,0,0,0,4.11-2C73,72.88,77.42,71.1,80,67.11c2.18-3.26,5.68-5,8.64-7.33,5.89-3.72,8.72-9,8.18-16,.34-1.44.65-2.89,1-4.32.52-1.92-.34-5,2.41-5.23,2.56-.21,5.53.44,6.64,3.64.63,2.71,1.26,5.41,1.88,8.12,2.19,1.78,1.14,4.05,1,6.2-.91,5.24-.1,10.88-3.64,15.51-.23.76,1,2,0,2.21-6.38,1.43-8.87,7.95-14.26,10.62C89.3,83.44,86,84.46,82.29,84.3c-1.65-.27-3,.62-4.31,1.36-3.38,1-6.8,1.76-10.23,2.51C64.53,88.77,61.34,89.77,58.05,88.61Z"/><path class="cls-45" d="M33.11,67.86c6.13-2.18,12.56-3,18.93-4.06,3.1-1.7,6.21-3.36,9.44-4.81,3.73-1.74,7.64-3,11.48-4.47,2.62-1,4.43-2.65,4.54-5.81s-1.75-4.38-4.07-5.55c-1-.52-2.84-.35-2.45-2.39,3.09-2.58,6.44-3.08,10.06-1.22.82.06,1.64.15,2.46.16,9.94.2,12,3.62,7.34,11.9-.4.84,0,1.86-.61,2.65-3.43,4.6-7.73,8.38-11.79,12.39-4,2.55-8.78,2.82-12.87,5A10.87,10.87,0,0,1,62,72.9,17,17,0,0,0,56.93,74c-3.64,1.54-7.65.58-11.36,1.69-4.32-.59-9.7,2.48-12.46-3.57C32.72,70.71,31.76,69.28,33.11,67.86Z"/><path class="cls-46" d="M29.11,50.16c.36-3.82,1.53-7.9,5.78-7.8,2.71.06.8-3.37,3-2.42.47.26,1.15.34,1.38,0,3.84-5.86,10.44-4.8,16-6.43a14,14,0,0,0,3.69-1.46c1.6-.81,3.32-1.34,4.92-2.15,5-2.08,10.67-1.7,15.77-3.58a11.44,11.44,0,0,0,3.7-1.05c2.94.39,5.53-1.73,8.49-1.22,2.32.78,4.36,1.81,4.36,4.71-.13,4.1-3.45,3.64-5.92,3.8A26.27,26.27,0,0,0,82,34C76.37,37.11,70,38.23,64,40.46c-3,1.13-6,2.35-9.4,1.77-4.38,2.35-9.77,2.82-13.68,5.32S33.09,49.65,29.11,50.16Z"/><path class="cls-47" d="M54,41.89c3-1.44,6.54-.84,9.33-3S69.92,37.47,73.2,36c2.36-1.07,5.6-2.76,8.84-2l.26,2,.07,0c-3.6.09-.17,2.71-1.33,3.67-3.46.07-7-.17-10,2.12a.92.92,0,0,1-.2,1.36c-4.74-.51-9.13,1.52-13.75,1.89C55.45,44.55,53.83,44.13,54,41.89Z"/><path class="cls-48" d="M89.75,53.53l1.09-1.92c2.51,1.14,3.39-.34,4-2.41.56-1.84,1.28-3.63,1.94-5.43a18.66,18.66,0,0,0,.17,2c1.27,6.92-1.13,11.4-8,14.94C86.47,58,89.42,55.91,89.75,53.53Z"/><path class="cls-49" d="M82.3,35.93c3.8-1.89,8-1.21,12-2,2.59-.52,1.72,1.69,1.59,3-.15,1.51-.41,4.64-2,3.38-3.55-2.84-7.89-2.61-11.58-4.42Z"/><path class="cls-50" d="M23.62,70.94a20.39,20.39,0,0,0-7.37-3l-2.08-1.14c-.41-1.26-2.53-1.11-2.35-2.86-.31-1.42.62-1.59,1.66-1.65,1.46-.41,3.83,4.81,4.45-.73,1.4-2.21-1.53-4.51.13-6.71h.05c6.39-.44,3.48,4.4,4.1,7.23,1,1.29,2.49,2.16,3.51,3.47L27.27,67a2.1,2.1,0,0,1,0,1.24C26.46,69.71,27.33,73.43,23.62,70.94Z"/><path class="cls-51" d="M5.9,66.91a8.56,8.56,0,0,1,1.17-2.08c.68-.67,1.19-2.35,2.67-.86s-.35,1.79-.85,2.62a11.69,11.69,0,0,0-.79,2.27C5.34,70.49,6.43,67.79,5.9,66.91Z"/><path class="cls-52" d="M82.13,82.92c3.79,1.47,6.34-2.06,9.68-2.4l3-.07c0,.42.09.84.13,1.26a6.16,6.16,0,0,1-4.63,2.79,2.38,2.38,0,0,0-2.52,2.8c-1.77-.09-3.52-.16-2.82,2.51-1.46-.47-.36-2.67-2-3C81.72,85.72,80.74,84.58,82.13,82.92Z"/><path class="cls-53" d="M106.1,67.69c.39-5.1,3.19-9.7,3.07-14.9.25-.32.5-.32.76,0,.65,2.38,1.21,4.72-.43,7a2.4,2.4,0,0,0,0,2.76C112.1,66.69,109.4,67.39,106.1,67.69Z"/><path class="cls-54" d="M109.93,52.77l-.76,0L108.78,46c.16-1.66,1.6-2.95.72-5.11,1.81,1,1.21,2.11,1.52,3-1.19,2.28,2.47,4.45.15,6.75C111,51.45,110.85,52.33,109.93,52.77Z"/><path class="cls-55" d="M31,35.8c.44-.69,1.18-1.33,1.29-2.06,1.27-8.45,6.51-14,13.57-17.88,7.51-4.1,15.65-6,24.32-4.8,1.3.19,2.61.47,3.85-.29,3.12,1.73,6.71,1.94,10,3.08,1.11.73,1.15,1.81,1,3-1.09,3.13-3.66,2.55-6.16,2.84-2.06.24-4,1.55-6.23,1.43C68.5,21.42,65,23.61,61,24.55,52.59,27.36,44.87,31.72,37,35.65a7.67,7.67,0,0,0-3,3.12C32.17,38.59,32.88,35.87,31,35.8Z"/><path class="cls-56" d="M82.94,26c-.27,2.41-1.49,1.45-2.64.75-1.26.63-2.53,0-3.78,0-3.66-.16-7.16.08-10.08,2.64-1.16-.47-2.42-.26-3.61-.52a2.84,2.84,0,0,1-2.28-1.78,2.64,2.64,0,0,1,1.21-2.57,56.25,56.25,0,0,0,9.5-2.8C76.7,20,82.35,19.23,87.88,18c2,1,4.74.86,5.25,3.83l-1.14,1C89.35,25,85.34,23.22,82.94,26Z"/><path class="cls-57" d="M87.88,18C82.65,21,76.53,20.72,71,22.64c-1-1.39-.22-2.13,1-2.67,4.26-1.33,8.91-1,13-3.16,1,1.21,2.11-.27,3.14.14C88.05,17.29,88,17.63,87.88,18Z"/><path class="cls-24" d="M82.94,26c.37-.88-.28-2.72.57-2.62,2.91.33,5.59-1.71,8.48-.58l-.22,1.21C89.31,26.83,85.93,25.58,82.94,26Z"/><path class="cls-45" d="M57.12,43.85C61.77,43.78,66.07,40,71,42.57a7.31,7.31,0,0,1,4.2,1c3.21,2.1,3.46,4.64.52,7.13-3.31,2.8-7.41,4.13-11.34,5.72-3.68.33-6.6,3.08-10.32,3.29-4.58-.84-8.43,2-12.75,2.76-3.38.56-6.74.83-10.13,1.14a2.1,2.1,0,0,1-.25-3c-.12-2.33,1.29-3.73,3-4.94a11.32,11.32,0,0,1,3.77-2.81C43.17,47.7,50.23,46,57.12,43.85Z"/><path class="cls-58" d="M62.05,24.9l-1.22,1.74c-4.08,1.13-4.73,4.43-5.06,7.94-3.19.4-6,2.9-9.59,1.32-1.54-.68-2,1.21-2.71,2.27-1.38,2.19-3,3.46-5.61,1.77-.24-3.87-2.31-1.72-3.88-1.17.36-1.35-.47-3.15,1.42-3.91,8.66-3.47,16.19-9.54,25.7-11C62.14,23.54,62.3,24,62.05,24.9Z"/><path class="cls-59" d="M57.12,43.85C53,47.3,47.64,48.05,43,50.38c-2,1-2.52,3.48-4.85,3.65-2.5.32-1.79-2.34-3-3.22-2-.22-4.3,2.13-6-.65,8.26-2.57,16.65-4.79,24.31-9,.07,0,.3.14.4.26a1.94,1.94,0,0,1,.2.46A3.47,3.47,0,0,0,57.12,43.85Z"/><path class="cls-60" d="M54,59.73c2.7-2.75,6.19-3.66,9.84-4.21.41,2.26-.55,3.64-2.72,4.26-1.66,4.45-6,2.72-9.1,4C51,61.6,55.76,62.25,54,59.73Z"/><path class="cls-61" d="M27.22,67.76a6.3,6.3,0,0,1,.05-.75l5.83.85c.26,1.36.51,2.72.76,4.08-.06,1.69-.07,3.4-1.92,4.29a2.32,2.32,0,0,1-2-.25C29.49,73.09,27.78,70.61,27.22,67.76Z"/><path class="cls-62" d="M25.72,65.51c-2.3,0-4.07-.57-3.51-3.47a4.06,4.06,0,0,0,3.23-4.34C25.41,60.41,27,62.92,25.72,65.51Z"/><path class="cls-63" d="M30.89,60.59c.08,1,.16,2,.25,3-4.47-2.53-4.6-3.34-1.08-7.56C30.78,57.53,29.23,59.38,30.89,60.59Z"/><path class="cls-64" d="M35.14,50.81c2.19,0,1.59,2.52,3,3.22L33.9,55.65C34.32,54,34.73,52.42,35.14,50.81Z"/><path class="cls-65" d="M18.06,54.81c0,2.4,3.14,4.49.7,7.13-1.76-.11-3.31.88-5,.91a1.89,1.89,0,0,0-1.89,1c-2.08-2.29.29-3.54,1.2-5.12Z"/><path class="cls-66" d="M53.92,99.66,48,99.82c-.68-1.77-4.09-1.52-3.64-3,.82-2.65,3.54-1.31,5.66-1.5,5-.47,10-1.74,15-2.68,2.15-2.89,5.3-3.29,8.55-3.47,1,.45,1.68,1.08,1.17,2.31-1.14,2.57-3.85,2.16-5.87,3.07C64.9,99.24,59.31,99.17,53.92,99.66Z"/><path class="cls-67" d="M74,89.91l-9,2.72-1.1-.93C64,89,66.29,88.15,68,86.85l9.86-2.29c2.63.12,5.09.41,3.92,4.13l-1.85,1C78,89.47,76,91,74,89.91Z"/><path class="cls-68" d="M68,86.85c-1.24,1.73-2.31,3.62-4.15,4.85-2-.89-5.47.93-5.84-3.09C61.21,87.05,64.76,87.72,68,86.85Z"/><path class="cls-69" d="M43.08,88l1,1.63c-2.29.05-4.57.63-6.85-.07,0-1.52-1.51-1.78-2.19-2.73-.28-1,.35-1.33,1.17-1.49C38.68,85.65,41.34,85.63,43.08,88Z"/><path class="cls-70" d="M53.92,99.66c4.88-2,10.29-2.43,14.92-5.12,1.41.68,1.26,1.44.11,2.24-.6,1.91-1.63,3.27-3.91,3l-1.14.14L55,101.63A1.74,1.74,0,0,0,53.92,99.66Z"/><path class="cls-37" d="M81.82,88.69c.73-3.31-2.59-2.78-3.92-4.13,1.24-1,2.53-1.84,4.23-1.64L83,86.81A1.73,1.73,0,0,1,81.82,88.69Z"/><path class="cls-71" d="M65,99.75l3.91-3c-.25,2-.43,4.08,2.09,5C68.76,101.92,66.59,101.76,65,99.75Z"/><path class="cls-72" d="M74,89.91c1.49-.51,3-1,4.47-1.52S80,88.65,80,89.74l0-.06c-1.11,1.25-2.34,2.21-4.15,2l-1.15-.21Z"/><path class="cls-73" d="M75.86,91.68c1.32-.8,2.48-1.91,4.15-2C79.36,91.87,79,94.67,75.86,91.68Z"/><path class="cls-25" d="M27.22,67.76c2.14,2.25,4.22,4.52,2.82,8,0,1.7,3.78,3.27.16,5.07l-2.13-1.1c-.63-3.36-1.58-6.57-4.45-8.8,1.07,0,2.92.91,2.17-1.54C25.32,67.88,26.24,67.86,27.22,67.76Z"/><path class="cls-74" d="M30.2,80.84c.95-.89,1.38-1.75-.12-2.54s-.87-1.67,0-2.53l2,0c2.68-.79,4.24,1.49,6.34,2.29,1.17.61,2.27,1.6,3.53,1.72,4.26.41,5.68,2.86,5.37,6.79L44.9,87.7c-2.83-1-5.82-1.26-8.73-1.88L35,86.8C31.52,86.33,31.58,83,30.2,80.84Z"/><path class="cls-75" d="M47.27,86.54c-1.78-1-5.91-1.46.65-4.69-4.91.35-7.56-1-9.82-3.17-.16-3.12,1.07-4.25,4.07-2.86,4.24,5.07,11.88,4.83,14.9-.48-.15-.82-.52-1.62-.08-2.45,1.5-1.17,3.27-1.06,5-1.08.1.94.06,1.92,1.56,1.66,1.09-.19,2.27-.23,3,.91.73,1.57,1.48,3.16-.64,4.31Z"/><path class="cls-75" d="M64.88,70.67l12.93-4.8c2-1,2.5.6,3.18,1.88-2.32,4.62-7.56,5.85-10.86,9.33A3.14,3.14,0,0,1,66.6,75.2C66.63,73.46,64.69,72.47,64.88,70.67Z"/><path class="cls-76" d="M81,67.75l-3.18-1.88L89.75,53.53c1.37,2.57-1.84,4.63-.79,7.16C86.28,63,83.07,64.75,81,67.75Z"/><path class="cls-77" d="M36.17,85.82c3.14-.45,6.18-.43,8.73,1.88L43.08,88A16.39,16.39,0,0,1,36.17,85.82Z"/><path class="cls-78" d="M67,74.9l3.14,2.18A4.17,4.17,0,0,1,66,78.69c1.3-1.3,0-2.63,0-3.94Q66.65,73.91,67,74.9Z"/><path class="cls-79" d="M61.14,59.78a10.67,10.67,0,0,0,2.72-4.26c3-2.31,7.14-2.4,10.15-5,3.64-3.19,3.64-4.77-.79-6.86l-2.26-1a3.94,3.94,0,0,1,.1-.9c4.24-.23,7.19,1.47,7.77,5.85a7.87,7.87,0,0,1-6.32,8.74L63.8,60.78C62.69,61.05,60.82,63.32,61.14,59.78Z"/><path class="cls-80" d="M42.07,76.57C39,74,39.45,78,38.1,78.68L32,75.74l1.83-3.8c2.78,4.53,7.46,1.92,11.16,3,1.1.55,1.79,1.2.61,2.34C44.3,77.79,43.05,77.9,42.07,76.57Z"/><path class="cls-81" d="M46,76.44l-1-1.53c3.78-1.92,8.09-.7,12-2l1,1.88C54.5,79,50.23,77.59,46,76.44Z"/><path class="cls-50" d="M67,74.9l-1-.15c-2.07-.87-4.36.8-6.45-.56C59.27,72.28,61.64,73,62,71.81l2.87-1.14C66.4,71.67,66.78,73.24,67,74.9Z"/><path class="cls-82" d="M66.38,28.77c3.18-3.89,7.73-4.54,13.92-2-5,3.06-10.93,2.2-16.18,4.14C63.07,28.33,64.23,28,66.38,28.77Z"/><path class="cls-83" d="M55.77,34.58c-1.92-5.13-.89-6.76,5.06-7.94A2.77,2.77,0,0,0,63.21,28c.81,3.5-3.51,2.63-4.17,4.88A5.21,5.21,0,0,1,55.77,34.58Z"/><path class="cls-84" d="M59,32.86c-.64-.28-1.88.11-1.73-1.08s1-2.29,2.28-1.73c2.4,1.08,2.49-1.28,3.62-2.07a3.17,3.17,0,0,1,3.16.79c-1.58-.15-2.39.52-2.25,2.16Z"/><path class="cls-85" d="M13.72,62.85c1.72-.05,2.48-5.46,5-.91-2.4,1,2.21,3-.43,3.65C16.14,66.16,14.7,64.7,13.72,62.85Z"/><path class="cls-86" d="M62.05,24.9c-.32-.35-.64-.7-.95-1.06A26.85,26.85,0,0,1,72,20l-1,2.67C68.22,24.19,65.47,25.87,62.05,24.9Z"/><path class="cls-87" d="M50.41,28.24c2,3.06.9,4.48-.12,5.84A1.62,1.62,0,0,1,49,33.65C47.8,31.39,50.87,31.16,50.41,28.24Z"/><path class="cls-88" d="M46,76.44c3.91-1.21,8.29.9,12-1.67,4.36,3.76-3.86,2.73-2.1,5.51-4.65.08-9.39,1-13.77-1.55-1.31-.77-1.1-1.41-.06-2.16C43.38,76.57,44.71,77.34,46,76.44Z"/></g></g></svg>