<svg xmlns="http://www.w3.org/2000/svg" viewBox="0 0 149.15 115.94"><defs><style>.cls-1{fill:#4d7fc8;}.cls-2{fill:#2555b8;}.cls-3{fill:#578cd3;}.cls-4{fill:#4980d0;}.cls-5{fill:#3269c4;}.cls-6{fill:#3264c1;}.cls-7{fill:#6a9cda;}.cls-8{fill:#5287d0;}.cls-9{fill:#4f86d8;}.cls-10{fill:#7dace3;}.cls-11{fill:#71a5e5;}.cls-12{fill:#487ccc;}.cls-13{fill:#679bdf;}.cls-14{fill:#5c8fd8;}.cls-15{fill:#a5caeb;}.cls-16{fill:#2352b7;}.cls-17{fill:#5083ca;}.cls-18{fill:#6394da;}.cls-19{fill:#5188ce;}.cls-20{fill:#3671c9;}.cls-21{fill:#4173bf;}.cls-22{fill:#4d79c3;}.cls-23{fill:#91bde9;}.cls-24{fill:#75a8e7;}.cls-25{fill:#70a3e2;}.cls-26{fill:#79a9e4;}.cls-27{fill:#5d91d8;}.cls-28{fill:#88b2df;}.cls-29{fill:#5e97db;}.cls-30{fill:#2965bc;}.cls-31{fill:#567db0;}.cls-32{fill:#81aee2;}.cls-33{fill:#8bb8e7;}.cls-34{fill:#356ec5;}.cls-35{fill:#2f62b9;}.cls-36{fill:#3367bb;}.cls-37{fill:#77a9e9;}.cls-38{fill:#78a7ea;}.cls-39{fill:#2f61bb;}.cls-40{fill:#a3d1f6;}.cls-41{fill:#87b5f0;}.cls-42{fill:#5d8ed7;}.cls-43{fill:#4272ca;}.cls-44{fill:#719ee8;}.cls-45{fill:#487bdb;}.cls-46{fill:#5f90df;}.cls-47{fill:#5d90e8;}.cls-48{fill:#4173c4;}.cls-49{fill:#6c9fde;}.cls-50{fill:#84b3e9;}.cls-51{fill:#3f72c4;}.cls-52{fill:#70a2e5;}.cls-53{fill:#9ac7ed;}.cls-54{fill:#8bbcec;}.cls-55{fill:#3670c7;}.cls-56{fill:#83b7ed;}.cls-57{fill:#73a4de;}.cls-58{fill:#add5f5;}.cls-59{fill:#7aaaf2;}.cls-60{fill:#73a4e5;}.cls-61{fill:#74a5e4;}.cls-62{fill:#8abbee;}.cls-63{fill:#84b1e8;}.cls-64{fill:#a8d5f7;}.cls-65{fill:#5b95e5;}.cls-66{fill:#5d8fd8;}.cls-67{fill:#4175cb;}.cls-68{fill:#3564bb;}.cls-69{fill:#1a4ab3;}.cls-70{fill:#6296e3;}.cls-71{fill:#67a0ee;}.cls-72{fill:#467ac6;}.cls-73{fill:#316ac6;}.cls-74{fill:#8abbeb;}.cls-75{fill:#8fbeef;}.cls-76{fill:#99c3eb;}.cls-77{fill:#4375bd;}.cls-78{fill:#81b1e8;}.cls-79{fill:#5080bc;}.cls-80{fill:#bbdef5;}.cls-81{fill:#275dbc;}.cls-82{fill:#75adea;}.cls-83{fill:#275dba;}.cls-84{fill:#7aa9e9;}.cls-85{fill:#4676c0;}.cls-86{fill:#92bfeb;}.cls-87{fill:#3e6dbf;}.cls-88{fill:#3a68b9;}.cls-89{fill:#3d6db9;}.cls-90{fill:#92c0f2;}.cls-91{fill:#4c7bc7;}.cls-92{fill:#81ade5;}.cls-93{fill:#93c2f5;}.cls-94{fill:#87b6f1;}.cls-95{fill:#6497d7;}.cls-96{fill:#6795d3;}.cls-97{fill:#3d6fbc;}.cls-98{fill:#81aeec;}.cls-99{fill:#8cbbed;}.cls-100{fill:#3c70bc;}.cls-101{fill:#3a6ab2;}.cls-102{fill:#5a91d9;}.cls-103{fill:#91c0ee;}.cls-104{fill:#79a7ea;}.cls-105{fill:#94c1f1;}</style></defs><title>资源 7</title><g id="图层_2" data-name="图层 2"><g id="图层_1-2" data-name="图层 1"><path class="cls-1" d="M8.34,19.87c2.18-2.63,4.18-5.44,6.59-7.83,1.86-1.84,3.91-4.16,7.15-2.45a3.78,3.78,0,0,1,2.41,1.24c.68,1.29.6,2.87,1.5,4.05-.08.7.57.18.1,0A1.19,1.19,0,0,1,26,13.11c2.6-2.29,4.39-.06,6.33,1.23,1,1.41,2.44,1.1,3.81,1.12-1-.22-2,.07-3-.4C32.69,8.66,38.74,9.5,42,7.41c.8-.51.66-1,1.07-1.46,2.25.92,4.5.22,6.75,0C54.62,8.24,59.38,9.87,64,5.6a1.05,1.05,0,0,0,0-1c-1.95-1.24-4.95.41-6.33-2.33C57.81.52,58.63,0,60.23.82a18.73,18.73,0,0,1,8-.21c1.67,2.13,5.24,1.57,6.34,4.49,1.38-1,3-1.15,4.64-1.39a1.08,1.08,0,0,1,.94.13c.72.71,1.84.85,2.46,1.66,1.64,2.11,1.45,4.2-1.43,4.09-4.24-.16-7.44,2.34-11.16,3.34,1.77,3.87-3,3.35-3.7,5.58-1.93,1.48-3.84,3.28-6,.38-.69-1.89-2.46-1.44-3.79-1.52s.36.63-.06.94a1.3,1.3,0,0,1-.6,1.05,29.93,29.93,0,0,0-8.15,1.78c-1.29-.58-1.45-1.7-1.41-2.91-.07-1,1-1.56.92-2.63-1.2,1.16-3.18.56-4.12,2.07-.18,1.48,1.25,2.86.23,4.36a12,12,0,0,1-12.06,5.75c-1-.09-2.15-.45-2-1.71.12-.8,1.19-.87,2.25-1C26,23.57,20,24.4,15.93,19.78c-.59,0-.71-1.68-1.67-.44C12.49,21.64,10.45,21.27,8.34,19.87Z"/><path class="cls-2" d="M133.13,92.75a89.29,89.29,0,0,1-49,22.13c-1.3-.36-2.54.15-3.81.26-2.29.19-3.4-.53-1.27-2.52.89-.83-.85-1.37,0-2,3.76-3.54,8.84-1.6,13.06-3.19,1.12-.08,2.23-.18,3.36-.18a19.78,19.78,0,0,0-5.74-.2c-.85.07-1.73-.07-2-1.06a1.87,1.87,0,0,1,1-2.08,39.46,39.46,0,0,1,6.93-3.79c1.9-.43,3.75-1,5.09-2.52,2.71-.33,4.84-1.79,6.86-3.49a5.08,5.08,0,0,1,2.47-1.1c1.82-.27,2.75,1.48,4.28,1.88,2.38.82,4.72-.49,7.09.15-2.58-.86-5.46,1.18-7.84-1.21-2-5.18,2.82-4.68,5.54-7-2.45,1.55-4.54,2.25-6.81,1.82-2.6-.5-5.82-.72-2-4.26.7-.65.4-1.55.4-2.36.88-1.66,2.43-2,4.11-2.11a8.54,8.54,0,0,1,1.33.12c1.68,0,3.39.51,5-.35,1.54-1.28,2.92-1.62,4.84-.28a16.9,16.9,0,0,0,5.49,2.19c5.9,1.72,5.9,1.72,4.51,8.11l-.07.12C134.05,89.74,133.68,91.34,133.13,92.75Z"/><path class="cls-3" d="M61.18,17.9c1.85,4,3.37-.26,5.07-.2,2.09-2.17,4.46-2.12,7-.86.67,1.26.2,2.15-1.11,2.92,1.51,0,2.86.19,4.21.09s1.23-.7.41-1.47a10.84,10.84,0,0,1,.75-4.88c1.13-1.66,2.43-1.33,3.79-.33,1.65,2.53,3.67,3.21,6.21,1.21.52-.41,1.1-1.17,1.65-1,4,1.45,1.51-2,2.26-3a3.45,3.45,0,0,1,.75-1.17c2-.79,4.07-3.68,6.06.06.23.44-.41,1-.31.87,2.62-2.54,7.17-1.64,9.18-5.17,3.77.17,6.39,3.29,10,3.91.28,3.56-2.59,5.41-4.28,7.89,1.74,2.94.09,4.09-2.48,4.78-1.92.24-4.3-2-5.41,1,3.13-1.09,7.12.14,8.78,2.9a13.14,13.14,0,0,1-2,3.75c-2.35,3-4.86,4.15-7.74.61,1-1.88,2-3.79-1.57-3.33,1.24,1.1,1.1,2.64.66,4.24-2.47,3.2-4,1.9-5.28-1-1.37-1.82-2.46-4.15-5.48-2.68-1.06.52-1.76-.15-2.58-.85-3.66-3.09-6.06-3-9.76.13-1.83,1.55-3.88,2.9-6.32,1.52-2.19-1.24-4.69.94-6.72-.86a5.43,5.43,0,0,0-5.7-1.07c-1.06.39-2.14.84-3.18-.06.77-2.48-1.82-4.69-.6-7.21C58.37,17.06,59.61,16.62,61.18,17.9Z"/><path class="cls-4" d="M12.07,86.94l-.85-1.14c2.1-4.8,2-5-3.11-5.79L4.94,75c-.75-3.1,1.26-2.69,3.18-2.56,6.5.46,13.21-.67,19.31,2.74a4.8,4.8,0,0,0,2.55.37c-.46-3.84-3.93-6.51-5-10.49,2.06-1.27,3.58.38,5.31,1a8.59,8.59,0,0,1,2.84,2c2,2.5,4,4.43,7.13,1.4.51-.48,1.58.2,2.33.55,1.15.64,2.5,1,3.27,2.18.36.54.71,1.27,0,1.75s-1.49.86-2,.09c3.72,1.31,5.74,4.57,7.62,8-2,2.69-5.77,3.92-5.43,8.58.12,1.64-3.2,1.46-4.88-.18-1.11-.54,1.06-2.28-.94-2.51-3.72-2.65-8.3-1.13-12.24-2.58-3-1.12-2.66,3-4.9,3C19.75,85,15.56,88.85,12.07,86.94Z"/><path class="cls-5" d="M41.12,89.75c3.92,1.3,3.88,1.3,3.69-2.23-.09-1.84,1-3,2.53-3.85,1.26-.73,3-.44,3.89-1.89a2.09,2.09,0,0,1,2.16-1.56,2.61,2.61,0,0,1,1.27.59c.91,2.5,4.05,3.79,3.8,6.93-.57.88-1.71.54-2.41,1.12a2.17,2.17,0,0,1-1.39.39c-.62,0-1.15-.49-1.8-.35a7.22,7.22,0,0,1,1.43.39c.92.28,1.56-.33,2.29-.71a7.24,7.24,0,0,1,3.8,2c1.46,1.55,1.49,2.87-1,3.27C58,92.33,56.08,93,54.76,92.72c1.13.36,2.88-.36,4.21.84,1.46,3.8,4,3.71,6.92,1.85,1.59-1,3.33-1.68,5-.69,1.22.71.72,2,.12,3-1.3,1.08-1.41,3.09-3,3.93-3,1.12-5.87,3.32-9.42,1.78-5.44-2-11-1.51-16.55-.74a28,28,0,0,1-7.7-.2c-2.81-.28-5.62-.59-8.41-1a2.82,2.82,0,0,1-2.73-3c.17-2.08,2.09-1.61,3.51-1.72,5.87-.43,11.63-1.64,17.48-2.13-8.64-1.06-16.8.83-24.75,3.94l-4.3-5.88c2.37-3.08,6.1-1.76,9.09-2.83,1.36.29,2.49-.37,3.68-.85C32.35,88.53,36.79,88.17,41.12,89.75Z"/><path class="cls-6" d="M148.82,56.9c-.44,4.72-3.42,8.95-2.68,13.9a5.33,5.33,0,0,1-5.22,2.59c-2.17-1.1-5-1.67-4.28-5.14.61-1.72,2.14-.68,3.3-1-1.44-.22-2.95-.89-3.47,1.19-1.42,2.06-3.57,1.78-5.4,1.21-2.63-.81-3.71.24-4.25,2.55-2.32,3.2-6.62,1.76-9.33,4-.72.86-.3,1.73-.11,2.64s.68,2.34-1.29,2l0,0c-2.22-1.54-4.81-.76-7.21-1.17-.77-.13-1.72-.34-1.71-1.42,0-.77.68-1.15,1.29-1.33,3.71-1.09,4.19-2.54.86-5-.64-.48-.32-2.15-.7-3.23.29-1.62,1.75-2,2.89-2.68,3.37.16,1.92-3.92,4.15-4.76,1.73-1,3.45-2.08,5.58-1.93,2.78-1.37,5.86-.43,8.72-1.15a12.74,12.74,0,0,1,5.74-.75,16,16,0,0,1,2-.12c2,.45,3.93.88,5.68-.57S147,55.66,148.82,56.9Z"/><path class="cls-7" d="M30.2,66.81l-5.05-2-.47-.35c-.54-.6-1.41,0-1.83-.33-3.74-2.8-7.53-2-11.66-.84-3.75,1.08-5.4-.36-4.63-3.61.28-1.22-.6,0-.36-.33a3.62,3.62,0,0,1-3.26-.68c-2.13-1.89-1.71-4.45-1.78-6.88l.51-.4a21.34,21.34,0,0,1,5.05-1,1.6,1.6,0,0,1,1,.74c.22.39.39,1.3.48,1.2A5.75,5.75,0,0,0,9.71,50a3.5,3.5,0,0,1,.75-1.08c2.14-1.27,3.77-.71,5,1.38.44,2,1.65,2.69,3.61,2.11,1.36-.39,2.63-1.22,4.15-.86,3,3.72,4.95,1.9,6.63-1.28,3.42-.23,6.61,1,9.92,1.51a4.16,4.16,0,0,1,1.26.64c1.06,2.1-1.11,1.83-1.87,2.57,8.2.4,8.2.4,8.71,5.22-1.75,4.17-4.54,1.06-6.89,1-1.43-.07-2.35-4.17-4.21-.69-1.72,3.24,1.63,2,2.72,2.71a2,2,0,0,1,1.08,2.44c-1.87.56.47,1.91-.48,2.65-1.57.63-3.53,3-4-1-.09-.73-.47.18-.71.26C33.49,68.14,31.85,67.48,30.2,66.81Z"/><path class="cls-8" d="M2.19,35.85c-.48-5.93,2.53-10.54,5.72-15.07,2.21-.4,4.43.07,6.65,0,1.29,1.27,1.26,3,1.63,4.61.26,1.11.48,2.3,2,2.46,1.14.12,3.06-1.11,3.18,1.05S19.48,31,18,31.4c4.38-1.57,8.37-.69,12.08,1.85,1,2.26,2.74.17,4.05.65,1.79.37,3.88.89,4.87-1s-1.7-2.48-2.12-4A2.19,2.19,0,0,1,37,27.49c2.92-2,5.5-.83,8,.86.32.4.1,1.17.23,1.28,2.47,2,2.5,5.06,3.28,7.77a2.74,2.74,0,0,1,.91,2.42c-1.36,2.33-3.53,1.59-5.54,1.45a49.14,49.14,0,0,0-5-1.46c-1.77-.4-1.09.89-1.33,1.59a1.3,1.3,0,0,1-1,.75c-4.5-.61-8.65-3-13.41-2.36-1.68.22-2.94-1.29-4.36-2.06-3.93-1-7.78-2.23-12-1.19C5.41,36.9,3.57,37.2,2.19,35.85Z"/><path class="cls-9" d="M148.82,56.9c-4-1.06-7.49,4.62-11.72,1-.36-1.28.62-1.64,1.43-2.12,5-2.58,5.42-3.49,2.89-6-.43-.43-.55-1.12-1.51-.71-2.64,1.12-3.83-1.26-5.46-2.48-.78-.58-1.7-1.27-1.3-2.41s1.5-1.14,2.48-1.29c1.27-.2,2.55.44,3.54,0-4.43-3.25-8.8-3.29-12.69,1.23-3.54,1.52-8-.43-11,3a2.71,2.71,0,0,1-2-.26,10.49,10.49,0,0,1-1.14-.73C108.09,43.52,108,43,111,40.7a23.21,23.21,0,0,1,5.38-.7c1.16-.1,1.82-.77.72-1.92-.56-.75-1.66-1.56-.56-2.45,1.56-1.28,3.08-.17,4.55.49a4.14,4.14,0,0,1,1.75,3.49,8.81,8.81,0,0,0,3-3c-.93-1-2.14-.33-3.15-.63-2.82-.54-3.6-1.69-1.13-3.79,1.42-1.06,2.9-1,4.65-.74,4.48.74,9.08,2.06,13.3-1.12a2.18,2.18,0,0,1,2.73.49l3.08,5.83c-2.09,1.85-4.39.37-7.17.46,2.81,0,5.12,1.4,7.24-.42,1.56,5.15,5.66,9.83,2.76,15.83C147.46,53.9,149.69,55.24,148.82,56.9Z"/><path class="cls-10" d="M25.15,64.85c-.18,1.89,1.16,2.78,2.56,3.2,2.74.82,3.53,1.76,2.14,4.79C28,77,34.21,72.21,33.18,76.16c-3.43,0-7.18,1.56-10.58-1.83-2.05-2-4.84.16-7.5-.38S9,73.79,5.86,73.4c-.24,0-.61,1-.92,1.59-2.1-4.15-1-8.94-2.65-13.2,4.23,1.39,8.38,2.16,12.87.62,2.26-.77,4.14.52,3.92,3.47,0,.52-1.58.56-.44,1.1.26.12,1.45,2,2.33-.08.65-1.54,1.85-3.26,4.16-2.09Z"/><path class="cls-8" d="M15.08,50.7c-1.4-1.6-3-2.2-4.91-.88a19.69,19.69,0,0,1-5.93-2.18c-1.81-.93-1.17-2-.14-3C-1,44,.8,40.69,1.41,37.83c1.31-1.25,3.1-1.15,4.66-1.33s3.48-1.17,4.35,1c.81,2-2.14,1.62-2.45,3.26,3.56-2.06,6.3-6.21,11.08-3.22.83,1.63-.59,2.49-1.28,3.79,3.3-.8,5.75.21,7.12,3.39.93,2.77,1.14,5.17-3,4.18-1.55-.37-1.43.92-2.07,1.43C18.33,51.48,16.82,52.21,15.08,50.7Z"/><path class="cls-11" d="M92.9,108.53c-4.43,1.81-9.72-.09-13.8,3.22A10.63,10.63,0,0,1,72,112.92a8.31,8.31,0,0,0-7.69,2.17c-1.42.61-2.82,1-4.13-.24-2.23-2-4.64-.13-7-.34a3.24,3.24,0,0,1-3-.93c.3-.52-.26-1.42-.83-1.67-2.49-1.11-3.9-2.61-1.64-5.23,1.28-.83,2.57,1.42,3.86,0a3.06,3.06,0,0,1,1.18-.46c1.84,2.18,2.82-1.16,4.38-.69a4.77,4.77,0,0,1,1.05.85c4.83.93,9.68,2.06,14.19-1.11,3.58.19,7.19,1.65,10.71-.4a1.51,1.51,0,0,1,2.22.36c1.38,2.62,3.5,1.77,5.63,1.39C92.51,106.33,92.53,106.44,92.9,108.53Z"/><path class="cls-12" d="M130.47,17.69c4.37,2.06,6.67,6,8.89,9.94-3.61,3.62-5.89,3.75-12,.67-.64-2.7-2.65-.19-3.94-1-1.6-1-3.49,0-5.26,0a8.27,8.27,0,0,1-4-1.08c-1.38-2.08.48-3.42,1.15-5a4.65,4.65,0,0,1,.91-1c2.24-1.49,4.87-2.26,7.07-3.82C125.86,15.87,128,17.54,130.47,17.69Z"/><path class="cls-13" d="M19.44,98.61c.8-1.65,1.67-2.81,3.87-3.12,8.07-1.16,16-4.43,25.2-.95-3.77,1.71-7,2.57-10.27,2.23-4.84-.49-9.23,3.56-14.26.92,2.3,4.67,7.16,1.84,10.19,4a1.08,1.08,0,0,1,.29,1.19c-1.94,2.6-4.95.77-7.29,1.75C24.42,102.84,21.06,101.84,19.44,98.61Z"/><path class="cls-14" d="M81.12,13.84c-1-.35-2.12-1.54-3.05.16-3.27-.16-6.64.72-9.78-.9.94-2.1.93-2,3.79-1.73.45.05,1-.67,1.47-1,1.5-1,3-2.18,4.84-2.16,1.4,0,3.29,1.46,4.08,0,1.1-2-2-2.64-2.33-4.4,3.87-.36,7.76-.6,11.61-1.15a4.88,4.88,0,0,1,4.46,1.1c-1,1.63-2.57,1.85-4.38,1.43-.38-.4-.31.91-.13.27,2.41,1.22,2.75,2.65.44,4.35h0c-2.42,1-5.48.39-7,3.62C84.74,14.4,82.58,14.67,81.12,13.84Z"/><path class="cls-15" d="M50,6.69a15.57,15.57,0,0,1-7.12-.12c-2.65,1.31-5.38,2.06-8.34,1.19-3.35-1.44-3.79-3.14-.43-5.15C38.47-.92,43.57,2,48.2.9c1.5,1.12,3.48.6,5.07,1.44,1.08.58,3,.54,2.82,2.13s-2,1.37-3.18,1.72C52,6.47,51,6.32,50,6.69Z"/><path class="cls-16" d="M127.08,27.79c4.11,1.68,8.22,2.44,12.28-.16a3.79,3.79,0,0,1,2.87,3.17c-5.9,3.57-12,3.31-18.34,1.28-.46-.15-1.17.5-1.76.79-2.57,1.07-4.79-.06-7-1.17a1.64,1.64,0,0,1-.61-2.8,2.64,2.64,0,0,1,1.3-.68c2.84-.2,5.64-.92,8.51-.46C125.26,27.91,126.18,27.3,127.08,27.79Z"/><path class="cls-17" d="M25.13,64.81c-2.65.77-3.78,2.57-3.58,5.7-1.65-3.78-4.25-2.09-6.72-.55.14-3.34,4.45-3.24,3.23-5.43-1.84-3.29-5.22-.77-7.59-.4-3.39.52-6,.32-8.18-2.34-.18-1.11-.74-2.3.66-3.08,1.76-.09,3.52-.17,5.28-.3.75,0,1.43.22,1.42.94A2.86,2.86,0,0,1,8.8,61c-.53.54-1.41-2-1.78,0a1.56,1.56,0,0,0,2.05,1.56c1.73-.42,3.49-.44,5.21-1.24,2.54-1.2,5.45-2.11,7.28,1.22C22.39,64.13,26.14,60.59,25.13,64.81Z"/><path class="cls-18" d="M50,6.69c1.2-1.91,3.21-1.89,5.84-1.87-2.83-1.93-6-1.48-7.68-3.92,4,.76,8-2.23,12-.08a1.92,1.92,0,0,0-2.09,2,8.94,8.94,0,0,0,1.72,1.06c1.59,2.36,4.46.15,6.25,1.76C58.53,11.26,56.46,10.86,50,6.69Z"/><path class="cls-19" d="M48.23,106.84c-2.51,6.3,2.89,3.24,5.05,4.22-.86,1.09-2.74.93-3.09,2.52-6.21-.33-11.73-2.78-17.09-5.69,1.08-3.14,2.86-4.37,6.37-3.18C42.28,105.67,45.74,104.27,48.23,106.84Z"/><path class="cls-20" d="M92.14,9.84c1.72-2.69,0-3.7-3.24-4.64l7.31-1.41L107.08,5c-.18,2.72-.77,5.09-4.36,4.05-1.53-.44-1.73.28-2.28,1.49-.78,1.73-2.61.49-3.45.1-2.22-1,.77-.49.56-1.27-.3-1.09-.84-1.2-1.73-.88Z"/><path class="cls-21" d="M130.47,17.69c-2.72,2.14-4.85-.71-7.3-.88-1.55,2.67-5.57,1-7,4l-.14.14c-2,2.38-4,3.58-5.94-.09,2.53-.85,3.54-2.07,1-4.13.35-.35.85-.53,1.19-.86,4.68-4.49,9.68-3.64,14.82-1Z"/><path class="cls-22" d="M64.27,115.09c1.22-2.81,2.87-4.23,6.36-3.42,2.69.62,5.64.1,8.47.08,3.52,1.19-1.72,1.49-.18,2.52,1.47,2.07,3.9-3,5.25.61C77.56,116.55,70.91,115.94,64.27,115.09Z"/><path class="cls-23" d="M25.16,90.6l-10,2.13c-1.72-1.56-2.3-3.72-3.07-5.79,1.73-.37,3.45-.81,5.2-1.09,2.28-.37,4.53-.44,5.91,2C24.86,88,26.18,88.47,25.16,90.6Z"/><path class="cls-5" d="M48.23,106.84c-3.34-1.21-7,.24-10.44-1.81-1.71-1-2.91,2.16-4.69,2.86l-.07-.06c-.87-2.46-3.34-2.06-5.14-2.88a1.1,1.1,0,0,1-.72-.33c1.75-2.85,4.92-.45,7-1.91,3.35-1.26,6.67.5,10,.12,1.16-.19,1.34,1.75,3.17,1,2.13-.89,4,.61,4.77,2.93-.19,1.09-.4,2.36-1.66,2.55C48.84,109.54,49.64,107.08,48.23,106.84Z"/><path class="cls-24" d="M19.15,37.85c-5.08-1.87-7.88,1.69-11,4.67-.56-1.21-.67-2.73-2.45-3C7,38,9,39.73,9.79,37.43c-2.92-1.45-5.63,1.28-8.38.41l.78-2c5.73-.76,11.46-1.73,17,.82a.73.73,0,0,1,.23.8C19.34,37.72,19.25,37.85,19.15,37.85Z"/><path class="cls-25" d="M136.15,89.7c-.46-1.76-3.1-3.71,1.41-5l-6.23-2.08c-1.64-1.79,0-3.29,1.1-3.08,3.49.7,6.25-.78,9.18-2,.38-.16.9.3,1.25.65.1.21.19.42.28.63C141.51,82.9,138.8,86.28,136.15,89.7Z"/><path class="cls-14" d="M79.2,3.71c-.1,2.93-4.65.8-4.52,4-.16,0-.45,0-.45-.06.32-4.34-5.78-3.18-6-7,3.49-1.52,6.78.22,10.14.68C79.8,1.49,79.08,2.84,79.2,3.71Z"/><path class="cls-26" d="M127.13,14.88a21,21,0,0,0-16,1.83l-.66-1.31c4.43.12,3.74-5,6.6-6.45C120.33,11.07,124.37,11.88,127.13,14.88Z"/><path class="cls-27" d="M34.15,2.61C33,4,31.52,5.45,34.17,6.85c-2.71,4.76-6,6.13-9.93,4.09a2.08,2.08,0,0,1-2.16-1.35c2.91-1.45,7-1.1,8.08-5.5C30.36,3.31,32.76,3.09,34.15,2.61Z"/><path class="cls-7" d="M4.1,44.61c-.3,1.16-.37,1.72,1.18,2.43s4.4,0,4.89,2.78h0c-.83.85-1.65,1.72-3,1l0,0c-2-.63-3.82.38-5.71.76l-.32.25C.42,48.72-2.17,44.86,4.1,44.61Z"/><path class="cls-28" d="M8.11,80c1.9-1.13,3.71-1.36,5.33.48-1.8,1.33,3.73,5.72-2.22,5.31C10,84,8.29,82.4,8.11,80Z"/><path class="cls-29" d="M141.16,72.81l5-2c.15,3.1-1.75,5.45-3,8a3.31,3.31,0,0,0-.29-.47c-1-1.27-4-1-2.85-3.85A3.1,3.1,0,0,1,141.16,72.81Z"/><path class="cls-30" d="M14.19,20.85c-2.13,2.83-4.19.09-6.28-.07.14-.31.28-.61.43-.91,1.47-.82,4.39,1.91,4.71-2.44.12-1.55,2.45,0,3.23,1.43C16.42,20.4,15.81,21.16,14.19,20.85Z"/><path class="cls-31" d="M53.18,114.51c2.32-.55,4.61-1.23,7-1.6.89-.15,2.66-.72,2.54,1.08-.07,1-1.63.68-2.54.86Z"/><path class="cls-19" d="M27.89,105c1.73.94,6.19-3,5.14,2.88A10.31,10.31,0,0,1,27.89,105Z"/><path class="cls-32" d="M133.13,92.75c.51-1.52-2.25-2.48-1-3.74s2.65.27,3.93.81A5.78,5.78,0,0,1,133.13,92.75Z"/><path class="cls-33" d="M14.19,20.85l2.09-2C21.34,23,28,22.33,33.78,24.73c-.33,2.22-3,.17-3.74,1.76,3.38,1,6.42-.51,9.41-1.49,1.42-.46.46-4.36,3.73-3.25,1.55-.57,2.41-.39,1.65,1.53-.75.84-1.53,1.66-2.37,2.47,1-.08,1.65-.8,2.54-1,2-.43,3.3-3,5.77-2A.9.9,0,0,1,51.19,24c-1.31,2.5-2.7,4.92-6,5-2.64-.63-5.18-2.08-8-1.07-2,2.48-4.79,2.52-7.66,2.26,1.45.11,2.34.73,2.38,2.27-.25,1-.47,2-1.89,1.42a30.7,30.7,0,0,0-14.9-2c1.53-1.82,4.41-.63,5.93-3.34-5.58,2.23-6.58-.43-6-4.92C15.1,22.76,14.47,21.78,14.19,20.85Z"/><path class="cls-34" d="M45.17,29l6-5.54c-2.85-.48-3.7,2.57-5.92,2.32.18-1.16-1.32-1.71-1-2.9,1-1.61-.7-.71-1-1.11.2-1.66-3.07-2.6-1-4.64,1.79-1.18,3.47-1.34,4.91.55,0,1.14-.19,2.37,1,3.18,2.54-1.28,5.38-1.35,8.08-2l0,0c1.21-.61,1.48.45,2,1.11-.29,1.89,2.81,3.86-.12,5.7,1.19,5-4.07,6.77-5.31,10.64a3,3,0,0,1-4.55,1.51L45,36.93c-.5-2,4.06-.71,2.29-3.45a5.73,5.73,0,0,0-4.36-2.43C42.79,29.16,44.87,30.15,45.17,29Z"/><path class="cls-35" d="M24.24,10.94c4.57,1.71,6.82-2.25,9.93-4.09l8.75-.28c-.42,2.24-3.1,4-3.93,3.92-3.6-.38-4.48,2.12-5.87,4.26-.19.48-.46.52-.82.17a29.09,29.09,0,0,1-2.7-1.14c-1-.52-2.11-1.58-2.92-.14s2.08.72,1.6,2.66C25.51,15.4,22.8,14.87,24.24,10.94Z"/><path class="cls-36" d="M68.29,13.1c3.27.15,6.66-.92,9.79.9,0,1.59.23,3.22-1,4.52-1.69,1.91-2.74.35-3.88-.72-2.28-1.93-4.59-.86-6.9-.09,0-1-.48-2.75,1.19-2.44C72.41,16.2,67.83,13.72,68.29,13.1Z"/><path class="cls-37" d="M58.14,20l-2-1.11c-.54-1.27-2-.89-2.88-1.69s0-2,.17-1.82c2.17,2.24,6.21-1.32,7.73,2.54C59.69,17.9,58.1,17.74,58.14,20Z"/><path class="cls-38" d="M47.14,17.66c-1.58-.68-3.18-1.22-4.91-.55-1.25-1.31.1-2.08.75-1.6,2.39,1.74,4.11-3.1,6-.56C49.84,16,47.22,16.32,47.14,17.66Z"/><path class="cls-39" d="M66.11,5.63c-2.23-.8-5.77,3.85-6.88-1.64,2.5-1.4,4.7-.32,6.9.8A4.72,4.72,0,0,0,66.11,5.63Z"/><path class="cls-37" d="M56.19,18.83c-2.57,1.17-5.09,2.56-8.08,2C50.07,17.22,53.36,19,56.19,18.83Z"/><path class="cls-40" d="M66.13,4.79c-2.35.15-4.48-1.53-6.9-.8-.36-.4-.72-.79-1.09-1.18C60.71,3.85,64.38.48,66.13,4.79Z"/><path class="cls-41" d="M32.3,14.92a2.11,2.11,0,0,0,.82-.17c.82,0,1.63-.08,2.45-.1.53,0,.93-1.92,1.58-.14a13.35,13.35,0,0,1,.4,1.9c-.62.09-1.41.45-1.83.2C34.61,16,33.05,16.23,32.3,14.92Z"/><path class="cls-42" d="M58.16,88.05C57,85.56,54,84.16,54.13,81c1.13-4.35,1.89-4.64,8.14-3.15,2.23,1.19,4.37,3.08,7,.85a23.38,23.38,0,0,0,11.6-.5c1.44-2.6,4.75-3.35,8-1.57,1.61.87,3,2.14,4.95,1.14a4.23,4.23,0,0,1,3.37-.36c.9.56,1.09,1.6,1.62,2.39,2.31,3.36.76,4.67-2.54,5.1a3.42,3.42,0,0,0-2.22.91c-2.9-.74-5.72-1.89-8.81-1.57,3.13-.24,6,1.35,9.1,1.27,2.74-.52,5.35-1.57,8.16-1.81,3.82-.33,5.68,1,6.06,4.66.44,4.28-2.66,3.19-5,3.28a1.18,1.18,0,0,0-.83.49c-1.75.32-3.35.33-3.89-1.86,1-1,2-2.08,3.63-1.92-1.51-.27-2.45.81-3.5,1.64-.44.52-1.41.62-1.58,1-.35.79.61.46,1,.55,1.66.42,3.34,1.67,5,.09a23.83,23.83,0,0,0,4.39,0c1.5-.2,2.56.29,2.25,2.12l-2,1.09c-5.07,3.4-10.3,1.15-15.5.45-1.72-.3-2.91-2.27-5.31-.72-1.82,1.17-4.43.43-6.44-.94-1.67-1.66-4.22-1.88-5.86-3.59-.58-.79.3-1.47.19-2.23A3.94,3.94,0,0,0,74,90.24a4.09,4.09,0,0,1-1.84,2.07c-2.77.29-5.58,1.61-7.85-1.61-.85-1.21-3.08-.6-4.68-.78C58.32,89.78,57.11,89.85,58.16,88.05Z"/><path class="cls-43" d="M93.17,94.74c.58-.8,1.29-.49,2.12-.44,3.39.18,6.91,3.49,10.26-.33.24-.26,1.71.56,2.61.88-2,2-3.82,4.58-7.32,3-2.38,2.76-5.56,2.33-8.47,2.32,1,.66,2.73-.57,3.84.78l-7.77,4.55c3.71-1,6.9,1.14,10.35,1.16-1.76,1.49-3.8,1.76-5.89,1.89-.86-3.54-2.8-.1-4.24-.59s-3.9,2.38-4-1.76c0-1.61-1.17-.11-1.64.12-3.7,1.84-7.24,1.16-10.76-.5a1.09,1.09,0,0,1-1.19.18,1.84,1.84,0,0,0-1.65-1.36c-3.19-.26-2.56-2-1.33-3.82.84-.91.29-2.77,2.08-3,1.64-.77,2.24-4.14,5-2,5.14,3.6,9.78.88,14.48-1.13C90.88,93.67,92,95.86,93.17,94.74Z"/><path class="cls-42" d="M109.1,68.82c1,1.49.79,4.41,4,3.14.59,1.67.88,3.57-.53,4.68-1.19,1-3,1.12-5,1.8,3.24.72,6.87-1.44,8.66,2.38l-4.93,1c-1.3.82-2.83.88-4.25,1.21-5,1.14-6.41.23-9.14-5.5.1-.7.44-1.15,1.21-1.15-.45-.25-.83.09-1.24.16-1.4.25-2.67,1.19-4.18.76C92.08,75.73,89.72,76.1,88,75c-.69-.39-1.26-1-2.14-1-1.19,0-2.63-.11-2.63-1.47s.36-3.33,2.66-3.22c.66.68,1.25.55,1.78-.19,2.23-.5,4.61-.18,6.69-1.5.83-.53,2.19-.73,2.78.12,2.78,4,5.49,1.34,8.09,0C107,66.76,108.51,65.85,109.1,68.82Z"/><path class="cls-6" d="M141,74.75c-1.61,2.32,2.46,1.78,1.82,3.61-.78.08-1.81-.13-2.29.29-2.17,1.88-3.84,2.29-7.21,1.68-1.75-.31-2.29.73-2,2.33-2.16.45-3.94-1.19-5.21-2.08-2.16-1.54-3.38-.1-5,.2-1.68-1.09-4.36-1.19-4.16-4.16,5.24-2.87,9.5-3.27,12.25-1.13,1.26-1.58-2.67-2.57-.47-4.25C133.65,69.55,137.42,71.85,141,74.75Z"/><path class="cls-43" d="M98.17,77.78c2.51,3.94,5.35,6.72,10.36,3.45.53-.34,1.77.39,2.68.63,3.15,2.29,3.15,2.29-1.54,4.58,3.7,2.7,7.64-.39,11.42.44-1.42,3.25-7.79,1.41-7,6.89a1.4,1.4,0,0,1-.06,2.06l-4-2.07c-1.68-2.92-5.14.45-7-2l0,0c.67-2.22,5.52.81,4.45-3.49-.41-1.61-.6-3.83-2.83-3.87-2,0-4.65-.06-6,1.09-1.81,1.51-3.08.21-4.56.31v0c.15-.47.28-1.34.46-1.35,5.88-.3,3.87-3.6,2.57-6.64A.66.66,0,0,1,98.17,77.78Z"/><path class="cls-44" d="M96.21,100.93,89,100.6c4-1.14,8.11-1.08,11.88-2.77C101.08,101.52,98.14,100.46,96.21,100.93Z"/><path class="cls-45" d="M118.47,83.93c2.93-.86,5.85-2.2,9.3-.54C124.51,86.6,121.49,85.32,118.47,83.93Z"/><path class="cls-46" d="M114.06,95.83l.06-2.06h10.06C121,96.16,117.58,96.34,114.06,95.83Z"/><path class="cls-47" d="M116.94,76.71c.67,2.1,3.54,1.94,4.18,4.07-1.68-.51-3.35,1.84-5,0,1.07-.85.64-1.49-.21-2.23-1.06-.94-1-1.88.31-2.6A1.11,1.11,0,0,1,116.94,76.71Z"/><path class="cls-48" d="M115.17,29c.83,3.95,4.7,2.5,7,3.91L121,34.37l2.2.56c.58,2,0,2.73-2.07,1.89-1-.31-2-.68-3.08-.91-.34-.07-.76.23-1.14.36L118,37.58c-.37,1.83-1.76,1.73-3,1.4a11.9,11.9,0,0,0-5.28.2,5.8,5.8,0,0,1-3.85-3c-1.09,1.62-1.53,4.39-4.41,2.73-.5-.29-.47-1-.92,0-1.49,3.46-3.4,1.48-5,.15-1.23-1.05-2.07-1.51-3.73-.6a7.57,7.57,0,0,1-6.26.57,4.83,4.83,0,0,0-5.06.64c-2.08,1.59-4.08,1.31-4.66-1.81a14.5,14.5,0,0,1,5.41-4.45c2.52-.65,5.32.69,8.19-1.31.1,0-.94-.47-.51,0,.14.16,0,.24-.28.41-2.47,1.46-5.22.13-7.77.83a4.58,4.58,0,0,1-5.26-3.1,1.82,1.82,0,0,1,2.1-2.12c6.78.38,13.65-1.85,20.35.68,2.1,3.65,2.1,3.65,4,1.16.58-.82,1.25-.78,2-.23,2.74,1.78,5.11,1.2,7.22-1.12C112.67,27.73,114,27.67,115.17,29Z"/><path class="cls-49" d="M76,29.78c1,2.28,3.22,2.58,5.22,3.23.26.21.33.4.21.55a.46.46,0,0,1-.33.2,7.19,7.19,0,0,1-4.9,4.13,4.45,4.45,0,0,1-1.15.77c-3.45-.23-3.48-.24-2.3-2.35.08-.15.59-.1.55-.41a1.35,1.35,0,0,1-.88.34c-1.78,0-2.11,1.13-1.88,2.62-.74,2.48-3.49,1.2-4.81,2.6-3.63,1.62-7.21,2.29-10.81-.2a3,3,0,0,0-3.64-.06c-.85.54-2.41.59-2.16-1.39-.33-.66-.66-1.32-1-2,2.56-.61,4.45-1.65,4.63-4.78.13-2.39,3-2,4.37-3.58-.27-1.32-2.89.11-2.61-1.7s2-2,3.48-2.09l3.13-.85a21.45,21.45,0,0,1,2.25,1.78c1.54.48,3.3-.25,4.71.86,2.31.47,4.13,2.52,6.73,2.06A1.37,1.37,0,0,1,76,29.78Z"/><path class="cls-50" d="M76,29.78c-.31,0-.62.06-.94.08-2.71,1-4.25-2.18-6.76-1.88-1.34-.16-2.48-.61-4,.41-1.64,1.12-1.63-.41-1.26-1.62.74-2.56,2.5-1.31,4-1.08,4.26-1.08,9.79,5.18,13-2.34.55-1.29,8.91-.78,9.41.61,1.21,3.37,2.86,2.28,4.79.91.42-.3.41-.17.91,1.21s1.84.52,2.78.67c3.45.54.86,1.37.12,2.12-2.09,1.78-4.3-.08-6.44,0-2.56.08-4.79-.47-7.41.95C81.93,31.07,78.86,28,76,29.78Z"/><path class="cls-51" d="M81.12,13.84c.73-1.86,5.26.87,4.3-3.82-.21-1,4.33-.66,6.71-.17-.36,2.3.48,4,2.8,5.29-3.43-.76-6.31-.76-9.16,1.28S81.59,16.65,81.12,13.84Z"/><path class="cls-52" d="M110.13,20.84c2,2.43,4,.58,5.94.09.78,2.1-2,2.84-1.82,4.69a.8.8,0,0,1-1.17.13c-.06-1.14-.83-2.28-1.75-1.79-2.37,1.28-4.78-2.07-7,.26-.1.11-.93-.28-1.23-.61-.5-.55.2-.78.47-1.13C105.3,20.14,107.22,18.49,110.13,20.84Z"/><path class="cls-53" d="M104.09,29.8l-2,.23c1.51-2.09-1.88-2.84-1.09-5,2.29,1.55,5.21.1,8.19,1.62Z"/><path class="cls-54" d="M73.15,17.8l3.88.72c2.93,1.76.34,3.05-.68,2.79-2.08-.52-4.19-.14-6.27-.66C70.38,18.81,72.71,19.33,73.15,17.8Z"/><path class="cls-53" d="M113.08,25.75l1.17-.13c1.31.33,3-.44,3.87,1.21-.05.19-.09.38-.14.58a2.27,2.27,0,0,1-1.89,1.25,1.3,1.3,0,0,0-.92.3l-3.87-.28C110.81,27.05,111.88,26.36,113.08,25.75Z"/><path class="cls-34" d="M67.1,25.69c-1.33.36-3-.44-4,1.08-1.36.07-1.84-.75-2-1.94C63.24,24.4,65.37,23.68,67.1,25.69Z"/><path class="cls-55" d="M40.23,67.73c.67-.67-3.57-1.21,0-2A5.83,5.83,0,0,1,44,64.44c3.93,0,8-1.87,11.79.48a3.87,3.87,0,0,1,2,3c-.1,1.39.11,2.85-.68,4.13-2.58,1.24-4.92,2.51-3,6.09.42.77-.71,1.69-1,2.59l-1.93,1c-3.8-1.53-4.23-6.8-8.74-7.49.74-1.67,2.29.3,2.95-1.08-.18-1.94-2.63-.91-3.25-2.32.81-1.15,2.55-.41,3.27-1.57C43.12,71,41.86,68.71,40.23,67.73Z"/><path class="cls-56" d="M40.23,67.73c2.71-.85,5.72,2.34,8.37-.74-.65,4-3.89,3.33-6.41,3.9A12.37,12.37,0,0,0,40,70.3c-2.71,5.81-4.66,1.61-6.76-.47q-1.53-1.52-3.07-3C33.67,65.78,36.81,68.26,40.23,67.73Z"/><path class="cls-57" d="M25.16,90.6c.13-1.49-1.4-1.79-2-2.76,1.54-3.09,3.32-6.68,7.32-3.6,3.35,2.57,2.3-.84,3.27-2.09,2,2.65,4,4.92,7.5,4.82-1.56,3.28-4.44,1.62-6.76,1.69-2.51.07-5.14-1-7.26,1.25C26.86,91.05,26.52,92.39,25.16,90.6Z"/><path class="cls-58" d="M27.25,89.91c.41-3.94,3.63-2.73,5.58-2.54,2.89.28,5.67,1,8.44-.4,1.67.38,1.67.38-.15,2.78Z"/><path class="cls-59" d="M28.05,80.25c1.68-.13,3.2-1,5.71-2.45C32.05,81.29,30.37,81.6,28.05,80.25Z"/><path class="cls-60" d="M93.17,94.74c-.47,1.34-.47,1.34-3.07.13-4.76,2.27-9.62,3.65-14.88,1.83C73,94.29,72,98,70.17,97.76c0-.78,1.29-1.64.43-2.17a2.8,2.8,0,0,0-3.63.46c-1.73,2.45-3.91,1.27-6.07,1.37-4,.19-2.61-1.76-1.72-3.65l0,0c1.29-.64,2.72-1.49.59-2.6a16.4,16.4,0,0,1-3.58-2.41l0,0c.39-1,1.19-.91,2-.72,2,2.19,5.44-.7,6.78,1.38,2,3,4.83,1.47,7.12,2.39a5.18,5.18,0,0,1,1.07.49c1.11.73,2.27.42,3.43.17,1.52-.37,3-.84,4.49.23,1.94,1.3,4.44,1.8,6.2.87C89.9,92.17,91.39,93.46,93.17,94.74Z"/><path class="cls-61" d="M52.18,106.75c-1.76-2.36-5-1.22-7-3-.92-.81-2.7-.32-3-2,5.73-1.4,11.39-1.45,16.92.92a8.69,8.69,0,0,1,3.41,3.42c-1.19,3.2-3.16,2.2-5.18,1l-.12-1.25c-1.78-.19-3.56-.34-5,1Z"/><path class="cls-62" d="M53.16,80.78c-1.15-1.38-.23-3.1-.93-4.84-1.61-4,2.42-3.64,4.93-4.1,1.49.13,2,2.09,3.71,1.9,4.11-.45,4.2,1.68,2.85,4.64l-.57.4c-3,.71-7.12-3.11-9,2.19A1.92,1.92,0,0,0,53.16,80.78Z"/><path class="cls-63" d="M62.36,105.94c-2-.15-2.51-1.91-3.32-3.31.06-.32.13-.63.2-.94,3.23,2.56,5.88-.73,8.85-.89-.7,4.61,2.56,2.26,4.34,2.27.14,1.38-.94,1.8-1.45,2.58C68.2,108.5,65.28,107.17,62.36,105.94Z"/><path class="cls-64" d="M42.12,101.71l3,2-10.93-1c0-.34,0-.69,0-1Z"/><path class="cls-65" d="M59.18,93.77c-2.52-.19-5.39.86-7-2.47,2,1.86,5.56-1.46,7,2.5Z"/><path class="cls-60" d="M56.16,88.79c-2.11,3.23-4.07-.31-6.12.29,2.07-2.36,4.06-.12,6.1-.32Z"/><path class="cls-66" d="M75,38l1.25-.11c.88,1.89,2.91,2.84,3.76,1,1.46-3.07,3-2,5.07-1.28,1.64.56,3.13,1.26,5.09,0,2.67-1.77,5.5-1.32,7.6,1.45.2.26.56.75.58.75,1.59-1.13,2.69-3.87,5.3-1.56,2.64-7,4.29-.38,6.35.47a2.35,2.35,0,0,1,1.23,3c-2.86.85-1.77,1.95,0,2.36,1.16.27,1.74.48,1.82,1.63-2.32,2.22-4.21.33-6.24-.61-3.12-1.44-5.57-1.43-8.07,1.81-2.23,2.9-.86,3.79,1.39,4.5,3.18,1,6.49.8,9.27,3.82a7.15,7.15,0,0,0,8.49.41c1.93-1.42,3.87-.22,5,1.72s-.66,2.54-1.88,3.32c-2.07-1.34-3.12,1.47-4.93,1.2-4.42-1.58-8.6-.59-12.68,1.26a3.74,3.74,0,0,1-1.37.17c-2.34-.83-5-.57-7.17-1.91-2.08-2.11-4.85-1.77-7.45-2.08-1.58-2-4.67-3.51-1.87-6.68-2.59-2-6.34,1.65-8.6-1.79.11-3.57,1.84-7.48-2.19-10.17a3.46,3.46,0,0,1-.34-1.37A2.67,2.67,0,0,1,75,38Z"/><path class="cls-67" d="M121,60.67c.69-1.15,2.26-2.05.36-3.66-1.23-1-2.09-1.58-3.29-.26-1.68,1.86-4.21.43-6.06,1.59-.45-2.45-4.05-.57-4.48-3.33a2.26,2.26,0,0,0-2.68-1.7,10.44,10.44,0,0,1-2.9-.06C99.24,52.84,95.85,52,96,49c.13-2.24,2.5-4.56,5.18-5.77A5.62,5.62,0,0,1,108,44.38a5.4,5.4,0,0,0,5.06,1.33l.28.32c-.12,1.39-.71,2.18-2.25,1.79-2.42.58-5.26-1.12-7.46,1.46,2.41-.77,4.94-.36,7.1-1.66,1.27.59,2.78.84,3.42,2.68.8-1.21.45-2.51,1-3.54,2.58-5,7.1-2.79,11-2.93,2.23,1.33,3.77,3.47,7.27,2.71,2.88-.62,3.91,2.85,2.09,6.58,1.92,0,3.29-3.39,5.14-1.41s-.83,3.42-1.54,5.09a2,2,0,0,0-2,1.05l-1,.88c-2-2-4-1-5.9.15C127.36,60.76,123.78,58.57,121,60.67Z"/><path class="cls-68" d="M102.18,62.84c.29-.05.59-.1.88-.13,2.62.75,5.14-.74,8,.31,3.21,1.16,2,2.17,1,3.78l-3,2c-.92-1.23-1.6-.72-3-.31-3,.9-6.43,6.88-9.4-.16-.36-.86-1.61-.2-2.14.32-2.26,2.2-4.86,1.13-7.38,1-.54-3.48,4.13-1.82,4.4-4.48-.18-1.24-2.92-1.42-1.48-3.27.94-1.2,2.33-1,3.59-.56C96.47,62.27,99.37,62.29,102.18,62.84Z"/><path class="cls-67" d="M112.12,66.8c0-1.61-3.73-4.23-4.72-3.16-2.26,2.42-3,0-4.34-.93.71-2.54,3.53-2.6,4.92-2.61a20.18,20.18,0,0,0,6.34-.78c3.24-1,1.74,1.31,1.78,2.55-2,1.45-1.36,2.68,1,3.58C115.13,66.63,113.33,65.55,112.12,66.8Z"/><path class="cls-69" d="M141,74.75c-4-.82-7.51-3.66-11.89-3-1.09-1-2,.91-3,.23,0-3.5.74-5.54,4.92-3.5a4.22,4.22,0,0,0,5.09-.7.57.57,0,0,1,1,0c-.5,3.17,3,3.11,4.07,5C141.12,73.46,141.07,74.1,141,74.75Z"/><path class="cls-70" d="M126.1,72c1-.31,1.89-2,3-.23,0,1.3,2.18,1.93,1,3.74-.61.92-1.49,1.92-2.18,1.7-2.53-.8.2-1.35.14-1.74-.18-1.44-1.87-.83-2.26-.57-2.74,1.87-5.92,1.15-8.86,1.79l-.75-.75C118.41,71.92,123.19,74.32,126.1,72Z"/><path class="cls-71" d="M137.09,67.84l-.49-.08-.49.06c1.72-4,4.14-.81,6.94-1.06C140.78,68.76,138.9,68.05,137.09,67.84Z"/><path class="cls-9" d="M130.15,58.88c2.91-2.69,3.85-2.71,5.9-.15C134.06,58,132.12,58.76,130.15,58.88Z"/><path class="cls-72" d="M15.08,50.7c3.53.56,4.77-1.36,4.49-4.32,2.4-1,2.3,3.34,4.61,1.66,1.23-.9-.24-2.09,0-3.16.17-.67.76-1.51,1.2-1.32,4.33,1.91,7.88-1.1,11.79-1.74h0c.93-1.28,1.35-3.69,3.76-1.7,4.7,4.79.68,6.86-2.83,9.1a2.8,2.8,0,0,1-.86.44c-1,.33-.3.38.07.55,1.21.58,3,.47,2.84,2.59l-11-1.9c-1.69,1.73-3.7,1.68-5.82,1a39.73,39.73,0,0,1-5.9,2.21C14.24,54.8,15.51,52.1,15.08,50.7Z"/><path class="cls-73" d="M47.11,59.73c-2-.93.87-3.35-1.52-4.12-2.48,4.6-4.47-1.38-7-.72l2.64-2c2.12-1,4.3-.18,6.45-.23,3.2,1,5.85-1.2,8.83-1.56,3.84-.29,4.7,2.7,5.89,5.34-3.47,6.42-5,6.9-12.18,3.87C49.18,60.07,48,60.59,47.11,59.73Z"/><path class="cls-74" d="M47.11,59.73,50,59c.34,4.12-.95,5.56-5.92,6.63l-3.91.18c-.16-.83-.36-1.62-1.36-1.83-.1,0-3.82-4.18-3.82-4.26-.1-2.85,3.37.08,3.82-2.32.08-.43,1.26-.06,1.62,1.28C41.12,61.21,45.13,61.71,47.11,59.73Z"/><path class="cls-75" d="M48,53.58c-2.33.32-4.64.46-6.82-.71l-1.08-.06C38.51,51,36.07,51.29,34,50.44c1-1.54,2.63-1.55,4.14-1.83,3.13-2.5,6.27-2.13,9.4,0,1.37,1.13,3.51.79,4.7,2.47C51.59,53.14,49.62,53.05,48,53.58Z"/><path class="cls-76" d="M23.28,51.93c1.76-1.39,3.95-.3,5.82-1,.58,1.57.67,3.18-1.14,3.84C25.43,55.67,23.53,55.05,23.28,51.93Z"/><path class="cls-77" d="M1.48,51.58c1.62-2.39,3.58-2.19,5.71-.76C5.33,51.4,3.6,53,1.48,51.58Z"/><path class="cls-77" d="M7.17,50.8l3-1c1.24,3-2.91,2.4-3.19,4.51C7,53.16,7.1,52,7.17,50.8Z"/><path class="cls-48" d="M47.12,49.88c-2.6-3.28-5.88-1.67-9-1.27-.5-.94-.74-1.9.46-2.45,3.24-1.48,3.41-2,1.57-5.31,1.3-1.09,2.63-.68,4-.06,1.54-1,3.56.38,5-1,5.76-1.12,11.2,3.95,17.06.89.07.23.13.45.2.67-1.83,1.88-2.94,4.71-6.28,4.63a2.18,2.18,0,0,0-1.92,1.32c-1.56,2.87-3.38,4.73-6.84,2.1C50.24,48.55,48.65,50.43,47.12,49.88Z"/><path class="cls-78" d="M37.17,41.82a8.71,8.71,0,0,1-11.25,2.35c-.32-.19-1.15.45-1.74.71-1.86-3.78-5.53-2.6-8.47-3,1.17-1.37,2.31-2.72,3.44-4.06,0-.39.05-.79.07-1.18,4,3.85,9.71.63,14.18,3.32A15.73,15.73,0,0,0,37.17,41.82Z"/><path class="cls-33" d="M37.13,28.77c2.45.31,2.94,2.81,5.76,4.29-3.67.64-5.47,4.31-8.79,1.56,1.48-1.33-1-2.87.22-4.22C35.06,29.51,35.67,28.4,37.13,28.77Z"/><path class="cls-79" d="M37.13,28.77l-2,2.06c-1.28.51-2.23,2.56-4,.84-1-1.58-3.18-.12-4.58-2,3.76-.38,7.27-.52,10.53-1.8C37.14,28.2,37.14,28.48,37.13,28.77Z"/><path class="cls-80" d="M31.18,31.67l4-.84a2.23,2.23,0,0,0,2.44,1.7c-.54,1.74-2.59,1-3.49,2.09-1.3-.66-3.36,2.82-4.14-.76A2.12,2.12,0,0,0,31.18,31.67Z"/><path class="cls-78" d="M44.12,40.79l-4,.06c-1.9-2.41-1.35,2.66-3,1-.4-1.16-.79-2.31-1.3-3.81C38.66,39.45,42,38,44.12,40.79Z"/><path class="cls-81" d="M139.1,56.8c-.32-1.72.82-3,1.41-4.64-2.84-1.34-3.47,6.23-6.73,1.7-2.06-2.86,1.52-2.78,2.72-4.16-1.68-1.91-2.69-3.09-5.83-1.35-2.44,1.35-3.16-2.74-4.53-4.52.71-1.59,9.6-6.27,9.68-5.7.58,4.42,4.4,2.71,6.83,3.56-2.26,3.86-5.94,1.8-9,2.69,2.91-.86,2.62,7.22,6.78,2.22a39.06,39.06,0,0,1,3.83,5c.48.88,1.07,3-.92,3.08S141,57.05,139.1,56.8Z"/><path class="cls-82" d="M111.22,41.71l-1.23-3c1-1.75,2.29-1.8,4-1.11,1.25.5,2.7,1.17,4,0,2.47.92,3.13,2.24.21,3.19C116,41.48,113.57,41.42,111.22,41.71Z"/><path class="cls-83" d="M121.12,36.82a1.89,1.89,0,0,0,2.07-1.9c1.71.2,4.09-1,5,.56,1.29,2.14-2.75,1.75-2.63,3.78-1.82-.23-1.68,3.08-3.4,2.22S122.77,38.13,121.12,36.82Z"/><path class="cls-84" d="M115.15,46.76c.65,1.77,2,4.6.76,5.25-3.27,1.66-2.61-3.33-5-3.85l.34-.55,2.1-1.58Z"/><path class="cls-81" d="M145.38,36.67c-3.4,4.31-6.32-.38-9.48-.6,3.18-.72,6.21,1.67,9.41.56Z"/><path class="cls-5" d="M62.36,105.94c2.86-.56,5.8,1.23,8.62-.29l1.28.15-2.51,3.42C66,106.15,60.84,111.1,57.27,107,59,106.82,61.12,108.43,62.36,105.94Z"/><path class="cls-5" d="M52.13,106.78c.71-3.19,3.21-1.42,4.95-1.77.07,0,.24.2.25.32s-.12.28-.18.43C55.73,107.34,54.1,107.93,52.13,106.78Z"/><path class="cls-53" d="M127.08,27.79l-1.8.87c-2.15-1.55-5.49,1.6-7.16-1.83h0c3.16-3.24,7.19,1.5,10.28-1.66C129,27,127.31,26.92,127.08,27.79Z"/><path class="cls-52" d="M116.21,20.79c.78-.82-1.44-4.07,2.36-2.64,1.2.45,3.05-.84,4.6-1.34C121.86,19.9,118.66,19.68,116.21,20.79Z"/><path class="cls-12" d="M118.12,26.83c1.86,2.66,5.18-.39,7.16,1.83-3.06-.07-6.12,1-9.19,0Z"/><path class="cls-1" d="M44.17,22.86c.48.92,2.14,1.42,1,2.9-1.33.42-2.57,1.51-4.25.59C42.23,25.32,41.61,22.71,44.17,22.86Z"/><path class="cls-85" d="M88,74.66c2.27-.67,4.1-.26,5.16,2.08-1.2,1.35,1.46,1,.91,2-2,2-4.31.56-5.16-.61-2.18-3-5-.14-7.15-1.34.1.6.2,1.2.29,1.8-2.92,1.57-5.48-.72-8.26-.75a3.22,3.22,0,0,1-.12-4.53c2-2.34,3.49-5.38,6.61-.53C81.47,74.62,85.49,73.58,88,74.66Z"/><path class="cls-86" d="M74.23,77.64c2.92-2.09,5.13,1.51,7.85,1,1.32,1.06.36,2.78-.29,2.34-3.58-2.41-7.31.48-10.77-.73a7.34,7.34,0,0,1-1.87-1.43L69.09,78C70.69,76.2,72.44,76.54,74.23,77.64Z"/><path class="cls-87" d="M94.14,85.79c-4.13.24-8-1.7-12.23-1a11.69,11.69,0,0,1,12.22,1Z"/><path class="cls-86" d="M69.15,78.79c-2,4-4,3.49-6,0v0c.59-.58,1.17-1.17,1.77-1.75,2.76-2.7,3.82-1.24,4.24,1.75Z"/><path class="cls-88" d="M81.05,92.7l-4.72.93c-1-1.61-2.84-.24-4.08-1a2.29,2.29,0,0,0-.19-.77l1.08-2A1.33,1.33,0,0,1,75,89.56C77,90.7,79.79,90.22,81.05,92.7Z"/><path class="cls-43" d="M103.15,91.8c-2.69,3-5.43-.52-9.08,1.18,1.62-3.2,3.36-3.16,5.06-3.2h0c.77,1.77,2.26,2.11,4,2Z"/><path class="cls-89" d="M94.1,78.76l-2.19-1.54,1.28-.48c2.84-.06,5.52-1.64,8.55-1-.67,1.77-3,.4-3.57,2.06h-1Z"/><path class="cls-43" d="M99.13,89.78c.62-3.07,3.74-2,5.77-4.17-.44,4.75-4,3.08-5.77,4.16Z"/><path class="cls-90" d="M75,89.56l-1.87.28c.52-3.16,2.57-3.65,5.22-3.18C77.57,88.1,75.65,88,75,89.56Z"/><path class="cls-5" d="M75.22,96.7A80.08,80.08,0,0,0,90.1,94.87c-3.64,3.76-10.94,5-15.37,2.61,0,0,0-.32.12-.45A1.48,1.48,0,0,1,75.22,96.7Z"/><path class="cls-91" d="M92.18,64.91c.81,1.82,1.69,3.73-1.74,3.1a2.7,2.7,0,0,0-3.22,1.63c-.28.56-.57,1-1.07.17-2.53-1.38-4.87,1.91-7.48.27-1-.66-3,0-3.4-1.46s1.4-2,2.42-2.66c1.36-.92,2.67-1.9,4-2.84.89-.66,2-.83,3.52-2A9.14,9.14,0,0,0,81.92,63a35.75,35.75,0,0,1-8.71,4.21c-2.87-1.3-1.29-2.72,0-3.92,1.81-1.68,5.26-1.47,5.26-5.4,0-1.09,3.16-1,4.81-1.64,2.19-.17,3.28,1.66,4.85,2.63,2.53,1,2.23-2.43,4.47-2.59-.54,2.2,1.32,3.11,2.49,4.48-.69,1-1.66.7-2.61.62-1.3-.11-2.72-.23-3,1.55C89.26,65,91.62,63.8,92.18,64.91Z"/><path class="cls-92" d="M73.1,66.76c2.43-2.65,5.74-3.31,9.06-3.94l0,0c-1.32,2.61-3.09,4.7-6.35,5.09,3.16,3.46,7.36-.82,10.38,2-2.05,0-2.33,2.29-2.14,2.84.48,1.4,1.47-.12,2.28-.23C88,72.19,88,73.51,88,74.66c-2.59-.09-5.18-.21-7.76-.27-2.42-.06-2.88-1.33-2.13-3.4-2.38-.53-1.65,3.35-4,2.8-3,.68-2.6-1.51-2.76-3.24A2.71,2.71,0,0,1,73.66,70c-.46-.36-1.12-.18-1.57-.54C69.58,67.54,72.16,67.45,73.1,66.76Z"/><path class="cls-93" d="M81.14,33.76l.12-.75c2.67-1.38,6.51,1.47,8.64-2C88.14,35.17,84.37,33.71,81.14,33.76Z"/><path class="cls-94" d="M75.13,38.89c0,.39.05.79.07,1.18a7.65,7.65,0,0,1-5.85,3.2,3.82,3.82,0,0,1-3.13-2.48v-.08c.11-3.43,3.25.23,4-1.71C71.84,38.4,73.47,37.86,75.13,38.89Z"/><path class="cls-48" d="M75.13,38.89,70.21,39c-1.7-1.74-.75-3.06,1-3.48s3.63-.09,5.81-.09c-1.49,2-3.4.91-5.11,1.9L75,38A3,3,0,0,1,75.13,38.89Z"/><path class="cls-48" d="M68.34,28c2.52-.34,4.69.61,6.77,1.88C73,31.39,73,31.39,68.34,28Z"/><path class="cls-95" d="M73.1,66.76c-2.78,2.35,1.14,2,1.32,3.5-.85,1-2.15.4-3.26.54l-.7,0c-1.92-1.15-3.54-2.83-6-2.92-1.25,0-3-.61-2.5-2.26a2,2,0,0,1,2.91-1.12A21.3,21.3,0,0,0,55.91,66C52,64,48,65.59,44.09,65.6,46.91,64.13,49.35,62.34,50,59c4.77,3.22,8.74,1.93,12.2-2.18l.64.08a9.08,9.08,0,0,1,1.22.48c2,.44,3.69,2.85,6,.7a25.91,25.91,0,0,0,1.58-2.76c1.88-1.66,4-1.64,6.28-1C79.17,56,82.29,54,83.13,56.7c-.67,2.12-6.32.58-3.73,5.09-1.2.4-2.6.54-3.54,1.27C74.67,64,71.25,63.53,73.1,66.76Z"/><path class="cls-96" d="M71.16,70.8c1.42.57,1,3,3,3-1.08,1.31-.16,2.57.09,3.85-1.66.54-3.73-.71-5.08,1.16-2-4.84-4,.52-6,0,.43-2.94.42-2.84-2.55-3.12-2.19-.21-2.52-2.35-3.43-3.84-.19-1-1.57-2.07.07-3a3.5,3.5,0,0,1,4.08-.74c3.12,1.53,6.65,1.46,9.82,2.72Z"/><path class="cls-92" d="M71.13,70.78c-5,1.74-9.14-2.19-13.9-2L55.91,66c2.15-2.92,7.38-3.22,12.47-.67-1.85,1.46-4.09-1.11-6.22.87C65.58,67.2,69.78,66.48,71.13,70.78Z"/><path class="cls-42" d="M72.25,92.58c1.63-.71,3.77-3.4,4.08,1C74.92,93.48,73,95.51,72.25,92.58Z"/><path class="cls-97" d="M69.09,42.61l6.11-2.54c-.62,2.44,8.47.09,2.54,5.14,3.27,2.24,1,3.88-.59,5.59l-.48.38C75,51.52,74.75,50,74,49.11A4.9,4.9,0,0,1,73.42,48c-.47-1.77-.34-4-3.26-3.68C69.32,44.35,68.76,43.61,69.09,42.61Z"/><path class="cls-98" d="M92.18,64.91c-1.22-.91-3.39,2.53-3.86-.62-.28-1.87,1.11-3.36,3.33-3.45,1.15-.05,2.3-.08,3.45-.12,2.3.91,5.16-.06,7.08,2.12.57,2.14-.19,2.5-1.83,1.25-2.95-2.23-6.46-.75-9.72-2.48.17,2.61,2,1.63,2.56,2.52a.43.43,0,0,1-.1.42A5.56,5.56,0,0,1,92.18,64.91Z"/><path class="cls-99" d="M83.13,56.7c-1.26-1.7-4.52,1.84-5-1.91l.44-.5a6.53,6.53,0,0,1,1.19-.65c2.37-.66,4.43-3.74,7.27-1-3.16,2.68.7,4.11,1.1,6.16C86,59.23,85.18,56.51,83.13,56.7Z"/><path class="cls-100" d="M87,52.67c-3.21-1.53-4.92,2.58-7.86,2.09-1-1.14-2.83-1.88-2-4h0c1.84.49,3.58,1,5.54.05S86.58,49.72,87,52.67Z"/><path class="cls-101" d="M83,48.43c1.07-2.17,1.85-3.56,4.54-3C86.71,47.46,85.15,47.75,83,48.43Z"/><path class="cls-84" d="M110.94,48.16c-2.75,2.72-6.79,1.07-9.8,3,2.22-4.63,5.56-5.9,10.14-3.51A2.15,2.15,0,0,0,110.94,48.16Z"/><path class="cls-102" d="M69.09,42.61c.2.25.45.76.58.73,5.49-1.42,4.86,2.12,4.47,5.48-2.31,1.61-5.09,2.25-7.49,3.74-2.06,1.27-4.5,1.53-6.45-.35a3.07,3.07,0,0,0-4-.5c-2.4,2-5.23,2.12-8.15,1.87l3.41-2.11c-1.33-1.23-3.42.14-4.33-1.59,2.19-.73,4.24-5.07,6.74,0,.34.68,3.48-2.07,3.38-2.42-.75-2.63,2.49-1.62,2.62-3.19,3.23.9,4.53-1.77,6.36-3.45Z"/><path class="cls-103" d="M56.19,51.71c1.23-1.07,2.36-2.48,4.1-.68,2.38,2.47,5.12,1.55,7-.18,2.13-1.93,4.36-2,6.82-2h0c.43,1.26-.8,3.32,1.92,3.47,1.22.07,2.55.71,2.09,2.5h0a10.62,10.62,0,0,0-6,1.2c-3.11,3.19-6.7,0-10,.75l.07,0C59.64,55.75,60,51.22,56.19,51.71Z"/><path class="cls-104" d="M82.16,62.82c.24-2.72,2.45-1.88,3.23-2.25-1.62-1.21,1,6.92-3.27,2.2Z"/><path class="cls-73" d="M62.14,56.74c1.68-2.06,4-1.31,5.84-.8,1.49.41,2.75.72,4.15.05-.33.93-.66,1.86-1,2.79-2.77,1.52-5.07-1.54-7.76-.79Z"/><path class="cls-105" d="M63.37,58c2.83-2.05,5.19.37,7.76.79C68.12,62.71,65.9,58.84,63.37,58Z"/><path class="cls-95" d="M78.13,54.8c-1.36-2.86-4.51-1-6.57-2.53l2.56-3.44c1.83-.59,1.28,2.45,3,2,.7,1.31,2,2.3,2,4Z"/></g></g></svg>