<svg xmlns="http://www.w3.org/2000/svg" viewBox="0 0 134.78 132.22"><defs><style>.cls-1{fill:#4c524d;}.cls-2{fill:#e4f4fa;}.cls-3{fill:#d8eef4;}.cls-4{fill:#676a66;}.cls-5{fill:#5f645f;}.cls-6{fill:#5b5f5b;}.cls-7{fill:#575a55;}.cls-8{fill:#70726e;}.cls-9{fill:#5b5e5a;}.cls-10{fill:#606460;}.cls-11{fill:#686e69;}.cls-12{fill:#727976;}.cls-13{fill:#5d5d5a;}.cls-14{fill:#6a6b67;}.cls-15{fill:#5c5d57;}.cls-16{fill:#656864;}.cls-17{fill:#61645f;}.cls-18{fill:#60615c;}.cls-19{fill:#cdecf5;}.cls-20{fill:#daf1f8;}.cls-21{fill:#7b8a8b;}.cls-22{fill:#959c9b;}.cls-23{fill:#d0ecf5;}.cls-24{fill:#e2f1f6;}.cls-25{fill:#bddde5;}.cls-26{fill:#f9f9f9;}.cls-27{fill:#91a8a8;}.cls-28{fill:#f6f6f7;}.cls-29{fill:#f6f6f6;}.cls-30{fill:#7d7f7a;}.cls-31{fill:#696b67;}.cls-32{fill:#898989;}.cls-33{fill:#7a7d7b;}.cls-34{fill:#696a65;}</style></defs><title>资源 1111</title><g id="图层_2" data-name="图层 2"><g id="图层_1-2" data-name="图层 1"><path class="cls-1" d="M62.51,132.22c-.53-1.52-2-.63-2.94-1.16,0-1.53,1.16-1.69,2.21-2,3.49-.52,7.09.34,10.55-.76a9.77,9.77,0,0,1,2.52-.31,4,4,0,0,1,3.1,1.28l-1.45,3Z"/><path class="cls-2" d="M74.46,129.1l-1.8.19c-3.44.91-6.94.19-10.4.42-7.61,1-14.24-2.33-21.1-4.67-4-1.77-7.84-3.77-11.64-5.9-4.37-1.92-7.44-5.84-11.84-7.71l-1.07-1.86c-1.9-2.72-4.16-5.16-5.81-8-1.9-3.21-4-6.32-5.06-9.93-4.44-9.93-6.26-20.21-4.18-31,1.07-11.52,5.52-21.8,11.68-31.44A2.34,2.34,0,0,1,15.32,28c1.85,1.49,1.36,3.28.34,4.84-2.5,3.84-3,8.3-4.19,12.55-.71,2.56-1.4,5.38,3,5.06.53,0,.65,1,.69,1.71a30.48,30.48,0,0,0-.66,20.06C15,76,18.08,79,17.11,83.05a5,5,0,0,0-.83,4.16c2.91,15.47,11.78,25.47,26.93,29.84.32.1.62.24.93.36,8.18,5.07,17.77,6,26.61,9.15C72.17,127.06,74.26,126.76,74.46,129.1Z"/><path class="cls-3" d="M74.46,129.1c-5.06-1.27-9.75-3.72-15.12-4.18-5.88-.5-10.66-4.16-15.81-6.69,1.32-2.57,3.52-2.41,5.49-1.3,7.73,4.35,16.23,3.59,24.57,4.16,7.44.5,14.8.85,22-1.45a2.86,2.86,0,0,1,2.79.58c.64,2.7-1.87,2.67-3.2,3.56-2.06,1.37-4.55,2-6.61,3.39l-3.29,1.07c-2.52-.14-4.84,1.28-7.38,1h0Z"/><path class="cls-4" d="M15.54,28.27c-2.85,1.06-3.36,3.94-4.62,6.15A66.22,66.22,0,0,0,2.36,60.21c-2.25,0-.72-2.11-1.59-2.89C5.12,38.27,14.12,22,29.39,9.48a13.6,13.6,0,0,1,2.13-1.16.82.82,0,0,1,1.2-.07c.36,2-1.12,2.92-2.38,3.93A64.43,64.43,0,0,0,16.65,27.44,3.24,3.24,0,0,1,15.54,28.27Z"/><path class="cls-5" d="M48.6,1.57C55.21-1.19,62,.33,68.57,1.3c8.9,1.31,18.2,1.53,26,7a2,2,0,0,1-1.68,1.49,120.81,120.81,0,0,0-19-4.54C66,3.7,58.07,4.18,50.18,3.4,49.35,3.05,48.55,2.68,48.6,1.57Z"/><path class="cls-6" d="M132.66,75.68c-3.78,15.5-11.07,28.94-23.19,39.54a1.63,1.63,0,0,1-1.35-1.45c.6-2.83,3-4.32,4.82-6.17a34.18,34.18,0,0,0,7.61-10.39c2.43-7.31,8-13.24,9.3-21.06A2.77,2.77,0,0,1,131.74,74C132.62,74.26,133.05,74.75,132.66,75.68Z"/><path class="cls-7" d="M93.51,9.07l1.09-.8c15.92,7.31,29.34,17.17,35.27,34.64a14.56,14.56,0,0,1,.41,2.39,1.35,1.35,0,0,1-1.36,0,3.43,3.43,0,0,1-1.26-1.49c-5.59-14.82-17-24-30.36-31.23C95.77,11.76,93.81,11.27,93.51,9.07Z"/><path class="cls-8" d="M.77,57.32l1.59,2.9c-2.17,11.14.1,21.7,4.15,32q-.52.87-1.14.06C-.78,81.26-.57,69.36.77,57.32Z"/><path class="cls-9" d="M108.42,114.21l1,1a47.47,47.47,0,0,1-20.86,12c2.22-3.74,7-3.32,9.84-6.11C101.29,118.09,104.15,115.13,108.42,114.21Z"/><path class="cls-10" d="M40.8,124.09c6.69,2.25,13.13,5.44,20.44,5.24a.54.54,0,0,1,.48.77l-2.15,1c-7-1.05-13.73-2.69-20-6C39.5,124.08,39.79,123.62,40.8,124.09Z"/><path class="cls-11" d="M132.66,75.68l-1-1.38c-1.5-5.9-.26-11.8,0-17.7a2.6,2.6,0,0,1,1.87-1.53A33.4,33.4,0,0,1,132.66,75.68Z"/><path class="cls-12" d="M48.6,1.57l1,.83c0,1.76-1.44,1.82-2.63,2.15-2.91.12-5.4,1.63-8.06,2.58-2,.53-3.66,2.39-6,1.34l-1.43-.15A27.38,27.38,0,0,1,48.6,1.57Z"/><path class="cls-13" d="M17.68,111.43c2.32-1.68,3,.92,4.32,1.73,2.58,1.62,5,3.51,7.47,5.3.09.77.07,1.4-1,.79A40,40,0,0,1,17.68,111.43Z"/><path class="cls-14" d="M28.5,119.25l1-.79,11.33,5.63-1.22.94A47.33,47.33,0,0,1,28.5,119.25Z"/><path class="cls-15" d="M133.58,55.07l-1,1.2c-2.75-3.18-4.69-6.58-3.05-11h.75A22,22,0,0,1,133.58,55.07Z"/><path class="cls-16" d="M5.37,92.32l1.14-.06,4.86,9a1.52,1.52,0,0,1-.84,1C8.46,99.16,6.12,96.15,5.37,92.32Z"/><path class="cls-17" d="M10.53,102.32l.84-1c1.72,2.78,4.31,5,5.24,8.29C13.64,107.94,11.86,105.31,10.53,102.32Z"/><path class="cls-18" d="M77.94,129.23c2.38-.95,4.68-2.49,7.38-1C83,129.63,80.65,130.77,77.94,129.23Z"/><path class="cls-3" d="M61.72,130.1a7.54,7.54,0,0,0-.47-.77l11.41,0C69.11,130.83,65.36,129.71,61.72,130.1Z"/><path class="cls-19" d="M108.42,114.21c-3.15,2.55-6.12,5.35-10,6.85-1.65-1.43-3.27,0-4.65.37-5.67,1.57-11.19,1.51-17.09,1.18-6.85-.39-13.7-.77-20.56-1.32-2.43-.19-4.65-.59-6.34-2.35-2-2-4-2-6.28-.71-8.48-1.48-14.62-7.16-21.3-11.87-1.49-1.06-1.71-2.77-2.25-4.3-1.85-5.29-3.48-10.67-5.53-15.88-1.23-3.12.67-2.88,2.54-3s2.7,1.38,3.15,2.74c1.94,5.92,6.33,9.94,10.6,14.07a28.85,28.85,0,0,0,6.46,5.22,32.43,32.43,0,0,1-7-5.85,79.94,79.94,0,0,1-5.9-6c-1.14-1.43-3-2.85-1.81-5.19,4.82.87,8.12,4.36,11.41,7.39C40,101.19,47.14,104.73,55,107.25c5.16,1.57,9.89,4.56,15.48,4.76a24.11,24.11,0,0,0,18.34,1c9.11-3,16.37-8.63,22.3-16.06a115,115,0,0,0,7.39-10.62c1-1.65,1.87-3.65,4.4-3.44,2.86,2.15,1.56,4.77.44,7a19.77,19.77,0,0,0-2,8.4C118.53,104.77,113,109.1,108.42,114.21Z"/><path class="cls-20" d="M54.52,108.24c-7.18-2-13.94-4.85-19.4-10-4-3.74-8.57-6.56-12.8-9.9-4.22-2.82-5.13-7.59-7-11.8A43,43,0,0,1,13.61,71c-1.62-6.44-.91-12.76.92-19a3.93,3.93,0,0,0-.11-.46c-4.85,1-6.07-.31-4.38-5.84,1.44-4.73,1.29-10.07,5.1-14,.62-.64.29-2.2.4-3.34.06-.3.13-.6.21-.89,3.31,1.77,4.51,4.4,2.19,7.55-2.68,3.65-2.25,7.33-1.27,11.51,1.59-1.53,1.54-3.56,2.68-4.94.87-1,1.73-2.32,3-.38a127.32,127.32,0,0,0,4.46,28.12C26.79,80,32.29,88.1,40,94.87a98.67,98.67,0,0,0,12.22,9.44C53.54,105.17,55.08,106.14,54.52,108.24Z"/><path class="cls-21" d="M14.41,71.35a50.76,50.76,0,0,0,7.91,17c1.36,4.67,5.51,7.24,8.23,10.88a1,1,0,0,1,0,1.49C24.36,96.13,20.93,89.46,17,83.18c-.77-3.72-3.37-6.84-3.55-10.76C13,71.34,13.5,71.18,14.41,71.35Z"/><path class="cls-22" d="M14.41,71.35l-1,1.07c-1.93-7-3-13.85,1.09-20.49A1.58,1.58,0,0,1,15.28,54C12.54,59.68,13.48,65.51,14.41,71.35Z"/><path class="cls-23" d="M21.53,40.3c-2.09,1.67-1.85,4.5-3.24,6.51-.44.63-1,1.64-1.49,1.66a2,2,0,0,1-1.9-1.93c.34-4.18-2.11-8.75,2.19-12.41,3.09-2.62-1.16-4.42-1.34-6.75C19.49,19.27,26.57,14.19,33,8.47l5.51-2.19a8.86,8.86,0,0,0,8.13-2.76l3-1.12C58.06,2,66.45,2.11,74.7,4.23c-2.46,2-5.59,2.91-8.13,4.79a83.54,83.54,0,0,0-16.79,4.47C38.62,18.12,30.1,26.19,24,36.68,23.25,38,23,39.53,21.53,40.3Z"/><path class="cls-24" d="M66.49,8.31A9.51,9.51,0,0,1,74.7,4.23,57.33,57.33,0,0,1,93.51,9.07C99.73,12.8,106.2,16.12,112,20.6c8.38,6.48,13.82,14.95,17.54,24.69q1.51,5.49,3.05,11a64.52,64.52,0,0,1-.88,18c-2,8.62-6.5,16.13-10.36,23.94-1.51-2.67-1-5.13.27-7.83,1-2.16,3.13-4.5.83-7.16-1.69-2.12-.28-4.12.24-6.14,2-7.61,2.42-15.1-1.64-22.26-.91-1.82-1-3.86-1.52-5.79-.52-5.2-4.59-8-7.74-11.41-1.82-1.08-2.38-3.18-3.79-4.6a15.69,15.69,0,0,1-1.23-1.59,23.05,23.05,0,0,0-4.32-5c-.33-.29-.64-.6-.94-.92C99.89,23.83,98.33,22,96,21.19a18.77,18.77,0,0,1-3.35-2.3c-1.58-1.6-4-1.08-5.74-2.32a26.3,26.3,0,0,0-14.57-6C70.2,10.43,68,10.23,66.49,8.31Z"/><path class="cls-25" d="M46.59,3.52C45.1,7.66,41.9,8.74,38.46,6.28,41,4.92,43.53,3.38,46.59,3.52Z"/><path class="cls-26" d="M121.47,54.28c3.53,2.37,3.5,6.21,4,9.81.88,6.67-1.22,12.89-3,19.16-3.34,4.69-6.59,9.46-10,14.07A46.92,46.92,0,0,1,90.05,114c-6.39,2.22-13.18,3-19.54-.81-13.57-6.87-26-15.36-36.59-26.32-4.53-4.67-6.75-10.5-8.37-16.63-2.5-9.84-5-19.68-4-30,1.38-8.17,7.58-13,12.9-18.37C43.23,13,54.37,9.47,66.49,8.31c5.59,1.21,11.56.86,16.69,4,1.65,1,3.7,1.54,4.29,3.75.11,2.54-4.3,3.68-2.11,6.85,1.28.66,1.43,3,3.59,2.33,5.09.91,7.57,5.26,11.06,8.29a22.28,22.28,0,0,1,3.27,4.51,18.7,18.7,0,0,0,1.3,2.09c2.75,3.39,4.29,3.26,6.52-.64a6.83,6.83,0,0,1,1.28-2.07c3.94,2.69,7.73,5.48,8.09,10.83-1,.54-1.78,0-2.6-.43-1.12-.67-2.43-1.83-3.55-.65-1.53,1.61-1.26,3.63-.08,5.47C115.85,56.88,118.55,56.06,121.47,54.28Z"/><path class="cls-2" d="M25.55,70.27C32.23,87.8,46.71,97.6,61.74,106.89c3.07,1.9,6.39,3.47,8.77,6.33-5.88.12-10.78-3-16-5-4.85-3.92-9.75-7.78-14.55-11.77C31.75,89.63,25.74,81.54,25.55,70.27Z"/><path class="cls-27" d="M30.51,100.71c0-.5,0-1,0-1.49l9.22,7.17C36.13,105.38,32.81,103.87,30.51,100.71Z"/><path class="cls-28" d="M88.81,26.16c-2.89,1.24-2.59-1.8-3.8-2.83-1-3.76,1.11-6.61,4.83-6.51,1.61,0,2.76,1.1,4.16,1.55l1.94,1.92c2.78.93,4.11,3.73,6.56,5.07l-.06-.05a38,38,0,0,0,5.57,6,1.75,1.75,0,0,0,.42.48A55.47,55.47,0,0,0,111.09,37c1.23,2.12.73,3.63-1,5.08-2,1.66-3.53.83-5.07-.74-1-1-1.73-2.37-3-3.12l-2.42-3.53C96.54,31.15,94.55,26.32,88.81,26.16Z"/><path class="cls-29" d="M118.46,47.29l2,1c1.15,1.86,1,3.93,1,6-4.11,5.23-4.77,5.14-8-1.05a4.86,4.86,0,0,1-.71-2.79C112.75,46.11,114.3,45.27,118.46,47.29Z"/><path class="cls-30" d="M102,38.26c1.83,0,2.29,1.67,3.27,2.67,1.37,1.41,2.72,1.66,4.35.53s1.53-2.58.9-4.31-2.7-3-2-5.32l3.95,5.64c.6,3.34-1,5.92-4,6.43C104.64,44.54,103.3,41.11,102,38.26Z"/><path class="cls-31" d="M94,18.37c-7.1-1.35-8.21-.74-9,5a3.36,3.36,0,0,1-.57-4.91,26.59,26.59,0,0,1,3-2.31C89.94,16,92.41,15.94,94,18.37Z"/><path class="cls-32" d="M108,31.35a9.5,9.5,0,0,1-5.57-6C105.06,26.63,106.66,28.87,108,31.35Z"/><path class="cls-33" d="M102.5,25.36c-3-.7-4.61-3.07-6.56-5.07C99.14,20.66,101,22.84,102.5,25.36Z"/><path class="cls-34" d="M88.81,26.16c-.38-1.74.51-2.34,1.85-1.48,3.88,2.5,7.39,5.4,8.87,10C95.66,32.25,94,27,88.81,26.16Z"/></g></g></svg>