<?xml version="1.0" standalone="no"?><!DOCTYPE svg PUBLIC "-//W3C//DTD SVG 1.1//EN" "http://www.w3.org/Graphics/SVG/1.1/DTD/svg11.dtd"><svg t="1755499864439" class="icon" viewBox="0 0 1024 1024" version="1.1" xmlns="http://www.w3.org/2000/svg" p-id="4994" xmlns:xlink="http://www.w3.org/1999/xlink" width="200" height="200"><path d="M824.515155 243.164159c-16.249079 0-31.582299 4.389984-44.734854 12.033058l0-56.767911c0-49.345871-40.10337-89.468684-89.468684-89.468684-18.438954 0-35.519981 5.591345-49.800219 15.155165-12.236696-34.83539-45.433772-59.890019-84.405365-59.890019-38.968523 0-72.189136 25.054629-84.420715 59.890019-14.21884-9.56382-31.343869-15.155165-49.7818-15.155165-49.343825 0-89.467661 40.122813-89.467661 89.468684l0 329.831031-60.22157-104.365976c-11.664667-21.25407-30.735002-36.369326-53.626361-42.637076-22.321378-6.072299-45.541219-2.863211-65.399499 9.041934-40.582277 24.332175-56.048527 79.356372-34.444487 122.669854 1.333368 2.708692 29.879518 61.160965 118.979812 239.312434 41.960671 83.877339 88.004333 143.902434 136.845715 178.239474 38.334073 26.956955 64.831564 28.353768 69.746504 28.353768l223.674269 0c38.047548 0 73.438593-12.362562 105.236809-36.785811 29.794583-22.935362 55.745628-56.136531 76.933183-98.596576 41.765219-83.532485 63.869656-199.123107 63.869656-334.333578L914.029888 332.587817c0-49.342802-40.148395-89.469708-89.467661-89.469708L824.515155 243.164159zM869.250008 489.203808c0 128.264269-20.444635 236.908688-59.150168 314.276776-25.255197 50.504254-70.422909 110.702288-142.157697 110.702288l-223.234247 0c-1.726318-0.130983-20.576641-2.228761-48.974411-23.502273-28.308743-21.186532-71.795163-65.835428-118.017904-158.318772-90.669022-181.384094-118.541837-238.506069-118.803803-239.050468-0.041956-0.089028-0.041956-0.130983-0.085958-0.176009-11.228739-22.499433-3.276626-51.988048 17.388019-64.36903 9.304923-5.593392 20.180622-7.057743 30.645974-4.239558 11.138688 3.036149 20.488637 10.552334 26.253944 21.100574 0.10847 0.130983 0.198521 0.326435 0.284479 0.458441l69.829392 121.009028c14.264888 26.079982 30.319539 37.004799 47.730071 32.593326 17.452487-4.414543 26.253944-21.889543 26.253944-51.770084L377.211643 198.429305c0-24.64019 20.09671-44.734854 44.732807-44.734854 24.642237 0 44.738947 20.094664 44.738947 44.734854l0 290.774503c0 12.342096 10.021238 22.367427 22.366404 22.367427 12.341073 0 22.36538-10.025331 22.36538-22.367427L511.415181 153.694451c0-24.641213 20.09671-44.73383 44.735877-44.73383 24.638143 0 44.735877 20.092617 44.735877 44.73383l0 335.509357c0 12.342096 10.002818 22.367427 22.36538 22.367427 12.363585 0 22.367427-10.025331 22.367427-22.367427L645.619742 198.429305c0-24.64019 20.098757-44.734854 44.73383-44.734854 24.63712 0 44.735877 20.094664 44.735877 44.734854l0 335.509357c0 12.319583 10.001795 22.367427 22.367427 22.367427 12.363585 0 22.366404-10.047844 22.366404-22.367427L779.82328 332.632843c0-24.641213 20.09671-44.73383 44.735877-44.73383 24.635073 0 44.731784 20.092617 44.731784 44.73383l0 156.570965L869.250008 489.203808z" p-id="4995"></path></svg>