<svg xmlns="http://www.w3.org/2000/svg" viewBox="0 0 61.92 50.29"><defs><style>.cls-1{fill:#fde003;}.cls-2{fill:#faae1a;}.cls-3{fill:#fec30f;}.cls-4{fill:#fddc04;}</style></defs><title>资源 1</title><g id="图层_2" data-name="图层 2"><g id="图层_1-2" data-name="图层 1"><path class="cls-1" d="M2.13,16.52C4.07,6.87,9.57,1.57,20.39.33c14.09-1.62,26.38,2.74,36,13.37,6.18,6.85,7.44,14.72,2.66,23.07-2.18,3.89-6,5.54-9.88,6.9-15.24,5.38-37.05-2.83-45-16.85C2.3,23.64,1,20.3,2.13,16.52Z"/><path class="cls-2" d="M2.13,16.52c.64,10,6.39,16.79,14.61,21.46,9,5.12,18.69,7.72,29.23,5.57,5-1,9.08-3.78,13-6.78-1.31,7.82-6.85,11.44-13.81,12.7C29.81,52.28,16.42,47.83,5.54,36.6-.66,30.2-1.44,24,2.13,16.52Z"/><path class="cls-3" d="M26.11,5.29c9.72.57,18.72,3.19,25.24,10.86,5.95,7,6.93,13.14-.62,19.37-3.54,2.92-8.21,3.57-12.66,3.42-9.23-.29-17.47-3.39-24-10.14-4.15-4.25-7.54-9.09-4.64-15.25,2.69-5.74,8.17-7.62,14.1-8.25A25.44,25.44,0,0,1,26.11,5.29Z"/><path class="cls-4" d="M41,18.67c-.35,3.7-3.48,8.41-8.19,6.49-2.36-1-3.77-.2-4.31,2.3-.3,1.38-.79,3-2.59,2.32-2.07-.76-1-2.33-.51-3.74,1.49-4.18,3-8.37,4.3-12.61.62-2,1.57-2.21,3.28-1.34s3.69,1.46,5.39,2.44C39.86,15.4,41.21,16.6,41,18.67Z"/></g></g></svg>