<svg xmlns="http://www.w3.org/2000/svg" viewBox="0 0 31.65 39.71"><defs><style>.cls-1{fill:#fcde05;}.cls-2{fill:#f9af1b;}.cls-3{fill:#fec40f;}.cls-4{fill:#fdd606;}</style></defs><title>资源 3</title><g id="图层_2" data-name="图层 2"><g id="图层_1-2" data-name="图层 1"><path class="cls-1" d="M5.16,37.23C1.55,36.33.38,33.56.08,30.29-.86,20.13,7,6.15,16.08,1.4c4-2.07,7.57-2,10.86,1.26,2.93,3.5,2.24,7.71,1.37,11.42-2,8.67-6.38,16.12-13.78,21.49C11.64,37.66,8.65,38.72,5.16,37.23Z"/><path class="cls-2" d="M5.16,37.23c7.27.49,11.65-4,15.51-9.18,5.59-7.57,8.88-15.76,6.27-25.39,3.67,1.24,4.81,4.31,4.7,7.63-.41,12-5.77,21.4-15.91,27.85C12.15,40.41,8.45,40.32,5.16,37.23Z"/><path class="cls-3" d="M24.71,12.12C23.8,19.84,19.65,26.87,12.39,32c-2.13,1.5-4.71,2.21-7,.8s-2.48-3.95-2.3-6.36C3.77,17.25,8.48,10.19,15.75,5,20.64,1.57,24.73,4.5,24.71,12.12Z"/><path class="cls-4" d="M16.48,16.94c-.27,1.44-1.67,3.5.51,5.61.59.57-1.07,1.34-1.76.95a49.23,49.23,0,0,1-6.15-4c-1.38-1.06-.33-2.36.39-3.25,1.38-1.69,2.72-3.71,5.45-3C16.46,13.71,16.5,15,16.48,16.94Z"/></g></g></svg>