<svg xmlns="http://www.w3.org/2000/svg" viewBox="0 0 40.89 27.9"><defs><style>.cls-1{fill:#fec40f;}.cls-2{fill:#fcdc06;}.cls-3{fill:#f8af1d;}</style></defs><title>资源 5</title><g id="图层_2" data-name="图层 2"><g id="图层_1-2" data-name="图层 1"><path class="cls-1" d="M27.9,3.19a9.11,9.11,0,0,1,5.42,2.75c.62,1.76,2.4,2.45,3.49,3.79,3.43,4.15,2.45,9.12-2.35,11.52-8.07,4-23.8.24-29.06-7C1.73,9.19,4.1,3.23,10.51,1.6a25.15,25.15,0,0,1,15.3,1.27C26.52,3.14,27.13,3.58,27.9,3.19Z"/><path class="cls-2" d="M27.9,3.19c-3.23.85-6.12-1-9.25-1.28a19.51,19.51,0,0,0-10,1.5C4.1,5.5,3.12,10.5,6.56,14.14a24,24,0,0,0,15.37,7.51c3.71.35,7.52.57,11.35-.89,4.78-1.83,6.24-6.87,2.55-11-1-1.11-3.07-1.65-2.51-3.83,4.33,2.9,8.61,5.84,7.34,12.15a8.27,8.27,0,0,1-7,6.75c-11.35,2.28-21.35-.55-29.85-8.39C1.49,14.29,0,11.54.9,8.1,1.22,3.32,4.72,1.71,8.56.78A27.82,27.82,0,0,1,27.9,3.19Z"/><path class="cls-3" d="M.9,8.1a10.14,10.14,0,0,0,4,8.1c7.83,6.64,16.77,9.62,27.14,8,4-.64,6.86-2.45,8.61-6.07,0,4.38-2.73,6.73-6.39,8.24C24.37,30.4,9,26.24,2.44,17.77.19,14.85-.9,11.7.9,8.1Z"/></g></g></svg>